<?xml version="1.0" standalone="no"?>
<!DOCTYPE svg PUBLIC "-//W3C//DTD SVG 1.1//EN" "http://www.w3.org/Graphics/SVG/1.1/DTD/svg11.dtd" >
<svg>
<metadata>
Created by FontForge 20090914 at Thu Feb  4 19:29:00 2016
 By www-data
(c) Copyright The Font Bureau, Inc. 2014. All rights reserved.
</metadata>
<defs>
<font id="InputMonoCompressed-Regular" horiz-adv-x="585" >
  <font-face 
    font-family="InputMonoCompressed"
    font-weight="400"
    font-stretch="extra-condensed"
    units-per-em="1100"
    panose-1="2 0 5 9 2 0 0 9 0 4"
    ascent="850"
    descent="-250"
    x-height="599.999"
    cap-height="800"
    bbox="-186 -450 733.998 1400"
    underline-thickness="0"
    underline-position="0"
    unicode-range="U+000D-U+1F41B"
  />
<missing-glyph 
d="M50 -250v1100h485v-1100h-485zM150 -150h285v900h-285v-900z" />
    <glyph glyph-name=".notdef" 
d="M50 -250v1100h485v-1100h-485zM150 -150h285v900h-285v-900z" />
    <glyph glyph-name="NULL" horiz-adv-x="0" 
 />
    <glyph glyph-name="nonmarkingreturn" unicode="&#xd;" horiz-adv-x="0" 
 />
    <glyph glyph-name="space" unicode="&#xa0;" 
 />
    <glyph glyph-name="space" unicode=" " 
 />
    <glyph glyph-name="exclam" unicode="!" 
d="M262 300l-23 500h121l-23 -500h-75zM301 -10c-27.333 0 -47.5 6.83301 -60.5 20.5s-19.5 34.834 -19.5 63.501v28c0 29.333 6.5 51 19.5 65s33.167 21 60.5 21s47.5 -7 60.5 -21s19.5 -35.667 19.5 -65v-28c0 -28.667 -6.66699 -49.834 -20 -63.501
s-33.333 -20.5 -60 -20.5z" />
    <glyph glyph-name="quotedbl" unicode="&#x22;" 
d="M370 408l-23 392h132l-23 -392h-86zM129 408l-23 392h133l-24 -392h-86z" />
    <glyph glyph-name="numbersign" unicode="#" 
d="M339 288l8 224h-101l-8 -224h101zM328 0l8 205h-101l-8 -205h-77l8 205h-98v83h101l8 224h-109v83h112l8 205h77l-8 -205h101l8 205h77l-8 -205h98v-83h-101l-8 -224h109v-83h-112l-8 -205h-77z" />
    <glyph glyph-name="dollar" unicode="$" 
d="M177 580c0 -30.667 6.00098 -55.001 18.001 -73.001s36 -35 72 -51v217c-32.667 -2 -55.834 -10.167 -69.501 -24.5s-20.5 -37.166 -20.5 -68.499zM413.001 223.999c0 29.333 -6.33301 52.833 -19 70.5s-38 34.834 -76 51.501v-227
c30.667 1.33301 54.167 10.666 70.5 27.999s24.5 43 24.5 77zM326.001 -50.001l-66.9971 0.00195312v97c-32.667 3.33301 -63.834 10.666 -93.501 21.999s-54.834 26.333 -75.501 45l24 73c22.667 -18.667 47.167 -33.5 73.5 -44.5s52.833 -17.833 79.5 -20.5v243
c-64 22.667 -108.5 49.334 -133.5 80.001s-37.5 72 -37.5 124c0 58 14.167 101.833 42.5 131.5s68.5 46.834 120.5 51.501v98h67v-99c28 -2.66699 55.167 -8.83398 81.5 -18.501s48.166 -21.5 65.499 -35.5l-23 -77c-20.667 14.667 -42.167 26.167 -64.5 34.5
s-44.833 13.833 -67.5 16.5v-234c66 -24.667 112 -52 138 -82s39 -69.667 39 -119c0 -56.667 -14.667 -101.334 -44 -134.001s-71 -51.334 -125 -56.001v-96z" />
    <glyph glyph-name="percent" unicode="%" 
d="M192 468c-40 0 -72.5 12.667 -97.5 38s-37.5 64.333 -37.5 117v50c0 50 12.5 87 37.5 111s57.5 36 97.5 36s72.333 -12 97 -36s37 -61 37 -111v-50c0 -52.667 -12.333 -91.667 -37 -117s-57 -38 -97 -38zM192 539c16.667 0 29.834 6.5 39.501 19.5s14.5 33.833 14.5 62.5
v54c0 25.333 -4.83301 44 -14.5 56s-22.834 18 -39.501 18s-30 -6 -40 -18s-15 -30.667 -15 -56v-54c0 -28.667 5 -49.5 15 -62.5s23.333 -19.5 40 -19.5zM20 266l515 320l30 -59l-516 -320zM393 -22c-40 0 -72.5 11.833 -97.5 35.5s-37.5 60.167 -37.5 109.5v60
c0 50 12.5 87 37.5 111s57.5 36 97.5 36s72.333 -12 97 -36s37 -61 37 -111v-60c0 -49.333 -12.333 -85.833 -37 -109.5s-57 -35.5 -97 -35.5zM393 49c16.667 0 29.834 5.66699 39.501 17s14.5 29.666 14.5 54.999v64c0 25.333 -4.83301 44 -14.5 56s-22.834 18 -39.501 18
s-30 -6 -40 -18s-15 -30.667 -15 -56v-64c0 -25.333 5 -43.666 15 -54.999s23.333 -17 40 -17z" />
    <glyph glyph-name="ampersand" unicode="&#x26;" 
d="M538 -3c-27.333 10.667 -54.8359 25.167 -82.5029 43.5s-54.167 39.5 -79.5 63.5c-20.667 -34 -44.667 -61.5 -72 -82.5s-58 -31.5 -92 -31.5c-46 0 -83.167 16.833 -111.5 50.5s-42.5 83.834 -42.5 150.501c0 55.333 10 101.833 30 139.5s45 68.5 75 92.5
c-11.333 32 -20.333 63.667 -27 95s-10 61.333 -10 90c0 66.667 12.167 117.167 36.5 151.5s59.833 51.5 106.5 51.5c44 0 77.667 -15.333 101 -46s35 -67 35 -109c0 -54.667 -11.167 -100 -33.5 -136s-62.5 -72 -120.5 -108c4.66699 -12 9.83398 -24 15.501 -36
s11.834 -24 18.501 -36c12 -22 24.667 -43.167 38 -63.5s27.333 -39.5 42 -57.5c13.333 28.667 26.333 60.5 39 95.5s24.334 72.5 35.001 112.5l69 -41c-8.66699 -28.667 -21.167 -59.834 -37.5 -93.501s-38.833 -76.167 -67.5 -127.5l149 -84zM205.997 602
c0 -20.667 2.16699 -42.501 6.5 -65.501s10.5 -46.5 18.5 -70.5c32.667 20.667 57.667 44.334 75 71.001s26 58 26 94c0 28 -5.5 51.667 -16.5 71s-25.833 29 -44.5 29c-22.667 0 -39.167 -10.5 -49.5 -31.5s-15.5 -53.5 -15.5 -97.5zM225.997 69.999
c18 0 35.6699 7.16699 53.0029 21.5s34.333 34.5 51 60.5c-16.667 18.667 -32.834 38.334 -48.501 59.001s-30.167 41.667 -43.5 63c-9.33301 14.667 -18.333 29.667 -27 45s-16.334 30.666 -23.001 45.999c-16.667 -20.667 -28.834 -45.667 -36.501 -75
s-11.5 -59.666 -11.5 -90.999c0 -40.667 7.5 -72.334 22.5 -95.001s36.167 -34 63.5 -34z" />
    <glyph glyph-name="quotesingle" unicode="'" 
d="M250 408l-24 392h133l-24 -392h-85z" />
    <glyph glyph-name="parenleft" unicode="(" 
d="M447 -210c-89.333 25.333 -157.5 81.502 -204.5 168.502s-70.5 200.833 -70.5 341.5s23.5 254.5 70.5 341.5s115.167 143.167 204.5 168.5l9 -70c-62.667 -22.667 -110.5 -71.5 -143.5 -146.5s-49.5 -172.833 -49.5 -293.5s16.5 -218.834 49.5 -294.501
s80.833 -124.834 143.5 -147.501z" />
    <glyph glyph-name="parenright" unicode=")" 
d="M138 -210l-9 67.998c62.667 22.667 110.5 71.834 143.5 147.501s49.5 173.834 49.5 294.501s-16.5 218.5 -49.5 293.5s-80.833 123.833 -143.5 146.5l9 70c89.333 -25.333 157.5 -81.5 204.5 -168.5s70.5 -200.833 70.5 -341.5s-23.5 -254.5 -70.5 -341.5
s-115.167 -143.167 -204.5 -168.5z" />
    <glyph glyph-name="asterisk" unicode="*" 
d="M463 342l-147 136l24 -218h-97l25 217l-146 -135l-49 88l172 101l-172 101l49 88l146 -136l-25 216h97l-24 -216l147 136l48 -88l-172 -101l172 -101z" />
    <glyph glyph-name="plus" unicode="+" 
d="M250 42v263h-169v90h169v263h85v-263h169v-90h-169v-263h-85z" />
    <glyph glyph-name="comma" unicode="," 
d="M176 -208l65 392h162l-157 -392h-70z" />
    <glyph glyph-name="hyphen" unicode="&#x2011;" 
d="M81 305v89h423v-89h-423z" />
    <glyph glyph-name="hyphen" unicode="&#x2010;" 
d="M81 305v89h423v-89h-423z" />
    <glyph glyph-name="hyphen" unicode="&#xad;" 
d="M81 305v89h423v-89h-423z" />
    <glyph glyph-name="hyphen" unicode="-" 
d="M81 305v89h423v-89h-423z" />
    <glyph glyph-name="period" unicode="." 
d="M293 -10c-26.667 0 -48.334 7 -65.001 21s-25 36.333 -25 67v25c0 31.333 8.33301 54.166 25 68.499s38.334 21.5 65.001 21.5s48.167 -7.16699 64.5 -21.5s24.5 -37.166 24.5 -68.499v-25c0 -30.667 -8.33301 -53 -25 -67s-38 -21 -64 -21z" />
    <glyph glyph-name="slash" unicode="/" 
d="M100 -200l300 1000h85l-300 -1000h-85z" />
    <glyph glyph-name="zero" unicode="0" 
d="M293 -10c-67.333 0 -118.833 28.167 -154.5 84.5s-53.5 138.166 -53.5 245.499v156c0 108.667 17.833 191.5 53.5 248.5s87.167 85.5 154.5 85.5s118.666 -28.5 153.999 -85.5s53 -139.833 53 -248.5v-156c0 -107.333 -17.667 -189.166 -53 -245.499
s-86.666 -84.5 -153.999 -84.5zM293 72c43.333 0 74 18.5 92 55.5s27 100.167 27 189.5v162c0 90.667 -9 154.834 -27 192.501s-48.667 56.5 -92 56.5c-44 0 -75 -18.833 -93 -56.5s-27 -101.834 -27 -192.501v-162c0 -89.333 9 -152.5 27 -189.5s49 -55.5 93 -55.5z
M293 324c-16.667 0 -29.834 3.66699 -39.501 11s-14.5 21.333 -14.5 42v45c0 20 4.83301 33.833 14.5 41.5s22.834 11.5 39.501 11.5c16 0 28.833 -3.83301 38.5 -11.5s14.5 -21.5 14.5 -41.5v-45c0 -20.667 -5 -34.667 -15 -42s-22.667 -11 -38 -11z" />
    <glyph glyph-name="one" unicode="1" 
d="M120 0v80.001h161v610h-21c-12 -30.667 -32.167 -54.334 -60.5 -71.001s-59.5 -23 -93.5 -19l-7 90c37.333 -1.33301 73 8.16699 107 28.5s60 47.5 78 81.5h88v-720h146v-80h-398z" />
    <glyph glyph-name="two" unicode="2" 
d="M85 0v171c0 63.333 10.167 110.666 30.5 141.999s57.5 58.333 111.5 81l96 40c28 10 48 23.833 60 41.5s18 43.167 18 76.5v45c0 46.667 -8.5 80.167 -25.5 100.5s-44.5 30.5 -82.5 30.5c-40 0 -67 -11.5 -81 -34.5s-23.333 -71.167 -28 -144.5l-91 10
c4 92 21 156.833 51 194.5s79.333 56.5 148 56.5c67.333 0 117.5 -16.667 150.5 -50s49.5 -83.666 49.5 -150.999v-70c0 -50 -10.167 -88.667 -30.5 -116s-56.5 -52 -108.5 -74l-96 -40c-30 -10.667 -51 -26.5 -63 -47.5s-18 -50.5 -18 -88.5v-93h324v-80h-415z" />
    <glyph glyph-name="three" unicode="3" 
d="M287 -10c-77.333 0 -130.67 18.668 -160.003 56.001s-45.666 93.666 -48.999 168.999l91 10c4.66699 -62.667 14.834 -104.5 30.501 -125.5s44.834 -31.5 87.501 -31.5c44.667 0 76.167 11.167 94.5 33.5s27.5 60.5 27.5 114.5v27c0 54 -8.33301 91.333 -25 112
s-47 31 -91 31h-77v81h77c38 0 64.333 8.16699 79 24.5s22 45.5 22 87.5v32c0 44 -8 75.167 -24 93.5s-43.333 27.5 -82 27.5c-35.333 0 -60.5 -10.167 -75.5 -30.5s-24.5 -57.5 -28.5 -111.5l-91 10c3.33301 74.667 20.666 128.334 51.999 161.001s78 49 140 49
c60 0 108.333 -16.167 145 -48.5s55 -83.5 55 -153.5v-34c0 -39.333 -10.5 -70.5 -31.5 -93.5s-49.167 -35.833 -84.5 -38.5v-29c41.333 -4.66699 73.5 -23.334 96.5 -56.001s34.5 -70 34.5 -112v-28c0 -70 -16.667 -125.333 -50 -166s-87.666 -61 -162.999 -61z" />
    <glyph glyph-name="four" unicode="4" 
d="M170 294h186v378zM537 212h-90v-212h-91v212h-278v82l245 506h124v-506h90v-82z" />
    <glyph glyph-name="five" unicode="5" 
d="M285 -10c-76 0 -128.667 16.001 -158 48.001s-45.666 91.333 -48.999 178l91 10c3.33301 -64 12.5 -105.667 27.5 -125s44.5 -29 88.5 -29c46 0 78.167 11.667 96.5 35s27.5 58 27.5 104v51c0 45.333 -7.5 80.166 -22.5 104.499s-40.833 36.5 -77.5 36.5h-209v397h371
v-82h-280v-228h129c57.333 0 101.666 -17.667 132.999 -53s47 -92 47 -170v-63c0 -66 -17.833 -118.167 -53.5 -156.5s-89.5 -57.5 -161.5 -57.5z" />
    <glyph glyph-name="six" unicode="6" 
d="M293 -10c-68.667 0 -120.501 23.998 -155.501 71.998s-52.5 119.333 -52.5 214v263c0 90.667 17.5 158.5 52.5 203.5s87.167 67.5 156.5 67.5c63.333 0 109.833 -13.667 139.5 -41s49.5 -73.333 59.5 -138l-98 -23c-7.33301 48 -18.166 80 -32.499 96s-38.5 24 -72.5 24
c-41.333 0 -70.666 -14.5 -87.999 -43.5s-26 -77.5 -26 -145.5v-118h12c13.333 26.667 30 46.334 50 59.001s45.667 19 77 19c64 0 110.833 -22.167 140.5 -66.5s44.5 -101.166 44.5 -170.499v-22c0 -82.667 -17.333 -145 -52 -187s-86.334 -63 -155.001 -63z
M291.999 71.998c40 0 69.167 13.167 87.5 39.5s27.5 68.166 27.5 125.499v13c0 57.333 -9.16699 99 -27.5 125s-47.5 39 -87.5 39s-69.333 -13 -88 -39s-28 -67.667 -28 -125v-13c0 -57.333 9.33301 -99.166 28 -125.499s48 -39.5 88 -39.5z" />
    <glyph glyph-name="seven" unicode="7" 
d="M210 0c30.667 190 58.668 330.333 84.001 421s63.666 186.334 114.999 287.001h-324v92h415v-92c-55.333 -122.667 -96.333 -232.834 -123 -330.501s-49.667 -223.5 -69 -377.5h-98z" />
    <glyph glyph-name="eight" unicode="8" 
d="M293 -10c-72.667 0 -125.499 17.001 -158.499 51.001s-49.5 88.667 -49.5 164v22c0 50.667 10.5 92.167 31.5 124.5s50.5 50.833 88.5 55.5v29c-30 3.33301 -55 18.5 -75 45.5s-30 62.5 -30 106.5v32c0 66 15.333 114.167 46 144.5s79.667 45.5 147 45.5
s116.166 -15.167 146.499 -45.5s45.5 -78.5 45.5 -144.5v-32c0 -44 -10 -79.5 -30 -106.5s-45 -42.167 -75 -45.5v-29c38 -4.66699 67.5 -23.334 88.5 -56.001s31.5 -74 31.5 -124v-22c0 -75.333 -16.5 -130 -49.5 -164s-85.5 -51 -157.5 -51zM293.001 461.001
c38 0 64.333 9 79 27s22 49.667 22 95v28c0 45.333 -7.33301 76.833 -22 94.5s-41 26.5 -79 26.5s-64.5 -8.83301 -79.5 -26.5s-22.5 -49.167 -22.5 -94.5v-28c0 -45.333 7.5 -77 22.5 -95s41.5 -27 79.5 -27zM293.001 68.001c43.333 0 73.5 10.833 90.5 32.5
s25.5 59.5 25.5 113.5v18c0 54.667 -8.5 92.834 -25.5 114.501s-47.167 32.5 -90.5 32.5c-44 0 -74.5 -10.833 -91.5 -32.5s-25.5 -59.834 -25.5 -114.501v-18c0 -54 8.5 -91.833 25.5 -113.5s47.5 -32.5 91.5 -32.5z" />
    <glyph glyph-name="nine" unicode="9" 
d="M293 386c40.667 0 70.167 12.833 88.5 38.5s27.5 67.5 27.5 125.5v13c0 58 -9.16699 100 -27.5 126s-47.833 39 -88.5 39c-40 0 -69.167 -13 -87.5 -39s-27.5 -68 -27.5 -126v-13c0 -58 9.16699 -99.833 27.5 -125.5s47.5 -38.5 87.5 -38.5zM291 -10
c-63.333 0 -109.831 13.834 -139.498 41.501s-49.5 73.5 -59.5 137.5l98 23c7.33301 -48 18.166 -80 32.499 -96s38.5 -24 72.5 -24c41.333 0 70.666 14.5 87.999 43.5s26 77.5 26 145.5v118h-12c-10 -24.667 -25.833 -43.834 -47.5 -57.501s-48.167 -20.5 -79.5 -20.5
c-61.333 0 -107.5 20 -138.5 60s-46.5 99 -46.5 177v22c0 82.667 17.5 145 52.5 187s86.833 63 155.5 63c68 0 119.5 -24.167 154.5 -72.5s52.5 -119.5 52.5 -213.5v-263c0 -89.333 -17.667 -156.833 -53 -202.5s-87.333 -68.5 -156 -68.5z" />
    <glyph glyph-name="colon" unicode=":" 
d="M293 398c-26 0 -47.1689 6.33301 -63.502 19s-24.5 33.334 -24.5 62.001v39c0 29.333 8.16699 50.666 24.5 63.999s37.5 20 63.5 20c26.667 0 47.834 -6.66699 63.501 -20s23.5 -34.666 23.5 -63.999v-39c0 -28.667 -8.16699 -49.334 -24.5 -62.001
s-37.166 -19 -62.499 -19zM292.998 -11c-26 0 -47.1689 6.5 -63.502 19.5s-24.5 33.833 -24.5 62.5v39c0 28.667 8.16699 49.667 24.5 63s37.5 20 63.5 20c26.667 0 47.834 -6.66699 63.501 -20s23.5 -34.333 23.5 -63v-39c0 -28.667 -8.16699 -49.5 -24.5 -62.5
s-37.166 -19.5 -62.499 -19.5z" />
    <glyph glyph-name="semicolon" unicode=";" 
d="M293 398c-26 0 -47.1689 6.33301 -63.502 19s-24.5 33.334 -24.5 62.001v39c0 29.333 8.16699 50.666 24.5 63.999s37.5 20 63.5 20c26.667 0 47.834 -6.66699 63.501 -20s23.5 -34.666 23.5 -63.999v-39c0 -28.667 -8.16699 -49.334 -24.5 -62.001
s-37.166 -19 -62.499 -19zM178.998 -212l63 400h159l-155 -400h-67z" />
    <glyph glyph-name="less" unicode="&#x3c;" 
d="M482 23l-379 284v86l379 284v-86l-322 -241l322 -241v-86z" />
    <glyph glyph-name="equal" unicode="=" 
d="M81 422v90h423v-90h-423zM81 188v90h423v-90h-423z" />
    <glyph glyph-name="greater" unicode="&#x3e;" 
d="M103 23v87l319 240l-319 240v87l379 -282v-90z" />
    <glyph glyph-name="question" unicode="?" 
d="M233 321l-15.001 73c87.333 18.667 145.5 39.667 174.5 63s43.5 55 43.5 95v32c0 50 -10.667 86.5 -32 109.5s-55.666 34.5 -102.999 34.5c-53.333 0 -89.333 -11.833 -108 -35.5s-30 -71.5 -34 -143.5l-91 10c4 93.333 23 158.5 57 195.5s92.333 55.5 175 55.5
c73.333 0 129.333 -18.333 168 -55s58 -89.667 58 -159v-48c0 -64 -21.667 -112.667 -65 -146s-119.333 -60.333 -228 -81zM265.999 -10c-26.667 0 -46.665 6.83301 -59.998 20.5s-20 34.834 -20 63.501v28c0 29.333 6.66699 51 20 65s33.333 21 60 21
c27.333 0 47.666 -7 60.999 -21s20 -35.667 20 -65v-28c0 -28.667 -6.83301 -49.834 -20.5 -63.501s-33.834 -20.5 -60.501 -20.5z" />
    <glyph glyph-name="at" unicode="@" 
d="M348 -110c-88 0 -156.335 25.332 -205.002 75.999s-73 121.667 -73 213v358c0 82.667 19 148.834 57 198.501s95.333 74.5 172 74.5c71.333 0 126 -26.667 164 -80s57 -124.333 57 -213v-245c0 -51.333 -12.667 -91.166 -38 -119.499s-61 -42.5 -107 -42.5
s-80 14.167 -102 42.5s-33 68.166 -33 119.499v142c0 50 10.333 90.167 31 120.5s45.667 45.5 75 45.5c19.333 0 34.5 -4.5 45.5 -13.5s19.833 -19.5 26.5 -31.5h20c-1.33301 63.333 -13.166 112.333 -35.499 147s-57.166 52 -104.499 52
c-52 0 -88.833 -17.167 -110.5 -51.5s-32.5 -82.833 -32.5 -145.5v-358c0 -67.333 14.833 -119.666 44.5 -156.999s79.167 -56 148.5 -56c29.333 0 57.333 3.5 84 10.5s49.334 14.167 68.001 21.5v-78c-17.333 -6.66699 -40.333 -13.334 -69 -20.001
s-56.334 -10 -83.001 -10zM378.998 189.999c17.333 0 31 5.66699 41 17s15 35 15 71v134c0 30.667 -5.33301 53 -16 67s-24 21 -40 21c-17.333 0 -30.666 -7 -39.999 -21s-14 -36.667 -14 -68v-132c0 -32 4.66699 -54.833 14 -68.5s22.666 -20.5 39.999 -20.5z" />
    <glyph glyph-name="A" unicode="A" 
d="M371 318l-79 374l-80 -374h159zM438 0l-50 238h-193l-51 -238h-89l187 800h101l187 -800h-92z" />
    <glyph glyph-name="B" unicode="B" 
d="M97 0v800.002h197c62 0 108.5 -15.667 139.5 -47s46.5 -78.333 46.5 -141v-47c0 -32.667 -8.33301 -60.334 -25 -83.001s-39.667 -37.334 -69 -44.001v-29c35.333 -4.66699 63.5 -21.667 84.5 -51s31.5 -66.333 31.5 -111v-44c0 -67.333 -17.167 -118 -51.5 -152
s-85.5 -51 -153.5 -51h-200zM188 457.002h107c34 0 58.333 9.16699 73 27.5s22 48.5 22 90.5v25c0 42 -7.33301 72.167 -22 90.5s-39 27.5 -73 27.5h-107v-261zM188 82.002l118 -0.00195312c37.333 0 64.166 10.333 80.499 31s24.5 54.334 24.5 101.001v29
c0 46.667 -8.16699 80.334 -24.5 101.001s-43.166 31 -80.499 31h-118v-293z" />
    <glyph glyph-name="C" unicode="C" 
d="M302 -10c-71.333 0 -125.333 22.668 -162 68.001s-55 112.333 -55 201v278c0 90 18.333 158 55 204s90.667 69 162 69c69.333 0 121.333 -21.833 156 -65.5s54 -111.167 58 -202.5l-90 -10c-4.66699 74.667 -16 126.334 -34 155.001s-48 43 -90 43
c-46 0 -78.5 -14.333 -97.5 -43s-28.5 -77.334 -28.5 -146.001v-286c0 -62 10.5 -108.333 31.5 -139s52.5 -46 94.5 -46s72 13.833 90 41.5s29.333 78.5 34 152.5l90 -10c-4 -90.667 -23.333 -157.334 -58 -200.001s-86.667 -64 -156 -64z" />
    <glyph glyph-name="D" unicode="D" 
d="M97 0v799.999h178c68.667 0 123.334 -24.5 164.001 -73.5s61 -114.833 61 -197.5v-262c0 -81.333 -20.333 -146.166 -61 -194.499s-95.334 -72.5 -164.001 -72.5h-178zM188 79.999h84c44 0 77.833 15.667 101.5 47s35.5 77 35.5 137v268c0 61.333 -11.833 108 -35.5 140
s-57.5 48 -101.5 48h-84v-640z" />
    <glyph glyph-name="E" unicode="E" 
d="M97 0v800h403v-80h-312v-243h274v-81h-274v-316h312v-80h-403z" />
    <glyph glyph-name="F" unicode="F" 
d="M105 0v800h398v-80h-307v-328h254v-80h-254v-312h-91z" />
    <glyph glyph-name="G" unicode="G" 
d="M301 -10c-72.667 0 -126.833 24.501 -162.5 73.501s-53.5 114.167 -53.5 195.5v278c0 89.333 18.167 157.166 54.5 203.499s89.5 69.5 159.5 69.5c66 0 115 -20 147 -60s50 -103.667 54 -191l-91 -10c-3.33301 66 -13.5 112.667 -30.5 140s-44.167 41 -81.5 41
c-44 0 -75.167 -14.333 -93.5 -43s-27.5 -77.334 -27.5 -146.001v-286c0 -66.667 9.83301 -114.167 29.5 -142.5s52.5 -42.5 98.5 -42.5c42 0 72 16.833 90 50.5s27 89.834 27 168.501h-128v80h219v-99c0 -91.333 -17.833 -160.833 -53.5 -208.5s-88.167 -71.5 -157.5 -71.5
z" />
    <glyph glyph-name="H" unicode="H" 
d="M97 0v800h91v-326h209v326h91v-800h-91v393h-209v-393h-91z" />
    <glyph glyph-name="I" unicode="I" 
d="M97 0v80h150v640h-150v80h391v-80h-150v-640h150v-80h-391z" />
    <glyph glyph-name="J" unicode="J" 
d="M280 -10c-71.333 0 -123.333 20.167 -156 60.5s-50.667 107.5 -54 201.5l91 11c4 -76 14 -127.167 30 -153.5s45.667 -39.5 89 -39.5c38 0 66.5 13.833 85.5 41.5s28.5 69.5 28.5 125.5v483h-155v80h246v-560c0 -81.333 -17.5 -143.333 -52.5 -186
s-85.833 -64 -152.5 -64z" />
    <glyph glyph-name="K" unicode="K" 
d="M188 387v-387h-91v800h91v-332h26l213 332h101l-248 -367l246 -433h-103l-206 387h-29z" />
    <glyph glyph-name="L" unicode="L" 
d="M135 0v800h90v-720h263v-80h-353z" />
    <glyph glyph-name="M" unicode="M" 
d="M254 192l-104 467l3 -659h-81v800h109l114 -485l113 485h105v-800h-81l3 655l-104 -463h-77z" />
    <glyph glyph-name="N" unicode="N" 
d="M366 0l-189 691v-691h-80v800h115l196 -690v690h80v-800h-122z" />
    <glyph glyph-name="O" unicode="O" 
d="M293 -10c-67.333 0 -118.833 23.333 -154.5 70s-53.5 114 -53.5 202v272c0 89.333 17.833 157.666 53.5 204.999s87.167 71 154.5 71s118.666 -23.667 153.999 -71s53 -115.666 53 -204.999v-272c0 -88 -17.667 -155.333 -53 -202s-86.666 -70 -153.999 -70zM293 70
c42 0 71.833 14.167 89.5 42.5s26.5 77.166 26.5 146.499v278c0 70.667 -8.83301 120.5 -26.5 149.5s-47.5 43.5 -89.5 43.5c-42.667 0 -72.834 -14.5 -90.501 -43.5s-26.5 -78.833 -26.5 -149.5v-278c0 -69.333 8.83301 -118.166 26.5 -146.499s47.834 -42.5 90.501 -42.5z
" />
    <glyph glyph-name="P" unicode="P" 
d="M97 0v800.001h216c67.333 0 116.333 -16.833 147 -50.5s46 -87.167 46 -160.5v-90c0 -74.667 -15.5 -128.834 -46.5 -162.501s-80.167 -50.5 -147.5 -50.5h-124v-286h-91zM188 364.001l119 -0.000976562c38 0 65.5 10.333 82.5 31s25.5 54.667 25.5 102v91
c0 46.667 -8.5 80.334 -25.5 101.001s-44.5 31 -82.5 31h-119v-356z" />
    <glyph glyph-name="Q" unicode="Q" 
d="M511 -188c-62 -16 -117.171 -14.001 -165.504 5.99902s-73.166 76 -74.499 168c-59.333 4.66699 -105.166 30.5 -137.499 77.5s-48.5 111.5 -48.5 193.5v277c0 88 18.167 156 54.5 204s87.5 72 153.5 72s117 -24 153 -72s54 -116 54 -204v-277
c0 -72.667 -12.667 -131.667 -38 -177s-61.666 -74.333 -108.999 -87c2.66699 -59.333 19.834 -93.166 51.501 -101.499s63.167 -8.5 94.5 -0.5zM292.996 67.999c42 0 71.833 13.833 89.5 41.5s26.5 73.5 26.5 137.5v296c0 67.333 -8.83301 115.333 -26.5 144
s-47.5 43 -89.5 43s-72 -14.333 -90 -43s-27 -76.667 -27 -144v-296c0 -64 9 -109.833 27 -137.5s48 -41.5 90 -41.5z" />
    <glyph glyph-name="R" unicode="R" 
d="M188 393h133c36.667 0 63.5 11 80.5 33s25.5 56.667 25.5 104v62c0 44 -8.5 76.333 -25.5 97s-43.833 31 -80.5 31h-133v-327zM188 0h-91v800h231c62.667 0 109.667 -17.5 141 -52.5s47 -87.167 47 -156.5v-61c0 -62 -11.667 -110.5 -35 -145.5
s-58.333 -56.833 -105 -65.5l150 -319h-101l-147 315h-90v-315z" />
    <glyph glyph-name="S" unicode="S" 
d="M297 -9c-41.333 0 -81.999 7.99707 -121.999 23.9971s-73.667 36.333 -101 61l27 77c30.667 -27.333 63.5 -47.833 98.5 -61.5s70.5 -20.5 106.5 -20.5c40 0 71.167 12.167 93.5 36.5s33.5 57.833 33.5 100.5c0 36 -10.167 64.333 -30.5 85s-62.833 45.667 -127.5 75
c-72 32 -122.333 64.833 -151 98.5s-43 77.5 -43 131.5c0 64 18.333 114.167 55 150.5s87.334 54.5 152.001 54.5c38 0 75.833 -8.33301 113.5 -25s68.167 -37 91.5 -61l-24 -78c-29.333 26.667 -59.833 47.334 -91.5 62.001s-62.834 22 -93.501 22
c-35.333 0 -63 -10.5 -83 -31.5s-30 -49.833 -30 -86.5c0 -34 10.667 -61.167 32 -81.5s65.666 -45.166 132.999 -74.499c69.333 -30 117.833 -61.5 145.5 -94.5s41.5 -76.167 41.5 -129.5c0 -71.333 -20.333 -128.166 -61 -170.499s-95.667 -63.5 -165 -63.5z" />
    <glyph glyph-name="T" unicode="T" 
d="M247 0v720h-179v80h450v-80h-180v-720h-91z" />
    <glyph glyph-name="U" unicode="U" 
d="M293 -10c-66.667 0 -116.001 21.833 -148.001 65.5s-48 110.834 -48 201.501v543h91v-549c0 -67.333 7.83301 -114.5 23.5 -141.5s42.834 -40.5 81.501 -40.5s65.667 13.5 81 40.5s23 74.167 23 141.5v549h91v-543c0 -90.667 -16 -157.834 -48 -201.501
s-81 -65.5 -147 -65.5z" />
    <glyph glyph-name="V" unicode="V" 
d="M345 0h-104l-186 800h95l144 -667l144 667h92z" />
    <glyph glyph-name="W" unicode="W" 
d="M373 0l-81 478l-79 -478h-87l-80 800h85l49 -650l72 450h83l74 -449l48 649h82l-80 -800h-86z" />
    <glyph glyph-name="X" unicode="X" 
d="M440 0l-148 314l-147 -314h-99l202 409l-184 391h101l138 -295l139 295h99l-194 -391l191 -409h-98z" />
    <glyph glyph-name="Y" unicode="Y" 
d="M338 0h-91v300l-206 500h97l158 -404l151 404h97l-206 -500v-300z" />
    <glyph glyph-name="Z" unicode="Z" 
d="M500 0h-415v80l318 640h-318v80h415v-80l-313 -640h313v-80z" />
    <glyph glyph-name="bracketleft" unicode="[" 
d="M172 -200v1000h278v-82h-187v-850h187v-68h-278z" />
    <glyph glyph-name="backslash" unicode="\" 
d="M400 -200l-300 1000h85l300 -1000h-85z" />
    <glyph glyph-name="bracketright" unicode="]" 
d="M135 -200v68h187v850h-187v82h278v-1000h-278z" />
    <glyph glyph-name="asciicircum" unicode="^" 
d="M441 200l-148 467l-143 -467h-87l184 600h91l190 -600h-87z" />
    <glyph glyph-name="underscore" unicode="_" 
d="M81 -200v89h423v-89h-423z" />
    <glyph glyph-name="grave" unicode="`" 
d="M326 408l-173 392h163l80 -392h-70z" />
    <glyph glyph-name="a" unicode="a" 
d="M239 71c28.667 0 52.832 6.33301 72.499 19s35.834 33.334 48.501 62.001v106h-112c-27.333 0 -48 -6.83301 -62 -20.5s-21 -37.167 -21 -70.5c0 -30.667 5.66699 -54.334 17 -71.001s30.333 -25 57 -25zM222.998 -10c-46 0 -81.667 15.001 -107 45.001
s-38 71.667 -38 125c0 52 14 93.167 42 123.5s66 45.5 114 45.5h126v99c0 29.333 -7.5 53.166 -22.5 71.499s-37.833 27.5 -68.5 27.5c-32.667 0 -56.167 -7.83301 -70.5 -23.5s-25.5 -44.5 -33.5 -86.5l-77 24c10 56.667 30 99 60 127s70.333 42 121 42
c52.667 0 95.834 -14 129.501 -42s50.5 -70 50.5 -126v-297c0 -30.667 6.83301 -51 20.5 -61s35.167 -11 64.5 -3v-85c-43.333 -6.66699 -76 -2.5 -98 12.5s-35 42.167 -39 81.5h-16c-13.333 -29.333 -34.333 -53.333 -63 -72s-60.334 -28 -95.001 -28z" />
    <glyph glyph-name="b" unicode="b" 
d="M287 -11c-36.667 0 -71.334 5.33105 -104.001 15.998s-60.667 26.334 -84 47.001v748h90v-278h23c10 28.667 26.333 50.5 49 65.5s50.334 22.5 83.001 22.5c46 0 81.167 -18.333 105.5 -55s36.5 -89 36.5 -157v-199c0 -67.333 -17.167 -119.166 -51.5 -155.499
s-83.5 -54.5 -147.5 -54.5zM288 68.998c38 0 65.499 10.333 82.499 31s25.5 54.334 25.5 101.001v202c0 42.667 -6.5 73.5 -19.5 92.5s-34.167 28.5 -63.5 28.5c-26.667 0 -49.667 -7.33301 -69 -22s-37.666 -38.667 -54.999 -72v-331
c14.667 -10.667 29.667 -18.334 45 -23.001s33.333 -7 54 -7z" />
    <glyph glyph-name="c" unicode="c" 
d="M302 -10c-68.667 0 -119.667 18.001 -153 54.001s-50 86.333 -50 151v204c0 67.333 16.833 119.333 50.5 156s84.167 55 151.5 55c61.333 0 107.5 -16.333 138.5 -49s48.833 -84 53.5 -154l-88 -4c-2.66699 50 -12.167 83.333 -28.5 100s-41.833 25 -76.5 25
c-36 0 -63.5 -9.5 -82.5 -28.5s-28.5 -51.5 -28.5 -97.5v-208c0 -43.333 9.5 -74.5 28.5 -93.5s46.833 -28.5 83.5 -28.5c35.333 0 60.833 6.66699 76.5 20s24.834 41.666 27.501 84.999l88 -4c-3.33301 -64 -20.333 -110.5 -51 -139.5s-77.334 -43.5 -140.001 -43.5z" />
    <glyph glyph-name="d" unicode="d" 
d="M272 76c26 0 48.999 7.49805 68.999 22.498s38.333 38.833 55 71.5v321c-14.667 14 -30.167 24.167 -46.5 30.5s-33.833 9.5 -52.5 9.5c-37.333 0 -64.666 -10.667 -81.999 -32s-26 -54.666 -26 -99.999v-203c0 -41.333 6.66699 -71.666 20 -90.999s34.333 -29 63 -29z
M372.999 77.998c-10 -27.333 -26.668 -48.833 -50.001 -64.5s-50.666 -23.5 -81.999 -23.5c-44 0 -78.667 18.833 -104 56.5s-38 89.5 -38 155.5v199c0 65.333 17 116.666 51 153.999s81 56 141 56c16.667 0 34.167 -2.66699 52.5 -8s35.833 -12.666 52.5 -21.999v219h90
v-800h-90v78h-23z" />
    <glyph glyph-name="e" unicode="e" 
d="M490 130c-15.333 -48 -37.3311 -83.333 -65.998 -106s-72 -34 -130 -34c-60 0 -107.5 17.5 -142.5 52.5s-52.5 86.833 -52.5 155.5v201c0 70.667 18.167 123.5 54.5 158.5s82.833 52.5 139.5 52.5c58 0 104.667 -18 140 -54s53 -91 53 -165v-108h-297v-84
c0 -46.667 8.66699 -80 26 -100s43.666 -30 78.999 -30c33.333 0 58.166 7 74.499 21s28.833 36 37.5 66zM189.002 396v-42.001h207v33c0 50 -8.5 86.5 -25.5 109.5s-42.833 34.5 -77.5 34.5c-35.333 0 -61.5 -11.167 -78.5 -33.5s-25.5 -56.166 -25.5 -101.499z" />
    <glyph glyph-name="f" unicode="f" 
d="M213 0l-0.000976562 517.999h-126v82h126v41c0 51.333 15.667 91.5 47 120.5s69 43.5 113 43.5c26.667 0 51.334 -3.5 74.001 -10.5s40 -14.5 52 -22.5l-15 -77c-18.667 8.66699 -37 15.334 -55 20.001s-35.333 7 -52 7c-22.667 0 -40.5 -6.16699 -53.5 -18.5
s-19.5 -31.833 -19.5 -58.5v-45h182v-82h-182v-518h-91z" />
    <glyph glyph-name="g" unicode="g" 
d="M521 -52c0 -54 -15.168 -93.8301 -45.501 -119.497s-67.833 -38.5 -112.5 -38.5h-139c-48 0 -86.667 11.667 -116 35s-44 61 -44 113c0 31.333 6.83301 56.5 20.5 75.5s32.5 29.833 56.5 32.5v21c-18 3.33301 -32.667 12.666 -44 27.999s-17 39 -17 71
c0 27.333 7.33301 52.5 22 75.5s37.667 36.167 69 39.5v18c-24.667 10.667 -41.834 27.167 -51.501 49.5s-14.5 42.833 -14.5 61.5v31c0 45.333 15.167 83.166 45.5 113.499s71.833 45.5 124.5 45.5h231v-87l-118 26v-20c19.333 -7.33301 34.5 -21.333 45.5 -42
s16.5 -41.334 16.5 -62.001v-30c0 -45.333 -14.167 -82.333 -42.5 -111s-71.166 -43 -128.499 -43h-85c-14.667 0 -25.667 -4.5 -33 -13.5s-11 -24.833 -11 -47.5c0 -21.333 4.83301 -37.333 14.5 -48s23.834 -16 42.501 -16h163c44 0 80.167 -12.333 108.5 -37
s42.5 -65 42.5 -121zM277.999 305.003c28.667 0 50.167 7.5 64.5 22.5s21.5 39.167 21.5 72.5v30c0 33.333 -7.16699 57.333 -21.5 72s-35.833 22 -64.5 22s-50.167 -7.33301 -64.5 -22s-21.5 -38.667 -21.5 -72v-30c0 -33.333 7.16699 -57.5 21.5 -72.5
s35.833 -22.5 64.5 -22.5zM222.999 -134.997l146.998 -0.000976562c20.667 0 37.834 6.16699 51.501 18.5s20.5 32.833 20.5 61.5c0 28 -6.16699 48 -18.5 60s-28.166 18 -47.499 18h-223v-71c0 -29.333 6 -51.166 18 -65.499s29.333 -21.5 52 -21.5z" />
    <glyph glyph-name="h" unicode="h" 
d="M99 0l-0.000976562 799.999h90v-278h23c8.66699 26.667 25 48 49 64s52 24 84 24c42 0 76 -17.167 102 -51.5s39 -79.833 39 -136.5v-422h-90v407c0 38.667 -6.66699 67.834 -20 87.501s-33.333 29.5 -60 29.5c-24.667 0 -47.667 -7.33301 -69 -22
s-40.666 -36.667 -57.999 -66v-436h-90z" />
    <glyph glyph-name="i" unicode="i" 
d="M100 0v82h147v436h-147v82h238v-518h147v-82h-385zM294 713c-20.667 0 -37.667 3.83301 -51 11.5s-20 21.834 -20 42.501v6c0 21.333 6.66699 36 20 44s30.333 12 51 12s37.667 -4 51 -12s20 -22.667 20 -44v-6c0 -20.667 -6.66699 -34.834 -20 -42.501
s-30.333 -11.5 -51 -11.5z" />
    <glyph glyph-name="j" unicode="j" 
d="M220 -208c-20 0 -39.834 1.49902 -59.501 4.49902s-40.5 8.83301 -62.5 17.5l15 91c18.667 -8.66699 36.334 -14.5 53.001 -17.5s32.667 -4.5 48 -4.5c32.667 0 58.667 9.5 78 28.5s29 50.5 29 94.5v512h-206v82h296v-607c0 -67.333 -18.5 -117.666 -55.5 -150.999
s-82.167 -50 -135.5 -50zM362.999 712.999c-20.667 0 -37.667 3.83301 -51 11.5s-20 21.834 -20 42.501v6c0 21.333 6.66699 36 20 44s30.333 12 51 12s37.667 -4 51 -12s20 -22.667 20 -44v-6c0 -20.667 -6.66699 -34.834 -20 -42.501s-30.333 -11.5 -51 -11.5z" />
    <glyph glyph-name="k" unicode="k" 
d="M221 277v-277h-91v800h91v-446h36l138 246h104l-172 -280l170 -320h-101l-139 277h-36z" />
    <glyph glyph-name="l" unicode="l" 
d="M102 0v82h148v636h-148v82h239v-718h147v-82h-386z" />
    <glyph glyph-name="m" unicode="m" 
d="M151 441l0.000976562 -441.001h-80v600h80v-70h17c8.66699 26.667 20.167 46.834 34.5 60.501s30.833 20.5 49.5 20.5c19.333 0 35.333 -6.83301 48 -20.5s21.667 -33.834 27 -60.501h18c8.66699 26.667 20.667 46.834 36 60.501s33.333 20.5 54 20.5
c25.333 0 44.833 -12.167 58.5 -36.5s20.5 -59.5 20.5 -105.5v-469h-80v459c0 24.667 -2.83301 43.334 -8.5 56.001s-13.834 19 -24.501 19c-11.333 0 -22.833 -7.83301 -34.5 -23.5s-23.167 -38.834 -34.5 -69.501v-441h-79v459c0 24.667 -2.66699 43.334 -8 56.001
s-13.333 19 -24 19c-12 0 -23.833 -7.83301 -35.5 -23.5s-23.167 -38.834 -34.5 -69.501z" />
    <glyph glyph-name="n" unicode="n" 
d="M99 0l-0.000976562 599.999h90v-78h23c14.667 27.333 34 48.833 58 64.5s49.667 23.5 77 23.5c43.333 0 77.333 -16.667 102 -50s37 -79.666 37 -138.999v-421h-90v404c0 40 -6.66699 70 -20 90s-33.333 30 -60 30c-24.667 0 -47.667 -7.5 -69 -22.5
s-40.666 -37.833 -57.999 -68.5v-433h-90z" />
    <glyph glyph-name="o" unicode="o" 
d="M293 -10c-62 0 -109.833 18.001 -143.5 54.001s-50.5 87 -50.5 153v202c0 67.333 16.833 119.333 50.5 156s81.5 55 143.5 55c61.333 0 108.833 -18.333 142.5 -55s50.5 -88.334 50.5 -155.001v-202c0 -66 -16.833 -117.167 -50.5 -153.5s-81.167 -54.5 -142.5 -54.5z
M293 72.001c34 0 59.667 9.5 77 28.5s26 50.5 26 94.5v205c0 44 -8.66699 76.333 -26 97s-43 31 -77 31c-34.667 0 -60.667 -10.333 -78 -31s-26 -53 -26 -97v-205c0 -44 8.66699 -75.5 26 -94.5s43.333 -28.5 78 -28.5z" />
    <glyph glyph-name="p" unicode="p" 
d="M288 69c36 0 63.002 11 81.002 33s27 55 27 99v204c0 40 -7 69.833 -21 89.5s-34.667 29.5 -62 29.5c-24.667 0 -47.334 -7.83301 -68.001 -23.5s-39.334 -39.167 -56.001 -70.5v-320c14.667 -13.333 30.167 -23.5 46.5 -30.5s33.833 -10.5 52.5 -10.5zM294.002 -11
c-17.333 0 -35 2.66797 -53 8.00098s-35.333 12.666 -52 21.999v-219h-90v800h90v-78h23c8.66699 27.333 24.667 48.833 48 64.5s51.333 23.5 84 23.5c44.667 0 79.5 -18.833 104.5 -56.5s37.5 -89.5 37.5 -155.5v-199c0 -66 -17 -117.5 -51 -154.5s-81 -55.5 -141 -55.5z
" />
    <glyph glyph-name="q" unicode="q" 
d="M396 -200v278.001h-23c-12.667 -27.333 -30.667 -48.833 -54 -64.5s-49.333 -23.5 -78 -23.5c-44 0 -78.667 18.833 -104 56.5s-38 89.5 -38 155.5v199c0 65.333 17.667 116.666 53 153.999s84 56 146 56c34 0 67.667 -4.66699 101 -14s62.333 -22.333 87 -39v-758h-90z
M272 76.001c24.667 0 47.333 7.83301 68 23.5s39.334 39.167 56.001 70.5v331c-12.667 10 -27.334 17.5 -44.001 22.5s-35 7.5 -55 7.5c-36 0 -63 -11 -81 -33s-27 -55 -27 -99v-191c0 -44 6.83301 -77 20.5 -99s34.5 -33 62.5 -33z" />
    <glyph glyph-name="r" unicode="r" 
d="M131 0l-0.000976562 600h91v-88h23c9.33301 34 25.333 58.833 48 74.5s49.334 23.5 80.001 23.5c34.667 0 63.5 -13.833 86.5 -41.5s34.5 -67.167 34.5 -118.5v-96h-88v63c0 36.667 -5.5 63.667 -16.5 81s-29.5 26 -55.5 26c-22.667 0 -43.5 -7.66699 -62.5 -23
s-35.5 -37.333 -49.5 -66v-435h-91z" />
    <glyph glyph-name="s" unicode="s" 
d="M302 -11c-38.667 0 -77.1621 6.33203 -115.495 18.999s-70.833 30.667 -97.5 54l33 73c24.667 -18.667 53.167 -34 85.5 -46s64.166 -18 95.499 -18c35.333 0 61.333 6.5 78 19.5s25 33.833 25 62.5c0 32.667 -9 55.334 -27 68.001s-50.667 25.334 -98 38.001
c-64.667 16.667 -110.334 38.667 -137.001 66s-40 65 -40 113c0 54 15.833 96.167 47.5 126.5s75.167 45.5 130.5 45.5c34.667 0 69.667 -6.83301 105 -20.5s65.666 -31.834 90.999 -54.501l-32 -73c-22.667 17.333 -48.334 32.833 -77.001 46.5s-57.334 20.5 -86.001 20.5
c-30.667 0 -53.167 -6.66699 -67.5 -20s-21.5 -34.333 -21.5 -63c0 -32.667 9.5 -55.5 28.5 -68.5s52.833 -26.167 101.5 -39.5c62.667 -16.667 107 -38.5 133 -65.5s39 -63.833 39 -110.5c0 -54 -17.333 -96.333 -52 -127s-82 -46 -142 -46z" />
    <glyph glyph-name="t" unicode="t" 
d="M383 -9c-54 0 -96.333 17.167 -127 51.5s-46 80.5 -46 138.5v337h-123v82h123v200h90v-200h189v-82h-189v-325c0 -38 7 -66.667 21 -86s34.667 -29 62 -29c18 0 35.167 1.66699 51.5 5s31.833 8.33301 46.5 15l15 -84c-12.667 -5.33301 -29.667 -10.5 -51 -15.5
s-42 -7.5 -62 -7.5z" />
    <glyph glyph-name="u" unicode="u" 
d="M240 -10c-42.667 0 -76.833 17.168 -102.5 51.501s-38.5 80.166 -38.5 137.499v421h90v-407c0 -38 6.83301 -67 20.5 -87s33.5 -30 59.5 -30c24 0 47 7.5 69 22.5s41.333 36.833 58 65.5v436h90v-600h-90v78h-23c-8.66699 -26.667 -25 -48 -49 -64s-52 -24 -84 -24z" />
    <glyph glyph-name="v" unicode="v" 
d="M350 0h-116l-153 600h94l119 -517l118 517h91z" />
    <glyph glyph-name="w" unicode="w" 
d="M357 0l-64 390l-62 -390h-95l-81 600h83l52 -505l57 407h88l63 -400l49 498h83l-81 -600h-92z" />
    <glyph glyph-name="x" unicode="x" 
d="M398 0l-111 218l-104 -218h-97l158 302l-151 298h98l105 -207l103 207h97l-156 -293l156 -307h-98z" />
    <glyph glyph-name="y" unicode="y" 
d="M173 -205c-13.333 0 -27.667 0.999023 -43 2.99902s-31.333 4.33301 -48 7l12 82c14.667 -3.33301 28.167 -6 40.5 -8s23.5 -3 33.5 -3c30 0 52.5 8.66699 67.5 26s27.833 44.333 38.5 81l2 11h-46l-152 606h96l121 -524l119 524h93l-150 -622
c-17.333 -71.333 -42.333 -119.666 -75 -144.999s-69 -38 -109 -38z" />
    <glyph glyph-name="z" unicode="z" 
d="M473 0h-361v82l263 436h-263v82h361v-82l-255 -436h255v-82z" />
    <glyph glyph-name="braceleft" unicode="{" 
d="M450 -210c-113.333 -2.66699 -194.166 9.83594 -242.499 37.5029s-72.5 70.5 -72.5 128.5c0 33.333 5 61.5 15 84.5s21 42.833 33 59.5c12.667 17.333 24 33.5 34 48.5s15 30.833 15 47.5c0 30.667 -12.667 52.667 -38 66s-70 21 -134 23v54c64 2 108.667 9.33301 134 22
s38 34.334 38 65.001c0 16.667 -5.16699 31.334 -15.5 44.001l-34.5 42c-12 14.667 -22.833 32.5 -32.5 53.5s-14.5 48.5 -14.5 82.5c0 56 24.167 97.667 72.5 125s129.166 39.666 242.499 36.999v-82c-80 2 -137.5 -4 -172.5 -18s-52.5 -37.667 -52.5 -71
c0 -18.667 5 -35.667 15 -51s21 -30.333 33 -45c12.667 -16 24.167 -33 34.5 -51s15.5 -39.333 15.5 -64c0 -36 -13 -63.5 -39 -82.5s-66.333 -29.833 -121 -32.5v-5c54.667 -6.66699 95 -20.667 121 -42s39 -51.333 39 -90c0 -22.667 -5.16699 -42.334 -15.5 -59.001
s-21.833 -32.334 -34.5 -47.001c-12 -14.667 -23 -30.334 -33 -47.001s-15 -36.334 -15 -59.001c0 -35.333 17.5 -60.333 52.5 -75s92.5 -21 172.5 -19v-80z" />
    <glyph glyph-name="bar" unicode="|" 
d="M253 -200v1000h79v-1000h-79z" />
    <glyph glyph-name="braceright" unicode="}" 
d="M450 -44c0 -58 -24.167 -100.836 -72.5 -128.503s-129.166 -40.167 -242.499 -37.5v80c80 -2 137.5 4.33301 172.5 19s52.5 39.667 52.5 75c0 22.667 -5 42.334 -15 59.001s-21 32.334 -33 47.001c-12.667 14.667 -24.167 30.334 -34.5 47.001s-15.5 36.334 -15.5 59.001
c0 38.667 13 68.667 39 90s66.333 35.333 121 42v5c-54.667 2.66699 -95 13.5 -121 32.5s-39 46.5 -39 82.5c0 24.667 5.16699 46 15.5 64s21.833 35 34.5 51c12 14.667 23 29.667 33 45s15 32.333 15 51c0 33.333 -17.5 57 -52.5 71s-92.5 20 -172.5 18v82
c113.333 2.66699 194.166 -9.66602 242.499 -36.999s72.5 -69 72.5 -125c0 -34 -4.83301 -61.5 -14.5 -82.5s-20.5 -38.833 -32.5 -53.5l-34.5 -42c-10.333 -12.667 -15.5 -27.334 -15.5 -44.001c0 -30.667 12.667 -52.334 38 -65.001s70 -20 134 -22v-54
c-64 -2 -108.667 -9.66699 -134 -23s-38 -35.333 -38 -66c0 -16.667 5 -32.5 15 -47.5s21.333 -31.167 34 -48.5c12 -16.667 23 -36.5 33 -59.5s15 -51.167 15 -84.5z" />
    <glyph glyph-name="asciitilde" unicode="~" 
d="M392 228c-29.333 0 -53.501 9.5 -72.501 28.5s-36.5 51.833 -52.5 98.5c-19.333 56 -33.333 92.333 -42 109s-19.334 25 -32.001 25c-17.333 0 -29.333 -7.66699 -36 -23s-10 -42 -10 -80v-149h-74v155c0 52.667 11.167 95.834 33.5 129.501s50.833 50.5 85.5 50.5
c28.667 0 52.5 -9.33301 71.5 -28s36.833 -51.334 53.5 -98.001c18.667 -57.333 32.334 -94.333 41.001 -111s19.667 -25 33 -25c14.667 0 25.834 9.66699 33.501 29s11.5 47 11.5 83v144h74v-151c0 -55.333 -11 -100.333 -33 -135s-50.333 -52 -85 -52z" />
    <glyph glyph-name="exclamdown" unicode="&#xa1;" 
d="M293 810c27.333 0 47.5 -6.83301 60.5 -20.5s19.5 -34.834 19.5 -63.501v-28c0 -29.333 -6.5 -51 -19.5 -65s-33.167 -21 -60.5 -21s-47.5 7 -60.5 21s-19.5 35.667 -19.5 65v28c0 28.667 6.66699 49.834 20 63.501s33.333 20.5 60 20.5zM332 500l23 -500h-121l23 500h75
z" />
    <glyph glyph-name="cent" unicode="&#xa2;" 
d="M186 314c0 -44.667 6.83301 -78.167 20.5 -100.5s35.834 -35.833 66.501 -40.5v455c-30.667 -4 -52.834 -17.333 -66.501 -40s-20.5 -56.667 -20.5 -102v-172zM265 -50l-0.000976562 141.999c-58 6.66699 -100.5 30 -127.5 70s-40.5 95 -40.5 165v150
c0 68 13.667 121.833 41 161.5s69.666 62.834 126.999 69.501v142h66v-141c52.667 -4.66699 91.834 -24.5 117.501 -59.5s40.5 -86.167 44.5 -153.5l-84 -5c-2 49.333 -9.66699 84 -23 104s-34.333 31.333 -63 34v-457c29.333 2 50.5 11.833 63.5 29.5
s20.5 50.167 22.5 97.5l84 -5c-3.33301 -66 -17.666 -115.167 -42.999 -147.5s-65 -50.833 -119 -55.5v-141h-66z" />
    <glyph glyph-name="sterling" unicode="&#xa3;" 
d="M516 207c-3.33301 -70.667 -17.9961 -124.504 -43.9961 -161.504s-60 -55.5 -102 -55.5c-12.667 0 -27.167 3.16699 -43.5 9.5s-39.5 19.166 -69.5 38.499c-21.333 14.667 -39.333 23 -54 25s-28 -2 -40 -12l-69 -60l-46 67l65 47c18 14.667 33.5 39.667 46.5 75
s19.5 70 19.5 104c0 22.667 -1.83301 42.5 -5.5 59.5s-7.83398 32.5 -12.501 46.5h-103v88h66c-6 16 -11 34 -15 54s-6 43.667 -6 71c0 62 16.167 112 48.5 150s78.166 57 137.499 57c65.333 0 114.166 -17 146.499 -51s49.833 -87.333 52.5 -160l-88 -10
c-2.66699 54 -11.834 91 -27.501 111s-43.167 30 -82.5 30c-30.667 0 -54.334 -11.167 -71.001 -33.5s-25 -54.166 -25 -95.499c0 -26 2.66699 -48.667 8 -68s11.333 -37.666 18 -54.999h146v-88h-114c3.33301 -13.333 6.16602 -28.166 8.49902 -44.499
s3.5 -34.166 3.5 -53.499c0 -29.333 -6 -58.5 -18 -87.5s-29.333 -54.833 -52 -77.5l11 -13c12.667 10.667 25.334 15.834 38.001 15.501s27.334 -5.83301 44.001 -16.5l35.5 -24c11.667 -8 24.167 -12 37.5 -12c22.667 0 39 10 49 30s16.667 56.667 20 110z" />
    <glyph glyph-name="currency" unicode="&#xa4;" 
d="M293 170c26.667 0 47 9.83301 61 29.5s21 52.167 21 97.5v202c0 44.667 -7 77.667 -21 99s-34.333 32 -61 32c-27.333 0 -48 -10.667 -62 -32s-21 -54.333 -21 -99v-202c0 -45.333 7 -77.833 21 -97.5s34.667 -29.5 62 -29.5zM293 90c-26 0 -49.499 4.33301 -70.499 13
s-38.833 21.667 -53.5 39l-63 -83l-50 60l76 100c-2.66699 10.667 -4.83398 22.667 -6.50098 36s-2.5 27.333 -2.5 42v202c0 15.333 0.833008 29.833 2.5 43.5s3.83398 26.5 6.50098 38.5l-76 100l50 60l63 -84c14.667 18 32.667 31.333 54 40s44.666 13 69.999 13
c26 0 49.5 -4.5 70.5 -13.5s38.833 -22.5 53.5 -40.5l62 80l50 -60l-75 -98c2.66699 -11.333 4.66699 -23.666 6 -36.999s2 -27.333 2 -42v-202c0 -13.333 -0.666992 -26.333 -2 -39s-3 -24.334 -5 -35.001l74 -99l-50 -60l-61 79c-14.667 -18 -32.667 -31.333 -54 -40
s-45 -13 -71 -13z" />
    <glyph glyph-name="yen" unicode="&#xa5;" 
d="M488 100h-150v-100h-90v100h-150v88h150v112h-150v88h112l-178 412h98l165 -440l163 440h95l-177 -412h112v-88h-150v-112h150v-88z" />
    <glyph glyph-name="brokenbar" unicode="&#xa6;" 
d="M253 400v400h79v-400h-79zM253 -200v400h79v-400h-79z" />
    <glyph glyph-name="section" unicode="&#xa7;" 
d="M285 197c4.66699 -0.666992 9.66699 -1.83398 15 -3.50098l15 -4.5c24.667 1.33301 46.5 10 65.5 26s28.5 43 28.5 81c0 28 -7.66699 49.667 -23 65s-42.666 28.333 -81.999 39c-4.66699 0.666992 -9.66699 1.83398 -15 3.50098l-15 4.5
c-24.667 -0.666992 -46.5 -9.16699 -65.5 -25.5s-28.5 -43.5 -28.5 -81.5c0 -28 7.66699 -49.667 23 -65s42.666 -28.333 81.999 -39zM306 -207c-38 0 -74.834 7.99902 -110.501 23.999s-65.834 39.333 -90.501 70l37 71c27.333 -28.667 54 -50 80 -64s55.333 -21 88 -21
c27.333 0 51.333 7.66699 72 23s31 41 31 77s-10.333 64.5 -31 85.5s-56 38.5 -106 52.5c-67.333 14.667 -115.333 36 -144 64s-43 61 -43 99c0 48 9.83301 84.667 29.5 110s44.834 43.333 75.501 54c-34 17.333 -60 39.833 -78 67.5s-27 62.5 -27 104.5
c0 61.333 17 109 51 143s81.667 51 143 51c38 0 74.5 -8 109.5 -24s65.5 -39.333 91.5 -70l-40 -73c-27.333 28.667 -53.666 50.334 -78.999 65.001s-54 22 -86 22c-30.667 0 -55.667 -8.66699 -75 -26s-29 -41.333 -29 -72c0 -38 11 -67.5 33 -88.5s59.667 -37.5 113 -49.5
c64 -16.667 109.667 -39.167 137 -67.5s41 -63.5 41 -105.5c0 -44 -10.5 -78.167 -31.5 -102.5s-47.167 -41.5 -78.5 -51.5c35.333 -17.333 62.5 -39.833 81.5 -67.5s28.5 -63.167 28.5 -106.5c0 -61.333 -16.833 -109 -50.5 -143s-81.167 -51 -142.5 -51z" />
    <glyph glyph-name="dieresis" unicode="&#xa8;" 
d="M204 713c-16 0 -29.001 3.83301 -39.001 11.5s-15 21.834 -15 42.501v6c0 21.333 5 36 15 44s23 12 39 12c16.667 0 29.834 -4 39.501 -12s14.5 -22.667 14.5 -44v-6c0 -20.667 -5 -34.834 -15 -42.501s-23 -11.5 -39 -11.5zM381.999 713
c-16.667 0 -29.835 3.83301 -39.502 11.5s-14.5 21.834 -14.5 42.501v6c0 21.333 4.83301 36 14.5 44s22.834 12 39.501 12c16 0 29 -4 39 -12s15 -22.667 15 -44v-6c0 -20.667 -5.16699 -34.834 -15.5 -42.501s-23.166 -11.5 -38.499 -11.5z" />
    <glyph glyph-name="copyright" unicode="&#xa9;" 
d="M293 -110c-86.667 0 -149.667 31.833 -189 95.5s-59 154.167 -59 271.5v222c0 118.667 19.833 210.167 59.5 274.5s102.5 96.5 188.5 96.5s148.667 -32.167 188 -96.5s59 -155.833 59 -274.5v-222c0 -117.333 -19.667 -207.833 -59 -271.5s-102 -95.5 -188 -95.5z
M293 -52c73.333 0 122.5 29.167 147.5 87.5s37.5 138.833 37.5 241.5v182c0 100.667 -12.5 181.334 -37.5 242.001s-74.167 91 -147.5 91s-122.5 -30.333 -147.5 -91s-37.5 -141.334 -37.5 -242.001v-182c0 -102.667 12.5 -183.167 37.5 -241.5s74.167 -87.5 147.5 -87.5z
M299 105c-44 0 -75.5 15.668 -94.5 47.001s-28.5 76.333 -28.5 135v168c0 58 9.66699 102.5 29 133.5s50.666 46.5 93.999 46.5c37.333 0 64.666 -13.833 81.999 -41.5s27.333 -70.167 30 -127.5l-70 -6c-2 39.333 -6 65.666 -12 78.999s-16.333 20 -31 20
c-16 0 -27.667 -7.16699 -35 -21.5s-11 -38.5 -11 -72.5v-190c0 -33.333 3.66699 -57.333 11 -72s19.333 -22 36 -22c14.667 0 24.834 5.83301 30.501 17.5s9.5 36.167 11.5 73.5l70 -6c-2.66699 -56 -12.667 -96.833 -30 -122.5s-44.666 -38.5 -81.999 -38.5z" />
    <glyph glyph-name="ordfeminine" unicode="&#xaa;" 
d="M247 397c18.667 0 36.333 5 53 15s30.667 27.667 42 53v60h-99c-18 0 -32.667 -4.5 -44 -13.5s-17 -25.167 -17 -48.5c0 -22 5 -38.5 15 -49.5s26.667 -16.5 50 -16.5zM229.999 327c-38.667 0 -68.9971 11.6729 -90.9971 35.0059s-33 55.666 -33 96.999
c0 39.333 11.5 70.666 34.5 93.999s51.5 35 85.5 35h116v69c0 24 -6 44.167 -18 60.5s-30.333 24.5 -55 24.5s-43.334 -5 -56.001 -15s-22.667 -33.333 -30 -70l-69 21c7.33301 42 23.166 74.5 47.499 97.5s60.166 34.5 107.499 34.5c44 0 80.167 -11.833 108.5 -35.5
s42.5 -59.167 42.5 -106.5v-211c0 -24.667 5 -40.834 15 -48.501s29 -9.16699 57 -4.5v-73c-40 -2.66699 -68.5 2.16602 -85.5 14.499s-27.167 35.166 -30.5 68.499h-14c-10.667 -24.667 -28 -45.334 -52 -62.001s-50.667 -25 -80 -25z" />
    <glyph glyph-name="guillemotleft" unicode="&#xab;" 
d="M510 112l-201 195v84l201 195v-82l-160 -155l160 -155v-82zM277 112l-201 195v84l201 195v-82l-160 -155l160 -155v-82z" />
    <glyph glyph-name="logicalnot" unicode="&#xac;" 
d="M420 0v305h-339v90h423v-395h-84z" />
    <glyph glyph-name="registered" unicode="&#xae;" 
d="M293 141c-74.667 0 -129 24.833 -163 74.5s-51 115.5 -51 197.5v173c0 83.333 17 149.833 51 199.5s88.333 74.5 163 74.5c74 0 128 -24.833 162 -74.5s51 -116.167 51 -199.5v-173c0 -82 -17 -147.833 -51 -197.5s-88 -74.5 -162 -74.5zM293 191
c62 0 103.667 20.5 125 61.5s32 98.167 32 171.5v150c0 71.333 -10.667 128.666 -32 171.999s-63 65 -125 65c-62.667 0 -104.667 -21.667 -126 -65s-32 -100.666 -32 -171.999v-150c0 -73.333 10.667 -130.5 32 -171.5s63.333 -61.5 126 -61.5zM257 500h42
c8.66699 0 16.834 2.5 24.501 7.5s11.5 16.833 11.5 35.5v28c0 20.667 -3.83301 34.5 -11.5 41.5s-15.834 10.5 -24.501 10.5h-42v-123zM257 329h-60.001v349h105c28.667 0 51.334 -9.5 68.001 -28.5s25 -45.167 25 -78.5v-28c0 -22.667 -4.5 -42 -13.5 -58
s-21.5 -27 -37.5 -33l58 -123h-66l-50 115h-29v-115z" />
    <glyph glyph-name="macron" unicode="&#x2c9;" 
d="M139 760v80h308v-80h-308z" />
    <glyph glyph-name="macron" unicode="&#xaf;" 
d="M139 760v80h308v-80h-308z" />
    <glyph glyph-name="degree" unicode="&#xb0;" 
d="M293 351c-46 0 -83.333 14.167 -112 42.5s-43 71.5 -43 129.5v108c0 58.667 14.333 102.5 43 131.5s66 43.5 112 43.5c46.667 0 84.167 -14.5 112.5 -43.5s42.5 -72.833 42.5 -131.5v-108c0 -58 -14.333 -101.167 -43 -129.5s-66 -42.5 -112 -42.5zM293 431
c24.667 0 43.167 6.66699 55.5 20s18.5 36.333 18.5 69v114c0 30.667 -6.16699 53.5 -18.5 68.5s-30.833 22.5 -55.5 22.5s-43.167 -7.5 -55.5 -22.5s-18.5 -37.833 -18.5 -68.5v-114c0 -32.667 6.16699 -55.667 18.5 -69s30.833 -20 55.5 -20z" />
    <glyph glyph-name="plusminus" unicode="&#xb1;" 
d="M250 142v263h-169v90h169v263h85v-263h169v-90h-169v-263h-85zM81 0v90h423v-90h-423z" />
    <glyph glyph-name="two.sups" unicode="&#xb2;" 
d="M138 304l0.000976562 101.998c0 42 7.16699 75 21.5 99s36.166 40 65.499 48l92 25c17.333 4.66699 29.833 12.334 37.5 23.001s11.5 26.334 11.5 47.001v21c0 20.667 -5.5 37.834 -16.5 51.501s-30.167 20.5 -57.5 20.5s-45.833 -7.5 -55.5 -22.5
s-15.167 -39.833 -16.5 -74.5l-78 7c2.66699 54 15.834 93.333 39.501 118s60.5 37 110.5 37c54 0 92.667 -12.167 116 -36.5s35 -56.5 35 -96.5v-37c0 -34 -7.16699 -61.167 -21.5 -81.5s-35.833 -34.5 -64.5 -42.5l-91 -25c-16.667 -3.33301 -29.334 -10.333 -38.001 -21
s-13 -30.334 -13 -59.001v-36h233v-67h-310z" />
    <glyph glyph-name="three.sups" unicode="&#xb3;" 
d="M292 298c-55.333 0 -95.0039 11.998 -119.004 35.998s-37.333 60 -40 108l77 6c2.66699 -30.667 8.83398 -52.5 18.501 -65.5s30.834 -19.5 63.501 -19.5c30.667 0 51.334 6.83301 62.001 20.5s16 32.5 16 56.5v16c0 25.333 -4.66699 44.333 -14 57s-27.333 19 -54 19
h-76v67h76c21.333 0 36.5 3.66699 45.5 11s13.5 22.333 13.5 45v23c0 22.667 -6.5 38.834 -19.5 48.501s-30.833 14.5 -53.5 14.5c-24 0 -41 -5.66699 -51 -17s-15.667 -30.333 -17 -57l-78 6c2.66699 46.667 15.834 80.5 39.501 101.5s59.167 31.5 106.5 31.5
c50 0 87.5 -10.333 112.5 -31s37.5 -52 37.5 -94v-17c0 -26 -6.5 -46.5 -19.5 -61.5s-29.5 -23.833 -49.5 -26.5v-18c22 -2.66699 40.667 -13.5 56 -32.5s23 -42.833 23 -71.5v-15c0 -47.333 -13 -82.666 -39 -105.999s-65 -35 -117 -35z" />
    <glyph glyph-name="acute" unicode="&#xb4;" 
d="M204 700l98 200h128l-151 -200h-75z" />
    <glyph glyph-name="mu1" unicode="&#xb5;" 
d="M185 20l7.99902 -220h-106l7 220v580h91v-409c0 -41.333 7.66699 -71 23 -89s34 -27 56 -27c20.667 0 38.5 7.16699 53.5 21.5s29.5 33.833 43.5 58.5v445h91v-448c0 -34 5 -56.167 15 -66.5s28 -11.833 54 -4.5v-85c-37.333 -6.66699 -65.666 -1.5 -84.999 15.5
s-31.333 47.5 -36 91.5h-16c-15.333 -38 -32.833 -66.333 -52.5 -85s-42.167 -28 -67.5 -28c-16 0 -30.667 3.83301 -44 11.5s-25 19.167 -35 34.5v-16z" />
    <glyph glyph-name="paragraph" unicode="&#xb6;" 
d="M405 340h-75.001v-540h-91v540c-53.333 0 -95.333 17.667 -126 53s-46 83.333 -46 144v52c0 65.333 15.333 116.833 46 154.5s72.334 56.5 125.001 56.5h258v-1000h-91v540z" />
    <glyph glyph-name="periodcentered" unicode="&#x2219;" 
d="M293 297c-26.667 0 -48.334 7.16699 -65.001 21.5s-25 37.5 -25 69.5v19c0 32.667 8.33301 56.334 25 71.001s38.334 22 65.001 22s48.167 -7.33301 64.5 -22s24.5 -38.334 24.5 -71.001v-19c0 -32 -8.33301 -55.167 -25 -69.5s-38 -21.5 -64 -21.5z" />
    <glyph glyph-name="periodcentered" unicode="&#xb7;" 
d="M293 297c-26.667 0 -48.334 7.16699 -65.001 21.5s-25 37.5 -25 69.5v19c0 32.667 8.33301 56.334 25 71.001s38.334 22 65.001 22s48.167 -7.33301 64.5 -22s24.5 -38.334 24.5 -71.001v-19c0 -32 -8.33301 -55.167 -25 -69.5s-38 -21.5 -64 -21.5z" />
    <glyph glyph-name="cedilla" unicode="&#xb8;" 
d="M270 0l14.999 42.002c34.667 -6.66699 60.834 -21.334 78.501 -44.001s26.5 -52.334 26.5 -89.001c0 -42 -12.5 -73 -37.5 -93s-52.833 -30 -83.5 -30c-36 0 -65.333 7.66699 -88 23s-35.334 41.333 -38.001 78l79 10c0.666992 -12.667 4.33398 -21.5 11.001 -26.5
s17.334 -7.5 32.001 -7.5s25.667 4.16699 33 12.5s11 23.833 11 46.5c0 24.667 -2.83301 42.5 -8.5 53.5s-15.834 19.167 -30.501 24.5z" />
    <glyph glyph-name="one.sups" unicode="&#xb9;" 
d="M175 304v67.001h102v326h-12c-5.33301 -26 -17 -47.167 -35 -63.5s-38 -24.5 -60 -24.5l-5 70c28.667 0.666992 53.167 12.167 73.5 34.5s33.833 51.166 40.5 86.499h76v-429h93v-67h-273z" />
    <glyph glyph-name="ordmasculine" unicode="&#xba;" 
d="M293 327c-54 0 -95.5 15 -124.5 45s-43.5 73 -43.5 129v130c0 57.333 14.5 101.5 43.5 132.5s70.5 46.5 124.5 46.5c53.333 0 94.333 -15.5 123 -46.5s43 -75.167 43 -132.5v-130c0 -56 -14.333 -99 -43 -129s-69.667 -45 -123 -45zM293 397c30.667 0 53.167 8 67.5 24
s21.5 42 21.5 78v133c0 36.667 -7.16699 63.667 -21.5 81s-36.833 26 -67.5 26s-53.334 -8.66699 -68.001 -26s-22 -44.333 -22 -81v-133c0 -36 7.33301 -62 22 -78s37.334 -24 68.001 -24z" />
    <glyph glyph-name="guillemotright" unicode="&#xbb;" 
d="M76 112v82l160 155l-160 155v82l201 -195v-84zM309 112v82l160 155l-160 155v82l201 -195v-84z" />
    <glyph glyph-name="onequarter" unicode="&#xbc;" 
d="M163 410l-0.000976562 69.9971h102v223h-12c-2.66699 -13.333 -7 -25.333 -13 -36s-13.333 -20 -22 -28c-8 -8 -17.167 -14 -27.5 -18s-21.166 -6 -32.499 -6l-4 70c14 0.666992 27.333 3.83398 40 9.50098s23.667 13.834 33 24.501c10 10.667 18.5 23.334 25.5 38.001
s11.833 31 14.5 49h76v-326h93v-70h-273zM29.999 250.997v95l239 -20v-55zM326.999 270.997v55l228 20v-95zM470.999 -114.003h-70v-96h-77v96h-191v65l170 265h98v-265h70v-65zM197.999 -49.0029h126v193z" />
    <glyph glyph-name="onehalf" unicode="&#xbd;" 
d="M163 410l-0.00292969 70h102v223h-12c-2.66699 -13.333 -7 -25.333 -13 -36s-13.333 -20 -22 -28c-8 -8 -17.167 -14 -27.5 -18s-21.166 -6 -32.499 -6l-4 70c12 0.666992 23.833 3.5 35.5 8.5s22.834 12.167 33.501 21.5c10.667 10 19.834 22.667 27.501 38
s13.167 33 16.5 53h76v-326h93v-70h-273zM29.9971 251v95l239 -20v-55zM326.997 271v55l228 20v-95zM137.997 -210v81.998c0 16 1.66699 30.667 5 44s8.33301 25.333 15 36s15.667 19.834 27 27.501s24.666 13.5 39.999 17.5l92 25c9.33301 2.66699 17 5.33398 23 8.00098
s11 6 15 10s6.83301 8.5 8.5 13.5s2.5 11.167 2.5 18.5v21c0 8 -1.33301 15.167 -4 21.5s-7 11.833 -13 16.5c-5.33301 4.66699 -12.833 8.16699 -22.5 10.5s-21.167 3.5 -34.5 3.5c-14 0 -25.333 -1.33301 -34 -4s-15.667 -7 -21 -13s-9.33301 -13.833 -12 -23.5
s-4.33398 -21.834 -5.00098 -36.501l-78 7c1.33301 23.333 4.83301 43.5 10.5 60.5s14.167 31.167 25.5 42.5c12 11.333 27.333 19.833 46 25.5s41.334 8.5 68.001 8.5s49.667 -2.66699 69 -8s35 -13 47 -23c12 -9.33301 20.833 -21.166 26.5 -35.499s8.5 -30.5 8.5 -48.5
v-36c0 -16 -2 -29.833 -6 -41.5s-9.66699 -21.834 -17 -30.501c-8 -8 -17.167 -14.667 -27.5 -20s-22.166 -10 -35.499 -14l-91 -25c-9.33301 -2 -17 -4.16699 -23 -6.5s-11 -6.16602 -15 -11.499c-4.66699 -4.66699 -8 -11.5 -10 -20.5s-3 -20.5 -3 -34.5h233v-67h-310z
" />
    <glyph glyph-name="threequarters" unicode="&#xbe;" 
d="M292 404c-27.333 0 -51.001 2.50684 -71.001 7.50684s-36 12.833 -48 23.5c-12.667 10 -22.167 22.667 -28.5 38s-10.166 33.666 -11.499 54.999l77 6c1.33301 -12 3.33301 -21.833 6 -29.5s6.66699 -13.834 12 -18.501c6 -4.66699 14.167 -8.16699 24.5 -10.5
s23.5 -3.5 39.5 -3.5c15.333 0 28 1 38 3s18 5 24 9c6 3.33301 10.167 7.66602 12.5 12.999s3.5 11.666 3.5 18.999v16c0 7.33301 -1.33301 13.666 -4 18.999s-6.66699 9.66602 -12 12.999c-6 4 -14 6.83301 -24 8.5s-22.667 2.5 -38 2.5h-48v70h48
c12.667 0 23.334 0.666992 32.001 2s15.667 4 21 8c5.33301 3.33301 9.33301 7.83301 12 13.5s4 13.167 4 22.5v23c0 5.33301 -1.66699 10 -5 14s-8 7 -14 9c-6 2.66699 -13.5 4.5 -22.5 5.5s-19.5 1.5 -31.5 1.5s-22.167 -1 -30.5 -3s-15.166 -5 -20.499 -9
c-5.33301 -4.66699 -9.33301 -10.334 -12 -17.001s-4.33398 -14.667 -5.00098 -24l-78 6c1.33301 20 5.16602 37.333 11.499 52s15.5 26.667 27.5 36s26.833 16.166 44.5 20.499s38.5 6.5 62.5 6.5c22.667 0 43 -1.5 61 -4.5s33.667 -8.16699 47 -15.5
s23.666 -17.166 30.999 -29.499s11 -27.5 11 -45.5v-17c0 -11.333 -1.66699 -21.666 -5 -30.999s-8 -17.333 -14 -24c-6.66699 -6.66699 -14.167 -12 -22.5 -16s-17.5 -6.66699 -27.5 -8v-18c10.667 -1.33301 20.834 -4 30.501 -8s18.167 -9 25.5 -15
c7.33301 -6.66699 13 -14.167 17 -22.5s6 -17.5 6 -27.5v-15c0 -18.667 -3.33301 -35 -10 -49s-16.334 -25.667 -29.001 -35c-13.333 -8.66699 -29.666 -15.334 -48.999 -20.001s-42 -7 -68 -7zM29.999 251.007v95l239 -20v-55zM326.999 271.007v55l228 20v-95z
M470.999 -113.993h-70v-96h-77v96h-191v65l170 265h98v-265h70v-65zM197.999 -48.9932h126v193z" />
    <glyph glyph-name="questiondown" unicode="&#xbf;" 
d="M319 810c26.667 0 46.665 -6.83301 59.998 -20.5s20 -34.834 20 -63.501v-28c0 -29.333 -6.66699 -51 -20 -65s-33.333 -21 -60 -21c-27.333 0 -47.666 7 -60.999 21s-20 35.667 -20 65v28c0 28.667 6.83301 49.834 20.5 63.501s33.834 20.5 60.501 20.5zM351.998 479
l15 -73.001c-87.333 -18.667 -145.5 -39.667 -174.5 -63s-43.5 -55 -43.5 -95v-32c0 -51.333 10.5 -88.166 31.5 -110.499s55.5 -33.5 103.5 -33.5c53.333 0 89.333 11.833 108 35.5s30 71.5 34 143.5l91 -10c-4 -93.333 -23 -158.5 -57 -195.5s-92.333 -55.5 -175 -55.5
c-73.333 0 -129.333 18.333 -168 55s-58 89.667 -58 159v48c0 64 21.5 112.667 64.5 146s119.167 60.333 228.5 81z" />
    <glyph glyph-name="Agrave" unicode="&#xc0;" 
d="M371 318l-79 374l-80 -374h159zM438 0l-50 238h-193l-51 -238h-89l187 800h101l187 -800h-92zM291 900l-151 200h128l97 -200h-74z" />
    <glyph glyph-name="Aacute" unicode="&#xc1;" 
d="M371 318l-79 374l-80 -374h159zM438 0l-50 238h-193l-51 -238h-89l187 800h101l187 -800h-92zM204 900l98 200h128l-151 -200h-75z" />
    <glyph glyph-name="Acircumflex" unicode="&#xc2;" 
d="M371 318l-79 374l-80 -374h159zM438 0l-50 238h-193l-51 -238h-89l187 800h101l187 -800h-92zM159 917l-42 51l142 147h67l143 -147l-42 -51l-135 108z" />
    <glyph glyph-name="Atilde" unicode="&#xc3;" 
d="M371 318l-79 374l-80 -374h159zM438 0l-50 238h-193l-51 -238h-89l187 800h101l187 -800h-92zM354 910c-20.667 0 -37.168 6.16699 -49.501 18.5s-22.5 25.833 -30.5 40.5l-22 40.5c-6.66699 12.333 -14.667 18.5 -24 18.5c-12 0 -20.667 -8 -26 -24
s-7.66602 -40.333 -6.99902 -73v-11h-66v15c0 49.333 8.83301 90.333 26.5 123s43.5 49 77.5 49c22 0 39.167 -6.16699 51.5 -18.5s22.5 -25.833 30.5 -40.5s15 -28.167 21 -40.5s13.333 -18.5 22 -18.5c11.333 0 19.833 8 25.5 24s8.5 40.333 8.5 73v11h65v-15
c0 -50 -8.83301 -91.167 -26.5 -123.5s-43.167 -48.5 -76.5 -48.5z" />
    <glyph glyph-name="Adieresis" unicode="&#xc4;" 
d="M371 318l-79 374l-80 -374h159zM438 0l-50 238h-193l-51 -238h-89l187 800h101l187 -800h-92zM204 913c-16 0 -29.001 3.83301 -39.001 11.5s-15 21.834 -15 42.501v6c0 21.333 5 36 15 44s23 12 39 12c16.667 0 29.834 -4 39.501 -12s14.5 -22.667 14.5 -44v-6
c0 -20.667 -5 -34.834 -15 -42.501s-23 -11.5 -39 -11.5zM381.999 913c-16.667 0 -29.835 3.83301 -39.502 11.5s-14.5 21.834 -14.5 42.501v6c0 21.333 4.83301 36 14.5 44s22.834 12 39.501 12c16 0 29 -4 39 -12s15 -22.667 15 -44v-6
c0 -20.667 -5.16699 -34.834 -15.5 -42.501s-23.166 -11.5 -38.499 -11.5z" />
    <glyph glyph-name="Aring" unicode="&#xc5;" 
d="M371 318l-79 374l-80 -374h159zM438 0l-50 238h-193l-51 -238h-89l187 800h101l187 -800h-92zM293 887c-38 0 -68.833 11.667 -92.5 35s-35.5 59.333 -35.5 108v32c0 49.333 11.833 86 35.5 110s54.5 36 92.5 36s68.833 -12 92.5 -36s35.5 -60.667 35.5 -110v-32
c0 -48.667 -11.833 -84.667 -35.5 -108s-54.5 -35 -92.5 -35zM293 954c19.333 0 34.166 5.83301 44.499 17.5s15.5 31.167 15.5 58.5v32c0 26.667 -5.16699 46.5 -15.5 59.5s-25.166 19.5 -44.499 19.5c-20 0 -35 -6.5 -45 -19.5s-15 -32.833 -15 -59.5v-32
c0 -27.333 5 -46.833 15 -58.5s25 -17.5 45 -17.5z" />
    <glyph glyph-name="AE" unicode="&#xc6;" 
d="M254 730l-86 -422h127v422h-41zM295 238h-141l-49 -238h-73l176 800h338v-70h-171v-265h162v-70h-162v-325h171v-70h-251v238z" />
    <glyph glyph-name="Ccedilla" unicode="&#xc7;" 
d="M302 -10c-71.333 0 -125.333 22.668 -162 68.001s-55 112.333 -55 201v278c0 90 18.333 158 55 204s90.667 69 162 69c69.333 0 121.333 -21.833 156 -65.5s54 -111.167 58 -202.5l-90 -10c-4.66699 74.667 -16 126.334 -34 155.001s-48 43 -90 43
c-46 0 -78.5 -14.333 -97.5 -43s-28.5 -77.334 -28.5 -146.001v-286c0 -62 10.5 -108.333 31.5 -139s52.5 -46 94.5 -46s72 13.833 90 41.5s29.333 78.5 34 152.5l90 -10c-4 -90.667 -23.333 -157.334 -58 -200.001s-86.667 -64 -156 -64zM278 0.000976562l14.999 42.002
c34.667 -6.66699 60.834 -21.334 78.501 -44.001s26.5 -52.334 26.5 -89.001c0 -42 -12.5 -73 -37.5 -93s-52.833 -30 -83.5 -30c-36 0 -65.333 7.66699 -88 23s-35.334 41.333 -38.001 78l79 10c0.666992 -12.667 4.33398 -21.5 11.001 -26.5s17.334 -7.5 32.001 -7.5
s25.667 4.16699 33 12.5s11 23.833 11 46.5c0 24.667 -2.83301 42.5 -8.5 53.5s-15.834 19.167 -30.501 24.5z" />
    <glyph glyph-name="Egrave" unicode="&#xc8;" 
d="M97 0v800h403v-80h-312v-243h274v-81h-274v-316h312v-80h-403zM301 900l-151 200h128l97 -200h-74z" />
    <glyph glyph-name="Eacute" unicode="&#xc9;" 
d="M97 0v800h403v-80h-312v-243h274v-81h-274v-316h312v-80h-403zM226 900l98 200h128l-151 -200h-75z" />
    <glyph glyph-name="Ecircumflex" unicode="&#xca;" 
d="M97 0v800h403v-80h-312v-243h274v-81h-274v-316h312v-80h-403zM172 917l-42 51l142 147h67l143 -147l-42 -51l-135 108z" />
    <glyph glyph-name="Edieresis" unicode="&#xcb;" 
d="M97 0v800h403v-80h-312v-243h274v-81h-274v-316h312v-80h-403zM218 913c-16 0 -29.001 3.83301 -39.001 11.5s-15 21.834 -15 42.501v6c0 21.333 5 36 15 44s23 12 39 12c16.667 0 29.834 -4 39.501 -12s14.5 -22.667 14.5 -44v-6c0 -20.667 -5 -34.834 -15 -42.501
s-23 -11.5 -39 -11.5zM395.999 913c-16.667 0 -29.835 3.83301 -39.502 11.5s-14.5 21.834 -14.5 42.501v6c0 21.333 4.83301 36 14.5 44s22.834 12 39.501 12c16 0 29 -4 39 -12s15 -22.667 15 -44v-6c0 -20.667 -5.16699 -34.834 -15.5 -42.501
s-23.166 -11.5 -38.499 -11.5z" />
    <glyph glyph-name="Igrave" unicode="&#xcc;" 
d="M97 0v80h150v640h-150v80h391v-80h-150v-640h150v-80h-391zM291 900l-151 200h128l97 -200h-74z" />
    <glyph glyph-name="Iacute" unicode="&#xcd;" 
d="M97 0v80h150v640h-150v80h391v-80h-150v-640h150v-80h-391zM204 900l98 200h128l-151 -200h-75z" />
    <glyph glyph-name="Icircumflex" unicode="&#xce;" 
d="M97 0v80h150v640h-150v80h391v-80h-150v-640h150v-80h-391zM159 917l-42 51l142 147h67l143 -147l-42 -51l-135 108z" />
    <glyph glyph-name="Idieresis" unicode="&#xcf;" 
d="M97 0v80h150v640h-150v80h391v-80h-150v-640h150v-80h-391zM204 913c-16 0 -29.001 3.83301 -39.001 11.5s-15 21.834 -15 42.501v6c0 21.333 5 36 15 44s23 12 39 12c16.667 0 29.834 -4 39.501 -12s14.5 -22.667 14.5 -44v-6c0 -20.667 -5 -34.834 -15 -42.501
s-23 -11.5 -39 -11.5zM381.999 913c-16.667 0 -29.835 3.83301 -39.502 11.5s-14.5 21.834 -14.5 42.501v6c0 21.333 4.83301 36 14.5 44s22.834 12 39.501 12c16 0 29 -4 39 -12s15 -22.667 15 -44v-6c0 -20.667 -5.16699 -34.834 -15.5 -42.501
s-23.166 -11.5 -38.499 -11.5z" />
    <glyph glyph-name="Eth" unicode="&#xd0;" 
d="M97 0v396.999h-67v86h67v317h178c68.667 0 123.334 -24.5 164.001 -73.5s61 -114.833 61 -197.5v-262c0 -81.333 -20.333 -146.166 -61 -194.499s-95.334 -72.5 -164.001 -72.5h-178zM188 79.999h84c44 0 77.833 15.667 101.5 47s35.5 77 35.5 137v268
c0 61.333 -11.833 108 -35.5 140s-57.5 48 -101.5 48h-84v-237h105v-86h-105v-317z" />
    <glyph glyph-name="Ntilde" unicode="&#xd1;" 
d="M366 0l-189 691v-691h-80v800h115l196 -690v690h80v-800h-122zM365 910c-20.667 0 -37.168 6.16699 -49.501 18.5s-22.5 25.833 -30.5 40.5l-22 40.5c-6.66699 12.333 -14.667 18.5 -24 18.5c-12 0 -20.667 -8 -26 -24s-7.66602 -40.333 -6.99902 -73v-11h-66v15
c0 49.333 8.83301 90.333 26.5 123s43.5 49 77.5 49c22 0 39.167 -6.16699 51.5 -18.5s22.5 -25.833 30.5 -40.5s15 -28.167 21 -40.5s13.333 -18.5 22 -18.5c11.333 0 19.833 8 25.5 24s8.5 40.333 8.5 73v11h65v-15c0 -50 -8.83301 -91.167 -26.5 -123.5
s-43.167 -48.5 -76.5 -48.5z" />
    <glyph glyph-name="Ograve" unicode="&#xd2;" 
d="M293 -10c-67.333 0 -118.833 23.333 -154.5 70s-53.5 114 -53.5 202v272c0 89.333 17.833 157.666 53.5 204.999s87.167 71 154.5 71s118.666 -23.667 153.999 -71s53 -115.666 53 -204.999v-272c0 -88 -17.667 -155.333 -53 -202s-86.666 -70 -153.999 -70zM293 70
c42 0 71.833 14.167 89.5 42.5s26.5 77.166 26.5 146.499v278c0 70.667 -8.83301 120.5 -26.5 149.5s-47.5 43.5 -89.5 43.5c-42.667 0 -72.834 -14.5 -90.501 -43.5s-26.5 -78.833 -26.5 -149.5v-278c0 -69.333 8.83301 -118.166 26.5 -146.499s47.834 -42.5 90.501 -42.5z
M291 900l-151 200h128l97 -200h-74z" />
    <glyph glyph-name="Oacute" unicode="&#xd3;" 
d="M293 -10c-67.333 0 -118.833 23.333 -154.5 70s-53.5 114 -53.5 202v272c0 89.333 17.833 157.666 53.5 204.999s87.167 71 154.5 71s118.666 -23.667 153.999 -71s53 -115.666 53 -204.999v-272c0 -88 -17.667 -155.333 -53 -202s-86.666 -70 -153.999 -70zM293 70
c42 0 71.833 14.167 89.5 42.5s26.5 77.166 26.5 146.499v278c0 70.667 -8.83301 120.5 -26.5 149.5s-47.5 43.5 -89.5 43.5c-42.667 0 -72.834 -14.5 -90.501 -43.5s-26.5 -78.833 -26.5 -149.5v-278c0 -69.333 8.83301 -118.166 26.5 -146.499s47.834 -42.5 90.501 -42.5z
M232 900l98 200h128l-151 -200h-75z" />
    <glyph glyph-name="Ocircumflex" unicode="&#xd4;" 
d="M293 -10c-67.333 0 -118.833 23.333 -154.5 70s-53.5 114 -53.5 202v272c0 89.333 17.833 157.666 53.5 204.999s87.167 71 154.5 71s118.666 -23.667 153.999 -71s53 -115.666 53 -204.999v-272c0 -88 -17.667 -155.333 -53 -202s-86.666 -70 -153.999 -70zM293 70
c42 0 71.833 14.167 89.5 42.5s26.5 77.166 26.5 146.499v278c0 70.667 -8.83301 120.5 -26.5 149.5s-47.5 43.5 -89.5 43.5c-42.667 0 -72.834 -14.5 -90.501 -43.5s-26.5 -78.833 -26.5 -149.5v-278c0 -69.333 8.83301 -118.166 26.5 -146.499s47.834 -42.5 90.501 -42.5z
M159 917l-42 51l142 147h67l143 -147l-42 -51l-135 108z" />
    <glyph glyph-name="Otilde" unicode="&#xd5;" 
d="M293 -10c-67.333 0 -118.833 23.333 -154.5 70s-53.5 114 -53.5 202v272c0 89.333 17.833 157.666 53.5 204.999s87.167 71 154.5 71s118.666 -23.667 153.999 -71s53 -115.666 53 -204.999v-272c0 -88 -17.667 -155.333 -53 -202s-86.666 -70 -153.999 -70zM293 70
c42 0 71.833 14.167 89.5 42.5s26.5 77.166 26.5 146.499v278c0 70.667 -8.83301 120.5 -26.5 149.5s-47.5 43.5 -89.5 43.5c-42.667 0 -72.834 -14.5 -90.501 -43.5s-26.5 -78.833 -26.5 -149.5v-278c0 -69.333 8.83301 -118.166 26.5 -146.499s47.834 -42.5 90.501 -42.5z
M354 910c-20.667 0 -37.168 6.16699 -49.501 18.5s-22.5 25.833 -30.5 40.5l-22 40.5c-6.66699 12.333 -14.667 18.5 -24 18.5c-12 0 -20.667 -8 -26 -24s-7.66602 -40.333 -6.99902 -73v-11h-66v15c0 49.333 8.83301 90.333 26.5 123s43.5 49 77.5 49
c22 0 39.167 -6.16699 51.5 -18.5s22.5 -25.833 30.5 -40.5s15 -28.167 21 -40.5s13.333 -18.5 22 -18.5c11.333 0 19.833 8 25.5 24s8.5 40.333 8.5 73v11h65v-15c0 -50 -8.83301 -91.167 -26.5 -123.5s-43.167 -48.5 -76.5 -48.5z" />
    <glyph glyph-name="Odieresis" unicode="&#xd6;" 
d="M293 -10c-67.333 0 -118.833 23.333 -154.5 70s-53.5 114 -53.5 202v272c0 89.333 17.833 157.666 53.5 204.999s87.167 71 154.5 71s118.666 -23.667 153.999 -71s53 -115.666 53 -204.999v-272c0 -88 -17.667 -155.333 -53 -202s-86.666 -70 -153.999 -70zM293 70
c42 0 71.833 14.167 89.5 42.5s26.5 77.166 26.5 146.499v278c0 70.667 -8.83301 120.5 -26.5 149.5s-47.5 43.5 -89.5 43.5c-42.667 0 -72.834 -14.5 -90.501 -43.5s-26.5 -78.833 -26.5 -149.5v-278c0 -69.333 8.83301 -118.166 26.5 -146.499s47.834 -42.5 90.501 -42.5z
M204 913c-16 0 -29.001 3.83301 -39.001 11.5s-15 21.834 -15 42.501v6c0 21.333 5 36 15 44s23 12 39 12c16.667 0 29.834 -4 39.501 -12s14.5 -22.667 14.5 -44v-6c0 -20.667 -5 -34.834 -15 -42.501s-23 -11.5 -39 -11.5zM381.999 913
c-16.667 0 -29.835 3.83301 -39.502 11.5s-14.5 21.834 -14.5 42.501v6c0 21.333 4.83301 36 14.5 44s22.834 12 39.501 12c16 0 29 -4 39 -12s15 -22.667 15 -44v-6c0 -20.667 -5.16699 -34.834 -15.5 -42.501s-23.166 -11.5 -38.499 -11.5z" />
    <glyph glyph-name="multiply" unicode="&#xd7;" 
d="M142 58l-59 47l156 245l-156 245l59 47l151 -235l150 229l59 -47l-156 -239l156 -239l-59 -47l-150 229z" />
    <glyph glyph-name="Oslash" unicode="&#xd8;" 
d="M184 149l163.998 571.001c-7.33301 3.33301 -15.666 5.83301 -24.999 7.5s-19.333 2.5 -30 2.5c-43.333 0 -74.166 -14.333 -92.499 -43s-27.5 -77.334 -27.5 -146.001v-286c0 -22 1 -41.833 3 -59.5s4.66699 -33.167 8 -46.5zM292.998 70.001
c43.333 0 74 13.999 92 41.999s27 75.667 27 143v286c0 26.667 -1.33301 50.334 -4 71.001s-6.66699 38.334 -12 53.001l-168 -580c8.66699 -4.66699 18.5 -8.33398 29.5 -11.001s22.833 -4 35.5 -4zM292.998 -10c-15.333 0 -29.834 1.33203 -43.501 3.99902
s-26.5 6.33398 -38.5 11.001l-34 -105h-81l49 152c-19.333 22.667 -34.166 51.334 -44.499 86.001s-15.5 75 -15.5 121v278c0 87.333 18 154.666 54 201.999s87.333 71 154 71c12.667 0 25 -1 37 -3s23.333 -4.66699 34 -8l32 101h81l-45 -144
c22.667 -22.667 39.667 -52.5 51 -89.5s17 -80.167 17 -129.5v-278c0 -86 -18 -152.333 -54 -199s-87 -70 -153 -70z" />
    <glyph glyph-name="Ugrave" unicode="&#xd9;" 
d="M293 -10c-66.667 0 -116.001 21.833 -148.001 65.5s-48 110.834 -48 201.501v543h91v-549c0 -67.333 7.83301 -114.5 23.5 -141.5s42.834 -40.5 81.501 -40.5s65.667 13.5 81 40.5s23 74.167 23 141.5v549h91v-543c0 -90.667 -16 -157.834 -48 -201.501
s-81 -65.5 -147 -65.5zM290.999 900l-151 200h128l97 -200h-74z" />
    <glyph glyph-name="Uacute" unicode="&#xda;" 
d="M293 -10c-66.667 0 -116.001 21.833 -148.001 65.5s-48 110.834 -48 201.501v543h91v-549c0 -67.333 7.83301 -114.5 23.5 -141.5s42.834 -40.5 81.501 -40.5s65.667 13.5 81 40.5s23 74.167 23 141.5v549h91v-543c0 -90.667 -16 -157.834 -48 -201.501
s-81 -65.5 -147 -65.5zM203.999 900l98 200h128l-151 -200h-75z" />
    <glyph glyph-name="Ucircumflex" unicode="&#xdb;" 
d="M293 -10c-66.667 0 -116.001 21.833 -148.001 65.5s-48 110.834 -48 201.501v543h91v-549c0 -67.333 7.83301 -114.5 23.5 -141.5s42.834 -40.5 81.501 -40.5s65.667 13.5 81 40.5s23 74.167 23 141.5v549h91v-543c0 -90.667 -16 -157.834 -48 -201.501
s-81 -65.5 -147 -65.5zM158.999 917l-42 51l142 147h67l143 -147l-42 -51l-135 108z" />
    <glyph glyph-name="Udieresis" unicode="&#xdc;" 
d="M293 -10c-66.667 0 -116.001 21.833 -148.001 65.5s-48 110.834 -48 201.501v543h91v-549c0 -67.333 7.83301 -114.5 23.5 -141.5s42.834 -40.5 81.501 -40.5s65.667 13.5 81 40.5s23 74.167 23 141.5v549h91v-543c0 -90.667 -16 -157.834 -48 -201.501
s-81 -65.5 -147 -65.5zM203.999 913c-16 0 -29.001 3.83301 -39.001 11.5s-15 21.834 -15 42.501v6c0 21.333 5 36 15 44s23 12 39 12c16.667 0 29.834 -4 39.501 -12s14.5 -22.667 14.5 -44v-6c0 -20.667 -5 -34.834 -15 -42.501s-23 -11.5 -39 -11.5zM381.998 913
c-16.667 0 -29.835 3.83301 -39.502 11.5s-14.5 21.834 -14.5 42.501v6c0 21.333 4.83301 36 14.5 44s22.834 12 39.501 12c16 0 29 -4 39 -12s15 -22.667 15 -44v-6c0 -20.667 -5.16699 -34.834 -15.5 -42.501s-23.166 -11.5 -38.499 -11.5z" />
    <glyph glyph-name="Yacute" unicode="&#xdd;" 
d="M338 0h-91v300l-206 500h97l158 -404l151 404h97l-206 -500v-300zM204 900l98 200h128l-151 -200h-75z" />
    <glyph glyph-name="Thorn" unicode="&#xde;" 
d="M97 0v800h91v-132h125c62 0 109.667 -18.167 143 -54.5s50 -88.5 50 -156.5v-82c0 -71.333 -16.667 -126 -50 -164s-81.333 -57 -144 -57h-124v-154h-91zM188 233h119c39.333 0 67.166 10.333 83.499 31s24.5 56 24.5 106v91c0 46 -8.16699 78.667 -24.5 98
s-44.166 29 -83.499 29h-119v-355z" />
    <glyph glyph-name="germandbls" unicode="&#xdf;" 
d="M383 -6c-34.667 0 -66.833 7.83398 -96.5 23.501s-54.5 38.167 -74.5 67.5l39 74c18 -22 37.5 -41.5 58.5 -58.5s43.167 -25.5 66.5 -25.5c26.667 0 46.167 7.33301 58.5 22s18.5 37.334 18.5 68.001c0 28.667 -6.5 50 -19.5 64s-37.833 27.667 -74.5 41
c-51.333 18.667 -87.5 40.334 -108.5 65.001s-31.5 59 -31.5 103c0 50 13.333 89.167 40 117.5s63.667 44.833 111 49.5c-4 40.667 -15 71.334 -33 92.001s-43 31 -75 31c-34 0 -60.333 -13.333 -79 -40s-28 -64.334 -28 -113.001v-575h-89v587
c0 68.667 17.5 122.667 52.5 162s83.167 59 144.5 59c58.667 0 106 -21 142 -63s54 -96 54 -162v-41c-52.667 -0.666992 -91.5 -8.83398 -116.5 -24.501s-37.5 -39.834 -37.5 -72.501c0 -27.333 7.5 -46.833 22.5 -58.5s43.5 -24.834 85.5 -39.501
c46 -16.667 78.5 -38 97.5 -64s28.5 -63 28.5 -111c0 -56 -14.5 -99.667 -43.5 -131s-66.5 -47 -112.5 -47z" />
    <glyph glyph-name="agrave" unicode="&#xe0;" 
d="M239 71c28.667 0 52.832 6.33301 72.499 19s35.834 33.334 48.501 62.001v106h-112c-27.333 0 -48 -6.83301 -62 -20.5s-21 -37.167 -21 -70.5c0 -30.667 5.66699 -54.334 17 -71.001s30.333 -25 57 -25zM222.998 -10c-46 0 -81.667 15.001 -107 45.001
s-38 71.667 -38 125c0 52 14 93.167 42 123.5s66 45.5 114 45.5h126v99c0 29.333 -7.5 53.166 -22.5 71.499s-37.833 27.5 -68.5 27.5c-32.667 0 -56.167 -7.83301 -70.5 -23.5s-25.5 -44.5 -33.5 -86.5l-77 24c10 56.667 30 99 60 127s70.333 42 121 42
c52.667 0 95.834 -14 129.501 -42s50.5 -70 50.5 -126v-297c0 -30.667 6.83301 -51 20.5 -61s35.167 -11 64.5 -3v-85c-43.333 -6.66699 -76 -2.5 -98 12.5s-35 42.167 -39 81.5h-16c-13.333 -29.333 -34.333 -53.333 -63 -72s-60.334 -28 -95.001 -28zM276.998 700.001
l-151 200h128l97 -200h-74z" />
    <glyph glyph-name="aacute" unicode="&#xe1;" 
d="M239 71c28.667 0 52.832 6.33301 72.499 19s35.834 33.334 48.501 62.001v106h-112c-27.333 0 -48 -6.83301 -62 -20.5s-21 -37.167 -21 -70.5c0 -30.667 5.66699 -54.334 17 -71.001s30.333 -25 57 -25zM222.998 -10c-46 0 -81.667 15.001 -107 45.001
s-38 71.667 -38 125c0 52 14 93.167 42 123.5s66 45.5 114 45.5h126v99c0 29.333 -7.5 53.166 -22.5 71.499s-37.833 27.5 -68.5 27.5c-32.667 0 -56.167 -7.83301 -70.5 -23.5s-25.5 -44.5 -33.5 -86.5l-77 24c10 56.667 30 99 60 127s70.333 42 121 42
c52.667 0 95.834 -14 129.501 -42s50.5 -70 50.5 -126v-297c0 -30.667 6.83301 -51 20.5 -61s35.167 -11 64.5 -3v-85c-43.333 -6.66699 -76 -2.5 -98 12.5s-35 42.167 -39 81.5h-16c-13.333 -29.333 -34.333 -53.333 -63 -72s-60.334 -28 -95.001 -28zM189.998 700.001
l98 200h128l-151 -200h-75z" />
    <glyph glyph-name="acircumflex" unicode="&#xe2;" 
d="M239 71c28.667 0 52.832 6.33301 72.499 19s35.834 33.334 48.501 62.001v106h-112c-27.333 0 -48 -6.83301 -62 -20.5s-21 -37.167 -21 -70.5c0 -30.667 5.66699 -54.334 17 -71.001s30.333 -25 57 -25zM222.998 -10c-46 0 -81.667 15.001 -107 45.001
s-38 71.667 -38 125c0 52 14 93.167 42 123.5s66 45.5 114 45.5h126v99c0 29.333 -7.5 53.166 -22.5 71.499s-37.833 27.5 -68.5 27.5c-32.667 0 -56.167 -7.83301 -70.5 -23.5s-25.5 -44.5 -33.5 -86.5l-77 24c10 56.667 30 99 60 127s70.333 42 121 42
c52.667 0 95.834 -14 129.501 -42s50.5 -70 50.5 -126v-297c0 -30.667 6.83301 -51 20.5 -61s35.167 -11 64.5 -3v-85c-43.333 -6.66699 -76 -2.5 -98 12.5s-35 42.167 -39 81.5h-16c-13.333 -29.333 -34.333 -53.333 -63 -72s-60.334 -28 -95.001 -28zM150.998 717.001
l-42 51l142 147h67l143 -147l-42 -51l-135 108z" />
    <glyph glyph-name="atilde" unicode="&#xe3;" 
d="M239 71c28.667 0 52.832 6.33301 72.499 19s35.834 33.334 48.501 62.001v106h-112c-27.333 0 -48 -6.83301 -62 -20.5s-21 -37.167 -21 -70.5c0 -30.667 5.66699 -54.334 17 -71.001s30.333 -25 57 -25zM222.998 -10c-46 0 -81.667 15.001 -107 45.001
s-38 71.667 -38 125c0 52 14 93.167 42 123.5s66 45.5 114 45.5h126v99c0 29.333 -7.5 53.166 -22.5 71.499s-37.833 27.5 -68.5 27.5c-32.667 0 -56.167 -7.83301 -70.5 -23.5s-25.5 -44.5 -33.5 -86.5l-77 24c10 56.667 30 99 60 127s70.333 42 121 42
c52.667 0 95.834 -14 129.501 -42s50.5 -70 50.5 -126v-297c0 -30.667 6.83301 -51 20.5 -61s35.167 -11 64.5 -3v-85c-43.333 -6.66699 -76 -2.5 -98 12.5s-35 42.167 -39 81.5h-16c-13.333 -29.333 -34.333 -53.333 -63 -72s-60.334 -28 -95.001 -28zM339.998 710.001
c-20.667 0 -37.168 6.16699 -49.501 18.5s-22.5 25.833 -30.5 40.5l-22 40.5c-6.66699 12.333 -14.667 18.5 -24 18.5c-12 0 -20.667 -8 -26 -24s-7.66602 -40.333 -6.99902 -73v-11h-66v15c0 49.333 8.83301 90.333 26.5 123s43.5 49 77.5 49
c22 0 39.167 -6.16699 51.5 -18.5s22.5 -25.833 30.5 -40.5s15 -28.167 21 -40.5s13.333 -18.5 22 -18.5c11.333 0 19.833 8 25.5 24s8.5 40.333 8.5 73v11h65v-15c0 -50 -8.83301 -91.167 -26.5 -123.5s-43.167 -48.5 -76.5 -48.5z" />
    <glyph glyph-name="adieresis" unicode="&#xe4;" 
d="M239 71c28.667 0 52.832 6.33301 72.499 19s35.834 33.334 48.501 62.001v106h-112c-27.333 0 -48 -6.83301 -62 -20.5s-21 -37.167 -21 -70.5c0 -30.667 5.66699 -54.334 17 -71.001s30.333 -25 57 -25zM222.998 -10c-46 0 -81.667 15.001 -107 45.001
s-38 71.667 -38 125c0 52 14 93.167 42 123.5s66 45.5 114 45.5h126v99c0 29.333 -7.5 53.166 -22.5 71.499s-37.833 27.5 -68.5 27.5c-32.667 0 -56.167 -7.83301 -70.5 -23.5s-25.5 -44.5 -33.5 -86.5l-77 24c10 56.667 30 99 60 127s70.333 42 121 42
c52.667 0 95.834 -14 129.501 -42s50.5 -70 50.5 -126v-297c0 -30.667 6.83301 -51 20.5 -61s35.167 -11 64.5 -3v-85c-43.333 -6.66699 -76 -2.5 -98 12.5s-35 42.167 -39 81.5h-16c-13.333 -29.333 -34.333 -53.333 -63 -72s-60.334 -28 -95.001 -28zM189.998 713.001
c-16 0 -29.001 3.83301 -39.001 11.5s-15 21.834 -15 42.501v6c0 21.333 5 36 15 44s23 12 39 12c16.667 0 29.834 -4 39.501 -12s14.5 -22.667 14.5 -44v-6c0 -20.667 -5 -34.834 -15 -42.501s-23 -11.5 -39 -11.5zM367.997 713.001
c-16.667 0 -29.835 3.83301 -39.502 11.5s-14.5 21.834 -14.5 42.501v6c0 21.333 4.83301 36 14.5 44s22.834 12 39.501 12c16 0 29 -4 39 -12s15 -22.667 15 -44v-6c0 -20.667 -5.16699 -34.834 -15.5 -42.501s-23.166 -11.5 -38.499 -11.5z" />
    <glyph glyph-name="aring" unicode="&#xe5;" 
d="M239 71c28.667 0 52.832 6.33301 72.499 19s35.834 33.334 48.501 62.001v106h-112c-27.333 0 -48 -6.83301 -62 -20.5s-21 -37.167 -21 -70.5c0 -30.667 5.66699 -54.334 17 -71.001s30.333 -25 57 -25zM222.998 -10c-46 0 -81.667 15.001 -107 45.001
s-38 71.667 -38 125c0 52 14 93.167 42 123.5s66 45.5 114 45.5h126v99c0 29.333 -7.5 53.166 -22.5 71.499s-37.833 27.5 -68.5 27.5c-32.667 0 -56.167 -7.83301 -70.5 -23.5s-25.5 -44.5 -33.5 -86.5l-77 24c10 56.667 30 99 60 127s70.333 42 121 42
c52.667 0 95.834 -14 129.501 -42s50.5 -70 50.5 -126v-297c0 -30.667 6.83301 -51 20.5 -61s35.167 -11 64.5 -3v-85c-43.333 -6.66699 -76 -2.5 -98 12.5s-35 42.167 -39 81.5h-16c-13.333 -29.333 -34.333 -53.333 -63 -72s-60.334 -28 -95.001 -28zM277.998 687.001
c-38 0 -68.833 11.667 -92.5 35s-35.5 59.333 -35.5 108v32c0 49.333 11.833 86 35.5 110s54.5 36 92.5 36s68.833 -12 92.5 -36s35.5 -60.667 35.5 -110v-32c0 -48.667 -11.833 -84.667 -35.5 -108s-54.5 -35 -92.5 -35zM277.998 754.001
c19.333 0 34.166 5.83301 44.499 17.5s15.5 31.167 15.5 58.5v32c0 26.667 -5.16699 46.5 -15.5 59.5s-25.166 19.5 -44.499 19.5c-20 0 -35 -6.5 -45 -19.5s-15 -32.833 -15 -59.5v-32c0 -27.333 5 -46.833 15 -58.5s25 -17.5 45 -17.5z" />
    <glyph glyph-name="ae" unicode="&#xe6;" 
d="M535 143c-6.66699 -52 -20.6621 -90.5029 -41.9951 -115.503s-52 -37.5 -92 -37.5c-28.667 0 -52.834 7.33301 -72.501 22s-34.5 37.334 -44.5 68.001h-13c-10 -26.667 -23.667 -48.334 -41 -65.001s-39.666 -25 -66.999 -25c-34 0 -61.167 15.5 -81.5 46.5
s-30.5 72.833 -30.5 125.5c0 52 11.833 92.833 35.5 122.5s52.5 44.5 86.5 44.5h86v92c0 34.667 -5.33301 63 -16 85s-26.334 33 -47.001 33c-18.667 0 -32.334 -6.16699 -41.001 -18.5s-17.334 -39.166 -26.001 -80.499l-68 24c8 52 22.5 89.333 43.5 112s50.5 34 88.5 34
c23.333 0 43.666 -5.5 60.999 -16.5s31 -27.5 41 -49.5c11.333 22.667 25.833 39.334 43.5 50.001s37.5 16 59.5 16c40.667 0 73.5 -16.167 98.5 -48.5s37.5 -82.166 37.5 -149.499v-129h-204v-105c0 -43.333 5.16699 -74.333 15.5 -93s26.5 -28 48.5 -28
c21.333 0 36.666 6.16699 45.999 18.5s16 36.5 20 72.5zM330.005 415.997v-73h129v64c0 46.667 -5.33301 80.834 -16 102.501s-26.667 32.5 -48 32.5c-20.667 0 -36.667 -10.333 -48 -31s-17 -52.334 -17 -95.001zM259.005 138.997l-0.000976562 130h-64
c-19.333 0 -35.166 -7.5 -47.499 -22.5s-18.5 -41.5 -18.5 -79.5c0 -34 4.16699 -60.5 12.5 -79.5s21.833 -28.5 40.5 -28.5c16 0 30 7.16699 42 21.5s23.667 33.833 35 58.5z" />
    <glyph glyph-name="ccedilla" unicode="&#xe7;" 
d="M302 -10c-68.667 0 -119.667 18.001 -153 54.001s-50 86.333 -50 151v204c0 67.333 16.833 119.333 50.5 156s84.167 55 151.5 55c61.333 0 107.5 -16.333 138.5 -49s48.833 -84 53.5 -154l-88 -4c-2.66699 50 -12.167 83.333 -28.5 100s-41.833 25 -76.5 25
c-36 0 -63.5 -9.5 -82.5 -28.5s-28.5 -51.5 -28.5 -97.5v-208c0 -43.333 9.5 -74.5 28.5 -93.5s46.833 -28.5 83.5 -28.5c35.333 0 60.833 6.66699 76.5 20s24.834 41.666 27.501 84.999l88 -4c-3.33301 -64 -20.333 -110.5 -51 -139.5s-77.334 -43.5 -140.001 -43.5z
M274 0.000976562l14.999 42.002c34.667 -6.66699 60.834 -21.334 78.501 -44.001s26.5 -52.334 26.5 -89.001c0 -42 -12.5 -73 -37.5 -93s-52.833 -30 -83.5 -30c-36 0 -65.333 7.66699 -88 23s-35.334 41.333 -38.001 78l79 10
c0.666992 -12.667 4.33398 -21.5 11.001 -26.5s17.334 -7.5 32.001 -7.5s25.667 4.16699 33 12.5s11 23.833 11 46.5c0 24.667 -2.83301 42.5 -8.5 53.5s-15.834 19.167 -30.501 24.5z" />
    <glyph glyph-name="egrave" unicode="&#xe8;" 
d="M490 130c-15.333 -48 -37.3311 -83.333 -65.998 -106s-72 -34 -130 -34c-60 0 -107.5 17.5 -142.5 52.5s-52.5 86.833 -52.5 155.5v201c0 70.667 18.167 123.5 54.5 158.5s82.833 52.5 139.5 52.5c58 0 104.667 -18 140 -54s53 -91 53 -165v-108h-297v-84
c0 -46.667 8.66699 -80 26 -100s43.666 -30 78.999 -30c33.333 0 58.166 7 74.499 21s28.833 36 37.5 66zM189.002 396v-42.001h207v33c0 50 -8.5 86.5 -25.5 109.5s-42.833 34.5 -77.5 34.5c-35.333 0 -61.5 -11.167 -78.5 -33.5s-25.5 -56.166 -25.5 -101.499z
M292.002 699.999l-151 200h128l97 -200h-74z" />
    <glyph glyph-name="eacute" unicode="&#xe9;" 
d="M490 130c-15.333 -48 -37.3311 -83.333 -65.998 -106s-72 -34 -130 -34c-60 0 -107.5 17.5 -142.5 52.5s-52.5 86.833 -52.5 155.5v201c0 70.667 18.167 123.5 54.5 158.5s82.833 52.5 139.5 52.5c58 0 104.667 -18 140 -54s53 -91 53 -165v-108h-297v-84
c0 -46.667 8.66699 -80 26 -100s43.666 -30 78.999 -30c33.333 0 58.166 7 74.499 21s28.833 36 37.5 66zM189.002 396v-42.001h207v33c0 50 -8.5 86.5 -25.5 109.5s-42.833 34.5 -77.5 34.5c-35.333 0 -61.5 -11.167 -78.5 -33.5s-25.5 -56.166 -25.5 -101.499z
M208.002 699.999l98 200h128l-151 -200h-75z" />
    <glyph glyph-name="ecircumflex" unicode="&#xea;" 
d="M490 130c-15.333 -48 -37.3311 -83.333 -65.998 -106s-72 -34 -130 -34c-60 0 -107.5 17.5 -142.5 52.5s-52.5 86.833 -52.5 155.5v201c0 70.667 18.167 123.5 54.5 158.5s82.833 52.5 139.5 52.5c58 0 104.667 -18 140 -54s53 -91 53 -165v-108h-297v-84
c0 -46.667 8.66699 -80 26 -100s43.666 -30 78.999 -30c33.333 0 58.166 7 74.499 21s28.833 36 37.5 66zM189.002 396v-42.001h207v33c0 50 -8.5 86.5 -25.5 109.5s-42.833 34.5 -77.5 34.5c-35.333 0 -61.5 -11.167 -78.5 -33.5s-25.5 -56.166 -25.5 -101.499z
M160.002 716.999l-42 51l142 147h67l143 -147l-42 -51l-135 108z" />
    <glyph glyph-name="edieresis" unicode="&#xeb;" 
d="M490 130c-15.333 -48 -37.3311 -83.333 -65.998 -106s-72 -34 -130 -34c-60 0 -107.5 17.5 -142.5 52.5s-52.5 86.833 -52.5 155.5v201c0 70.667 18.167 123.5 54.5 158.5s82.833 52.5 139.5 52.5c58 0 104.667 -18 140 -54s53 -91 53 -165v-108h-297v-84
c0 -46.667 8.66699 -80 26 -100s43.666 -30 78.999 -30c33.333 0 58.166 7 74.499 21s28.833 36 37.5 66zM189.002 396v-42.001h207v33c0 50 -8.5 86.5 -25.5 109.5s-42.833 34.5 -77.5 34.5c-35.333 0 -61.5 -11.167 -78.5 -33.5s-25.5 -56.166 -25.5 -101.499z
M205.002 712.999c-16 0 -29.001 3.83301 -39.001 11.5s-15 21.834 -15 42.501v6c0 21.333 5 36 15 44s23 12 39 12c16.667 0 29.834 -4 39.501 -12s14.5 -22.667 14.5 -44v-6c0 -20.667 -5 -34.834 -15 -42.501s-23 -11.5 -39 -11.5zM383.001 712.999
c-16.667 0 -29.835 3.83301 -39.502 11.5s-14.5 21.834 -14.5 42.501v6c0 21.333 4.83301 36 14.5 44s22.834 12 39.501 12c16 0 29 -4 39 -12s15 -22.667 15 -44v-6c0 -20.667 -5.16699 -34.834 -15.5 -42.501s-23.166 -11.5 -38.499 -11.5z" />
    <glyph glyph-name="igrave" unicode="&#xec;" 
d="M100 0v82h147v436h-147v82h238v-518h147v-82h-385zM294 700l-151 200h128l97 -200h-74z" />
    <glyph glyph-name="iacute" unicode="&#xed;" 
d="M100 0v82h147v436h-147v82h238v-518h147v-82h-385zM204 700l98 200h128l-151 -200h-75z" />
    <glyph glyph-name="icircumflex" unicode="&#xee;" 
d="M100 0v82h147v436h-147v82h238v-518h147v-82h-385zM159 717l-42 51l142 147h67l143 -147l-42 -51l-135 108z" />
    <glyph glyph-name="idieresis" unicode="&#xef;" 
d="M100 0v82h147v436h-147v82h238v-518h147v-82h-385zM204 713c-16 0 -29.001 3.83301 -39.001 11.5s-15 21.834 -15 42.501v6c0 21.333 5 36 15 44s23 12 39 12c16.667 0 29.834 -4 39.501 -12s14.5 -22.667 14.5 -44v-6c0 -20.667 -5 -34.834 -15 -42.501
s-23 -11.5 -39 -11.5zM381.999 713c-16.667 0 -29.835 3.83301 -39.502 11.5s-14.5 21.834 -14.5 42.501v6c0 21.333 4.83301 36 14.5 44s22.834 12 39.501 12c16 0 29 -4 39 -12s15 -22.667 15 -44v-6c0 -20.667 -5.16699 -34.834 -15.5 -42.501
s-23.166 -11.5 -38.499 -11.5z" />
    <glyph glyph-name="eth" unicode="&#xf0;" 
d="M293 -10c-58.667 0 -106 18.001 -142 54.001s-54 90.667 -54 164v96c0 60 15.833 107.667 47.5 143s72.834 53 123.501 53c31.333 0 57.166 -7.33301 77.499 -22s34.166 -32 41.499 -52h17c-2.66699 42 -8.16699 79.667 -16.5 113s-20.166 62.666 -35.499 87.999
l-142 -85v76l102 61c-17.333 18 -37.666 33.667 -60.999 47s-49.333 25.333 -78 36l35 59c36 -12.667 68.5 -27.5 97.5 -44.5s53.833 -35.833 74.5 -56.5l130 78v-76l-88 -53c23.333 -36 40.166 -77.833 50.499 -125.5s15.5 -102.5 15.5 -164.5v-165
c0 -77.333 -18 -134 -54 -170s-83 -54 -141 -54zM293 72.001c38 0 64.833 11.333 80.5 34s23.5 56.667 23.5 102v83c0 42 -7.83301 73.5 -23.5 94.5s-42.5 31.5 -80.5 31.5s-64.833 -10.5 -80.5 -31.5s-23.5 -52.5 -23.5 -94.5v-83c0 -45.333 7.83301 -79.333 23.5 -102
s42.5 -34 80.5 -34z" />
    <glyph glyph-name="ntilde" unicode="&#xf1;" 
d="M99 0l-0.000976562 599.999h90v-78h23c14.667 27.333 34 48.833 58 64.5s49.667 23.5 77 23.5c43.333 0 77.333 -16.667 102 -50s37 -79.666 37 -138.999v-421h-90v404c0 40 -6.66699 70 -20 90s-33.333 30 -60 30c-24.667 0 -47.667 -7.5 -69 -22.5
s-40.666 -37.833 -57.999 -68.5v-433h-90zM368.999 709.999c-20.667 0 -37.168 6.16699 -49.501 18.5s-22.5 25.833 -30.5 40.5l-22 40.5c-6.66699 12.333 -14.667 18.5 -24 18.5c-12 0 -20.667 -8 -26 -24s-7.66602 -40.333 -6.99902 -73v-11h-66v15
c0 49.333 8.83301 90.333 26.5 123s43.5 49 77.5 49c22 0 39.167 -6.16699 51.5 -18.5s22.5 -25.833 30.5 -40.5s15 -28.167 21 -40.5s13.333 -18.5 22 -18.5c11.333 0 19.833 8 25.5 24s8.5 40.333 8.5 73v11h65v-15c0 -50 -8.83301 -91.167 -26.5 -123.5
s-43.167 -48.5 -76.5 -48.5z" />
    <glyph glyph-name="ograve" unicode="&#xf2;" 
d="M293 -10c-62 0 -109.833 18.001 -143.5 54.001s-50.5 87 -50.5 153v202c0 67.333 16.833 119.333 50.5 156s81.5 55 143.5 55c61.333 0 108.833 -18.333 142.5 -55s50.5 -88.334 50.5 -155.001v-202c0 -66 -16.833 -117.167 -50.5 -153.5s-81.167 -54.5 -142.5 -54.5z
M293 72.001c34 0 59.667 9.5 77 28.5s26 50.5 26 94.5v205c0 44 -8.66699 76.333 -26 97s-43 31 -77 31c-34.667 0 -60.667 -10.333 -78 -31s-26 -53 -26 -97v-205c0 -44 8.66699 -75.5 26 -94.5s43.333 -28.5 78 -28.5zM291 700.001l-151 200h128l97 -200h-74z" />
    <glyph glyph-name="oacute" unicode="&#xf3;" 
d="M293 -10c-62 0 -109.833 18.001 -143.5 54.001s-50.5 87 -50.5 153v202c0 67.333 16.833 119.333 50.5 156s81.5 55 143.5 55c61.333 0 108.833 -18.333 142.5 -55s50.5 -88.334 50.5 -155.001v-202c0 -66 -16.833 -117.167 -50.5 -153.5s-81.167 -54.5 -142.5 -54.5z
M293 72.001c34 0 59.667 9.5 77 28.5s26 50.5 26 94.5v205c0 44 -8.66699 76.333 -26 97s-43 31 -77 31c-34.667 0 -60.667 -10.333 -78 -31s-26 -53 -26 -97v-205c0 -44 8.66699 -75.5 26 -94.5s43.333 -28.5 78 -28.5zM204 700.001l98 200h128l-151 -200h-75z" />
    <glyph glyph-name="ocircumflex" unicode="&#xf4;" 
d="M293 -10c-62 0 -109.833 18.001 -143.5 54.001s-50.5 87 -50.5 153v202c0 67.333 16.833 119.333 50.5 156s81.5 55 143.5 55c61.333 0 108.833 -18.333 142.5 -55s50.5 -88.334 50.5 -155.001v-202c0 -66 -16.833 -117.167 -50.5 -153.5s-81.167 -54.5 -142.5 -54.5z
M293 72.001c34 0 59.667 9.5 77 28.5s26 50.5 26 94.5v205c0 44 -8.66699 76.333 -26 97s-43 31 -77 31c-34.667 0 -60.667 -10.333 -78 -31s-26 -53 -26 -97v-205c0 -44 8.66699 -75.5 26 -94.5s43.333 -28.5 78 -28.5zM159 717.001l-42 51l142 147h67l143 -147l-42 -51
l-135 108z" />
    <glyph glyph-name="otilde" unicode="&#xf5;" 
d="M293 -10c-62 0 -109.833 18.001 -143.5 54.001s-50.5 87 -50.5 153v202c0 67.333 16.833 119.333 50.5 156s81.5 55 143.5 55c61.333 0 108.833 -18.333 142.5 -55s50.5 -88.334 50.5 -155.001v-202c0 -66 -16.833 -117.167 -50.5 -153.5s-81.167 -54.5 -142.5 -54.5z
M293 72.001c34 0 59.667 9.5 77 28.5s26 50.5 26 94.5v205c0 44 -8.66699 76.333 -26 97s-43 31 -77 31c-34.667 0 -60.667 -10.333 -78 -31s-26 -53 -26 -97v-205c0 -44 8.66699 -75.5 26 -94.5s43.333 -28.5 78 -28.5zM354 710.001
c-20.667 0 -37.168 6.16699 -49.501 18.5s-22.5 25.833 -30.5 40.5l-22 40.5c-6.66699 12.333 -14.667 18.5 -24 18.5c-12 0 -20.667 -8 -26 -24s-7.66602 -40.333 -6.99902 -73v-11h-66v15c0 49.333 8.83301 90.333 26.5 123s43.5 49 77.5 49
c22 0 39.167 -6.16699 51.5 -18.5s22.5 -25.833 30.5 -40.5s15 -28.167 21 -40.5s13.333 -18.5 22 -18.5c11.333 0 19.833 8 25.5 24s8.5 40.333 8.5 73v11h65v-15c0 -50 -8.83301 -91.167 -26.5 -123.5s-43.167 -48.5 -76.5 -48.5z" />
    <glyph glyph-name="odieresis" unicode="&#xf6;" 
d="M293 -10c-62 0 -109.833 18.001 -143.5 54.001s-50.5 87 -50.5 153v202c0 67.333 16.833 119.333 50.5 156s81.5 55 143.5 55c61.333 0 108.833 -18.333 142.5 -55s50.5 -88.334 50.5 -155.001v-202c0 -66 -16.833 -117.167 -50.5 -153.5s-81.167 -54.5 -142.5 -54.5z
M293 72.001c34 0 59.667 9.5 77 28.5s26 50.5 26 94.5v205c0 44 -8.66699 76.333 -26 97s-43 31 -77 31c-34.667 0 -60.667 -10.333 -78 -31s-26 -53 -26 -97v-205c0 -44 8.66699 -75.5 26 -94.5s43.333 -28.5 78 -28.5zM204 713.001c-16 0 -29.001 3.83301 -39.001 11.5
s-15 21.834 -15 42.501v6c0 21.333 5 36 15 44s23 12 39 12c16.667 0 29.834 -4 39.501 -12s14.5 -22.667 14.5 -44v-6c0 -20.667 -5 -34.834 -15 -42.501s-23 -11.5 -39 -11.5zM381.999 713.001c-16.667 0 -29.835 3.83301 -39.502 11.5s-14.5 21.834 -14.5 42.501v6
c0 21.333 4.83301 36 14.5 44s22.834 12 39.501 12c16 0 29 -4 39 -12s15 -22.667 15 -44v-6c0 -20.667 -5.16699 -34.834 -15.5 -42.501s-23.166 -11.5 -38.499 -11.5z" />
    <glyph glyph-name="divide" unicode="&#xf7;" 
d="M293 528c-20 0 -36.333 5.16699 -49 15.5s-19 25.833 -19 46.5v17c0 21.333 6.33301 37.333 19 48s29 16 49 16c19.333 0 35.166 -5.33301 47.499 -16s18.5 -26.667 18.5 -48v-17c0 -20.667 -6.16699 -36.167 -18.5 -46.5s-28.166 -15.5 -47.499 -15.5zM81 303v94h423
v-94h-423zM293 28c-20 0 -36.333 5.16699 -49 15.5s-19 25.833 -19 46.5v17c0 21.333 6.33301 37.333 19 48s29 16 49 16c19.333 0 35.166 -5.33301 47.499 -16s18.5 -26.667 18.5 -48v-17c0 -20.667 -6.16699 -36.167 -18.5 -46.5s-28.166 -15.5 -47.499 -15.5z" />
    <glyph glyph-name="oslash" unicode="&#xf8;" 
d="M185 195c0 -16 1.16699 -30.168 3.5 -42.501s5.83301 -23.166 10.5 -32.499l143 398c-6.66699 2.66699 -14.167 4.66699 -22.5 6s-17.166 2 -26.499 2c-36.667 0 -63.834 -10 -81.501 -30s-26.5 -52 -26.5 -96v-205zM293 73.999c36 0 62.833 9.33301 80.5 28
s26.5 49.667 26.5 93v205c0 15.333 -1.16699 29.5 -3.5 42.5s-5.83301 24.167 -10.5 33.5l-141 -395c6.66699 -2.66699 14 -4.5 22 -5.5s16.667 -1.5 26 -1.5zM293 -10.001c-12.667 0 -25 0.833984 -37 2.50098s-23.333 4.16699 -34 7.5l-40 -100h-79l54 135
c-18.667 16.667 -33.334 38.667 -44.001 66s-16 59.333 -16 96v202c0 71.333 18.333 124.333 55 159s83.667 52 141 52c12.667 0 25.167 -0.833008 37.5 -2.5s23.833 -4.16699 34.5 -7.5l38 100h79l-53 -137c18.667 -16.667 33.167 -38.834 43.5 -66.501
s15.5 -60.167 15.5 -97.5v-202c0 -70 -18.167 -122 -54.5 -156s-83.166 -51 -140.499 -51z" />
    <glyph glyph-name="ugrave" unicode="&#xf9;" 
d="M240 -10c-42.667 0 -76.833 17.168 -102.5 51.501s-38.5 80.166 -38.5 137.499v421h90v-407c0 -38 6.83301 -67 20.5 -87s33.5 -30 59.5 -30c24 0 47 7.5 69 22.5s41.333 36.833 58 65.5v436h90v-600h-90v78h-23c-8.66699 -26.667 -25 -48 -49 -64s-52 -24 -84 -24z
M274.001 700.001l-151 200h128l97 -200h-74z" />
    <glyph glyph-name="uacute" unicode="&#xfa;" 
d="M240 -10c-42.667 0 -76.833 17.168 -102.5 51.501s-38.5 80.166 -38.5 137.499v421h90v-407c0 -38 6.83301 -67 20.5 -87s33.5 -30 59.5 -30c24 0 47 7.5 69 22.5s41.333 36.833 58 65.5v436h90v-600h-90v78h-23c-8.66699 -26.667 -25 -48 -49 -64s-52 -24 -84 -24z
M235.001 700.001l98 200h128l-151 -200h-75z" />
    <glyph glyph-name="ucircumflex" unicode="&#xfb;" 
d="M240 -10c-42.667 0 -76.833 17.168 -102.5 51.501s-38.5 80.166 -38.5 137.499v421h90v-407c0 -38 6.83301 -67 20.5 -87s33.5 -30 59.5 -30c24 0 47 7.5 69 22.5s41.333 36.833 58 65.5v436h90v-600h-90v78h-23c-8.66699 -26.667 -25 -48 -49 -64s-52 -24 -84 -24z
M160.001 717.001l-42 51l142 147h67l143 -147l-42 -51l-135 108z" />
    <glyph glyph-name="udieresis" unicode="&#xfc;" 
d="M240 -10c-42.667 0 -76.833 17.168 -102.5 51.501s-38.5 80.166 -38.5 137.499v421h90v-407c0 -38 6.83301 -67 20.5 -87s33.5 -30 59.5 -30c24 0 47 7.5 69 22.5s41.333 36.833 58 65.5v436h90v-600h-90v78h-23c-8.66699 -26.667 -25 -48 -49 -64s-52 -24 -84 -24z
M205.001 713.001c-16 0 -29.001 3.83301 -39.001 11.5s-15 21.834 -15 42.501v6c0 21.333 5 36 15 44s23 12 39 12c16.667 0 29.834 -4 39.501 -12s14.5 -22.667 14.5 -44v-6c0 -20.667 -5 -34.834 -15 -42.501s-23 -11.5 -39 -11.5zM383 713.001
c-16.667 0 -29.835 3.83301 -39.502 11.5s-14.5 21.834 -14.5 42.501v6c0 21.333 4.83301 36 14.5 44s22.834 12 39.501 12c16 0 29 -4 39 -12s15 -22.667 15 -44v-6c0 -20.667 -5.16699 -34.834 -15.5 -42.501s-23.166 -11.5 -38.499 -11.5z" />
    <glyph glyph-name="yacute" unicode="&#xfd;" 
d="M173 -205c-13.333 0 -27.667 0.999023 -43 2.99902s-31.333 4.33301 -48 7l12 82c14.667 -3.33301 28.167 -6 40.5 -8s23.5 -3 33.5 -3c30 0 52.5 8.66699 67.5 26s27.833 44.333 38.5 81l2 11h-46l-152 606h96l121 -524l119 524h93l-150 -622
c-17.333 -71.333 -42.333 -119.666 -75 -144.999s-69 -38 -109 -38zM203.999 699.999l98 200h128l-151 -200h-75z" />
    <glyph glyph-name="thorn" unicode="&#xfe;" 
d="M288 69c37.333 0 64.666 10.5 81.999 31.5s26 54.5 26 100.5v204c0 41.333 -6.66699 71.5 -20 90.5s-34.333 28.5 -63 28.5c-26 0 -49 -7.5 -69 -22.5s-38.333 -38.833 -55 -71.5v-320c16 -14.667 31.833 -25.167 47.5 -31.5s32.834 -9.5 51.501 -9.5zM294 -11
c-18 0 -36 2.66699 -54 8s-35 12.666 -51 21.999v-219h-90v1000h90v-278h23c9.33301 28.667 25.5 50.5 48.5 65.5s50.833 22.5 83.5 22.5c46 0 81.167 -18.333 105.5 -55s36.5 -89 36.5 -157v-199c0 -67.333 -16.5 -119.166 -49.5 -155.499s-80.5 -54.5 -142.5 -54.5z" />
    <glyph glyph-name="ydieresis" unicode="&#xff;" 
d="M173 -205c-13.333 0 -27.667 0.999023 -43 2.99902s-31.333 4.33301 -48 7l12 82c14.667 -3.33301 28.167 -6 40.5 -8s23.5 -3 33.5 -3c30 0 52.5 8.66699 67.5 26s27.833 44.333 38.5 81l2 11h-46l-152 606h96l121 -524l119 524h93l-150 -622
c-17.333 -71.333 -42.333 -119.666 -75 -144.999s-69 -38 -109 -38zM203.999 712.999c-16 0 -29.001 3.83301 -39.001 11.5s-15 21.834 -15 42.501v6c0 21.333 5 36 15 44s23 12 39 12c16.667 0 29.834 -4 39.501 -12s14.5 -22.667 14.5 -44v-6
c0 -20.667 -5 -34.834 -15 -42.501s-23 -11.5 -39 -11.5zM381.998 712.999c-16.667 0 -29.835 3.83301 -39.502 11.5s-14.5 21.834 -14.5 42.501v6c0 21.333 4.83301 36 14.5 44s22.834 12 39.501 12c16 0 29 -4 39 -12s15 -22.667 15 -44v-6
c0 -20.667 -5.16699 -34.834 -15.5 -42.501s-23.166 -11.5 -38.499 -11.5z" />
    <glyph glyph-name="Amacron" unicode="&#x100;" 
d="M371 318l-79 374l-80 -374h159zM438 0l-50 238h-193l-51 -238h-89l187 800h101l187 -800h-92zM139 960v80h308v-80h-308z" />
    <glyph glyph-name="amacron" unicode="&#x101;" 
d="M239 71c28.667 0 52.832 6.33301 72.499 19s35.834 33.334 48.501 62.001v106h-112c-27.333 0 -48 -6.83301 -62 -20.5s-21 -37.167 -21 -70.5c0 -30.667 5.66699 -54.334 17 -71.001s30.333 -25 57 -25zM222.998 -10c-46 0 -81.667 15.001 -107 45.001
s-38 71.667 -38 125c0 52 14 93.167 42 123.5s66 45.5 114 45.5h126v99c0 29.333 -7.5 53.166 -22.5 71.499s-37.833 27.5 -68.5 27.5c-32.667 0 -56.167 -7.83301 -70.5 -23.5s-25.5 -44.5 -33.5 -86.5l-77 24c10 56.667 30 99 60 127s70.333 42 121 42
c52.667 0 95.834 -14 129.501 -42s50.5 -70 50.5 -126v-297c0 -30.667 6.83301 -51 20.5 -61s35.167 -11 64.5 -3v-85c-43.333 -6.66699 -76 -2.5 -98 12.5s-35 42.167 -39 81.5h-16c-13.333 -29.333 -34.333 -53.333 -63 -72s-60.334 -28 -95.001 -28zM123.998 760.001v80
h308v-80h-308z" />
    <glyph glyph-name="Abreve" unicode="&#x102;" 
d="M371 318l-79 374l-80 -374h159zM438 0l-50 238h-193l-51 -238h-89l187 800h101l187 -800h-92zM293 893c-58.667 0 -103.167 17.333 -133.5 52s-45.833 85.667 -46.5 153h85c0.666992 -48 8.5 -82 23.5 -102s38.833 -30 71.5 -30s56.5 10 71.5 30s22.833 54 23.5 102h85
c-0.666992 -67.333 -16.167 -118.333 -46.5 -153s-74.833 -52 -133.5 -52z" />
    <glyph glyph-name="abreve" unicode="&#x103;" 
d="M239 71c28.667 0 52.832 6.33301 72.499 19s35.834 33.334 48.501 62.001v106h-112c-27.333 0 -48 -6.83301 -62 -20.5s-21 -37.167 -21 -70.5c0 -30.667 5.66699 -54.334 17 -71.001s30.333 -25 57 -25zM222.998 -10c-46 0 -81.667 15.001 -107 45.001
s-38 71.667 -38 125c0 52 14 93.167 42 123.5s66 45.5 114 45.5h126v99c0 29.333 -7.5 53.166 -22.5 71.499s-37.833 27.5 -68.5 27.5c-32.667 0 -56.167 -7.83301 -70.5 -23.5s-25.5 -44.5 -33.5 -86.5l-77 24c10 56.667 30 99 60 127s70.333 42 121 42
c52.667 0 95.834 -14 129.501 -42s50.5 -70 50.5 -126v-297c0 -30.667 6.83301 -51 20.5 -61s35.167 -11 64.5 -3v-85c-43.333 -6.66699 -76 -2.5 -98 12.5s-35 42.167 -39 81.5h-16c-13.333 -29.333 -34.333 -53.333 -63 -72s-60.334 -28 -95.001 -28zM277.998 693.001
c-58.667 0 -103.167 17.333 -133.5 52s-45.833 85.667 -46.5 153h85c0.666992 -48 8.5 -82 23.5 -102s38.833 -30 71.5 -30s56.5 10 71.5 30s22.833 54 23.5 102h85c-0.666992 -67.333 -16.167 -118.333 -46.5 -153s-74.833 -52 -133.5 -52z" />
    <glyph glyph-name="Aogonek" unicode="&#x104;" 
d="M371 318l-79 374l-80 -374h159zM438 0l-50 238h-193l-51 -238h-89l187 800h101l187 -800h-92zM480 -214c-34 0 -61.999 10.665 -83.999 31.998s-33 50 -33 86c0 30.667 10.167 58.334 30.5 83.001s42.833 43 67.5 55l20 -19c-17.333 -14 -28.833 -29.667 -34.5 -47
s-8.5 -32.666 -8.5 -45.999c0 -18.667 4.66699 -33 14 -43s22.666 -15 39.999 -15c8.66699 0 19.667 1 33 3s25 4.33301 35 7v-86c-11.333 -2.66699 -24.5 -5 -39.5 -7s-28.5 -3 -40.5 -3z" />
    <glyph glyph-name="aogonek" unicode="&#x105;" 
d="M239 71c28.667 0 52.832 6.33301 72.499 19s35.834 33.334 48.501 62.001v106h-112c-27.333 0 -48 -6.83301 -62 -20.5s-21 -37.167 -21 -70.5c0 -30.667 5.66699 -54.334 17 -71.001s30.333 -25 57 -25zM222.998 -10c-46 0 -81.667 15.001 -107 45.001
s-38 71.667 -38 125c0 52 14 93.167 42 123.5s66 45.5 114 45.5h126v99c0 29.333 -7.5 53.166 -22.5 71.499s-37.833 27.5 -68.5 27.5c-32.667 0 -56.167 -7.83301 -70.5 -23.5s-25.5 -44.5 -33.5 -86.5l-77 24c10 56.667 30 99 60 127s70.333 42 121 42
c52.667 0 95.834 -14 129.501 -42s50.5 -70 50.5 -126v-297c0 -30.667 6.83301 -51 20.5 -61s35.167 -11 64.5 -3v-85c-43.333 -6.66699 -76 -2.5 -98 12.5s-35 42.167 -39 81.5h-16c-13.333 -29.333 -34.333 -53.333 -63 -72s-60.334 -28 -95.001 -28zM475.998 -213.999
c-34 0 -61.999 10.665 -83.999 31.998s-33 50 -33 86c0 30.667 10.167 58.334 30.5 83.001s42.833 43 67.5 55l20 -19c-17.333 -14 -28.833 -29.667 -34.5 -47s-8.5 -32.666 -8.5 -45.999c0 -18.667 4.66699 -33 14 -43s22.666 -15 39.999 -15c8.66699 0 19.667 1 33 3
s25 4.33301 35 7v-86c-11.333 -2.66699 -24.5 -5 -39.5 -7s-28.5 -3 -40.5 -3z" />
    <glyph glyph-name="Cacute" unicode="&#x106;" 
d="M302 -10c-71.333 0 -125.333 22.668 -162 68.001s-55 112.333 -55 201v278c0 90 18.333 158 55 204s90.667 69 162 69c69.333 0 121.333 -21.833 156 -65.5s54 -111.167 58 -202.5l-90 -10c-4.66699 74.667 -16 126.334 -34 155.001s-48 43 -90 43
c-46 0 -78.5 -14.333 -97.5 -43s-28.5 -77.334 -28.5 -146.001v-286c0 -62 10.5 -108.333 31.5 -139s52.5 -46 94.5 -46s72 13.833 90 41.5s29.333 78.5 34 152.5l90 -10c-4 -90.667 -23.333 -157.334 -58 -200.001s-86.667 -64 -156 -64zM239 900.001l98 200h128l-151 -200
h-75z" />
    <glyph glyph-name="cacute" unicode="&#x107;" 
d="M302 -10c-68.667 0 -119.667 18.001 -153 54.001s-50 86.333 -50 151v204c0 67.333 16.833 119.333 50.5 156s84.167 55 151.5 55c61.333 0 107.5 -16.333 138.5 -49s48.833 -84 53.5 -154l-88 -4c-2.66699 50 -12.167 83.333 -28.5 100s-41.833 25 -76.5 25
c-36 0 -63.5 -9.5 -82.5 -28.5s-28.5 -51.5 -28.5 -97.5v-208c0 -43.333 9.5 -74.5 28.5 -93.5s46.833 -28.5 83.5 -28.5c35.333 0 60.833 6.66699 76.5 20s24.834 41.666 27.501 84.999l88 -4c-3.33301 -64 -20.333 -110.5 -51 -139.5s-77.334 -43.5 -140.001 -43.5z
M214 700.001l98 200h128l-151 -200h-75z" />
    <glyph glyph-name="Ccircumflex" unicode="&#x108;" 
d="M302 -10c-71.333 0 -125.333 22.668 -162 68.001s-55 112.333 -55 201v278c0 90 18.333 158 55 204s90.667 69 162 69c69.333 0 121.333 -21.833 156 -65.5s54 -111.167 58 -202.5l-90 -10c-4.66699 74.667 -16 126.334 -34 155.001s-48 43 -90 43
c-46 0 -78.5 -14.333 -97.5 -43s-28.5 -77.334 -28.5 -146.001v-286c0 -62 10.5 -108.333 31.5 -139s52.5 -46 94.5 -46s72 13.833 90 41.5s29.333 78.5 34 152.5l90 -10c-4 -90.667 -23.333 -157.334 -58 -200.001s-86.667 -64 -156 -64zM167 917.001l-42 51l142 147h67
l143 -147l-42 -51l-135 108z" />
    <glyph glyph-name="ccircumflex" unicode="&#x109;" 
d="M302 -10c-68.667 0 -119.667 18.001 -153 54.001s-50 86.333 -50 151v204c0 67.333 16.833 119.333 50.5 156s84.167 55 151.5 55c61.333 0 107.5 -16.333 138.5 -49s48.833 -84 53.5 -154l-88 -4c-2.66699 50 -12.167 83.333 -28.5 100s-41.833 25 -76.5 25
c-36 0 -63.5 -9.5 -82.5 -28.5s-28.5 -51.5 -28.5 -97.5v-208c0 -43.333 9.5 -74.5 28.5 -93.5s46.833 -28.5 83.5 -28.5c35.333 0 60.833 6.66699 76.5 20s24.834 41.666 27.501 84.999l88 -4c-3.33301 -64 -20.333 -110.5 -51 -139.5s-77.334 -43.5 -140.001 -43.5z
M169 717.001l-42 51l142 147h67l143 -147l-42 -51l-135 108z" />
    <glyph glyph-name="Cdotaccent" unicode="&#x10a;" 
d="M302 -10c-71.333 0 -125.333 22.668 -162 68.001s-55 112.333 -55 201v278c0 90 18.333 158 55 204s90.667 69 162 69c69.333 0 121.333 -21.833 156 -65.5s54 -111.167 58 -202.5l-90 -10c-4.66699 74.667 -16 126.334 -34 155.001s-48 43 -90 43
c-46 0 -78.5 -14.333 -97.5 -43s-28.5 -77.334 -28.5 -146.001v-286c0 -62 10.5 -108.333 31.5 -139s52.5 -46 94.5 -46s72 13.833 90 41.5s29.333 78.5 34 152.5l90 -10c-4 -90.667 -23.333 -157.334 -58 -200.001s-86.667 -64 -156 -64zM301 913.001
c-20.667 0 -37.667 3.83301 -51 11.5s-20 21.834 -20 42.501v6c0 21.333 6.66699 36 20 44s30.333 12 51 12s37.667 -4 51 -12s20 -22.667 20 -44v-6c0 -20.667 -6.66699 -34.834 -20 -42.501s-30.333 -11.5 -51 -11.5z" />
    <glyph glyph-name="cdotaccent" unicode="&#x10b;" 
d="M302 -10c-68.667 0 -119.667 18.001 -153 54.001s-50 86.333 -50 151v204c0 67.333 16.833 119.333 50.5 156s84.167 55 151.5 55c61.333 0 107.5 -16.333 138.5 -49s48.833 -84 53.5 -154l-88 -4c-2.66699 50 -12.167 83.333 -28.5 100s-41.833 25 -76.5 25
c-36 0 -63.5 -9.5 -82.5 -28.5s-28.5 -51.5 -28.5 -97.5v-208c0 -43.333 9.5 -74.5 28.5 -93.5s46.833 -28.5 83.5 -28.5c35.333 0 60.833 6.66699 76.5 20s24.834 41.666 27.501 84.999l88 -4c-3.33301 -64 -20.333 -110.5 -51 -139.5s-77.334 -43.5 -140.001 -43.5z
M297 713.001c-20.667 0 -37.667 3.83301 -51 11.5s-20 21.834 -20 42.501v6c0 21.333 6.66699 36 20 44s30.333 12 51 12s37.667 -4 51 -12s20 -22.667 20 -44v-6c0 -20.667 -6.66699 -34.834 -20 -42.501s-30.333 -11.5 -51 -11.5z" />
    <glyph glyph-name="Ccaron" unicode="&#x10c;" 
d="M302 -10c-71.333 0 -125.333 22.668 -162 68.001s-55 112.333 -55 201v278c0 90 18.333 158 55 204s90.667 69 162 69c69.333 0 121.333 -21.833 156 -65.5s54 -111.167 58 -202.5l-90 -10c-4.66699 74.667 -16 126.334 -34 155.001s-48 43 -90 43
c-46 0 -78.5 -14.333 -97.5 -43s-28.5 -77.334 -28.5 -146.001v-286c0 -62 10.5 -108.333 31.5 -139s52.5 -46 94.5 -46s72 13.833 90 41.5s29.333 78.5 34 152.5l90 -10c-4 -90.667 -23.333 -157.334 -58 -200.001s-86.667 -64 -156 -64zM268 904.001l-143 147l42 51
l135 -107l133 107l42 -51l-142 -147h-67z" />
    <glyph glyph-name="ccaron" unicode="&#x10d;" 
d="M302 -10c-68.667 0 -119.667 18.001 -153 54.001s-50 86.333 -50 151v204c0 67.333 16.833 119.333 50.5 156s84.167 55 151.5 55c61.333 0 107.5 -16.333 138.5 -49s48.833 -84 53.5 -154l-88 -4c-2.66699 50 -12.167 83.333 -28.5 100s-41.833 25 -76.5 25
c-36 0 -63.5 -9.5 -82.5 -28.5s-28.5 -51.5 -28.5 -97.5v-208c0 -43.333 9.5 -74.5 28.5 -93.5s46.833 -28.5 83.5 -28.5c35.333 0 60.833 6.66699 76.5 20s24.834 41.666 27.501 84.999l88 -4c-3.33301 -64 -20.333 -110.5 -51 -139.5s-77.334 -43.5 -140.001 -43.5z
M264 704.001l-143 147l42 51l135 -107l133 107l42 -51l-142 -147h-67z" />
    <glyph glyph-name="Dcaron" unicode="&#x10e;" 
d="M97 0v799.999h178c68.667 0 123.334 -24.5 164.001 -73.5s61 -114.833 61 -197.5v-262c0 -81.333 -20.333 -146.166 -61 -194.499s-95.334 -72.5 -164.001 -72.5h-178zM188 79.999h84c44 0 77.833 15.667 101.5 47s35.5 77 35.5 137v268c0 61.333 -11.833 108 -35.5 140
s-57.5 48 -101.5 48h-84v-640zM260 903.999l-143 147l42 51l135 -107l133 107l42 -51l-142 -147h-67z" />
    <glyph glyph-name="dcaron" unicode="&#x10f;" 
d="M272 76c26 0 48.999 7.49805 68.999 22.498s38.333 38.833 55 71.5v321c-14.667 14 -30.167 24.167 -46.5 30.5s-33.833 9.5 -52.5 9.5c-37.333 0 -64.666 -10.667 -81.999 -32s-26 -54.666 -26 -99.999v-203c0 -41.333 6.66699 -71.666 20 -90.999s34.333 -29 63 -29z
M372.999 77.998c-10 -27.333 -26.668 -48.833 -50.001 -64.5s-50.666 -23.5 -81.999 -23.5c-44 0 -78.667 18.833 -104 56.5s-38 89.5 -38 155.5v199c0 65.333 17 116.666 51 153.999s81 56 141 56c16.667 0 34.167 -2.66699 52.5 -8s35.833 -12.666 52.5 -21.999v219h90
v-800h-90v78h-23zM551.998 704.998l56 295h126l-121 -295h-61z" />
    <glyph glyph-name="Dcroat" unicode="&#x110;" 
d="M97 0v396.999h-67v86h67v317h178c68.667 0 123.334 -24.5 164.001 -73.5s61 -114.833 61 -197.5v-262c0 -81.333 -20.333 -146.166 -61 -194.499s-95.334 -72.5 -164.001 -72.5h-178zM188 79.999h84c44 0 77.833 15.667 101.5 47s35.5 77 35.5 137v268
c0 61.333 -11.833 108 -35.5 140s-57.5 48 -101.5 48h-84v-237h105v-86h-105v-317z" />
    <glyph glyph-name="dcroat" unicode="&#x111;" 
d="M272 76c24.667 0 47.499 7.99805 68.499 23.998s39.5 39.333 55.5 70v274c-14.667 12.667 -30.5 22.5 -47.5 29.5s-34.5 10.5 -52.5 10.5c-34 0 -60 -11.167 -78 -33.5s-27 -55.166 -27 -98.499v-144c0 -43.333 6.83301 -76.166 20.5 -98.499s33.834 -33.5 60.501 -33.5z
M372.999 77.998c-10 -28.667 -26.333 -50.5 -49 -65.5s-50.334 -22.5 -83.001 -22.5c-46 0 -81.167 18.333 -105.5 55s-36.5 89 -36.5 157v152c0 67.333 16.5 119.166 49.5 155.499s80.5 54.5 142.5 54.5c18 0 35.833 -2.66699 53.5 -8s34.834 -12.666 51.501 -21.999v101
h-144v77h144v88h90v-88h75v-77h-75v-635h-90v78h-23z" />
    <glyph glyph-name="Emacron" unicode="&#x112;" 
d="M97 0v800h403v-80h-312v-243h274v-81h-274v-316h312v-80h-403zM152 960v80h308v-80h-308z" />
    <glyph glyph-name="emacron" unicode="&#x113;" 
d="M490 130c-15.333 -48 -37.3311 -83.333 -65.998 -106s-72 -34 -130 -34c-60 0 -107.5 17.5 -142.5 52.5s-52.5 86.833 -52.5 155.5v201c0 70.667 18.167 123.5 54.5 158.5s82.833 52.5 139.5 52.5c58 0 104.667 -18 140 -54s53 -91 53 -165v-108h-297v-84
c0 -46.667 8.66699 -80 26 -100s43.666 -30 78.999 -30c33.333 0 58.166 7 74.499 21s28.833 36 37.5 66zM189.002 396v-42.001h207v33c0 50 -8.5 86.5 -25.5 109.5s-42.833 34.5 -77.5 34.5c-35.333 0 -61.5 -11.167 -78.5 -33.5s-25.5 -56.166 -25.5 -101.499z
M140.002 759.999v80h308v-80h-308z" />
    <glyph glyph-name="Ebreve" unicode="&#x114;" 
d="M97 0v800h403v-80h-312v-243h274v-81h-274v-316h312v-80h-403zM306 893c-58.667 0 -103.167 17.333 -133.5 52s-45.833 85.667 -46.5 153h85c0.666992 -48 8.5 -82 23.5 -102s38.833 -30 71.5 -30s56.5 10 71.5 30s22.833 54 23.5 102h85
c-0.666992 -67.333 -16.167 -118.333 -46.5 -153s-74.833 -52 -133.5 -52z" />
    <glyph glyph-name="ebreve" unicode="&#x115;" 
d="M490 130c-15.333 -48 -37.3311 -83.333 -65.998 -106s-72 -34 -130 -34c-60 0 -107.5 17.5 -142.5 52.5s-52.5 86.833 -52.5 155.5v201c0 70.667 18.167 123.5 54.5 158.5s82.833 52.5 139.5 52.5c58 0 104.667 -18 140 -54s53 -91 53 -165v-108h-297v-84
c0 -46.667 8.66699 -80 26 -100s43.666 -30 78.999 -30c33.333 0 58.166 7 74.499 21s28.833 36 37.5 66zM189.002 396v-42.001h207v33c0 50 -8.5 86.5 -25.5 109.5s-42.833 34.5 -77.5 34.5c-35.333 0 -61.5 -11.167 -78.5 -33.5s-25.5 -56.166 -25.5 -101.499z
M292.002 692.999c-58.667 0 -103.167 17.333 -133.5 52s-45.833 85.667 -46.5 153h85c0.666992 -48 8.5 -82 23.5 -102s38.833 -30 71.5 -30s56.5 10 71.5 30s22.833 54 23.5 102h85c-0.666992 -67.333 -16.167 -118.333 -46.5 -153s-74.833 -52 -133.5 -52z" />
    <glyph glyph-name="Edotaccent" unicode="&#x116;" 
d="M97 0v800h403v-80h-312v-243h274v-81h-274v-316h312v-80h-403zM306 913c-20.667 0 -37.667 3.83301 -51 11.5s-20 21.834 -20 42.501v6c0 21.333 6.66699 36 20 44s30.333 12 51 12s37.667 -4 51 -12s20 -22.667 20 -44v-6c0 -20.667 -6.66699 -34.834 -20 -42.501
s-30.333 -11.5 -51 -11.5z" />
    <glyph glyph-name="edotaccent" unicode="&#x117;" 
d="M490 130c-15.333 -48 -37.3311 -83.333 -65.998 -106s-72 -34 -130 -34c-60 0 -107.5 17.5 -142.5 52.5s-52.5 86.833 -52.5 155.5v201c0 70.667 18.167 123.5 54.5 158.5s82.833 52.5 139.5 52.5c58 0 104.667 -18 140 -54s53 -91 53 -165v-108h-297v-84
c0 -46.667 8.66699 -80 26 -100s43.666 -30 78.999 -30c33.333 0 58.166 7 74.499 21s28.833 36 37.5 66zM189.002 396v-42.001h207v33c0 50 -8.5 86.5 -25.5 109.5s-42.833 34.5 -77.5 34.5c-35.333 0 -61.5 -11.167 -78.5 -33.5s-25.5 -56.166 -25.5 -101.499z
M294.002 712.999c-20.667 0 -37.667 3.83301 -51 11.5s-20 21.834 -20 42.501v6c0 21.333 6.66699 36 20 44s30.333 12 51 12s37.667 -4 51 -12s20 -22.667 20 -44v-6c0 -20.667 -6.66699 -34.834 -20 -42.501s-30.333 -11.5 -51 -11.5z" />
    <glyph glyph-name="Eogonek" unicode="&#x118;" 
d="M421 -214c-34 0 -61.999 10.665 -83.999 31.998s-33 50 -33 86c0 30.667 10.167 58.334 30.5 83.001s42.833 43 67.5 55l20 -19c-17.333 -14 -28.833 -29.667 -34.5 -47s-8.5 -32.666 -8.5 -45.999c0 -18.667 4.66699 -33 14 -43s22.666 -15 39.999 -15
c8.66699 0 19.667 1 33 3s25 4.33301 35 7v-86c-11.333 -2.66699 -24.5 -5 -39.5 -7s-28.5 -3 -40.5 -3zM97.001 -0.00195312v800h403v-80h-312v-243h274v-81h-274v-316h312v-80h-403z" />
    <glyph glyph-name="eogonek" unicode="&#x119;" 
d="M395 -214c-34 0 -61.999 10.665 -83.999 31.998s-33 50 -33 86c0 30.667 10.167 58.334 30.5 83.001s42.833 43 67.5 55l20 -19c-17.333 -14 -28.833 -29.667 -34.5 -47s-8.5 -32.666 -8.5 -45.999c0 -18.667 4.66699 -33 14 -43s22.666 -15 39.999 -15
c8.66699 0 19.667 1 33 3s25 4.33301 35 7v-86c-11.333 -2.66699 -24.5 -5 -39.5 -7s-28.5 -3 -40.5 -3zM490.001 129.998c-15.333 -48 -37.3311 -83.333 -65.998 -106s-72 -34 -130 -34c-60 0 -107.5 17.5 -142.5 52.5s-52.5 86.833 -52.5 155.5v201
c0 70.667 18.167 123.5 54.5 158.5s82.833 52.5 139.5 52.5c58 0 104.667 -18 140 -54s53 -91 53 -165v-108h-297v-84c0 -46.667 8.66699 -80 26 -100s43.666 -30 78.999 -30c33.333 0 58.166 7 74.499 21s28.833 36 37.5 66zM189.003 395.998v-42.001h207v33
c0 50 -8.5 86.5 -25.5 109.5s-42.833 34.5 -77.5 34.5c-35.333 0 -61.5 -11.167 -78.5 -33.5s-25.5 -56.166 -25.5 -101.499z" />
    <glyph glyph-name="Ecaron" unicode="&#x11a;" 
d="M97 0v800h403v-80h-312v-243h274v-81h-274v-316h312v-80h-403zM279 904l-143 147l42 51l135 -107l133 107l42 -51l-142 -147h-67z" />
    <glyph glyph-name="ecaron" unicode="&#x11b;" 
d="M490 130c-15.333 -48 -37.3311 -83.333 -65.998 -106s-72 -34 -130 -34c-60 0 -107.5 17.5 -142.5 52.5s-52.5 86.833 -52.5 155.5v201c0 70.667 18.167 123.5 54.5 158.5s82.833 52.5 139.5 52.5c58 0 104.667 -18 140 -54s53 -91 53 -165v-108h-297v-84
c0 -46.667 8.66699 -80 26 -100s43.666 -30 78.999 -30c33.333 0 58.166 7 74.499 21s28.833 36 37.5 66zM189.002 396v-42.001h207v33c0 50 -8.5 86.5 -25.5 109.5s-42.833 34.5 -77.5 34.5c-35.333 0 -61.5 -11.167 -78.5 -33.5s-25.5 -56.166 -25.5 -101.499z
M261.002 703.999l-143 147l42 51l135 -107l133 107l42 -51l-142 -147h-67z" />
    <glyph glyph-name="Gcircumflex" unicode="&#x11c;" 
d="M301 -10c-72.667 0 -126.833 24.501 -162.5 73.501s-53.5 114.167 -53.5 195.5v278c0 89.333 18.167 157.166 54.5 203.499s89.5 69.5 159.5 69.5c66 0 115 -20 147 -60s50 -103.667 54 -191l-91 -10c-3.33301 66 -13.5 112.667 -30.5 140s-44.167 41 -81.5 41
c-44 0 -75.167 -14.333 -93.5 -43s-27.5 -77.334 -27.5 -146.001v-286c0 -66.667 9.83301 -114.167 29.5 -142.5s52.5 -42.5 98.5 -42.5c42 0 72 16.833 90 50.5s27 89.834 27 168.501h-128v80h219v-99c0 -91.333 -17.833 -160.833 -53.5 -208.5s-88.167 -71.5 -157.5 -71.5
zM170.001 917.001l-42 51l142 147h67l143 -147l-42 -51l-135 108z" />
    <glyph glyph-name="gcircumflex" unicode="&#x11d;" 
d="M521 -52c0 -54 -15.168 -93.8301 -45.501 -119.497s-67.833 -38.5 -112.5 -38.5h-139c-48 0 -86.667 11.667 -116 35s-44 61 -44 113c0 31.333 6.83301 56.5 20.5 75.5s32.5 29.833 56.5 32.5v21c-18 3.33301 -32.667 12.666 -44 27.999s-17 39 -17 71
c0 27.333 7.33301 52.5 22 75.5s37.667 36.167 69 39.5v18c-24.667 10.667 -41.834 27.167 -51.501 49.5s-14.5 42.833 -14.5 61.5v31c0 45.333 15.167 83.166 45.5 113.499s71.833 45.5 124.5 45.5h231v-87l-118 26v-20c19.333 -7.33301 34.5 -21.333 45.5 -42
s16.5 -41.334 16.5 -62.001v-30c0 -45.333 -14.167 -82.333 -42.5 -111s-71.166 -43 -128.499 -43h-85c-14.667 0 -25.667 -4.5 -33 -13.5s-11 -24.833 -11 -47.5c0 -21.333 4.83301 -37.333 14.5 -48s23.834 -16 42.501 -16h163c44 0 80.167 -12.333 108.5 -37
s42.5 -65 42.5 -121zM277.999 305.003c28.667 0 50.167 7.5 64.5 22.5s21.5 39.167 21.5 72.5v30c0 33.333 -7.16699 57.333 -21.5 72s-35.833 22 -64.5 22s-50.167 -7.33301 -64.5 -22s-21.5 -38.667 -21.5 -72v-30c0 -33.333 7.16699 -57.5 21.5 -72.5
s35.833 -22.5 64.5 -22.5zM222.999 -134.997l146.998 -0.000976562c20.667 0 37.834 6.16699 51.501 18.5s20.5 32.833 20.5 61.5c0 28 -6.16699 48 -18.5 60s-28.166 18 -47.499 18h-223v-71c0 -29.333 6 -51.166 18 -65.499s29.333 -21.5 52 -21.5zM153.997 717.002
l-42 51l142 147h67l143 -147l-42 -51l-135 108z" />
    <glyph glyph-name="Gbreve" unicode="&#x11e;" 
d="M301 -10c-72.667 0 -126.833 24.501 -162.5 73.501s-53.5 114.167 -53.5 195.5v278c0 89.333 18.167 157.166 54.5 203.499s89.5 69.5 159.5 69.5c66 0 115 -20 147 -60s50 -103.667 54 -191l-91 -10c-3.33301 66 -13.5 112.667 -30.5 140s-44.167 41 -81.5 41
c-44 0 -75.167 -14.333 -93.5 -43s-27.5 -77.334 -27.5 -146.001v-286c0 -66.667 9.83301 -114.167 29.5 -142.5s52.5 -42.5 98.5 -42.5c42 0 72 16.833 90 50.5s27 89.834 27 168.501h-128v80h219v-99c0 -91.333 -17.833 -160.833 -53.5 -208.5s-88.167 -71.5 -157.5 -71.5
zM304.001 893.001c-58.667 0 -103.167 17.333 -133.5 52s-45.833 85.667 -46.5 153h85c0.666992 -48 8.5 -82 23.5 -102s38.833 -30 71.5 -30s56.5 10 71.5 30s22.833 54 23.5 102h85c-0.666992 -67.333 -16.167 -118.333 -46.5 -153s-74.833 -52 -133.5 -52z" />
    <glyph glyph-name="gbreve" unicode="&#x11f;" 
d="M521 -52c0 -54 -15.168 -93.8301 -45.501 -119.497s-67.833 -38.5 -112.5 -38.5h-139c-48 0 -86.667 11.667 -116 35s-44 61 -44 113c0 31.333 6.83301 56.5 20.5 75.5s32.5 29.833 56.5 32.5v21c-18 3.33301 -32.667 12.666 -44 27.999s-17 39 -17 71
c0 27.333 7.33301 52.5 22 75.5s37.667 36.167 69 39.5v18c-24.667 10.667 -41.834 27.167 -51.501 49.5s-14.5 42.833 -14.5 61.5v31c0 45.333 15.167 83.166 45.5 113.499s71.833 45.5 124.5 45.5h231v-87l-118 26v-20c19.333 -7.33301 34.5 -21.333 45.5 -42
s16.5 -41.334 16.5 -62.001v-30c0 -45.333 -14.167 -82.333 -42.5 -111s-71.166 -43 -128.499 -43h-85c-14.667 0 -25.667 -4.5 -33 -13.5s-11 -24.833 -11 -47.5c0 -21.333 4.83301 -37.333 14.5 -48s23.834 -16 42.501 -16h163c44 0 80.167 -12.333 108.5 -37
s42.5 -65 42.5 -121zM277.999 305.003c28.667 0 50.167 7.5 64.5 22.5s21.5 39.167 21.5 72.5v30c0 33.333 -7.16699 57.333 -21.5 72s-35.833 22 -64.5 22s-50.167 -7.33301 -64.5 -22s-21.5 -38.667 -21.5 -72v-30c0 -33.333 7.16699 -57.5 21.5 -72.5
s35.833 -22.5 64.5 -22.5zM222.999 -134.997l146.998 -0.000976562c20.667 0 37.834 6.16699 51.501 18.5s20.5 32.833 20.5 61.5c0 28 -6.16699 48 -18.5 60s-28.166 18 -47.499 18h-223v-71c0 -29.333 6 -51.166 18 -65.499s29.333 -21.5 52 -21.5zM292.997 693.002
c-58.667 0 -103.167 17.333 -133.5 52s-45.833 85.667 -46.5 153h85c0.666992 -48 8.5 -82 23.5 -102s38.833 -30 71.5 -30s56.5 10 71.5 30s22.833 54 23.5 102h85c-0.666992 -67.333 -16.167 -118.333 -46.5 -153s-74.833 -52 -133.5 -52z" />
    <glyph glyph-name="Gdotaccent" unicode="&#x120;" 
d="M301 -10c-72.667 0 -126.833 24.501 -162.5 73.501s-53.5 114.167 -53.5 195.5v278c0 89.333 18.167 157.166 54.5 203.499s89.5 69.5 159.5 69.5c66 0 115 -20 147 -60s50 -103.667 54 -191l-91 -10c-3.33301 66 -13.5 112.667 -30.5 140s-44.167 41 -81.5 41
c-44 0 -75.167 -14.333 -93.5 -43s-27.5 -77.334 -27.5 -146.001v-286c0 -66.667 9.83301 -114.167 29.5 -142.5s52.5 -42.5 98.5 -42.5c42 0 72 16.833 90 50.5s27 89.834 27 168.501h-128v80h219v-99c0 -91.333 -17.833 -160.833 -53.5 -208.5s-88.167 -71.5 -157.5 -71.5
zM300.001 913.001c-20.667 0 -37.667 3.83301 -51 11.5s-20 21.834 -20 42.501v6c0 21.333 6.66699 36 20 44s30.333 12 51 12s37.667 -4 51 -12s20 -22.667 20 -44v-6c0 -20.667 -6.66699 -34.834 -20 -42.501s-30.333 -11.5 -51 -11.5z" />
    <glyph glyph-name="gdotaccent" unicode="&#x121;" 
d="M521 -52c0 -54 -15.168 -93.8301 -45.501 -119.497s-67.833 -38.5 -112.5 -38.5h-139c-48 0 -86.667 11.667 -116 35s-44 61 -44 113c0 31.333 6.83301 56.5 20.5 75.5s32.5 29.833 56.5 32.5v21c-18 3.33301 -32.667 12.666 -44 27.999s-17 39 -17 71
c0 27.333 7.33301 52.5 22 75.5s37.667 36.167 69 39.5v18c-24.667 10.667 -41.834 27.167 -51.501 49.5s-14.5 42.833 -14.5 61.5v31c0 45.333 15.167 83.166 45.5 113.499s71.833 45.5 124.5 45.5h231v-87l-118 26v-20c19.333 -7.33301 34.5 -21.333 45.5 -42
s16.5 -41.334 16.5 -62.001v-30c0 -45.333 -14.167 -82.333 -42.5 -111s-71.166 -43 -128.499 -43h-85c-14.667 0 -25.667 -4.5 -33 -13.5s-11 -24.833 -11 -47.5c0 -21.333 4.83301 -37.333 14.5 -48s23.834 -16 42.501 -16h163c44 0 80.167 -12.333 108.5 -37
s42.5 -65 42.5 -121zM277.999 305.003c28.667 0 50.167 7.5 64.5 22.5s21.5 39.167 21.5 72.5v30c0 33.333 -7.16699 57.333 -21.5 72s-35.833 22 -64.5 22s-50.167 -7.33301 -64.5 -22s-21.5 -38.667 -21.5 -72v-30c0 -33.333 7.16699 -57.5 21.5 -72.5
s35.833 -22.5 64.5 -22.5zM222.999 -134.997l146.998 -0.000976562c20.667 0 37.834 6.16699 51.501 18.5s20.5 32.833 20.5 61.5c0 28 -6.16699 48 -18.5 60s-28.166 18 -47.499 18h-223v-71c0 -29.333 6 -51.166 18 -65.499s29.333 -21.5 52 -21.5zM292.997 713.002
c-20.667 0 -37.667 3.83301 -51 11.5s-20 21.834 -20 42.501v6c0 21.333 6.66699 36 20 44s30.333 12 51 12s37.667 -4 51 -12s20 -22.667 20 -44v-6c0 -20.667 -6.66699 -34.834 -20 -42.501s-30.333 -11.5 -51 -11.5z" />
    <glyph glyph-name="Gcommaaccent" unicode="&#x122;" 
d="M193 -300l67 200h128l-121 -200h-74zM301 -10c-72.667 0 -126.833 24.501 -162.5 73.501s-53.5 114.167 -53.5 195.5v278c0 89.333 18.167 157.166 54.5 203.499s89.5 69.5 159.5 69.5c66 0 115 -20 147 -60s50 -103.667 54 -191l-91 -10
c-3.33301 66 -13.5 112.667 -30.5 140s-44.167 41 -81.5 41c-44 0 -75.167 -14.333 -93.5 -43s-27.5 -77.334 -27.5 -146.001v-286c0 -66.667 9.83301 -114.167 29.5 -142.5s52.5 -42.5 98.5 -42.5c42 0 72 16.833 90 50.5s27 89.834 27 168.501h-128v80h219v-99
c0 -91.333 -17.833 -160.833 -53.5 -208.5s-88.167 -71.5 -157.5 -71.5z" />
    <glyph glyph-name="gcommaaccent" unicode="&#x123;" 
d="M521 -52c0 -54 -15.168 -93.8301 -45.501 -119.497s-67.833 -38.5 -112.5 -38.5h-139c-48 0 -86.667 11.667 -116 35s-44 61 -44 113c0 31.333 6.83301 56.5 20.5 75.5s32.5 29.833 56.5 32.5v21c-18 3.33301 -32.667 12.666 -44 27.999s-17 39 -17 71
c0 27.333 7.33301 52.5 22 75.5s37.667 36.167 69 39.5v18c-24.667 10.667 -41.834 27.167 -51.501 49.5s-14.5 42.833 -14.5 61.5v31c0 45.333 15.167 83.166 45.5 113.499s71.833 45.5 124.5 45.5h231v-87l-118 26v-20c19.333 -7.33301 34.5 -21.333 45.5 -42
s16.5 -41.334 16.5 -62.001v-30c0 -45.333 -14.167 -82.333 -42.5 -111s-71.166 -43 -128.499 -43h-85c-14.667 0 -25.667 -4.5 -33 -13.5s-11 -24.833 -11 -47.5c0 -21.333 4.83301 -37.333 14.5 -48s23.834 -16 42.501 -16h163c44 0 80.167 -12.333 108.5 -37
s42.5 -65 42.5 -121zM277.999 305.003c28.667 0 50.167 7.5 64.5 22.5s21.5 39.167 21.5 72.5v30c0 33.333 -7.16699 57.333 -21.5 72s-35.833 22 -64.5 22s-50.167 -7.33301 -64.5 -22s-21.5 -38.667 -21.5 -72v-30c0 -33.333 7.16699 -57.5 21.5 -72.5
s35.833 -22.5 64.5 -22.5zM222.999 -134.997l146.998 -0.000976562c20.667 0 37.834 6.16699 51.501 18.5s20.5 32.833 20.5 61.5c0 28 -6.16699 48 -18.5 60s-28.166 18 -47.499 18h-223v-71c0 -29.333 6 -51.166 18 -65.499s29.333 -21.5 52 -21.5zM214.997 700.002
l121 200h75l-67 -200h-129z" />
    <glyph glyph-name="Hcircumflex" unicode="&#x124;" 
d="M97 0v800h91v-326h209v326h91v-800h-91v393h-209v-393h-91zM159 917l-42 51l142 147h67l143 -147l-42 -51l-135 108z" />
    <glyph glyph-name="hcircumflex" unicode="&#x125;" 
d="M99 0l-0.000976562 799.999h90v-278h23c8.66699 26.667 25 48 49 64s52 24 84 24c42 0 76 -17.167 102 -51.5s39 -79.833 39 -136.5v-422h-90v407c0 38.667 -6.66699 67.834 -20 87.501s-33.333 29.5 -60 29.5c-24.667 0 -47.667 -7.33301 -69 -22
s-40.666 -36.667 -57.999 -66v-436h-90zM8.99902 916.999l-42 51l142 147h67l143 -147l-42 -51l-135 108z" />
    <glyph glyph-name="Hbar" unicode="&#x126;" 
d="M188 432h209v130h-209v-130zM188 351v-351h-91v562h-75v85h75v153h91v-153h209v153h91v-153h75v-85h-75v-562h-91v351h-209z" />
    <glyph glyph-name="hbar" unicode="&#x127;" 
d="M189 379l-0.00195312 -379.001h-90v635h-75v77h75v88h90v-88h144v-77h-144v-170h23c10 30.667 27.333 54.667 52 72s53.334 26 86.001 26c42 0 75.167 -15.5 99.5 -46.5s36.5 -72.833 36.5 -125.5v-391h-90v372c0 34.667 -6.66699 60.834 -20 78.501
s-33.333 26.5 -60 26.5c-23.333 0 -45.666 -8.16699 -66.999 -24.5s-41.333 -40.833 -60 -73.5z" />
    <glyph glyph-name="Itilde" unicode="&#x128;" 
d="M97 0v80h150v640h-150v80h391v-80h-150v-640h150v-80h-391zM354 910c-20.667 0 -37.168 6.16699 -49.501 18.5s-22.5 25.833 -30.5 40.5l-22 40.5c-6.66699 12.333 -14.667 18.5 -24 18.5c-12 0 -20.667 -8 -26 -24s-7.66602 -40.333 -6.99902 -73v-11h-66v15
c0 49.333 8.83301 90.333 26.5 123s43.5 49 77.5 49c22 0 39.167 -6.16699 51.5 -18.5s22.5 -25.833 30.5 -40.5s15 -28.167 21 -40.5s13.333 -18.5 22 -18.5c11.333 0 19.833 8 25.5 24s8.5 40.333 8.5 73v11h65v-15c0 -50 -8.83301 -91.167 -26.5 -123.5
s-43.167 -48.5 -76.5 -48.5z" />
    <glyph glyph-name="itilde" unicode="&#x129;" 
d="M100 0v82h147v436h-147v82h238v-518h147v-82h-385zM354 710c-20.667 0 -37.168 6.16699 -49.501 18.5s-22.5 25.833 -30.5 40.5l-22 40.5c-6.66699 12.333 -14.667 18.5 -24 18.5c-12 0 -20.667 -8 -26 -24s-7.66602 -40.333 -6.99902 -73v-11h-66v15
c0 49.333 8.83301 90.333 26.5 123s43.5 49 77.5 49c22 0 39.167 -6.16699 51.5 -18.5s22.5 -25.833 30.5 -40.5s15 -28.167 21 -40.5s13.333 -18.5 22 -18.5c11.333 0 19.833 8 25.5 24s8.5 40.333 8.5 73v11h65v-15c0 -50 -8.83301 -91.167 -26.5 -123.5
s-43.167 -48.5 -76.5 -48.5z" />
    <glyph glyph-name="Imacron" unicode="&#x12a;" 
d="M97 0v80h150v640h-150v80h391v-80h-150v-640h150v-80h-391zM139 960v80h308v-80h-308z" />
    <glyph glyph-name="imacron" unicode="&#x12b;" 
d="M100 0v82h147v436h-147v82h238v-518h147v-82h-385zM139 760v80h308v-80h-308z" />
    <glyph glyph-name="Ibreve" unicode="&#x12c;" 
d="M97 0v80h150v640h-150v80h391v-80h-150v-640h150v-80h-391zM293 893c-58.667 0 -103.167 17.333 -133.5 52s-45.833 85.667 -46.5 153h85c0.666992 -48 8.5 -82 23.5 -102s38.833 -30 71.5 -30s56.5 10 71.5 30s22.833 54 23.5 102h85
c-0.666992 -67.333 -16.167 -118.333 -46.5 -153s-74.833 -52 -133.5 -52z" />
    <glyph glyph-name="ibreve" unicode="&#x12d;" 
d="M100 0v82h147v436h-147v82h238v-518h147v-82h-385zM293 693c-58.667 0 -103.167 17.333 -133.5 52s-45.833 85.667 -46.5 153h85c0.666992 -48 8.5 -82 23.5 -102s38.833 -30 71.5 -30s56.5 10 71.5 30s22.833 54 23.5 102h85
c-0.666992 -67.333 -16.167 -118.333 -46.5 -153s-74.833 -52 -133.5 -52z" />
    <glyph glyph-name="Iogonek" unicode="&#x12e;" 
d="M97 0v80h150v640h-150v80h391v-80h-150v-640h150v-80h-391zM346 -214c-34 0 -61.999 10.665 -83.999 31.998s-33 50 -33 86c0 30.667 10.167 58.334 30.5 83.001s42.833 43 67.5 55l20 -19c-17.333 -14 -28.833 -29.667 -34.5 -47s-8.5 -32.666 -8.5 -45.999
c0 -18.667 4.66699 -33 14 -43s22.666 -15 39.999 -15c8.66699 0 19.667 1 33 3s25 4.33301 35 7v-86c-11.333 -2.66699 -24.5 -5 -39.5 -7s-28.5 -3 -40.5 -3z" />
    <glyph glyph-name="iogonek" unicode="&#x12f;" 
d="M294 713c-20.667 0 -37.667 3.83301 -51 11.5s-20 21.834 -20 42.501v6c0 21.333 6.66699 36 20 44s30.333 12 51 12s37.667 -4 51 -12s20 -22.667 20 -44v-6c0 -20.667 -6.66699 -34.834 -20 -42.501s-30.333 -11.5 -51 -11.5zM100 0v82h147v436h-147v82h238v-518h147
v-82h-385zM345 -214c-34 0 -61.999 10.665 -83.999 31.998s-33 50 -33 86c0 30.667 10.167 58.334 30.5 83.001s42.833 43 67.5 55l20 -19c-17.333 -14 -28.833 -29.667 -34.5 -47s-8.5 -32.666 -8.5 -45.999c0 -18.667 4.66699 -33 14 -43s22.666 -15 39.999 -15
c8.66699 0 19.667 1 33 3s25 4.33301 35 7v-86c-11.333 -2.66699 -24.5 -5 -39.5 -7s-28.5 -3 -40.5 -3z" />
    <glyph glyph-name="Idotaccent" unicode="&#x130;" 
d="M97 0v80h150v640h-150v80h391v-80h-150v-640h150v-80h-391zM293 913c-20.667 0 -37.667 3.83301 -51 11.5s-20 21.834 -20 42.501v6c0 21.333 6.66699 36 20 44s30.333 12 51 12s37.667 -4 51 -12s20 -22.667 20 -44v-6c0 -20.667 -6.66699 -34.834 -20 -42.501
s-30.333 -11.5 -51 -11.5z" />
    <glyph glyph-name="dotlessi" unicode="&#x131;" 
d="M100 0v82h147v436h-147v82h238v-518h147v-82h-385z" />
    <glyph glyph-name="IJ" unicode="&#x132;" 
d="M155 0h-83v800h83v-800zM364 -10c-50.667 0 -87.668 20.332 -111.001 60.999s-36.333 108.667 -39 204l83 11c2.66699 -76 8.66699 -127.167 18 -153.5s25.333 -39.5 48 -39.5s39.667 14.167 51 42.5s17 70.5 17 126.5v478h-133v80h216v-555
c0 -79.333 -12.167 -141.666 -36.5 -186.999s-62.166 -68 -113.499 -68z" />
    <glyph glyph-name="ij" unicode="&#x133;" 
d="M155 713c-20.667 0 -37.334 3.83301 -50.001 11.5s-19 21.834 -19 42.501v6c0 21.333 6.33301 36 19 44s29.334 12 50.001 12s37.167 -4 49.5 -12s18.5 -22.667 18.5 -44v-6c0 -20.667 -6.33301 -34.834 -19 -42.501s-29 -11.5 -49 -11.5zM441 713
c-20.667 0 -37.335 3.83301 -50.002 11.5s-19 21.834 -19 42.501v6c0 21.333 6.33301 36 19 44s29.334 12 50.001 12s37.334 -4 50.001 -12s19 -22.667 19 -44v-6c0 -20.667 -6.5 -34.834 -19.5 -42.501s-29.5 -11.5 -49.5 -11.5zM199.999 0h-88v600h88v-600zM315.999 -208
c-17.333 0 -34.5 1.66602 -51.5 4.99902s-34.833 9 -53.5 17l15 91c16 -8 30.833 -13.667 44.5 -17s27.167 -5 40.5 -5c26.667 0 48.167 9.5 64.5 28.5s24.5 50.5 24.5 94.5v512h-97v82h185v-607c0 -67.333 -16.667 -117.666 -50 -150.999s-74 -50 -122 -50z" />
    <glyph glyph-name="Jcircumflex" unicode="&#x134;" 
d="M280 -10c-71.333 0 -123.333 20.167 -156 60.5s-50.667 107.5 -54 201.5l91 11c4 -76 14 -127.167 30 -153.5s45.667 -39.5 89 -39.5c38 0 66.5 13.833 85.5 41.5s28.5 69.5 28.5 125.5v483h-155v80h246v-560c0 -81.333 -17.5 -143.333 -52.5 -186
s-85.833 -64 -152.5 -64zM221 917l-42 51l142 147h67l143 -147l-42 -51l-135 108z" />
    <glyph glyph-name="jcircumflex" unicode="&#x135;" 
d="M220 -208c-20 0 -39.834 1.49902 -59.501 4.49902s-40.5 8.83301 -62.5 17.5l15 91c18.667 -8.66699 36.334 -14.5 53.001 -17.5s32.667 -4.5 48 -4.5c32.667 0 58.667 9.5 78 28.5s29 50.5 29 94.5v512h-206v82h296v-607c0 -67.333 -18.5 -117.666 -55.5 -150.999
s-82.167 -50 -135.5 -50zM205.999 716.999l-42 51l142 147h67l143 -147l-42 -51l-135 108z" />
    <glyph glyph-name="Kcommaaccent" unicode="&#x136;" 
d="M188 387v-387h-91v800h91v-332h26l213 332h101l-248 -367l246 -433h-103l-206 387h-29zM191 -300l67 200h128l-121 -200h-74z" />
    <glyph glyph-name="kcommaaccent" unicode="&#x137;" 
d="M221 277v-277h-91v800h91v-446h36l138 246h104l-172 -280l170 -320h-101l-139 277h-36zM187 -300l67 200h128l-121 -200h-74z" />
    <glyph glyph-name="kgreenlandic" unicode="&#x138;" 
d="M221 277v-277h-91v600h91v-246h36l138 246h104l-172 -280l170 -320h-101l-139 277h-36z" />
    <glyph glyph-name="Lacute" unicode="&#x139;" 
d="M135 0v800h90v-720h263v-80h-353zM156 900l98 200h128l-151 -200h-75z" />
    <glyph glyph-name="lacute" unicode="&#x13a;" 
d="M102 0v82h148v636h-148v82h239v-718h147v-82h-386zM212 900l98 200h128l-151 -200h-75z" />
    <glyph glyph-name="Lcommaaccent" unicode="&#x13b;" 
d="M135 0v800h90v-720h263v-80h-353zM203 -300l67 200h128l-121 -200h-74z" />
    <glyph glyph-name="lcommaaccent" unicode="&#x13c;" 
d="M102 0v82h148v636h-148v82h239v-718h147v-82h-386zM170 -300l67 200h128l-121 -200h-74z" />
    <glyph glyph-name="Lcaron" unicode="&#x13d;" 
d="M135 0v800h90v-720h263v-80h-353zM321 505l56 295h126l-121 -295h-61z" />
    <glyph glyph-name="lcaron" unicode="&#x13e;" 
d="M102 0v82h148v636h-148v82h239v-718h147v-82h-386zM410 705l56 295h126l-121 -295h-61z" />
    <glyph glyph-name="Ldot" unicode="&#x13f;" 
d="M135 0v800h90v-720h263v-80h-353zM473 415c-20.667 0 -37.667 3.83301 -51 11.5s-20 21.834 -20 42.501v6c0 21.333 6.66699 36 20 44s30.333 12 51 12s37.667 -4 51 -12s20 -22.667 20 -44v-6c0 -20.667 -6.66699 -34.834 -20 -42.501s-30.333 -11.5 -51 -11.5z" />
    <glyph glyph-name="ldot" unicode="&#x140;" 
d="M102 0v82h148v636h-148v82h239v-718h147v-82h-386zM538 307c-20.667 0 -37.667 3.83301 -51 11.5s-20 21.834 -20 42.501v6c0 21.333 6.66699 36 20 44s30.333 12 51 12s37.667 -4 51 -12s20 -22.667 20 -44v-6c0 -20.667 -6.66699 -34.834 -20 -42.501
s-30.333 -11.5 -51 -11.5z" />
    <glyph glyph-name="Lslash" unicode="&#x141;" 
d="M135 0v363l-71 -28v73l71 28v364h90v-329l185 74v-73l-185 -74v-318h263v-80h-353z" />
    <glyph glyph-name="lslash" unicode="&#x142;" 
d="M102 0v82h148v273l-114 -40v73l114 40v290h-148v82h239v-340l103 37v-74l-103 -36v-305h147v-82h-386z" />
    <glyph glyph-name="Nacute" unicode="&#x143;" 
d="M366 0l-189 691v-691h-80v800h115l196 -690v690h80v-800h-122zM220 900l98 200h128l-151 -200h-75z" />
    <glyph glyph-name="nacute" unicode="&#x144;" 
d="M99 0l-0.000976562 599.999h90v-78h23c14.667 27.333 34 48.833 58 64.5s49.667 23.5 77 23.5c43.333 0 77.333 -16.667 102 -50s37 -79.666 37 -138.999v-421h-90v404c0 40 -6.66699 70 -20 90s-33.333 30 -60 30c-24.667 0 -47.667 -7.5 -69 -22.5
s-40.666 -37.833 -57.999 -68.5v-433h-90zM218.999 699.999l98 200h128l-151 -200h-75z" />
    <glyph glyph-name="Ncommaaccent" unicode="&#x145;" 
d="M176 -300l67 200h128l-121 -200h-74zM366 0l-189 691v-691h-80v800h115l196 -690v690h80v-800h-122z" />
    <glyph glyph-name="ncommaaccent" unicode="&#x146;" 
d="M188 -300l67 200h128l-121 -200h-74zM99 0l-0.000976562 599.999h90v-78h23c14.667 27.333 34 48.833 58 64.5s49.667 23.5 77 23.5c43.333 0 77.333 -16.667 102 -50s37 -79.666 37 -138.999v-421h-90v404c0 40 -6.66699 70 -20 90s-33.333 30 -60 30
c-24.667 0 -47.667 -7.5 -69 -22.5s-40.666 -37.833 -57.999 -68.5v-433h-90z" />
    <glyph glyph-name="Ncaron" unicode="&#x147;" 
d="M366 0l-189 691v-691h-80v800h115l196 -690v690h80v-800h-122zM271 904l-143 147l42 51l135 -107l133 107l42 -51l-142 -147h-67z" />
    <glyph glyph-name="ncaron" unicode="&#x148;" 
d="M99 0l-0.000976562 599.999h90v-78h23c14.667 27.333 34 48.833 58 64.5s49.667 23.5 77 23.5c43.333 0 77.333 -16.667 102 -50s37 -79.666 37 -138.999v-421h-90v404c0 40 -6.66699 70 -20 90s-33.333 30 -60 30c-24.667 0 -47.667 -7.5 -69 -22.5
s-40.666 -37.833 -57.999 -68.5v-433h-90zM274.999 703.999l-143 147l42 51l135 -107l133 107l42 -51l-142 -147h-67z" />
    <glyph glyph-name="napostrophe" unicode="&#x149;" 
d="M99 0l-0.000976562 599.999h90v-78h23c14.667 27.333 34 48.833 58 64.5s49.667 23.5 77 23.5c43.333 0 77.333 -16.667 102 -50s37 -79.666 37 -138.999v-421h-90v404c0 40 -6.66699 70 -20 90s-33.333 30 -60 30c-24.667 0 -47.667 -7.5 -69 -22.5
s-40.666 -37.833 -57.999 -68.5v-433h-90zM15.999 699.999l98 200h128l-151 -200h-75z" />
    <glyph glyph-name="Eng" unicode="&#x14a;" 
d="M311 -208c-18 0 -36.499 3 -55.499 9s-38.833 14.333 -59.5 25l15 91c18.667 -10.667 35.5 -19 50.5 -25s29.5 -9 43.5 -9c28 0 50.333 11.667 67 35s25 62 25 116v573c0 38 -6.83301 67 -20.5 87s-33.834 30 -60.501 30c-22.667 0 -44.834 -8.16699 -66.501 -24.5
s-42.167 -40.833 -61.5 -73.5v-626h-91v800h91v-88h22c10 30 27.667 53.833 53 71.5s54.333 26.5 87 26.5c42 0 75.5 -16.667 100.5 -50s37.5 -78 37.5 -134v-605c0 -71.333 -15.667 -127.333 -47 -168s-74.666 -61 -129.999 -61z" />
    <glyph glyph-name="eng" unicode="&#x14b;" 
d="M328 -208c-15.333 0 -31.168 1.99902 -47.501 5.99902s-32.833 9.33301 -49.5 16l15 91c14 -6.66699 27.333 -12 40 -16s24.667 -6 36 -6c22.667 0 40.667 7.83301 54 23.5s20 42.167 20 79.5v418c0 40 -6.66699 70 -20 90s-33.333 30 -60 30
c-24.667 0 -47.667 -7.5 -69 -22.5s-40.666 -37.833 -57.999 -68.5v-433h-90v600h90v-78h23c14.667 27.333 34 48.833 58 64.5s49.667 23.5 77 23.5c43.333 0 77.333 -16.667 102 -50s37 -79.666 37 -138.999v-448c0 -60.667 -15.333 -106 -46 -136s-68 -45 -112 -45z" />
    <glyph glyph-name="Omacron" unicode="&#x14c;" 
d="M293 -10c-67.333 0 -118.833 23.333 -154.5 70s-53.5 114 -53.5 202v272c0 89.333 17.833 157.666 53.5 204.999s87.167 71 154.5 71s118.666 -23.667 153.999 -71s53 -115.666 53 -204.999v-272c0 -88 -17.667 -155.333 -53 -202s-86.666 -70 -153.999 -70zM293 70
c42 0 71.833 14.167 89.5 42.5s26.5 77.166 26.5 146.499v278c0 70.667 -8.83301 120.5 -26.5 149.5s-47.5 43.5 -89.5 43.5c-42.667 0 -72.834 -14.5 -90.501 -43.5s-26.5 -78.833 -26.5 -149.5v-278c0 -69.333 8.83301 -118.166 26.5 -146.499s47.834 -42.5 90.501 -42.5z
M139 960v80h308v-80h-308z" />
    <glyph glyph-name="omacron" unicode="&#x14d;" 
d="M293 -10c-62 0 -109.833 18.001 -143.5 54.001s-50.5 87 -50.5 153v202c0 67.333 16.833 119.333 50.5 156s81.5 55 143.5 55c61.333 0 108.833 -18.333 142.5 -55s50.5 -88.334 50.5 -155.001v-202c0 -66 -16.833 -117.167 -50.5 -153.5s-81.167 -54.5 -142.5 -54.5z
M293 72.001c34 0 59.667 9.5 77 28.5s26 50.5 26 94.5v205c0 44 -8.66699 76.333 -26 97s-43 31 -77 31c-34.667 0 -60.667 -10.333 -78 -31s-26 -53 -26 -97v-205c0 -44 8.66699 -75.5 26 -94.5s43.333 -28.5 78 -28.5zM139 760.001v80h308v-80h-308z" />
    <glyph glyph-name="Obreve" unicode="&#x14e;" 
d="M293 -10c-67.333 0 -118.833 23.333 -154.5 70s-53.5 114 -53.5 202v272c0 89.333 17.833 157.666 53.5 204.999s87.167 71 154.5 71s118.666 -23.667 153.999 -71s53 -115.666 53 -204.999v-272c0 -88 -17.667 -155.333 -53 -202s-86.666 -70 -153.999 -70zM293 70
c42 0 71.833 14.167 89.5 42.5s26.5 77.166 26.5 146.499v278c0 70.667 -8.83301 120.5 -26.5 149.5s-47.5 43.5 -89.5 43.5c-42.667 0 -72.834 -14.5 -90.501 -43.5s-26.5 -78.833 -26.5 -149.5v-278c0 -69.333 8.83301 -118.166 26.5 -146.499s47.834 -42.5 90.501 -42.5z
M293 893c-58.667 0 -103.167 17.333 -133.5 52s-45.833 85.667 -46.5 153h85c0.666992 -48 8.5 -82 23.5 -102s38.833 -30 71.5 -30s56.5 10 71.5 30s22.833 54 23.5 102h85c-0.666992 -67.333 -16.167 -118.333 -46.5 -153s-74.833 -52 -133.5 -52z" />
    <glyph glyph-name="obreve" unicode="&#x14f;" 
d="M293 -10c-62 0 -109.833 18.001 -143.5 54.001s-50.5 87 -50.5 153v202c0 67.333 16.833 119.333 50.5 156s81.5 55 143.5 55c61.333 0 108.833 -18.333 142.5 -55s50.5 -88.334 50.5 -155.001v-202c0 -66 -16.833 -117.167 -50.5 -153.5s-81.167 -54.5 -142.5 -54.5z
M293 72.001c34 0 59.667 9.5 77 28.5s26 50.5 26 94.5v205c0 44 -8.66699 76.333 -26 97s-43 31 -77 31c-34.667 0 -60.667 -10.333 -78 -31s-26 -53 -26 -97v-205c0 -44 8.66699 -75.5 26 -94.5s43.333 -28.5 78 -28.5zM294 693.001c-58.667 0 -103.167 17.333 -133.5 52
s-45.833 85.667 -46.5 153h85c0.666992 -48 8.5 -82 23.5 -102s38.833 -30 71.5 -30s56.5 10 71.5 30s22.833 54 23.5 102h85c-0.666992 -67.333 -16.167 -118.333 -46.5 -153s-74.833 -52 -133.5 -52z" />
    <glyph glyph-name="Ohungarumlaut" unicode="&#x150;" 
d="M293 -10c-67.333 0 -118.833 23.333 -154.5 70s-53.5 114 -53.5 202v272c0 89.333 17.833 157.666 53.5 204.999s87.167 71 154.5 71s118.666 -23.667 153.999 -71s53 -115.666 53 -204.999v-272c0 -88 -17.667 -155.333 -53 -202s-86.666 -70 -153.999 -70zM293 70
c42 0 71.833 14.167 89.5 42.5s26.5 77.166 26.5 146.499v278c0 70.667 -8.83301 120.5 -26.5 149.5s-47.5 43.5 -89.5 43.5c-42.667 0 -72.834 -14.5 -90.501 -43.5s-26.5 -78.833 -26.5 -149.5v-278c0 -69.333 8.83301 -118.166 26.5 -146.499s47.834 -42.5 90.501 -42.5z
M335 900l40 200h113l-95 -200h-58zM162 900l41 200h113l-96 -200h-58z" />
    <glyph glyph-name="ohungarumlaut" unicode="&#x151;" 
d="M293 -10c-62 0 -109.833 18.001 -143.5 54.001s-50.5 87 -50.5 153v202c0 67.333 16.833 119.333 50.5 156s81.5 55 143.5 55c61.333 0 108.833 -18.333 142.5 -55s50.5 -88.334 50.5 -155.001v-202c0 -66 -16.833 -117.167 -50.5 -153.5s-81.167 -54.5 -142.5 -54.5z
M293 72.001c34 0 59.667 9.5 77 28.5s26 50.5 26 94.5v205c0 44 -8.66699 76.333 -26 97s-43 31 -77 31c-34.667 0 -60.667 -10.333 -78 -31s-26 -53 -26 -97v-205c0 -44 8.66699 -75.5 26 -94.5s43.333 -28.5 78 -28.5zM333 700.001l40 200h113l-95 -200h-58zM160 700.001
l41 200h113l-96 -200h-58z" />
    <glyph glyph-name="OE" unicode="&#x152;" 
d="M234 0c-60.667 0 -108 23.333 -142 70s-51 108.667 -51 186v282c0 79.333 17 142.833 51 190.5s81 71.5 141 71.5h319v-70h-177v-253h169v-71h-169v-336h177v-70h-318zM237 69l58 -0.000976562v662h-58c-38 0 -66.833 -16.167 -86.5 -48.5s-29.5 -79.166 -29.5 -140.499
v-289c0 -60 9.83301 -105.667 29.5 -137s48.5 -47 86.5 -47z" />
    <glyph glyph-name="oe" unicode="&#x153;" 
d="M533 131c-5.33301 -47.333 -18.501 -82.666 -39.501 -105.999s-51.833 -35 -92.5 -35c-26 0 -48.667 5.83301 -68 17.5s-34.333 29.5 -45 53.5c-11.333 -24 -25.833 -41.833 -43.5 -53.5s-37.5 -17.5 -59.5 -17.5c-38.667 0 -70.167 17.5 -94.5 52.5
s-36.5 88.5 -36.5 160.5v190c0 73.333 12.333 127.833 37 163.5s56.334 53.5 95.001 53.5c22 0 41.833 -5.83301 59.5 -17.5s31.834 -29.834 42.501 -54.501c10.667 24.667 25.167 42.834 43.5 54.501s39.166 17.5 62.499 17.5c41.333 0 74.5 -15 99.5 -45
s37.5 -76.667 37.5 -140v-142h-202v-118c0 -38.667 5 -66.334 15 -83.001s26 -25 48 -25s38 5.5 48 16.5s16.667 31.833 20 62.5zM328.999 430v-87h123v78c0 42 -5 72.667 -15 92s-25.667 29 -47 29c-20.667 0 -36 -9.16699 -46 -27.5s-15 -46.5 -15 -84.5zM193.999 60
c20.667 0 36.167 11 46.5 33s15.5 58 15.5 108v192c0 50 -5.16699 87 -15.5 111s-25.833 36 -46.5 36s-36 -11.833 -46 -35.5s-15 -60.5 -15 -110.5v-193c0 -50 5 -86 15 -108s25.333 -33 46 -33z" />
    <glyph glyph-name="Racute" unicode="&#x154;" 
d="M188 393h133c36.667 0 63.5 11 80.5 33s25.5 56.667 25.5 104v62c0 44 -8.5 76.333 -25.5 97s-43.833 31 -80.5 31h-133v-327zM188 0h-91v800h231c62.667 0 109.667 -17.5 141 -52.5s47 -87.167 47 -156.5v-61c0 -62 -11.667 -110.5 -35 -145.5
s-58.333 -56.833 -105 -65.5l150 -319h-101l-147 315h-90v-315zM252 900l98 200h128l-151 -200h-75z" />
    <glyph glyph-name="racute" unicode="&#x155;" 
d="M131 0l-0.000976562 600h91v-88h23c9.33301 34 25.333 58.833 48 74.5s49.334 23.5 80.001 23.5c34.667 0 63.5 -13.833 86.5 -41.5s34.5 -67.167 34.5 -118.5v-96h-88v63c0 36.667 -5.5 63.667 -16.5 81s-29.5 26 -55.5 26c-22.667 0 -43.5 -7.66699 -62.5 -23
s-35.5 -37.333 -49.5 -66v-435h-91zM230.999 700l98 200h128l-151 -200h-75z" />
    <glyph glyph-name="Rcommaaccent" unicode="&#x156;" 
d="M188 393h133c36.667 0 63.5 11 80.5 33s25.5 56.667 25.5 104v62c0 44 -8.5 76.333 -25.5 97s-43.833 31 -80.5 31h-133v-327zM188 0h-91v800h231c62.667 0 109.667 -17.5 141 -52.5s47 -87.167 47 -156.5v-61c0 -62 -11.667 -110.5 -35 -145.5
s-58.333 -56.833 -105 -65.5l150 -319h-101l-147 315h-90v-315zM175 -300l67 200h128l-121 -200h-74z" />
    <glyph glyph-name="rcommaaccent" unicode="&#x157;" 
d="M131 0l-0.000976562 600h91v-88h23c9.33301 34 25.333 58.833 48 74.5s49.334 23.5 80.001 23.5c34.667 0 63.5 -13.833 86.5 -41.5s34.5 -67.167 34.5 -118.5v-96h-88v63c0 36.667 -5.5 63.667 -16.5 81s-29.5 26 -55.5 26c-22.667 0 -43.5 -7.66699 -62.5 -23
s-35.5 -37.333 -49.5 -66v-435h-91zM77.999 -300l67 200h128l-121 -200h-74z" />
    <glyph glyph-name="Rcaron" unicode="&#x158;" 
d="M188 393h133c36.667 0 63.5 11 80.5 33s25.5 56.667 25.5 104v62c0 44 -8.5 76.333 -25.5 97s-43.833 31 -80.5 31h-133v-327zM188 0h-91v800h231c62.667 0 109.667 -17.5 141 -52.5s47 -87.167 47 -156.5v-61c0 -62 -11.667 -110.5 -35 -145.5
s-58.333 -56.833 -105 -65.5l150 -319h-101l-147 315h-90v-315zM260 904l-143 147l42 51l135 -107l133 107l42 -51l-142 -147h-67z" />
    <glyph glyph-name="rcaron" unicode="&#x159;" 
d="M131 0l-0.000976562 600h91v-88h23c9.33301 34 25.333 58.833 48 74.5s49.334 23.5 80.001 23.5c34.667 0 63.5 -13.833 86.5 -41.5s34.5 -67.167 34.5 -118.5v-96h-88v63c0 36.667 -5.5 63.667 -16.5 81s-29.5 26 -55.5 26c-22.667 0 -43.5 -7.66699 -62.5 -23
s-35.5 -37.333 -49.5 -66v-435h-91zM286.999 704l-143 147l42 51l135 -107l133 107l42 -51l-142 -147h-67z" />
    <glyph glyph-name="Sacute" unicode="&#x15a;" 
d="M297 -9c-41.333 0 -81.999 7.99707 -121.999 23.9971s-73.667 36.333 -101 61l27 77c30.667 -27.333 63.5 -47.833 98.5 -61.5s70.5 -20.5 106.5 -20.5c40 0 71.167 12.167 93.5 36.5s33.5 57.833 33.5 100.5c0 36 -10.167 64.333 -30.5 85s-62.833 45.667 -127.5 75
c-72 32 -122.333 64.833 -151 98.5s-43 77.5 -43 131.5c0 64 18.333 114.167 55 150.5s87.334 54.5 152.001 54.5c38 0 75.833 -8.33301 113.5 -25s68.167 -37 91.5 -61l-24 -78c-29.333 26.667 -59.833 47.334 -91.5 62.001s-62.834 22 -93.501 22
c-35.333 0 -63 -10.5 -83 -31.5s-30 -49.833 -30 -86.5c0 -34 10.667 -61.167 32 -81.5s65.666 -45.166 132.999 -74.499c69.333 -30 117.833 -61.5 145.5 -94.5s41.5 -76.167 41.5 -129.5c0 -71.333 -20.333 -128.166 -61 -170.499s-95.667 -63.5 -165 -63.5z
M204.001 899.997l98 200h128l-151 -200h-75z" />
    <glyph glyph-name="sacute" unicode="&#x15b;" 
d="M302 -11c-38.667 0 -77.1621 6.33203 -115.495 18.999s-70.833 30.667 -97.5 54l33 73c24.667 -18.667 53.167 -34 85.5 -46s64.166 -18 95.499 -18c35.333 0 61.333 6.5 78 19.5s25 33.833 25 62.5c0 32.667 -9 55.334 -27 68.001s-50.667 25.334 -98 38.001
c-64.667 16.667 -110.334 38.667 -137.001 66s-40 65 -40 113c0 54 15.833 96.167 47.5 126.5s75.167 45.5 130.5 45.5c34.667 0 69.667 -6.83301 105 -20.5s65.666 -31.834 90.999 -54.501l-32 -73c-22.667 17.333 -48.334 32.833 -77.001 46.5s-57.334 20.5 -86.001 20.5
c-30.667 0 -53.167 -6.66699 -67.5 -20s-21.5 -34.333 -21.5 -63c0 -32.667 9.5 -55.5 28.5 -68.5s52.833 -26.167 101.5 -39.5c62.667 -16.667 107 -38.5 133 -65.5s39 -63.833 39 -110.5c0 -54 -17.333 -96.333 -52 -127s-82 -46 -142 -46zM204.005 699.999l98 200h128
l-151 -200h-75z" />
    <glyph glyph-name="Scircumflex" unicode="&#x15c;" 
d="M297 -9c-41.333 0 -81.999 7.99707 -121.999 23.9971s-73.667 36.333 -101 61l27 77c30.667 -27.333 63.5 -47.833 98.5 -61.5s70.5 -20.5 106.5 -20.5c40 0 71.167 12.167 93.5 36.5s33.5 57.833 33.5 100.5c0 36 -10.167 64.333 -30.5 85s-62.833 45.667 -127.5 75
c-72 32 -122.333 64.833 -151 98.5s-43 77.5 -43 131.5c0 64 18.333 114.167 55 150.5s87.334 54.5 152.001 54.5c38 0 75.833 -8.33301 113.5 -25s68.167 -37 91.5 -61l-24 -78c-29.333 26.667 -59.833 47.334 -91.5 62.001s-62.834 22 -93.501 22
c-35.333 0 -63 -10.5 -83 -31.5s-30 -49.833 -30 -86.5c0 -34 10.667 -61.167 32 -81.5s65.666 -45.166 132.999 -74.499c69.333 -30 117.833 -61.5 145.5 -94.5s41.5 -76.167 41.5 -129.5c0 -71.333 -20.333 -128.166 -61 -170.499s-95.667 -63.5 -165 -63.5z
M159.001 916.997l-42 51l142 147h67l143 -147l-42 -51l-135 108z" />
    <glyph glyph-name="scircumflex" unicode="&#x15d;" 
d="M302 -11c-38.667 0 -77.1621 6.33203 -115.495 18.999s-70.833 30.667 -97.5 54l33 73c24.667 -18.667 53.167 -34 85.5 -46s64.166 -18 95.499 -18c35.333 0 61.333 6.5 78 19.5s25 33.833 25 62.5c0 32.667 -9 55.334 -27 68.001s-50.667 25.334 -98 38.001
c-64.667 16.667 -110.334 38.667 -137.001 66s-40 65 -40 113c0 54 15.833 96.167 47.5 126.5s75.167 45.5 130.5 45.5c34.667 0 69.667 -6.83301 105 -20.5s65.666 -31.834 90.999 -54.501l-32 -73c-22.667 17.333 -48.334 32.833 -77.001 46.5s-57.334 20.5 -86.001 20.5
c-30.667 0 -53.167 -6.66699 -67.5 -20s-21.5 -34.333 -21.5 -63c0 -32.667 9.5 -55.5 28.5 -68.5s52.833 -26.167 101.5 -39.5c62.667 -16.667 107 -38.5 133 -65.5s39 -63.833 39 -110.5c0 -54 -17.333 -96.333 -52 -127s-82 -46 -142 -46zM157.005 716.999l-42 51
l142 147h67l143 -147l-42 -51l-135 108z" />
    <glyph glyph-name="Scedilla" unicode="&#x15e;" 
d="M297 -9c-41.333 0 -81.999 7.99707 -121.999 23.9971s-73.667 36.333 -101 61l27 77c30.667 -27.333 63.5 -47.833 98.5 -61.5s70.5 -20.5 106.5 -20.5c40 0 71.167 12.167 93.5 36.5s33.5 57.833 33.5 100.5c0 36 -10.167 64.333 -30.5 85s-62.833 45.667 -127.5 75
c-72 32 -122.333 64.833 -151 98.5s-43 77.5 -43 131.5c0 64 18.333 114.167 55 150.5s87.334 54.5 152.001 54.5c38 0 75.833 -8.33301 113.5 -25s68.167 -37 91.5 -61l-24 -78c-29.333 26.667 -59.833 47.334 -91.5 62.001s-62.834 22 -93.501 22
c-35.333 0 -63 -10.5 -83 -31.5s-30 -49.833 -30 -86.5c0 -34 10.667 -61.167 32 -81.5s65.666 -45.166 132.999 -74.499c69.333 -30 117.833 -61.5 145.5 -94.5s41.5 -76.167 41.5 -129.5c0 -71.333 -20.333 -128.166 -61 -170.499s-95.667 -63.5 -165 -63.5z
M270.001 -0.00292969l14.999 42.002c34.667 -6.66699 60.834 -21.334 78.501 -44.001s26.5 -52.334 26.5 -89.001c0 -42 -12.5 -73 -37.5 -93s-52.833 -30 -83.5 -30c-36 0 -65.333 7.66699 -88 23s-35.334 41.333 -38.001 78l79 10
c0.666992 -12.667 4.33398 -21.5 11.001 -26.5s17.334 -7.5 32.001 -7.5s25.667 4.16699 33 12.5s11 23.833 11 46.5c0 24.667 -2.83301 42.5 -8.5 53.5s-15.834 19.167 -30.501 24.5z" />
    <glyph glyph-name="scedilla" unicode="&#x15f;" 
d="M302 -11c-38.667 0 -77.1621 6.33203 -115.495 18.999s-70.833 30.667 -97.5 54l33 73c24.667 -18.667 53.167 -34 85.5 -46s64.166 -18 95.499 -18c35.333 0 61.333 6.5 78 19.5s25 33.833 25 62.5c0 32.667 -9 55.334 -27 68.001s-50.667 25.334 -98 38.001
c-64.667 16.667 -110.334 38.667 -137.001 66s-40 65 -40 113c0 54 15.833 96.167 47.5 126.5s75.167 45.5 130.5 45.5c34.667 0 69.667 -6.83301 105 -20.5s65.666 -31.834 90.999 -54.501l-32 -73c-22.667 17.333 -48.334 32.833 -77.001 46.5s-57.334 20.5 -86.001 20.5
c-30.667 0 -53.167 -6.66699 -67.5 -20s-21.5 -34.333 -21.5 -63c0 -32.667 9.5 -55.5 28.5 -68.5s52.833 -26.167 101.5 -39.5c62.667 -16.667 107 -38.5 133 -65.5s39 -63.833 39 -110.5c0 -54 -17.333 -96.333 -52 -127s-82 -46 -142 -46zM266.005 -0.000976562
l14.999 42.002c34.667 -6.66699 60.834 -21.334 78.501 -44.001s26.5 -52.334 26.5 -89.001c0 -42 -12.5 -73 -37.5 -93s-52.833 -30 -83.5 -30c-36 0 -65.333 7.66699 -88 23s-35.334 41.333 -38.001 78l79 10c0.666992 -12.667 4.33398 -21.5 11.001 -26.5
s17.334 -7.5 32.001 -7.5s25.667 4.16699 33 12.5s11 23.833 11 46.5c0 24.667 -2.83301 42.5 -8.5 53.5s-15.834 19.167 -30.501 24.5z" />
    <glyph glyph-name="Scaron" unicode="&#x160;" 
d="M297 -9c-41.333 0 -81.999 7.99707 -121.999 23.9971s-73.667 36.333 -101 61l27 77c30.667 -27.333 63.5 -47.833 98.5 -61.5s70.5 -20.5 106.5 -20.5c40 0 71.167 12.167 93.5 36.5s33.5 57.833 33.5 100.5c0 36 -10.167 64.333 -30.5 85s-62.833 45.667 -127.5 75
c-72 32 -122.333 64.833 -151 98.5s-43 77.5 -43 131.5c0 64 18.333 114.167 55 150.5s87.334 54.5 152.001 54.5c38 0 75.833 -8.33301 113.5 -25s68.167 -37 91.5 -61l-24 -78c-29.333 26.667 -59.833 47.334 -91.5 62.001s-62.834 22 -93.501 22
c-35.333 0 -63 -10.5 -83 -31.5s-30 -49.833 -30 -86.5c0 -34 10.667 -61.167 32 -81.5s65.666 -45.166 132.999 -74.499c69.333 -30 117.833 -61.5 145.5 -94.5s41.5 -76.167 41.5 -129.5c0 -71.333 -20.333 -128.166 -61 -170.499s-95.667 -63.5 -165 -63.5z
M260.001 903.997l-143 147l42 51l135 -107l133 107l42 -51l-142 -147h-67z" />
    <glyph glyph-name="scaron" unicode="&#x161;" 
d="M302 -11c-38.667 0 -77.1621 6.33203 -115.495 18.999s-70.833 30.667 -97.5 54l33 73c24.667 -18.667 53.167 -34 85.5 -46s64.166 -18 95.499 -18c35.333 0 61.333 6.5 78 19.5s25 33.833 25 62.5c0 32.667 -9 55.334 -27 68.001s-50.667 25.334 -98 38.001
c-64.667 16.667 -110.334 38.667 -137.001 66s-40 65 -40 113c0 54 15.833 96.167 47.5 126.5s75.167 45.5 130.5 45.5c34.667 0 69.667 -6.83301 105 -20.5s65.666 -31.834 90.999 -54.501l-32 -73c-22.667 17.333 -48.334 32.833 -77.001 46.5s-57.334 20.5 -86.001 20.5
c-30.667 0 -53.167 -6.66699 -67.5 -20s-21.5 -34.333 -21.5 -63c0 -32.667 9.5 -55.5 28.5 -68.5s52.833 -26.167 101.5 -39.5c62.667 -16.667 107 -38.5 133 -65.5s39 -63.833 39 -110.5c0 -54 -17.333 -96.333 -52 -127s-82 -46 -142 -46zM258.005 703.999l-143 147
l42 51l135 -107l133 107l42 -51l-142 -147h-67z" />
    <glyph glyph-name="Tcedilla" unicode="&#x162;" 
d="M247 0v720h-179v80h450v-80h-180v-720h-91zM260 0l14.999 42.002c34.667 -6.66699 60.834 -21.334 78.501 -44.001s26.5 -52.334 26.5 -89.001c0 -42 -12.5 -73 -37.5 -93s-52.833 -30 -83.5 -30c-36 0 -65.333 7.66699 -88 23s-35.334 41.333 -38.001 78l79 10
c0.666992 -12.667 4.33398 -21.5 11.001 -26.5s17.334 -7.5 32.001 -7.5s25.667 4.16699 33 12.5s11 23.833 11 46.5c0 24.667 -2.83301 42.5 -8.5 53.5s-15.834 19.167 -30.501 24.5z" />
    <glyph glyph-name="tcedilla" unicode="&#x163;" 
d="M383 -9c-54 0 -96.333 17.167 -127 51.5s-46 80.5 -46 138.5v337h-123v82h123v200h90v-200h189v-82h-189v-325c0 -38 7 -66.667 21 -86s34.667 -29 62 -29c18 0 35.167 1.66699 51.5 5s31.833 8.33301 46.5 15l15 -84c-12.667 -5.33301 -29.667 -10.5 -51 -15.5
s-42 -7.5 -62 -7.5zM315 0l14.999 42.002c34.667 -6.66699 60.834 -21.334 78.501 -44.001s26.5 -52.334 26.5 -89.001c0 -42 -12.5 -73 -37.5 -93s-52.833 -30 -83.5 -30c-36 0 -65.333 7.66699 -88 23s-35.334 41.333 -38.001 78l79 10
c0.666992 -12.667 4.33398 -21.5 11.001 -26.5s17.334 -7.5 32.001 -7.5s25.667 4.16699 33 12.5s11 23.833 11 46.5c0 24.667 -2.83301 42.5 -8.5 53.5s-15.834 19.167 -30.501 24.5z" />
    <glyph glyph-name="Tcaron" unicode="&#x164;" 
d="M247 0v720h-179v80h450v-80h-180v-720h-91zM260 904l-143 147l42 51l135 -107l133 107l42 -51l-142 -147h-67z" />
    <glyph glyph-name="tcaron" unicode="&#x165;" 
d="M383 -9c-54 0 -96.333 17.167 -127 51.5s-46 80.5 -46 138.5v337h-123v82h123v200h90v-200h189v-82h-189v-325c0 -38 7 -66.667 21 -86s34.667 -29 62 -29c18 0 35.167 1.66699 51.5 5s31.833 8.33301 46.5 15l15 -84c-12.667 -5.33301 -29.667 -10.5 -51 -15.5
s-42 -7.5 -62 -7.5zM366 705l56 295h126l-121 -295h-61z" />
    <glyph glyph-name="Tbar" unicode="&#x166;" 
d="M247 0v313h-144v85h144v322h-179v80h450v-80h-180v-322h144v-85h-144v-313h-91z" />
    <glyph glyph-name="tbar" unicode="&#x167;" 
d="M383 -9c-54 0 -96.333 17.167 -127 51.5s-46 80.5 -46 138.5v104h-102v85h102v148h-123v82h123v200h90v-200h189v-82h-189v-148h162v-85h-162v-92c0 -38 7 -66.667 21 -86s34.667 -29 62 -29c18 0 35.167 1.66699 51.5 5s31.833 8.33301 46.5 15l15 -84
c-12.667 -5.33301 -29.667 -10.5 -51 -15.5s-42 -7.5 -62 -7.5z" />
    <glyph glyph-name="Utilde" unicode="&#x168;" 
d="M293 -10c-66.667 0 -116.001 21.833 -148.001 65.5s-48 110.834 -48 201.501v543h91v-549c0 -67.333 7.83301 -114.5 23.5 -141.5s42.834 -40.5 81.501 -40.5s65.667 13.5 81 40.5s23 74.167 23 141.5v549h91v-543c0 -90.667 -16 -157.834 -48 -201.501
s-81 -65.5 -147 -65.5zM353.999 910c-20.667 0 -37.168 6.16699 -49.501 18.5s-22.5 25.833 -30.5 40.5l-22 40.5c-6.66699 12.333 -14.667 18.5 -24 18.5c-12 0 -20.667 -8 -26 -24s-7.66602 -40.333 -6.99902 -73v-11h-66v15c0 49.333 8.83301 90.333 26.5 123
s43.5 49 77.5 49c22 0 39.167 -6.16699 51.5 -18.5s22.5 -25.833 30.5 -40.5s15 -28.167 21 -40.5s13.333 -18.5 22 -18.5c11.333 0 19.833 8 25.5 24s8.5 40.333 8.5 73v11h65v-15c0 -50 -8.83301 -91.167 -26.5 -123.5s-43.167 -48.5 -76.5 -48.5z" />
    <glyph glyph-name="utilde" unicode="&#x169;" 
d="M240 -10c-42.667 0 -76.833 17.168 -102.5 51.501s-38.5 80.166 -38.5 137.499v421h90v-407c0 -38 6.83301 -67 20.5 -87s33.5 -30 59.5 -30c24 0 47 7.5 69 22.5s41.333 36.833 58 65.5v436h90v-600h-90v78h-23c-8.66699 -26.667 -25 -48 -49 -64s-52 -24 -84 -24z
M354.001 710.001c-20.667 0 -37.168 6.16699 -49.501 18.5s-22.5 25.833 -30.5 40.5l-22 40.5c-6.66699 12.333 -14.667 18.5 -24 18.5c-12 0 -20.667 -8 -26 -24s-7.66602 -40.333 -6.99902 -73v-11h-66v15c0 49.333 8.83301 90.333 26.5 123s43.5 49 77.5 49
c22 0 39.167 -6.16699 51.5 -18.5s22.5 -25.833 30.5 -40.5s15 -28.167 21 -40.5s13.333 -18.5 22 -18.5c11.333 0 19.833 8 25.5 24s8.5 40.333 8.5 73v11h65v-15c0 -50 -8.83301 -91.167 -26.5 -123.5s-43.167 -48.5 -76.5 -48.5z" />
    <glyph glyph-name="Umacron" unicode="&#x16a;" 
d="M293 -10c-66.667 0 -116.001 21.833 -148.001 65.5s-48 110.834 -48 201.501v543h91v-549c0 -67.333 7.83301 -114.5 23.5 -141.5s42.834 -40.5 81.501 -40.5s65.667 13.5 81 40.5s23 74.167 23 141.5v549h91v-543c0 -90.667 -16 -157.834 -48 -201.501
s-81 -65.5 -147 -65.5zM138.999 960v80h308v-80h-308z" />
    <glyph glyph-name="umacron" unicode="&#x16b;" 
d="M240 -10c-42.667 0 -76.833 17.168 -102.5 51.501s-38.5 80.166 -38.5 137.499v421h90v-407c0 -38 6.83301 -67 20.5 -87s33.5 -30 59.5 -30c24 0 47 7.5 69 22.5s41.333 36.833 58 65.5v436h90v-600h-90v78h-23c-8.66699 -26.667 -25 -48 -49 -64s-52 -24 -84 -24z
M139.001 760.001v80h308v-80h-308z" />
    <glyph glyph-name="Ubreve" unicode="&#x16c;" 
d="M293 -10c-66.667 0 -116.001 21.833 -148.001 65.5s-48 110.834 -48 201.501v543h91v-549c0 -67.333 7.83301 -114.5 23.5 -141.5s42.834 -40.5 81.501 -40.5s65.667 13.5 81 40.5s23 74.167 23 141.5v549h91v-543c0 -90.667 -16 -157.834 -48 -201.501
s-81 -65.5 -147 -65.5zM292.999 893c-58.667 0 -103.167 17.333 -133.5 52s-45.833 85.667 -46.5 153h85c0.666992 -48 8.5 -82 23.5 -102s38.833 -30 71.5 -30s56.5 10 71.5 30s22.833 54 23.5 102h85c-0.666992 -67.333 -16.167 -118.333 -46.5 -153
s-74.833 -52 -133.5 -52z" />
    <glyph glyph-name="ubreve" unicode="&#x16d;" 
d="M240 -10c-42.667 0 -76.833 17.168 -102.5 51.501s-38.5 80.166 -38.5 137.499v421h90v-407c0 -38 6.83301 -67 20.5 -87s33.5 -30 59.5 -30c24 0 47 7.5 69 22.5s41.333 36.833 58 65.5v436h90v-600h-90v78h-23c-8.66699 -26.667 -25 -48 -49 -64s-52 -24 -84 -24z
M294.001 693.001c-58.667 0 -103.167 17.333 -133.5 52s-45.833 85.667 -46.5 153h85c0.666992 -48 8.5 -82 23.5 -102s38.833 -30 71.5 -30s56.5 10 71.5 30s22.833 54 23.5 102h85c-0.666992 -67.333 -16.167 -118.333 -46.5 -153s-74.833 -52 -133.5 -52z" />
    <glyph glyph-name="Uring" unicode="&#x16e;" 
d="M293 -10c-66.667 0 -116.001 21.833 -148.001 65.5s-48 110.834 -48 201.501v543h91v-549c0 -67.333 7.83301 -114.5 23.5 -141.5s42.834 -40.5 81.501 -40.5s65.667 13.5 81 40.5s23 74.167 23 141.5v549h91v-543c0 -90.667 -16 -157.834 -48 -201.501
s-81 -65.5 -147 -65.5zM292.999 887c-38 0 -68.833 11.667 -92.5 35s-35.5 59.333 -35.5 108v32c0 49.333 11.833 86 35.5 110s54.5 36 92.5 36s68.833 -12 92.5 -36s35.5 -60.667 35.5 -110v-32c0 -48.667 -11.833 -84.667 -35.5 -108s-54.5 -35 -92.5 -35zM292.999 954
c19.333 0 34.166 5.83301 44.499 17.5s15.5 31.167 15.5 58.5v32c0 26.667 -5.16699 46.5 -15.5 59.5s-25.166 19.5 -44.499 19.5c-20 0 -35 -6.5 -45 -19.5s-15 -32.833 -15 -59.5v-32c0 -27.333 5 -46.833 15 -58.5s25 -17.5 45 -17.5z" />
    <glyph glyph-name="uring" unicode="&#x16f;" 
d="M240 -10c-42.667 0 -76.833 17.168 -102.5 51.501s-38.5 80.166 -38.5 137.499v421h90v-407c0 -38 6.83301 -67 20.5 -87s33.5 -30 59.5 -30c24 0 47 7.5 69 22.5s41.333 36.833 58 65.5v436h90v-600h-90v78h-23c-8.66699 -26.667 -25 -48 -49 -64s-52 -24 -84 -24z
M294.001 687.001c-38 0 -68.833 11.667 -92.5 35s-35.5 59.333 -35.5 108v32c0 49.333 11.833 86 35.5 110s54.5 36 92.5 36s68.833 -12 92.5 -36s35.5 -60.667 35.5 -110v-32c0 -48.667 -11.833 -84.667 -35.5 -108s-54.5 -35 -92.5 -35zM294.001 754.001
c19.333 0 34.166 5.83301 44.499 17.5s15.5 31.167 15.5 58.5v32c0 26.667 -5.16699 46.5 -15.5 59.5s-25.166 19.5 -44.499 19.5c-20 0 -35 -6.5 -45 -19.5s-15 -32.833 -15 -59.5v-32c0 -27.333 5 -46.833 15 -58.5s25 -17.5 45 -17.5z" />
    <glyph glyph-name="Uhungarumlaut" unicode="&#x170;" 
d="M293 -10c-66.667 0 -116.001 21.833 -148.001 65.5s-48 110.834 -48 201.501v543h91v-549c0 -67.333 7.83301 -114.5 23.5 -141.5s42.834 -40.5 81.501 -40.5s65.667 13.5 81 40.5s23 74.167 23 141.5v549h91v-543c0 -90.667 -16 -157.834 -48 -201.501
s-81 -65.5 -147 -65.5zM341.999 900l40 200h113l-95 -200h-58zM168.999 900l41 200h113l-96 -200h-58z" />
    <glyph glyph-name="uhungarumlaut" unicode="&#x171;" 
d="M240 -10c-42.667 0 -76.833 17.168 -102.5 51.501s-38.5 80.166 -38.5 137.499v421h90v-407c0 -38 6.83301 -67 20.5 -87s33.5 -30 59.5 -30c24 0 47 7.5 69 22.5s41.333 36.833 58 65.5v436h90v-600h-90v78h-23c-8.66699 -26.667 -25 -48 -49 -64s-52 -24 -84 -24z
M345.001 700.001l40 200h113l-95 -200h-58zM172.001 700.001l41 200h113l-96 -200h-58z" />
    <glyph glyph-name="Uogonek" unicode="&#x172;" 
d="M345 -214c-34 0 -61.999 10.665 -83.999 31.998s-33 50 -33 86c0 30.667 10.167 58.334 30.5 83.001s42.833 43 67.5 55l20 -19c-17.333 -14 -28.833 -29.667 -34.5 -47s-8.5 -32.666 -8.5 -45.999c0 -18.667 4.66699 -33 14 -43s22.666 -15 39.999 -15
c8.66699 0 19.667 1 33 3s25 4.33301 35 7v-86c-11.333 -2.66699 -24.5 -5 -39.5 -7s-28.5 -3 -40.5 -3zM293.001 -10.002c-66.667 0 -116.001 21.833 -148.001 65.5s-48 110.834 -48 201.501v543h91v-549c0 -67.333 7.83301 -114.5 23.5 -141.5s42.834 -40.5 81.501 -40.5
s65.667 13.5 81 40.5s23 74.167 23 141.5v549h91v-543c0 -90.667 -16 -157.834 -48 -201.501s-81 -65.5 -147 -65.5z" />
    <glyph glyph-name="uogonek" unicode="&#x173;" 
d="M461 -214c-34 0 -61.999 10.665 -83.999 31.998s-33 50 -33 86c0 30.667 10.167 58.334 30.5 83.001s42.833 43 67.5 55l20 -19c-17.333 -14 -28.833 -29.667 -34.5 -47s-8.5 -32.666 -8.5 -45.999c0 -18.667 4.66699 -33 14 -43s22.666 -15 39.999 -15
c8.66699 0 19.667 1 33 3s25 4.33301 35 7v-86c-11.333 -2.66699 -24.5 -5 -39.5 -7s-28.5 -3 -40.5 -3zM240.001 -10.002c-42.667 0 -76.833 17.168 -102.5 51.501s-38.5 80.166 -38.5 137.499v421h90v-407c0 -38 6.83301 -67 20.5 -87s33.5 -30 59.5 -30
c24 0 47 7.5 69 22.5s41.333 36.833 58 65.5v436h90v-600h-90v78h-23c-8.66699 -26.667 -25 -48 -49 -64s-52 -24 -84 -24z" />
    <glyph glyph-name="Wcircumflex" unicode="&#x174;" 
d="M373 0l-81 478l-79 -478h-87l-80 800h85l49 -650l72 450h83l74 -449l48 649h82l-80 -800h-86zM159 917l-42 51l142 147h67l143 -147l-42 -51l-135 108z" />
    <glyph glyph-name="wcircumflex" unicode="&#x175;" 
d="M357 0l-64 390l-62 -390h-95l-81 600h83l52 -505l57 407h88l63 -400l49 498h83l-81 -600h-92zM160 717l-42 51l142 147h67l143 -147l-42 -51l-135 108z" />
    <glyph glyph-name="Ycircumflex" unicode="&#x176;" 
d="M338 0h-91v300l-206 500h97l158 -404l151 404h97l-206 -500v-300zM159 917l-42 51l142 147h67l143 -147l-42 -51l-135 108z" />
    <glyph glyph-name="ycircumflex" unicode="&#x177;" 
d="M173 -205c-13.333 0 -27.667 0.999023 -43 2.99902s-31.333 4.33301 -48 7l12 82c14.667 -3.33301 28.167 -6 40.5 -8s23.5 -3 33.5 -3c30 0 52.5 8.66699 67.5 26s27.833 44.333 38.5 81l2 11h-46l-152 606h96l121 -524l119 524h93l-150 -622
c-17.333 -71.333 -42.333 -119.666 -75 -144.999s-69 -38 -109 -38zM158.999 716.999l-42 51l142 147h67l143 -147l-42 -51l-135 108z" />
    <glyph glyph-name="Ydieresis" unicode="&#x178;" 
d="M338 0h-91v300l-206 500h97l158 -404l151 404h97l-206 -500v-300zM204 913c-16 0 -29.001 3.83301 -39.001 11.5s-15 21.834 -15 42.501v6c0 21.333 5 36 15 44s23 12 39 12c16.667 0 29.834 -4 39.501 -12s14.5 -22.667 14.5 -44v-6c0 -20.667 -5 -34.834 -15 -42.501
s-23 -11.5 -39 -11.5zM381.999 913c-16.667 0 -29.835 3.83301 -39.502 11.5s-14.5 21.834 -14.5 42.501v6c0 21.333 4.83301 36 14.5 44s22.834 12 39.501 12c16 0 29 -4 39 -12s15 -22.667 15 -44v-6c0 -20.667 -5.16699 -34.834 -15.5 -42.501
s-23.166 -11.5 -38.499 -11.5z" />
    <glyph glyph-name="Zacute" unicode="&#x179;" 
d="M500 0h-415v80l318 640h-318v80h415v-80l-313 -640h313v-80zM226 900l98 200h128l-151 -200h-75z" />
    <glyph glyph-name="zacute" unicode="&#x17a;" 
d="M473 0h-361v82l263 436h-263v82h361v-82l-255 -436h255v-82zM211 700l98 200h128l-151 -200h-75z" />
    <glyph glyph-name="Zdotaccent" unicode="&#x17b;" 
d="M500 0h-415v80l318 640h-318v80h415v-80l-313 -640h313v-80zM293 913c-20.667 0 -37.667 3.83301 -51 11.5s-20 21.834 -20 42.501v6c0 21.333 6.66699 36 20 44s30.333 12 51 12s37.667 -4 51 -12s20 -22.667 20 -44v-6c0 -20.667 -6.66699 -34.834 -20 -42.501
s-30.333 -11.5 -51 -11.5z" />
    <glyph glyph-name="zdotaccent" unicode="&#x17c;" 
d="M473 0h-361v82l263 436h-263v82h361v-82l-255 -436h255v-82zM300 713c-20.667 0 -37.667 3.83301 -51 11.5s-20 21.834 -20 42.501v6c0 21.333 6.66699 36 20 44s30.333 12 51 12s37.667 -4 51 -12s20 -22.667 20 -44v-6c0 -20.667 -6.66699 -34.834 -20 -42.501
s-30.333 -11.5 -51 -11.5z" />
    <glyph glyph-name="Zcaron" unicode="&#x17d;" 
d="M500 0h-415v80l318 640h-318v80h415v-80l-313 -640h313v-80zM260 904l-143 147l42 51l135 -107l133 107l42 -51l-142 -147h-67z" />
    <glyph glyph-name="zcaron" unicode="&#x17e;" 
d="M473 0h-361v82l263 436h-263v82h361v-82l-255 -436h255v-82zM257 704l-143 147l42 51l135 -107l133 107l42 -51l-142 -147h-67z" />
    <glyph glyph-name="longs" unicode="&#x17f;" 
d="M247 0v518h-90v82h90v41c0 50 13.333 89.833 40 119.5s63 44.5 109 44.5c12.667 0 28.167 -2.33301 46.5 -7s35.833 -11 52.5 -19l-15 -77c-14.667 6.66699 -28.5 11.667 -41.5 15s-23.833 5 -32.5 5c-22 0 -38.833 -6.66699 -50.5 -20s-17.5 -32.333 -17.5 -57v-645h-91
z" />
    <glyph glyph-name="florin" unicode="&#x192;" 
d="M189 -6c-8.66699 0 -17.8359 0.5 -27.5029 1.5s-19.5 2.5 -29.5 4.5s-19.667 4.5 -29 7.5s-17.666 6.5 -24.999 10.5l15 80c7.33301 -4 14.5 -7.33301 21.5 -10s14.167 -4.66699 21.5 -6c6.66699 -2 13 -3.33301 19 -4s12 -1 18 -1c14.667 0 26.834 2 36.501 6
s17.167 10.333 22.5 19s9.16602 19.667 11.499 33s3.5 30 3.5 50v228h-156v82h156v146c0 25.333 3.83301 48.166 11.5 68.499s18.167 37.5 31.5 51.5c14 14.667 30 25.667 48 33s37.333 11 58 11c8 0 16.833 -0.5 26.5 -1.5s19.5 -2.5 29.5 -4.5
c10.667 -2 20.667 -4.5 30 -7.5s17.333 -6.5 24 -10.5l-15 -79c-7.33301 3.33301 -14.5 6.33301 -21.5 9s-14.167 5 -21.5 7c-6.66699 1.33301 -13 2.33301 -19 3s-12 1 -18 1c-14.667 0 -26.667 -2 -36 -6s-16.666 -10.333 -21.999 -19s-9.16602 -19.667 -11.499 -33
s-3.5 -30 -3.5 -50v-119h162v-82h-162v-255c0 -25.333 -3.83301 -48.166 -11.5 -68.499s-18.167 -37.5 -31.5 -51.5c-14 -14.667 -30 -25.667 -48 -33s-37.333 -11 -58 -11z" />
    <glyph glyph-name="Aringacute" unicode="&#x1fa;" 
d="M371 318l-79 374l-80 -374h159zM438 0l-50 238h-193l-51 -238h-89l187 800h101l187 -800h-92zM293 887c-38 0 -68.833 11.667 -92.5 35s-35.5 59.333 -35.5 108v32c0 49.333 11.833 86 35.5 110s54.5 36 92.5 36s68.833 -12 92.5 -36s35.5 -60.667 35.5 -110v-32
c0 -48.667 -11.833 -84.667 -35.5 -108s-54.5 -35 -92.5 -35zM293 954c19.333 0 34.166 5.83301 44.499 17.5s15.5 31.167 15.5 58.5v32c0 26.667 -5.16699 46.5 -15.5 59.5s-25.166 19.5 -44.499 19.5c-20 0 -35 -6.5 -45 -19.5s-15 -32.833 -15 -59.5v-32
c0 -27.333 5 -46.833 15 -58.5s25 -17.5 45 -17.5zM250 1200l98 200h128l-151 -200h-75z" />
    <glyph glyph-name="aringacute" unicode="&#x1fb;" 
d="M239 71c28.667 0 52.832 6.33301 72.499 19s35.834 33.334 48.501 62.001v106h-112c-27.333 0 -48 -6.83301 -62 -20.5s-21 -37.167 -21 -70.5c0 -30.667 5.66699 -54.334 17 -71.001s30.333 -25 57 -25zM222.998 -10c-46 0 -81.667 15.001 -107 45.001
s-38 71.667 -38 125c0 52 14 93.167 42 123.5s66 45.5 114 45.5h126v99c0 29.333 -7.5 53.166 -22.5 71.499s-37.833 27.5 -68.5 27.5c-32.667 0 -56.167 -7.83301 -70.5 -23.5s-25.5 -44.5 -33.5 -86.5l-77 24c10 56.667 30 99 60 127s70.333 42 121 42
c52.667 0 95.834 -14 129.501 -42s50.5 -70 50.5 -126v-297c0 -30.667 6.83301 -51 20.5 -61s35.167 -11 64.5 -3v-85c-43.333 -6.66699 -76 -2.5 -98 12.5s-35 42.167 -39 81.5h-16c-13.333 -29.333 -34.333 -53.333 -63 -72s-60.334 -28 -95.001 -28zM277.998 687.001
c-38 0 -68.833 11.667 -92.5 35s-35.5 59.333 -35.5 108v32c0 49.333 11.833 86 35.5 110s54.5 36 92.5 36s68.833 -12 92.5 -36s35.5 -60.667 35.5 -110v-32c0 -48.667 -11.833 -84.667 -35.5 -108s-54.5 -35 -92.5 -35zM277.998 754.001
c19.333 0 34.166 5.83301 44.499 17.5s15.5 31.167 15.5 58.5v32c0 26.667 -5.16699 46.5 -15.5 59.5s-25.166 19.5 -44.499 19.5c-20 0 -35 -6.5 -45 -19.5s-15 -32.833 -15 -59.5v-32c0 -27.333 5 -46.833 15 -58.5s25 -17.5 45 -17.5zM231.998 1000l98 200h128l-151 -200
h-75z" />
    <glyph glyph-name="AEacute" unicode="&#x1fc;" 
d="M254 730l-86 -422h127v422h-41zM295 238h-141l-49 -238h-73l176 800h338v-70h-171v-265h162v-70h-162v-325h171v-70h-251v238zM299 900l98 200h128l-151 -200h-75z" />
    <glyph glyph-name="aeacute" unicode="&#x1fd;" 
d="M535 143c-6.66699 -52 -20.6621 -90.5029 -41.9951 -115.503s-52 -37.5 -92 -37.5c-28.667 0 -52.834 7.33301 -72.501 22s-34.5 37.334 -44.5 68.001h-13c-10 -26.667 -23.667 -48.334 -41 -65.001s-39.666 -25 -66.999 -25c-34 0 -61.167 15.5 -81.5 46.5
s-30.5 72.833 -30.5 125.5c0 52 11.833 92.833 35.5 122.5s52.5 44.5 86.5 44.5h86v92c0 34.667 -5.33301 63 -16 85s-26.334 33 -47.001 33c-18.667 0 -32.334 -6.16699 -41.001 -18.5s-17.334 -39.166 -26.001 -80.499l-68 24c8 52 22.5 89.333 43.5 112s50.5 34 88.5 34
c23.333 0 43.666 -5.5 60.999 -16.5s31 -27.5 41 -49.5c11.333 22.667 25.833 39.334 43.5 50.001s37.5 16 59.5 16c40.667 0 73.5 -16.167 98.5 -48.5s37.5 -82.166 37.5 -149.499v-129h-204v-105c0 -43.333 5.16699 -74.333 15.5 -93s26.5 -28 48.5 -28
c21.333 0 36.666 6.16699 45.999 18.5s16 36.5 20 72.5zM330.005 415.997v-73h129v64c0 46.667 -5.33301 80.834 -16 102.501s-26.667 32.5 -48 32.5c-20.667 0 -36.667 -10.333 -48 -31s-17 -52.334 -17 -95.001zM259.005 138.997l-0.000976562 130h-64
c-19.333 0 -35.166 -7.5 -47.499 -22.5s-18.5 -41.5 -18.5 -79.5c0 -34 4.16699 -60.5 12.5 -79.5s21.833 -28.5 40.5 -28.5c16 0 30 7.16699 42 21.5s23.667 33.833 35 58.5zM248.004 699.997l98 200h128l-151 -200h-75z" />
    <glyph glyph-name="Oslashacute" unicode="&#x1fe;" 
d="M184 149l163.998 571.001c-7.33301 3.33301 -15.666 5.83301 -24.999 7.5s-19.333 2.5 -30 2.5c-43.333 0 -74.166 -14.333 -92.499 -43s-27.5 -77.334 -27.5 -146.001v-286c0 -22 1 -41.833 3 -59.5s4.66699 -33.167 8 -46.5zM292.998 70.001
c43.333 0 74 13.999 92 41.999s27 75.667 27 143v286c0 26.667 -1.33301 50.334 -4 71.001s-6.66699 38.334 -12 53.001l-168 -580c8.66699 -4.66699 18.5 -8.33398 29.5 -11.001s22.833 -4 35.5 -4zM292.998 -10c-15.333 0 -29.834 1.33203 -43.501 3.99902
s-26.5 6.33398 -38.5 11.001l-34 -105h-81l49 152c-19.333 22.667 -34.166 51.334 -44.499 86.001s-15.5 75 -15.5 121v278c0 87.333 18 154.666 54 201.999s87.333 71 154 71c12.667 0 25 -1 37 -3s23.333 -4.66699 34 -8l32 101h81l-45 -144
c22.667 -22.667 39.667 -52.5 51 -89.5s17 -80.167 17 -129.5v-278c0 -86 -18 -152.333 -54 -199s-87 -70 -153 -70zM231.997 899.999l98 200h128l-151 -200h-75z" />
    <glyph glyph-name="oslashacute" unicode="&#x1ff;" 
d="M185 195c0 -16 1.16699 -30.168 3.5 -42.501s5.83301 -23.166 10.5 -32.499l143 398c-6.66699 2.66699 -14.167 4.66699 -22.5 6s-17.166 2 -26.499 2c-36.667 0 -63.834 -10 -81.501 -30s-26.5 -52 -26.5 -96v-205zM293 73.999c36 0 62.833 9.33301 80.5 28
s26.5 49.667 26.5 93v205c0 15.333 -1.16699 29.5 -3.5 42.5s-5.83301 24.167 -10.5 33.5l-141 -395c6.66699 -2.66699 14 -4.5 22 -5.5s16.667 -1.5 26 -1.5zM293 -10.001c-12.667 0 -25 0.833984 -37 2.50098s-23.333 4.16699 -34 7.5l-40 -100h-79l54 135
c-18.667 16.667 -33.334 38.667 -44.001 66s-16 59.333 -16 96v202c0 71.333 18.333 124.333 55 159s83.667 52 141 52c12.667 0 25.167 -0.833008 37.5 -2.5s23.833 -4.16699 34.5 -7.5l38 100h79l-53 -137c18.667 -16.667 33.167 -38.834 43.5 -66.501
s15.5 -60.167 15.5 -97.5v-202c0 -70 -18.167 -122 -54.5 -156s-83.166 -51 -140.499 -51zM211 700l98 200h128l-151 -200h-75z" />
    <glyph glyph-name="Scommaaccent" unicode="&#x218;" 
d="M297 -9c-41.333 0 -81.999 7.99707 -121.999 23.9971s-73.667 36.333 -101 61l27 77c30.667 -27.333 63.5 -47.833 98.5 -61.5s70.5 -20.5 106.5 -20.5c40 0 71.167 12.167 93.5 36.5s33.5 57.833 33.5 100.5c0 36 -10.167 64.333 -30.5 85s-62.833 45.667 -127.5 75
c-72 32 -122.333 64.833 -151 98.5s-43 77.5 -43 131.5c0 64 18.333 114.167 55 150.5s87.334 54.5 152.001 54.5c38 0 75.833 -8.33301 113.5 -25s68.167 -37 91.5 -61l-24 -78c-29.333 26.667 -59.833 47.334 -91.5 62.001s-62.834 22 -93.501 22
c-35.333 0 -63 -10.5 -83 -31.5s-30 -49.833 -30 -86.5c0 -34 10.667 -61.167 32 -81.5s65.666 -45.166 132.999 -74.499c69.333 -30 117.833 -61.5 145.5 -94.5s41.5 -76.167 41.5 -129.5c0 -71.333 -20.333 -128.166 -61 -170.499s-95.667 -63.5 -165 -63.5z
M173.001 -300.003l67 200h128l-121 -200h-74z" />
    <glyph glyph-name="scommaaccent" unicode="&#x219;" 
d="M302 -11c-38.667 0 -77.1621 6.33203 -115.495 18.999s-70.833 30.667 -97.5 54l33 73c24.667 -18.667 53.167 -34 85.5 -46s64.166 -18 95.499 -18c35.333 0 61.333 6.5 78 19.5s25 33.833 25 62.5c0 32.667 -9 55.334 -27 68.001s-50.667 25.334 -98 38.001
c-64.667 16.667 -110.334 38.667 -137.001 66s-40 65 -40 113c0 54 15.833 96.167 47.5 126.5s75.167 45.5 130.5 45.5c34.667 0 69.667 -6.83301 105 -20.5s65.666 -31.834 90.999 -54.501l-32 -73c-22.667 17.333 -48.334 32.833 -77.001 46.5s-57.334 20.5 -86.001 20.5
c-30.667 0 -53.167 -6.66699 -67.5 -20s-21.5 -34.333 -21.5 -63c0 -32.667 9.5 -55.5 28.5 -68.5s52.833 -26.167 101.5 -39.5c62.667 -16.667 107 -38.5 133 -65.5s39 -63.833 39 -110.5c0 -54 -17.333 -96.333 -52 -127s-82 -46 -142 -46zM174.005 -300.001l67 200h128
l-121 -200h-74z" />
    <glyph glyph-name="Tcommaaccent" unicode="&#x21a;" 
d="M247 0v720h-179v80h450v-80h-180v-720h-91zM173 -300l67 200h128l-121 -200h-74z" />
    <glyph glyph-name="tcommaaccent" unicode="&#x21b;" 
d="M383 -9c-54 0 -96.333 17.167 -127 51.5s-46 80.5 -46 138.5v337h-123v82h123v200h90v-200h189v-82h-189v-325c0 -38 7 -66.667 21 -86s34.667 -29 62 -29c18 0 35.167 1.66699 51.5 5s31.833 8.33301 46.5 15l15 -84c-12.667 -5.33301 -29.667 -10.5 -51 -15.5
s-42 -7.5 -62 -7.5zM192 -300l67 200h128l-121 -200h-74z" />
    <glyph glyph-name="dotlessj" unicode="&#xf6be;" 
d="M220 -208c-20 0 -39.834 1.49902 -59.501 4.49902s-40.5 8.83301 -62.5 17.5l15 91c18.667 -8.66699 36.334 -14.5 53.001 -17.5s32.667 -4.5 48 -4.5c32.667 0 58.667 9.5 78 28.5s29 50.5 29 94.5v512h-206v82h296v-607c0 -67.333 -18.5 -117.666 -55.5 -150.999
s-82.167 -50 -135.5 -50z" />
    <glyph glyph-name="dotlessj" unicode="&#x237;" 
d="M220 -208c-20 0 -39.834 1.49902 -59.501 4.49902s-40.5 8.83301 -62.5 17.5l15 91c18.667 -8.66699 36.334 -14.5 53.001 -17.5s32.667 -4.5 48 -4.5c32.667 0 58.667 9.5 78 28.5s29 50.5 29 94.5v512h-206v82h296v-607c0 -67.333 -18.5 -117.666 -55.5 -150.999
s-82.167 -50 -135.5 -50z" />
    <glyph glyph-name="quoteleft" unicode="&#x2018;" 
d="M174 408l173 392h70l-80 -392h-163z" />
    <glyph glyph-name="quoteleft" unicode="&#x2bb;" 
d="M174 408l173 392h70l-80 -392h-163z" />
    <glyph glyph-name="circumflex" unicode="&#x2c6;" 
d="M159 717l-42 51l142 147h67l143 -147l-42 -51l-135 108z" />
    <glyph glyph-name="caron" unicode="&#x2c7;" 
d="M260 704l-143 147l42 51l135 -107l133 107l42 -51l-142 -147h-67z" />
    <glyph glyph-name="breve" unicode="&#x2d8;" 
d="M293 693c-58.667 0 -103.167 17.333 -133.5 52s-45.833 85.667 -46.5 153h85c0.666992 -48 8.5 -82 23.5 -102s38.833 -30 71.5 -30s56.5 10 71.5 30s22.833 54 23.5 102h85c-0.666992 -67.333 -16.167 -118.333 -46.5 -153s-74.833 -52 -133.5 -52z" />
    <glyph glyph-name="dotaccent" unicode="&#x2d9;" 
d="M293 713c-20.667 0 -37.667 3.83301 -51 11.5s-20 21.834 -20 42.501v6c0 21.333 6.66699 36 20 44s30.333 12 51 12s37.667 -4 51 -12s20 -22.667 20 -44v-6c0 -20.667 -6.66699 -34.834 -20 -42.501s-30.333 -11.5 -51 -11.5z" />
    <glyph glyph-name="ring" unicode="&#x2da;" 
d="M293 687c-38 0 -68.833 11.667 -92.5 35s-35.5 59.333 -35.5 108v32c0 49.333 11.833 86 35.5 110s54.5 36 92.5 36s68.833 -12 92.5 -36s35.5 -60.667 35.5 -110v-32c0 -48.667 -11.833 -84.667 -35.5 -108s-54.5 -35 -92.5 -35zM293 754
c19.333 0 34.166 5.83301 44.499 17.5s15.5 31.167 15.5 58.5v32c0 26.667 -5.16699 46.5 -15.5 59.5s-25.166 19.5 -44.499 19.5c-20 0 -35 -6.5 -45 -19.5s-15 -32.833 -15 -59.5v-32c0 -27.333 5 -46.833 15 -58.5s25 -17.5 45 -17.5z" />
    <glyph glyph-name="ogonek" unicode="&#x2db;" 
d="M328 -214c-34 0 -61.999 10.665 -83.999 31.998s-33 50 -33 86c0 30.667 10.167 58.334 30.5 83.001s42.833 43 67.5 55l20 -19c-17.333 -14 -28.833 -29.667 -34.5 -47s-8.5 -32.666 -8.5 -45.999c0 -18.667 4.66699 -33 14 -43s22.666 -15 39.999 -15
c8.66699 0 19.667 1 33 3s25 4.33301 35 7v-86c-11.333 -2.66699 -24.5 -5 -39.5 -7s-28.5 -3 -40.5 -3z" />
    <glyph glyph-name="tilde" unicode="&#x2dc;" 
d="M354 710c-20.667 0 -37.168 6.16699 -49.501 18.5s-22.5 25.833 -30.5 40.5l-22 40.5c-6.66699 12.333 -14.667 18.5 -24 18.5c-12 0 -20.667 -8 -26 -24s-7.66602 -40.333 -6.99902 -73v-11h-66v15c0 49.333 8.83301 90.333 26.5 123s43.5 49 77.5 49
c22 0 39.167 -6.16699 51.5 -18.5s22.5 -25.833 30.5 -40.5s15 -28.167 21 -40.5s13.333 -18.5 22 -18.5c11.333 0 19.833 8 25.5 24s8.5 40.333 8.5 73v11h65v-15c0 -50 -8.83301 -91.167 -26.5 -123.5s-43.167 -48.5 -76.5 -48.5z" />
    <glyph glyph-name="hungarumlaut" unicode="&#x2dd;" 
d="M344 700l40 200h113l-95 -200h-58zM171 700l41 200h113l-96 -200h-58z" />
    <glyph glyph-name="gravecmb" unicode="&#x300;" horiz-adv-x="0" 
d="M-2 700l-151 200h128l97 -200h-74z" />
    <glyph glyph-name="acutecmb" unicode="&#x301;" horiz-adv-x="0" 
d="M-89 700l98 200h128l-151 -200h-75z" />
    <glyph glyph-name="circumflexcmb" unicode="&#x302;" horiz-adv-x="0" 
d="M-134 717l-42 51l142 147h67l143 -147l-42 -51l-135 108z" />
    <glyph glyph-name="tildecmb" unicode="&#x303;" horiz-adv-x="0" 
d="M61 710c-20.667 0 -37.168 6.16699 -49.501 18.5s-22.5 25.833 -30.5 40.5l-22 40.5c-6.66699 12.333 -14.667 18.5 -24 18.5c-12 0 -20.667 -8 -26 -24s-7.66602 -40.333 -6.99902 -73v-11h-66v15c0 49.333 8.83301 90.333 26.5 123s43.5 49 77.5 49
c22 0 39.167 -6.16699 51.5 -18.5s22.5 -25.833 30.5 -40.5s15 -28.167 21 -40.5s13.333 -18.5 22 -18.5c11.333 0 19.833 8 25.5 24s8.5 40.333 8.5 73v11h65v-15c0 -50 -8.83301 -91.167 -26.5 -123.5s-43.167 -48.5 -76.5 -48.5z" />
    <glyph glyph-name="macroncmb" unicode="&#x304;" horiz-adv-x="0" 
d="M-154 760v80h308v-80h-308z" />
    <glyph glyph-name="brevecmb" unicode="&#x306;" horiz-adv-x="0" 
d="M0 693c-58.667 0 -103.167 17.333 -133.5 52s-45.833 85.667 -46.5 153h85c0.666992 -48 8.5 -82 23.5 -102s38.833 -30 71.5 -30s56.5 10 71.5 30s22.833 54 23.5 102h85c-0.666992 -67.333 -16.167 -118.333 -46.5 -153s-74.833 -52 -133.5 -52z" />
    <glyph glyph-name="dotaccentcmb" unicode="&#x307;" horiz-adv-x="0" 
d="M0 713c-20.667 0 -37.667 3.83301 -51 11.5s-20 21.834 -20 42.501v6c0 21.333 6.66699 36 20 44s30.333 12 51 12s37.667 -4 51 -12s20 -22.667 20 -44v-6c0 -20.667 -6.66699 -34.834 -20 -42.501s-30.333 -11.5 -51 -11.5z" />
    <glyph glyph-name="dieresiscmb" unicode="&#x308;" horiz-adv-x="0" 
d="M-89 713c-16 0 -29.001 3.83301 -39.001 11.5s-15 21.834 -15 42.501v6c0 21.333 5 36 15 44s23 12 39 12c16.667 0 29.834 -4 39.501 -12s14.5 -22.667 14.5 -44v-6c0 -20.667 -5 -34.834 -15 -42.501s-23 -11.5 -39 -11.5zM88.999 713
c-16.667 0 -29.835 3.83301 -39.502 11.5s-14.5 21.834 -14.5 42.501v6c0 21.333 4.83301 36 14.5 44s22.834 12 39.501 12c16 0 29 -4 39 -12s15 -22.667 15 -44v-6c0 -20.667 -5.16699 -34.834 -15.5 -42.501s-23.166 -11.5 -38.499 -11.5z" />
    <glyph glyph-name="ringcmb" unicode="&#x30a;" horiz-adv-x="0" 
d="M0 687c-38 0 -68.833 11.667 -92.5 35s-35.5 59.333 -35.5 108v32c0 49.333 11.833 86 35.5 110s54.5 36 92.5 36s68.833 -12 92.5 -36s35.5 -60.667 35.5 -110v-32c0 -48.667 -11.833 -84.667 -35.5 -108s-54.5 -35 -92.5 -35zM0 754
c19.333 0 34.166 5.83301 44.499 17.5s15.5 31.167 15.5 58.5v32c0 26.667 -5.16699 46.5 -15.5 59.5s-25.166 19.5 -44.499 19.5c-20 0 -35 -6.5 -45 -19.5s-15 -32.833 -15 -59.5v-32c0 -27.333 5 -46.833 15 -58.5s25 -17.5 45 -17.5z" />
    <glyph glyph-name="hungarumlautcmb" unicode="&#x30b;" horiz-adv-x="0" 
d="M51 700l40 200h113l-95 -200h-58zM-122 700l41 200h113l-96 -200h-58z" />
    <glyph glyph-name="caroncmb" unicode="&#x30c;" horiz-adv-x="0" 
d="M-33 704l-143 147l42 51l135 -107l133 107l42 -51l-142 -147h-67z" />
    <glyph glyph-name="commaturnedabovecmb" unicode="&#x312;" horiz-adv-x="0" 
d="M-104 700l121 200h75l-67 -200h-129z" />
    <glyph glyph-name="commaaccentcmb" unicode="&#x326;" horiz-adv-x="0" 
d="M-105 -300l67 200h128l-121 -200h-74z" />
    <glyph glyph-name="cedillacmb" unicode="&#x327;" horiz-adv-x="0" 
d="M-23 0l14.999 42.002c34.667 -6.66699 60.834 -21.334 78.501 -44.001s26.5 -52.334 26.5 -89.001c0 -42 -12.5 -73 -37.5 -93s-52.833 -30 -83.5 -30c-36 0 -65.333 7.66699 -88 23s-35.334 41.333 -38.001 78l79 10c0.666992 -12.667 4.33398 -21.5 11.001 -26.5
s17.334 -7.5 32.001 -7.5s25.667 4.16699 33 12.5s11 23.833 11 46.5c0 24.667 -2.83301 42.5 -8.5 53.5s-15.834 19.167 -30.501 24.5z" />
    <glyph glyph-name="ogonekcmb" unicode="&#x328;" horiz-adv-x="0" 
d="M35 -214c-34 0 -61.999 10.665 -83.999 31.998s-33 50 -33 86c0 30.667 10.167 58.334 30.5 83.001s42.833 43 67.5 55l20 -19c-17.333 -14 -28.833 -29.667 -34.5 -47s-8.5 -32.666 -8.5 -45.999c0 -18.667 4.66699 -33 14 -43s22.666 -15 39.999 -15
c8.66699 0 19.667 1 33 3s25 4.33301 35 7v-86c-11.333 -2.66699 -24.5 -5 -39.5 -7s-28.5 -3 -40.5 -3z" />
    <glyph glyph-name="tonos" unicode="&#x384;" 
d="M234 700l53 200h120l-106 -200h-67z" />
    <glyph glyph-name="dieresistonos" unicode="&#x385;" 
d="M241 700l35 200h97l-78 -200h-54zM154 702c-14 0 -25.333 3.66699 -34 11s-13 21.666 -13 42.999v5c0 21.333 4.33301 36 13 44s20 12 34 12s25.167 -4 33.5 -12s12.5 -22.667 12.5 -44v-5c0 -21.333 -4.33301 -35.666 -13 -42.999s-19.667 -11 -33 -11zM432 702
c-14 0 -25.167 3.66699 -33.5 11s-12.5 21.666 -12.5 42.999v5c0 21.333 4.16699 36 12.5 44s19.5 12 33.5 12s25.333 -4 34 -12s13 -22.667 13 -44v-5c0 -21.333 -4.5 -35.666 -13.5 -42.999s-20.167 -11 -33.5 -11z" />
    <glyph glyph-name="Alphatonos" unicode="&#x386;" 
d="M371 318l-79 374l-80 -374h159zM438 0l-50 238h-193l-51 -238h-89l187 800h101l187 -800h-92zM40 700l53 200h120l-106 -200h-67z" />
    <glyph glyph-name="anoteleia" unicode="&#x387;" 
d="M308 297c-26.667 0 -48.334 7.16699 -65.001 21.5s-25 37.5 -25 69.5v19c0 32.667 8.33301 56.334 25 71.001s38.334 22 65.001 22s48.167 -7.33301 64.5 -22s24.5 -38.334 24.5 -71.001v-19c0 -32 -8.33301 -55.167 -25 -69.5s-38 -21.5 -64 -21.5z" />
    <glyph glyph-name="Epsilontonos" unicode="&#x388;" 
d="M97 0v800h403v-80h-312v-243h274v-81h-274v-316h312v-80h-403zM-66 700l53 200h120l-106 -200h-67z" />
    <glyph glyph-name="Etatonos" unicode="&#x389;" 
d="M97 0v800h91v-326h209v326h91v-800h-91v393h-209v-393h-91zM-75 700l53 200h120l-106 -200h-67z" />
    <glyph glyph-name="Iotatonos" unicode="&#x38a;" 
d="M97 0v80h150v640h-150v80h391v-80h-150v-640h150v-80h-391zM-75 700l53 200h120l-106 -200h-67z" />
    <glyph glyph-name="Omicrontonos" unicode="&#x38c;" 
d="M296 -10c-67.333 0 -118.833 23.333 -154.5 70s-53.5 114 -53.5 202v272c0 89.333 17.833 157.666 53.5 204.999s87.167 71 154.5 71s118.666 -23.667 153.999 -71s53 -115.666 53 -204.999v-272c0 -88 -17.667 -155.333 -53 -202s-86.666 -70 -153.999 -70zM296 70
c42 0 71.833 14.167 89.5 42.5s26.5 77.166 26.5 146.499v278c0 70.667 -8.83301 120.5 -26.5 149.5s-47.5 43.5 -89.5 43.5c-42.667 0 -72.834 -14.5 -90.501 -43.5s-26.5 -78.833 -26.5 -149.5v-278c0 -69.333 8.83301 -118.166 26.5 -146.499s47.834 -42.5 90.501 -42.5z
M-6 700l53 200h120l-106 -200h-67z" />
    <glyph glyph-name="Upsilontonos" unicode="&#x38e;" 
d="M338 0h-91v300l-206 500h97l158 -404l151 404h97l-206 -500v-300zM-93 700l53 200h120l-106 -200h-67z" />
    <glyph glyph-name="Omegatonos" unicode="&#x38f;" 
d="M258 0h-179.999v85h94v100c-32 16.667 -55.667 41.834 -71 75.501s-23 77.167 -23 130.5v146c0 89.333 18.333 157.166 55 203.499s90 69.5 160 69.5c69.333 0 122.333 -23.167 159 -69.5s55 -114.166 55 -203.499v-146c0 -53.333 -7.66699 -96.833 -23 -130.5
s-39 -58.834 -71 -75.501v-100h94v-85h-180v230c32.667 8 55.667 24.167 69 48.5s20 61.833 20 112.5v146c0 70.667 -9.33301 120.5 -28 149.5s-50.334 43.5 -95.001 43.5c-45.333 0 -77.333 -14.5 -96 -43.5s-28 -78.833 -28 -149.5v-146
c0 -50.667 6.66699 -88.167 20 -112.5s36.333 -40.5 69 -48.5v-230zM-26.999 700l53 200h120l-106 -200h-67z" />
    <glyph glyph-name="iotadieresistonos" unicode="&#x390;" 
d="M400 -5c-48 0 -85.998 15.667 -113.998 47s-42 75 -42 131v345h-156v82h247v-434c0 -29.333 6 -51.5 18 -66.5s30.333 -22.5 55 -22.5c11.333 0 24.166 1.5 38.499 4.5s26.166 7.83301 35.499 14.5l17 -79c-14 -7.33301 -29.5 -12.833 -46.5 -16.5s-34.5 -5.5 -52.5 -5.5
zM233.002 700l35 200h97l-78 -200h-54zM146.002 702c-14 0 -25.333 3.66699 -34 11s-13 21.666 -13 42.999v5c0 21.333 4.33301 36 13 44s20 12 34 12s25.167 -4 33.5 -12s12.5 -22.667 12.5 -44v-5c0 -21.333 -4.33301 -35.666 -13 -42.999s-19.667 -11 -33 -11z
M424.002 702c-14 0 -25.167 3.66699 -33.5 11s-12.5 21.666 -12.5 42.999v5c0 21.333 4.16699 36 12.5 44s19.5 12 33.5 12s25.333 -4 34 -12s13 -22.667 13 -44v-5c0 -21.333 -4.5 -35.666 -13.5 -42.999s-20.167 -11 -33.5 -11z" />
    <glyph glyph-name="Alpha" unicode="&#x391;" 
d="M371 318l-79 374l-80 -374h159zM438 0l-50 238h-193l-51 -238h-89l187 800h101l187 -800h-92z" />
    <glyph glyph-name="Beta" unicode="&#x392;" 
d="M97 0v800.002h197c62 0 108.5 -15.667 139.5 -47s46.5 -78.333 46.5 -141v-47c0 -32.667 -8.33301 -60.334 -25 -83.001s-39.667 -37.334 -69 -44.001v-29c35.333 -4.66699 63.5 -21.667 84.5 -51s31.5 -66.333 31.5 -111v-44c0 -67.333 -17.167 -118 -51.5 -152
s-85.5 -51 -153.5 -51h-200zM188 457.002h107c34 0 58.333 9.16699 73 27.5s22 48.5 22 90.5v25c0 42 -7.33301 72.167 -22 90.5s-39 27.5 -73 27.5h-107v-261zM188 82.002l118 -0.00195312c37.333 0 64.166 10.333 80.499 31s24.5 54.334 24.5 101.001v29
c0 46.667 -8.16699 80.334 -24.5 101.001s-43.166 31 -80.499 31h-118v-293z" />
    <glyph glyph-name="Gamma" unicode="&#x393;" 
d="M105 0v800h398v-80h-307v-720h-91z" />
    <glyph glyph-name="Delta" unicode="&#x394;" 
d="M58 0v80l179 720h107l183 -720v-80h-469zM442 80l-150 617l-153 -617h303z" />
    <glyph glyph-name="Epsilon" unicode="&#x395;" 
d="M97 0v800h403v-80h-312v-243h274v-81h-274v-316h312v-80h-403z" />
    <glyph glyph-name="Zeta" unicode="&#x396;" 
d="M500 0h-415v80l318 640h-318v80h415v-80l-313 -640h313v-80z" />
    <glyph glyph-name="Eta" unicode="&#x397;" 
d="M97 0v800h91v-326h209v326h91v-800h-91v393h-209v-393h-91z" />
    <glyph glyph-name="Theta" unicode="&#x398;" 
d="M293 -10c-67.333 0 -118.833 23 -154.5 69s-53.5 112.667 -53.5 200v278c0 88 17.833 155.5 53.5 202.5s87.167 70.5 154.5 70.5c66.667 0 117.834 -23.5 153.501 -70.5s53.5 -114.5 53.5 -202.5v-278c0 -87.333 -17.833 -154 -53.5 -200s-86.834 -69 -153.501 -69z
M293 70c43.333 0 74.166 14.167 92.499 42.5s27.5 75.833 27.5 142.5v286c0 68 -9.16699 116.5 -27.5 145.5s-49.166 43.5 -92.499 43.5c-44 0 -75.333 -14.5 -94 -43.5s-28 -77.5 -28 -145.5v-286c0 -66.667 9.33301 -114.167 28 -142.5s50 -42.5 94 -42.5zM228 363v84h136
v-84h-136z" />
    <glyph glyph-name="Iota" unicode="&#x399;" 
d="M97 0v80h150v640h-150v80h391v-80h-150v-640h150v-80h-391z" />
    <glyph glyph-name="Kappa" unicode="&#x39a;" 
d="M188 387v-387h-91v800h91v-332h26l213 332h101l-248 -367l246 -433h-103l-206 387h-29z" />
    <glyph glyph-name="Lambda" unicode="&#x39b;" 
d="M438 0l-146 692l-148 -692h-89l187 800h101l187 -800h-92z" />
    <glyph glyph-name="Mu" unicode="&#x39c;" 
d="M254 192l-104 467l3 -659h-81v800h109l114 -485l113 485h105v-800h-81l3 655l-104 -463h-77z" />
    <glyph glyph-name="Nu" unicode="&#x39d;" 
d="M366 0l-189 691v-691h-80v800h115l196 -690v690h80v-800h-122z" />
    <glyph glyph-name="Xi" unicode="&#x39e;" 
d="M85 720v80h415v-80h-415zM104 396v81h377v-81h-377zM85 0v80h415v-80h-415z" />
    <glyph glyph-name="Omicron" unicode="&#x39f;" 
d="M293 -10c-67.333 0 -118.833 23.333 -154.5 70s-53.5 114 -53.5 202v272c0 89.333 17.833 157.666 53.5 204.999s87.167 71 154.5 71s118.666 -23.667 153.999 -71s53 -115.666 53 -204.999v-272c0 -88 -17.667 -155.333 -53 -202s-86.666 -70 -153.999 -70zM293 70
c42 0 71.833 14.167 89.5 42.5s26.5 77.166 26.5 146.499v278c0 70.667 -8.83301 120.5 -26.5 149.5s-47.5 43.5 -89.5 43.5c-42.667 0 -72.834 -14.5 -90.501 -43.5s-26.5 -78.833 -26.5 -149.5v-278c0 -69.333 8.83301 -118.166 26.5 -146.499s47.834 -42.5 90.501 -42.5z
" />
    <glyph glyph-name="Pi" unicode="&#x3a0;" 
d="M97 0v800h391v-800h-91v720h-209v-720h-91z" />
    <glyph glyph-name="Rho" unicode="&#x3a1;" 
d="M97 0v800.001h216c67.333 0 116.333 -16.833 147 -50.5s46 -87.167 46 -160.5v-90c0 -74.667 -15.5 -128.834 -46.5 -162.501s-80.167 -50.5 -147.5 -50.5h-124v-286h-91zM188 364.001l119 -0.000976562c38 0 65.5 10.333 82.5 31s25.5 54.667 25.5 102v91
c0 46.667 -8.5 80.334 -25.5 101.001s-44.5 31 -82.5 31h-119v-356z" />
    <glyph glyph-name="Sigma" unicode="&#x3a3;" 
d="M495 0h-412v80l256 332l-256 308v80h412v-80h-302l212 -268v-72l-221 -300h311v-80z" />
    <glyph glyph-name="Tau" unicode="&#x3a4;" 
d="M247 0v720h-179v80h450v-80h-180v-720h-91z" />
    <glyph glyph-name="Upsilon" unicode="&#x3a5;" 
d="M338 0h-91v300l-206 500h97l158 -404l151 404h97l-206 -500v-300z" />
    <glyph glyph-name="Phi" unicode="&#x3a6;" 
d="M353 90h-18v-100h-85v100h-17c-55.333 0 -97.166 20.833 -125.499 62.5s-42.5 103.167 -42.5 184.5v122c0 82.667 14.167 145.167 42.5 187.5s70.166 63.5 125.499 63.5h17v100h85v-100h18c54.667 0 96.167 -21.167 124.5 -63.5s42.5 -104.833 42.5 -187.5v-122
c0 -81.333 -14.167 -142.833 -42.5 -184.5s-69.833 -62.5 -124.5 -62.5zM353 628l-22 -0.000976562v-456h22c28.667 0 49.5 13.333 62.5 40s19.5 68.334 19.5 125.001v122c0 58 -6.5 100.667 -19.5 128s-33.833 41 -62.5 41zM233 171.999l21 0.000976562v456h-21
c-28.667 0 -49.667 -13.667 -63 -41s-20 -70 -20 -128v-122c0 -56.667 6.66699 -98.334 20 -125.001s34.333 -40 63 -40z" />
    <glyph glyph-name="Chi" unicode="&#x3a7;" 
d="M440 0l-148 314l-147 -314h-99l202 409l-184 391h101l138 -295l139 295h99l-194 -391l191 -409h-98z" />
    <glyph glyph-name="Psi" unicode="&#x3a8;" 
d="M335 0l-85 -0.00195312v195c-54 8 -95.333 32.667 -124 74s-43 97.333 -43 168v363h82v-368c0 -50 6.5 -87.667 19.5 -113s34.833 -40.666 65.5 -45.999v527h85v-527c30.667 4.66699 52.5 19.834 65.5 45.501s19.5 63.5 19.5 113.5v368h82v-363
c0 -70.667 -14.333 -126.667 -43 -168s-70 -66 -124 -74v-195z" />
    <glyph glyph-name="Omega" unicode="&#x3a9;" 
d="M258 0h-179.999v85h94v100c-32 16.667 -55.667 41.834 -71 75.501s-23 77.167 -23 130.5v146c0 89.333 18.333 157.166 55 203.499s90 69.5 160 69.5c69.333 0 122.333 -23.167 159 -69.5s55 -114.166 55 -203.499v-146c0 -53.333 -7.66699 -96.833 -23 -130.5
s-39 -58.834 -71 -75.501v-100h94v-85h-180v230c32.667 8 55.667 24.167 69 48.5s20 61.833 20 112.5v146c0 70.667 -9.33301 120.5 -28 149.5s-50.334 43.5 -95.001 43.5c-45.333 0 -77.333 -14.5 -96 -43.5s-28 -78.833 -28 -149.5v-146
c0 -50.667 6.66699 -88.167 20 -112.5s36.333 -40.5 69 -48.5v-230z" />
    <glyph glyph-name="Iotadieresis" unicode="&#x3aa;" 
d="M97 0v80h150v640h-150v80h391v-80h-150v-640h150v-80h-391zM204 913c-16 0 -29.001 3.83301 -39.001 11.5s-15 21.834 -15 42.501v6c0 21.333 5 36 15 44s23 12 39 12c16.667 0 29.834 -4 39.501 -12s14.5 -22.667 14.5 -44v-6c0 -20.667 -5 -34.834 -15 -42.501
s-23 -11.5 -39 -11.5zM381.999 913c-16.667 0 -29.835 3.83301 -39.502 11.5s-14.5 21.834 -14.5 42.501v6c0 21.333 4.83301 36 14.5 44s22.834 12 39.501 12c16 0 29 -4 39 -12s15 -22.667 15 -44v-6c0 -20.667 -5.16699 -34.834 -15.5 -42.501
s-23.166 -11.5 -38.499 -11.5z" />
    <glyph glyph-name="Upsilondieresis" unicode="&#x3ab;" 
d="M338 0h-91v300l-206 500h97l158 -404l151 404h97l-206 -500v-300zM204 913c-16 0 -29.001 3.83301 -39.001 11.5s-15 21.834 -15 42.501v6c0 21.333 5 36 15 44s23 12 39 12c16.667 0 29.834 -4 39.501 -12s14.5 -22.667 14.5 -44v-6c0 -20.667 -5 -34.834 -15 -42.501
s-23 -11.5 -39 -11.5zM381.999 913c-16.667 0 -29.835 3.83301 -39.502 11.5s-14.5 21.834 -14.5 42.501v6c0 21.333 4.83301 36 14.5 44s22.834 12 39.501 12c16 0 29 -4 39 -12s15 -22.667 15 -44v-6c0 -20.667 -5.16699 -34.834 -15.5 -42.501
s-23.166 -11.5 -38.499 -11.5z" />
    <glyph glyph-name="alphatonos" unicode="&#x3ac;" 
d="M258 76c21.333 0 41.333 7.49902 60 22.499s36.334 38.833 53.001 71.5v260c-16.667 32.667 -34.334 56.334 -53.001 71.001s-38.667 22 -60 22c-24.667 0 -43 -10.833 -55 -32.5s-18 -54.5 -18 -98.5v-183c0 -44.667 6 -78 18 -100s30.333 -33 55 -33zM394 86.999
l-22 0.000976562c-11.333 -32.667 -29.5 -57 -54.5 -73s-53.833 -24 -86.5 -24c-42 0 -75.5 18 -100.5 54s-37.5 88.667 -37.5 158v199c0 66.667 12.5 118.167 37.5 154.5s58.5 54.5 100.5 54.5c27.333 0 51.333 -7.5 72 -22.5s36 -37.167 46 -66.5h22v79h91v-448
c0 -32.667 5.5 -54.334 16.5 -65.001s29.167 -12.667 54.5 -6v-85c-42 -6.66699 -74.667 -2.16699 -98 13.5s-37 41.5 -41 77.5zM274 700l53 200h120l-106 -200h-67z" />
    <glyph glyph-name="epsilontonos" unicode="&#x3ad;" 
d="M297 -10c-71.333 0 -124.17 14.665 -158.503 43.998s-51.5 74.333 -51.5 135v8c0 34.667 9.83301 64.834 29.5 90.501s48.834 40.167 87.501 43.5v22c-32 2.66699 -57.167 13.167 -75.5 31.5s-27.5 43.5 -27.5 75.5v12c0 53.333 16.167 93 48.5 119s81.5 39 147.5 39
c60.667 0 106.334 -13.833 137.001 -41.5s48.334 -72.834 53.001 -135.501l-87 -8c-3.33301 41.333 -12.333 68.833 -27 82.5s-40 20.5 -76 20.5c-38 0 -65 -6 -81 -18s-24 -32.667 -24 -62v-14c0 -25.333 7.5 -43.166 22.5 -53.499s40.833 -15.5 77.5 -15.5h42v-77h-42
c-42 0 -71.5 -7.66699 -88.5 -23s-25.5 -41.666 -25.5 -78.999v-10c0 -38 8.83301 -65 26.5 -81s48.5 -24 92.5 -24c40 0 68.333 7.66699 85 23s27.334 46 32.001 92l86 -7c-4.66699 -70 -21.834 -119 -51.501 -147s-80.167 -42 -151.5 -42zM236.996 699.998l53 200h120
l-106 -200h-67z" />
    <glyph glyph-name="etatonos" unicode="&#x3ae;" 
d="M396 -200l-0.000976562 603.999c0 40 -6.66699 70 -20 90s-33.333 30 -60 30c-24.667 0 -47.667 -7.5 -69 -22.5s-40.666 -37.833 -57.999 -68.5v-433h-90v600h90v-78h23c14.667 27.333 34 48.833 58 64.5s49.667 23.5 77 23.5c43.333 0 77.333 -16.667 102 -50
s37 -79.666 37 -138.999v-621h-90zM245.999 699.999l53 200h120l-106 -200h-67z" />
    <glyph glyph-name="iotatonos" unicode="&#x3af;" 
d="M400 -5c-48 0 -85.998 15.667 -113.998 47s-42 75 -42 131v345h-156v82h247v-434c0 -29.333 6 -51.5 18 -66.5s30.333 -22.5 55 -22.5c11.333 0 24.166 1.5 38.499 4.5s26.166 7.83301 35.499 14.5l17 -79c-14 -7.33301 -29.5 -12.833 -46.5 -16.5s-34.5 -5.5 -52.5 -5.5
zM231.002 700l53 200h120l-106 -200h-67z" />
    <glyph glyph-name="upsilondieresistonos" unicode="&#x3b0;" 
d="M293 -10c-62 0 -109.833 17.5 -143.5 52.5s-50.5 84.833 -50.5 149.5v408h90v-411c0 -42.667 8.66699 -73.167 26 -91.5s43.333 -27.5 78 -27.5c34 0 59.667 9.16699 77 27.5s26 48.833 26 91.5v411h90v-408c0 -64.667 -16.667 -114.5 -50 -149.5s-81 -52.5 -143 -52.5z
M241 700l35 200h97l-78 -200h-54zM154 702c-14 0 -25.333 3.66699 -34 11s-13 21.666 -13 42.999v5c0 21.333 4.33301 36 13 44s20 12 34 12s25.167 -4 33.5 -12s12.5 -22.667 12.5 -44v-5c0 -21.333 -4.33301 -35.666 -13 -42.999s-19.667 -11 -33 -11zM432 702
c-14 0 -25.167 3.66699 -33.5 11s-12.5 21.666 -12.5 42.999v5c0 21.333 4.16699 36 12.5 44s19.5 12 33.5 12s25.333 -4 34 -12s13 -22.667 13 -44v-5c0 -21.333 -4.5 -35.666 -13.5 -42.999s-20.167 -11 -33.5 -11z" />
    <glyph glyph-name="alpha" unicode="&#x3b1;" 
d="M258 76c21.333 0 41.333 7.49902 60 22.499s36.334 38.833 53.001 71.5v260c-16.667 32.667 -34.334 56.334 -53.001 71.001s-38.667 22 -60 22c-24.667 0 -43 -10.833 -55 -32.5s-18 -54.5 -18 -98.5v-183c0 -44.667 6 -78 18 -100s30.333 -33 55 -33zM394 86.999
l-22 0.000976562c-11.333 -32.667 -29.5 -57 -54.5 -73s-53.833 -24 -86.5 -24c-42 0 -75.5 18 -100.5 54s-37.5 88.667 -37.5 158v199c0 66.667 12.5 118.167 37.5 154.5s58.5 54.5 100.5 54.5c27.333 0 51.333 -7.5 72 -22.5s36 -37.167 46 -66.5h22v79h91v-448
c0 -32.667 5.5 -54.334 16.5 -65.001s29.167 -12.667 54.5 -6v-85c-42 -6.66699 -74.667 -2.16699 -98 13.5s-37 41.5 -41 77.5z" />
    <glyph glyph-name="beta" unicode="&#x3b2;" 
d="M287 68c37.333 0 64.499 11.999 81.499 35.999s25.5 62 25.5 114v45c0 42 -9.16699 72.667 -27.5 92s-47.5 29 -87.5 29h-31v84h27c34 0 58.833 9 74.5 27s23.5 46.333 23.5 85v18c0 46 -7.33301 79.5 -22 100.5s-38 31.5 -70 31.5s-55.333 -10.333 -70 -31
s-22 -54 -22 -100v-492c14.667 -13.333 29.834 -23.166 45.501 -29.499s33.167 -9.5 52.5 -9.5zM293.999 -10.001c-17.333 0 -35.001 2.66895 -53.001 8.00195s-35.333 12.666 -52 21.999v-220h-90v793c0 69.333 15.833 122.833 47.5 160.5s76.5 56.5 134.5 56.5
s102.667 -17.167 134 -51.5s47 -82.833 47 -145.5v-28c0 -35.333 -7 -65.333 -21 -90s-36.667 -40.334 -68 -47.001v-29c35.333 -4.66699 63 -20.334 83 -47.001s30 -59 30 -97v-54c0 -73.333 -16.667 -130.166 -50 -170.499s-80.666 -60.5 -141.999 -60.5z" />
    <glyph glyph-name="gamma" unicode="&#x3b3;" 
d="M347 -200h-109l9 220l-169 580h96l120 -456l119 456h94l-169 -580z" />
    <glyph glyph-name="delta" unicode="&#x3b4;" 
d="M292 -10c-58 0 -105 17.833 -141 53.5s-54 90.167 -54 163.5v112c0 44.667 11.167 81 33.5 109s49.5 49.333 81.5 64c-33.333 18.667 -57 38.834 -71 60.501s-21 50.167 -21 85.5c0 56 14.333 97 43 123s71 39 127 39h142v-82h-142c-28.667 0 -50 -4.83301 -64 -14.5
s-21 -28.5 -21 -56.5c0 -26 8.16699 -46 24.5 -60s46.833 -30 91.5 -48c64 -26.667 107.833 -54.334 131.5 -83.001s35.5 -70 35.5 -124v-125c0 -73.333 -18 -127.833 -54 -163.5s-83.333 -53.5 -142 -53.5zM292 72c34.667 0 60.833 10.5 78.5 31.5s26.5 55.5 26.5 103.5
v125c0 34.667 -10.5 62.167 -31.5 82.5s-54.5 37.833 -100.5 52.5c-20.667 -10.667 -38.667 -27.5 -54 -50.5s-23 -55.5 -23 -97.5v-112c0 -48 8.83301 -82.5 26.5 -103.5s43.5 -31.5 77.5 -31.5z" />
    <glyph glyph-name="epsilon" unicode="&#x3b5;" 
d="M297 -10c-71.333 0 -124.17 14.665 -158.503 43.998s-51.5 74.333 -51.5 135v8c0 34.667 9.83301 64.834 29.5 90.501s48.834 40.167 87.501 43.5v22c-32 2.66699 -57.167 13.167 -75.5 31.5s-27.5 43.5 -27.5 75.5v12c0 53.333 16.167 93 48.5 119s81.5 39 147.5 39
c60.667 0 106.334 -13.833 137.001 -41.5s48.334 -72.834 53.001 -135.501l-87 -8c-3.33301 41.333 -12.333 68.833 -27 82.5s-40 20.5 -76 20.5c-38 0 -65 -6 -81 -18s-24 -32.667 -24 -62v-14c0 -25.333 7.5 -43.166 22.5 -53.499s40.833 -15.5 77.5 -15.5h42v-77h-42
c-42 0 -71.5 -7.66699 -88.5 -23s-25.5 -41.666 -25.5 -78.999v-10c0 -38 8.83301 -65 26.5 -81s48.5 -24 92.5 -24c40 0 68.333 7.66699 85 23s27.334 46 32.001 92l86 -7c-4.66699 -70 -21.834 -119 -51.501 -147s-80.167 -42 -151.5 -42z" />
    <glyph glyph-name="zeta" unicode="&#x3b6;" 
d="M335 -200l-89 -0.00195312v84h97c18.667 0 33.334 4.33301 44.001 13s16 26.334 16 53.001s-5.33301 44.334 -16 53.001s-25.334 13 -44.001 13h-61c-58 0 -104 19 -138 57s-51 89.667 -51 155c0 48 7.83301 91 23.5 129s33.167 71.667 52.5 101l121 180l-5 10
c-58.667 -7.33301 -105.667 3 -141 31s-58.333 72 -69 132l68 11c9.33301 -48 31.333 -78.667 66 -92s79 -12.333 133 3l134 87l28 -101l-112 -48l-150 -249c-14.667 -24.667 -28 -52.5 -40 -83.5s-18 -63.833 -18 -98.5c0 -42.667 8.83301 -76.667 26.5 -102
s41.5 -38 71.5 -38h65c43.333 0 77.5 -11.833 102.5 -35.5s37.5 -62.167 37.5 -115.5c0 -48 -13.833 -84.833 -41.5 -110.5s-64.5 -38.5 -110.5 -38.5z" />
    <glyph glyph-name="eta" unicode="&#x3b7;" 
d="M396 -200l-0.000976562 603.999c0 40 -6.66699 70 -20 90s-33.333 30 -60 30c-24.667 0 -47.667 -7.5 -69 -22.5s-40.666 -37.833 -57.999 -68.5v-433h-90v600h90v-78h23c14.667 27.333 34 48.833 58 64.5s49.667 23.5 77 23.5c43.333 0 77.333 -16.667 102 -50
s37 -79.666 37 -138.999v-621h-90z" />
    <glyph glyph-name="theta" unicode="&#x3b8;" 
d="M293 -10c-63.333 0 -111.5 19.5 -144.5 58.5s-49.5 95.167 -49.5 168.5v362c0 75.333 16.5 132.666 49.5 171.999s81.167 59 144.5 59c62.667 0 110.5 -19.667 143.5 -59s49.5 -96.666 49.5 -171.999v-362c0 -73.333 -16.5 -129.5 -49.5 -168.5
s-80.833 -58.5 -143.5 -58.5zM188 580l-0.000976562 -132h209v132c0 50.667 -8.5 88 -25.5 112s-43.167 36 -78.5 36s-61.666 -11.833 -78.999 -35.5s-26 -61.167 -26 -112.5zM292.999 72c35.333 0 61.501 11.167 78.501 33.5s25.5 58.833 25.5 109.5v147h-209v-147
c0 -50.667 8.66699 -87.167 26 -109.5s43.666 -33.5 78.999 -33.5z" />
    <glyph glyph-name="iota" unicode="&#x3b9;" 
d="M400 -5c-48 0 -85.998 15.667 -113.998 47s-42 75 -42 131v345h-156v82h247v-434c0 -29.333 6 -51.5 18 -66.5s30.333 -22.5 55 -22.5c11.333 0 24.166 1.5 38.499 4.5s26.166 7.83301 35.499 14.5l17 -79c-14 -7.33301 -29.5 -12.833 -46.5 -16.5s-34.5 -5.5 -52.5 -5.5
z" />
    <glyph glyph-name="kappa" unicode="&#x3ba;" 
d="M221 277v-277h-91v600h91v-246h36l138 246h104l-172 -280l170 -320h-101l-139 277h-36z" />
    <glyph glyph-name="lambda" unicode="&#x3bb;" 
d="M411 0l-119.997 528.001l-119 -528h-94l149 614h44l-4 19c-7.33301 32.667 -18.333 56.334 -33 71.001s-34.334 22 -59.001 22c-10.667 0 -22.334 -0.833008 -35.001 -2.5s-26.667 -4.83398 -42 -9.50098l-13 79c15.333 3.33301 30.166 6.16602 44.499 8.49902
s28.166 3.5 41.499 3.5c45.333 0 81.333 -11.333 108 -34s46.334 -58.667 59.001 -108l169 -663h-96z" />
    <glyph glyph-name="mu" unicode="&#x3bc;" 
d="M191 20l7.99902 -220h-106l7 220v580h91v-409c0 -41.333 7.66699 -71 23 -89s34 -27 56 -27c20.667 0 38.5 7.16699 53.5 21.5s29.5 33.833 43.5 58.5v445h91v-448c0 -34 5 -56.167 15 -66.5s28 -11.833 54 -4.5v-85c-37.333 -6.66699 -65.666 -1.5 -84.999 15.5
s-31.333 47.5 -36 91.5h-16c-15.333 -38 -32.833 -66.333 -52.5 -85s-42.167 -28 -67.5 -28c-16 0 -30.667 3.83301 -44 11.5s-25 19.167 -35 34.5v-16z" />
    <glyph glyph-name="nu" unicode="&#x3bd;" 
d="M339 0l-94 0.000976562l-167 600h93l133 -528c32.667 88.667 58.5 177.5 77.5 266.5s30.833 176.167 35.5 261.5h90c-9.33301 -112.667 -29.333 -219.334 -60 -320.001s-66.667 -194 -108 -280z" />
    <glyph glyph-name="xi" unicode="&#x3be;" 
d="M498 -51c0 -48 -13.665 -84.8359 -40.998 -110.503s-64.333 -38.5 -111 -38.5h-84v84h92c18.667 0 33.334 4.33301 44.001 13s16 26.334 16 53.001s-5.33301 44.334 -16 53.001s-25.334 13 -44.001 13h-74c-55.333 0 -99.166 16.833 -131.499 50.5
s-48.5 79.5 -48.5 137.5v28c0 41.333 11.167 77.666 33.5 108.999s55.5 49.333 99.5 54v23c-28.667 0 -50.5 10.167 -65.5 30.5s-22.5 46.166 -22.5 77.499c0 25.333 5.33301 47.5 16 66.5s28 34.5 52 46.5v23c-45.333 4 -81.333 19.167 -108 45.5
s-45.334 60.833 -56.001 103.5l69 11c8.66699 -32 29.667 -55.167 63 -69.5s74.666 -18.166 123.999 -11.499l153 79l28 -101l-162 -57l-27 -23c-22 -19.333 -37.667 -37.666 -47 -54.999s-14 -36.666 -14 -57.999c0 -28.667 5.16699 -49 15.5 -61s23.5 -18 39.5 -18h140
v-84h-141c-34.667 0 -59.834 -11.167 -75.501 -33.5s-23.5 -49.833 -23.5 -82.5v-28c0 -36 8 -64.833 24 -86.5s41 -32.5 75 -32.5h68c43.333 0 77.5 -11.833 102.5 -35.5s37.5 -62.167 37.5 -115.5z" />
    <glyph glyph-name="omicron" unicode="&#x3bf;" 
d="M293 -10c-62 0 -109.833 18.001 -143.5 54.001s-50.5 87 -50.5 153v202c0 67.333 16.833 119.333 50.5 156s81.5 55 143.5 55c61.333 0 108.833 -18.333 142.5 -55s50.5 -88.334 50.5 -155.001v-202c0 -66 -16.833 -117.167 -50.5 -153.5s-81.167 -54.5 -142.5 -54.5z
M293 72.001c34 0 59.667 9.5 77 28.5s26 50.5 26 94.5v205c0 44 -8.66699 76.333 -26 97s-43 31 -77 31c-34.667 0 -60.667 -10.333 -78 -31s-26 -53 -26 -97v-205c0 -44 8.66699 -75.5 26 -94.5s43.333 -28.5 78 -28.5z" />
    <glyph glyph-name="pi" unicode="&#x3c0;" 
d="M506 600v-82h-84v-366c0 -34 6 -55.833 18 -65.5s35 -11.5 69 -5.5v-85c-63.333 -6.66699 -108.333 -1.16699 -135 16.5s-40 50.5 -40 98.5v407h-121v-518h-87v518h-71v82h451z" />
    <glyph glyph-name="rho" unicode="&#x3c1;" 
d="M313 76c28.667 0 49.668 10.832 63.001 32.499s20 54.834 20 99.501v191c0 44 -8.66699 76.5 -26 97.5s-43 31.5 -77 31.5s-59.833 -10.5 -77.5 -31.5s-26.5 -53.5 -26.5 -97.5v-229c16.667 -32 35.167 -55.667 55.5 -71s43.166 -23 68.499 -23zM99.001 -200.001
l-0.000976562 599c0 67.333 16.667 119.5 50 156.5s81 55.5 143 55.5s109.833 -18.5 143.5 -55.5s50.5 -89.167 50.5 -156.5v-198c0 -68.667 -13.167 -121 -39.5 -157s-62.166 -54 -107.499 -54c-30 0 -56.333 7.5 -79 22.5s-38.667 36.833 -48 65.5h-23v-278h-90z" />
    <glyph glyph-name="sigma1" unicode="&#x3c2;" 
d="M249 -200v81.999h96c18 0 32.167 4.33301 42.5 13s15.5 26.667 15.5 54c0 26.667 -5.16699 44.5 -15.5 53.5s-24.5 13.5 -42.5 13.5h-64c-62 0 -107.833 18.5 -137.5 55.5s-44.5 90.833 -44.5 161.5v164c0 68.667 15.833 121.334 47.5 158.001s81.167 55 148.5 55
c60.667 0 105.5 -17.333 134.5 -52s45.833 -88.667 50.5 -162l-86 -5c-2.66699 53.333 -11 89.5 -25 108.5s-39.333 28.5 -76 28.5c-36 0 -62.333 -9.33301 -79 -28s-25 -50 -25 -94v-186c0 -43.333 8 -74.5 24 -93.5s41.333 -28.5 76 -28.5h65c42 0 75 -12 99 -36
s36 -62 36 -114c0 -48 -14.167 -84.667 -42.5 -110s-66.5 -38 -114.5 -38h-83z" />
    <glyph glyph-name="sigma" unicode="&#x3c3;" 
d="M278 72c29.333 0 51.333 9.5 66 28.5s22 50.5 22 94.5v170c0 52 -7.33301 90.167 -22 114.5s-36.667 36.5 -66 36.5c-30 0 -52.333 -10.167 -67 -30.5s-22 -52.5 -22 -96.5v-194c0 -44 7.33301 -75.5 22 -94.5s37 -28.5 67 -28.5zM278 -10c-52.667 0 -95.667 17 -129 51
s-50 86 -50 156v190c0 68 16.667 120.5 50 157.5s76.333 55.5 129 55.5h277v-92l-163 19c20 -14.667 35.667 -35.167 47 -61.5s17 -57.5 17 -93.5v-175c0 -70 -16.667 -122 -50 -156s-76 -51 -128 -51z" />
    <glyph glyph-name="tau" unicode="&#x3c4;" 
d="M428 -4c-65.333 -5.33301 -111.834 0.667969 -139.501 18.001s-41.5 49.666 -41.5 96.999v409h-150v80h398v-80h-157v-387c0 -24 6.33301 -40.167 19 -48.5s36.334 -9.5 71.001 -3.5v-85z" />
    <glyph glyph-name="upsilon" unicode="&#x3c5;" 
d="M293 -10c-62 0 -109.833 17.5 -143.5 52.5s-50.5 84.833 -50.5 149.5v408h90v-411c0 -42.667 8.66699 -73.167 26 -91.5s43.333 -27.5 78 -27.5c34 0 59.667 9.16699 77 27.5s26 48.833 26 91.5v411h90v-408c0 -64.667 -16.667 -114.5 -50 -149.5s-81 -52.5 -143 -52.5z
" />
    <glyph glyph-name="phi" unicode="&#x3c6;" 
d="M332 -200l-79 -0.00195312v193c-58 8 -102.833 33.833 -134.5 77.5s-47.5 102.167 -47.5 175.5v100c0 56 4.5 106.667 13.5 152s21.167 85.666 36.5 120.999l76 -32c-12.667 -30.667 -23.5 -66.167 -32.5 -106.5s-13.5 -85.166 -13.5 -134.499v-100
c0 -53.333 8.5 -95.333 25.5 -126s43.5 -49.667 79.5 -57v537h71c55.333 0 100.333 -22.667 135 -68s52 -115.666 52 -210.999v-67c0 -77.333 -16.667 -138.166 -50 -182.499s-77.333 -70.5 -132 -78.5v-193zM329 529.998l-0.000976562 -467
c36.667 7.33301 63.834 27 81.501 59s26.5 76 26.5 132v67c0 72 -9 124.833 -27 158.5s-45 50.5 -81 50.5z" />
    <glyph glyph-name="chi" unicode="&#x3c7;" 
d="M390 -200l-105 290l-110 -290h-88l159 395l-147 405h90l108 -296l113 296h88l-163 -400l147 -400h-92z" />
    <glyph glyph-name="psi" unicode="&#x3c8;" 
d="M332 -200h-78.998v194c-60 6.66699 -105.333 28.5 -136 65.5s-46 88.5 -46 154.5v386h81v-391c0 -43.333 7.66699 -75.333 23 -96s41.666 -33 78.999 -37v524h77v-524c37.333 4 63.666 16.167 78.999 36.5s23 52.5 23 96.5v391h81v-386c0 -66 -15.333 -117.5 -46 -154.5
s-76 -58.833 -136 -65.5v-194z" />
    <glyph glyph-name="omega" unicode="&#x3c9;" 
d="M184 -10c-34 0 -61.335 19.833 -82.002 59.5s-31 97.167 -31 172.5v97c0 61.333 4.66699 119.666 14 174.999s19.333 96.333 30 123l76 -32c-7.33301 -22.667 -15.666 -59 -24.999 -109s-14 -102.333 -14 -157v-97c0 -50 4.33301 -87.833 13 -113.5
s21.334 -38.5 38.001 -38.5c17.333 0 30.166 9.66699 38.499 29s12.5 51 12.5 95v269h77v-269c0 -44 4.33301 -75.667 13 -95s21.334 -29 38.001 -29s29.334 12.833 38.001 38.5s13 63.5 13 113.5v97c0 54.667 -4.66699 107 -14 157s-17.666 86.333 -24.999 109l76 32
c10.667 -26.667 20.667 -67.667 30 -123s14 -113.666 14 -174.999v-97c0 -75.333 -10.333 -132.833 -31 -172.5s-48 -59.5 -82 -59.5c-26.667 0 -48.334 10.5 -65.001 31.5s-29.334 52.833 -38.001 95.5h-12c-7.33301 -42.667 -19.5 -74.5 -36.5 -95.5
s-38.833 -31.5 -65.5 -31.5z" />
    <glyph glyph-name="iotadieresis" unicode="&#x3ca;" 
d="M400 -5c-48 0 -85.998 15.667 -113.998 47s-42 75 -42 131v345h-156v82h247v-434c0 -29.333 6 -51.5 18 -66.5s30.333 -22.5 55 -22.5c11.333 0 24.166 1.5 38.499 4.5s26.166 7.83301 35.499 14.5l17 -79c-14 -7.33301 -29.5 -12.833 -46.5 -16.5s-34.5 -5.5 -52.5 -5.5
zM200.002 713c-16 0 -29.001 3.83301 -39.001 11.5s-15 21.834 -15 42.501v6c0 21.333 5 36 15 44s23 12 39 12c16.667 0 29.834 -4 39.501 -12s14.5 -22.667 14.5 -44v-6c0 -20.667 -5 -34.834 -15 -42.501s-23 -11.5 -39 -11.5zM378.001 713
c-16.667 0 -29.835 3.83301 -39.502 11.5s-14.5 21.834 -14.5 42.501v6c0 21.333 4.83301 36 14.5 44s22.834 12 39.501 12c16 0 29 -4 39 -12s15 -22.667 15 -44v-6c0 -20.667 -5.16699 -34.834 -15.5 -42.501s-23.166 -11.5 -38.499 -11.5z" />
    <glyph glyph-name="upsilondieresis" unicode="&#x3cb;" 
d="M293 -10c-62 0 -109.833 17.5 -143.5 52.5s-50.5 84.833 -50.5 149.5v408h90v-411c0 -42.667 8.66699 -73.167 26 -91.5s43.333 -27.5 78 -27.5c34 0 59.667 9.16699 77 27.5s26 48.833 26 91.5v411h90v-408c0 -64.667 -16.667 -114.5 -50 -149.5s-81 -52.5 -143 -52.5z
M204 713c-16 0 -29.001 3.83301 -39.001 11.5s-15 21.834 -15 42.501v6c0 21.333 5 36 15 44s23 12 39 12c16.667 0 29.834 -4 39.501 -12s14.5 -22.667 14.5 -44v-6c0 -20.667 -5 -34.834 -15 -42.501s-23 -11.5 -39 -11.5zM381.999 713
c-16.667 0 -29.835 3.83301 -39.502 11.5s-14.5 21.834 -14.5 42.501v6c0 21.333 4.83301 36 14.5 44s22.834 12 39.501 12c16 0 29 -4 39 -12s15 -22.667 15 -44v-6c0 -20.667 -5.16699 -34.834 -15.5 -42.501s-23.166 -11.5 -38.499 -11.5z" />
    <glyph glyph-name="omicrontonos" unicode="&#x3cc;" 
d="M293 -10c-62 0 -109.833 18.001 -143.5 54.001s-50.5 87 -50.5 153v202c0 67.333 16.833 119.333 50.5 156s81.5 55 143.5 55c61.333 0 108.833 -18.333 142.5 -55s50.5 -88.334 50.5 -155.001v-202c0 -66 -16.833 -117.167 -50.5 -153.5s-81.167 -54.5 -142.5 -54.5z
M293 72.001c34 0 59.667 9.5 77 28.5s26 50.5 26 94.5v205c0 44 -8.66699 76.333 -26 97s-43 31 -77 31c-34.667 0 -60.667 -10.333 -78 -31s-26 -53 -26 -97v-205c0 -44 8.66699 -75.5 26 -94.5s43.333 -28.5 78 -28.5zM234 700.001l53 200h120l-106 -200h-67z" />
    <glyph glyph-name="upsilontonos" unicode="&#x3cd;" 
d="M293 -10c-62 0 -109.833 17.5 -143.5 52.5s-50.5 84.833 -50.5 149.5v408h90v-411c0 -42.667 8.66699 -73.167 26 -91.5s43.333 -27.5 78 -27.5c34 0 59.667 9.16699 77 27.5s26 48.833 26 91.5v411h90v-408c0 -64.667 -16.667 -114.5 -50 -149.5s-81 -52.5 -143 -52.5z
M232 700l53 200h120l-106 -200h-67z" />
    <glyph glyph-name="omegatonos" unicode="&#x3ce;" 
d="M184 -10c-34 0 -61.335 19.833 -82.002 59.5s-31 97.167 -31 172.5v97c0 61.333 4.66699 119.666 14 174.999s19.333 96.333 30 123l76 -32c-7.33301 -22.667 -15.666 -59 -24.999 -109s-14 -102.333 -14 -157v-97c0 -50 4.33301 -87.833 13 -113.5
s21.334 -38.5 38.001 -38.5c17.333 0 30.166 9.66699 38.499 29s12.5 51 12.5 95v269h77v-269c0 -44 4.33301 -75.667 13 -95s21.334 -29 38.001 -29s29.334 12.833 38.001 38.5s13 63.5 13 113.5v97c0 54.667 -4.66699 107 -14 157s-17.666 86.333 -24.999 109l76 32
c10.667 -26.667 20.667 -67.667 30 -123s14 -113.666 14 -174.999v-97c0 -75.333 -10.333 -132.833 -31 -172.5s-48 -59.5 -82 -59.5c-26.667 0 -48.334 10.5 -65.001 31.5s-29.334 52.833 -38.001 95.5h-12c-7.33301 -42.667 -19.5 -74.5 -36.5 -95.5
s-38.833 -31.5 -65.5 -31.5zM239.998 700l53 200h120l-106 -200h-67z" />
    <glyph glyph-name="IEgravecyrillic" unicode="&#x400;" 
d="M97 0v800h403v-80h-312v-243h274v-81h-274v-316h312v-80h-403zM305 900l-151 200h128l97 -200h-74z" />
    <glyph glyph-name="Iocyrillic" unicode="&#x401;" 
d="M97 0v800h403v-80h-312v-243h274v-81h-274v-316h312v-80h-403zM223 913c-16 0 -29.001 3.83301 -39.001 11.5s-15 21.834 -15 42.501v6c0 21.333 5 36 15 44s23 12 39 12c16.667 0 29.834 -4 39.501 -12s14.5 -22.667 14.5 -44v-6c0 -20.667 -5 -34.834 -15 -42.501
s-23 -11.5 -39 -11.5zM400.999 913c-16.667 0 -29.835 3.83301 -39.502 11.5s-14.5 21.834 -14.5 42.501v6c0 21.333 4.83301 36 14.5 44s22.834 12 39.501 12c16 0 29 -4 39 -12s15 -22.667 15 -44v-6c0 -20.667 -5.16699 -34.834 -15.5 -42.501
s-23.166 -11.5 -38.499 -11.5z" />
    <glyph glyph-name="Djecyrillic" unicode="&#x402;" 
d="M156 0v719.999h-107v80h369v-80h-172v-200h88c58 0 102.333 -17.5 133 -52.5s46 -86.167 46 -153.5v-107c0 -67.333 -15.333 -118.666 -46 -153.999s-75 -53 -133 -53v78c32 0 55 10.167 69 30.5s21 53.833 21 100.5v103c0 46 -7 79.167 -21 99.5s-37 30.5 -69 30.5h-88
v-442h-90z" />
    <glyph glyph-name="Gjecyrillic" unicode="&#x403;" 
d="M105 0v800h398v-80h-307v-720h-91zM236 900l98 200h128l-151 -200h-75z" />
    <glyph glyph-name="Ecyrillic" unicode="&#x404;" 
d="M516 254c-3.33301 -88.667 -22.833 -154.832 -58.5 -198.499s-87.5 -65.5 -155.5 -65.5c-71.333 0 -125.333 22.833 -162 68.5s-55 112.5 -55 200.5v278c0 89.333 18.333 157.166 55 203.499s90.667 69.5 162 69.5c68 0 119.833 -22.167 155.5 -66.5
s55.167 -111.5 58.5 -201.5l-90 -10c-4.66699 73.333 -16.167 124.666 -34.5 153.999s-48.166 44 -89.499 44c-46 0 -78.5 -14.167 -97.5 -42.5s-28.5 -77.166 -28.5 -146.499v-64h158v-81h-158v-141c0 -68 9.5 -115.833 28.5 -143.5s51.5 -41.5 97.5 -41.5
c41.333 0 71.166 14.5 89.499 43.5s29.833 79.167 34.5 150.5z" />
    <glyph glyph-name="Dzecyrillic" unicode="&#x405;" 
d="M297 -9c-41.333 0 -81.999 7.99707 -121.999 23.9971s-73.667 36.333 -101 61l27 77c30.667 -27.333 63.5 -47.833 98.5 -61.5s70.5 -20.5 106.5 -20.5c40 0 71.167 12.167 93.5 36.5s33.5 57.833 33.5 100.5c0 36 -10.167 64.333 -30.5 85s-62.833 45.667 -127.5 75
c-72 32 -122.333 64.833 -151 98.5s-43 77.5 -43 131.5c0 64 18.333 114.167 55 150.5s87.334 54.5 152.001 54.5c38 0 75.833 -8.33301 113.5 -25s68.167 -37 91.5 -61l-24 -78c-29.333 26.667 -59.833 47.334 -91.5 62.001s-62.834 22 -93.501 22
c-35.333 0 -63 -10.5 -83 -31.5s-30 -49.833 -30 -86.5c0 -34 10.667 -61.167 32 -81.5s65.666 -45.166 132.999 -74.499c69.333 -30 117.833 -61.5 145.5 -94.5s41.5 -76.167 41.5 -129.5c0 -71.333 -20.333 -128.166 -61 -170.499s-95.667 -63.5 -165 -63.5z" />
    <glyph glyph-name="Icyrillic" unicode="&#x406;" 
d="M97 0v80h150v640h-150v80h391v-80h-150v-640h150v-80h-391z" />
    </font>
</defs>
</svg>
