<?xml version="1.0" standalone="no"?>
<!DOCTYPE svg PUBLIC "-//W3C//DTD SVG 1.1//EN" "http://www.w3.org/Graphics/SVG/1.1/DTD/svg11.dtd" >
<svg>
<metadata>
Created by FontForge 20090914 at Thu Feb  4 19:28:33 2016
 By www-data
(c) Copyright The Font Bureau, Inc. 2014. All rights reserved.
</metadata>
<defs>
<font id="InputMonoCompressed-Bold" horiz-adv-x="585" >
  <font-face 
    font-family="InputMonoCompressed"
    font-weight="700"
    font-stretch="extra-condensed"
    units-per-em="1100"
    panose-1="2 0 7 9 3 0 0 9 0 4"
    ascent="850"
    descent="-250"
    x-height="600"
    cap-height="800"
    bbox="-238 -450 778.996 1400"
    underline-thickness="0"
    underline-position="0"
    unicode-range="U+000D-U+1F41B"
  />
<missing-glyph 
d="M50 -250v1100h485v-1100h-485zM150 -150h285v900h-285v-900z" />
    <glyph glyph-name=".notdef" 
d="M50 -250v1100h485v-1100h-485zM150 -150h285v900h-285v-900z" />
    <glyph glyph-name="NULL" horiz-adv-x="0" 
 />
    <glyph glyph-name="nonmarkingreturn" unicode="&#xd;" horiz-adv-x="0" 
 />
    <glyph glyph-name="space" unicode="&#xa0;" 
 />
    <glyph glyph-name="space" unicode=" " 
 />
    <glyph glyph-name="exclam" unicode="!" 
d="M221 300l-22 500h183l-23 -500h-138zM295 -10c-36 0 -63.501 6.83301 -82.501 20.5s-28.5 34.834 -28.5 63.501v28c0 29.333 9.5 51 28.5 65s46.5 21 82.5 21c36.667 0 64.334 -7 83.001 -21s28 -35.667 28 -65v-28c0 -28.667 -9.5 -49.834 -28.5 -63.501
s-46.5 -20.5 -82.5 -20.5z" />
    <glyph glyph-name="quotedbl" unicode="&#x22;" 
d="M380 378l-27 422h183l-27 -422h-129zM77 378l-27 422h183l-28 -422h-128z" />
    <glyph glyph-name="numbersign" unicode="#" 
d="M333 294l8 212h-89l-8 -212h89zM322 0l8 187h-89l-8 -187h-114l7 187h-97v107h101l8 212h-109v107h112l8 187h114l-7 -187h89l7 187h115l-8 -187h98v-107h-101l-8 -212h109v-107h-113l-7 -187h-115z" />
    <glyph glyph-name="dollar" unicode="$" 
d="M193 568c0 -21.333 4.33301 -38.499 13 -51.499s25 -24.833 49 -35.5v165c-22.667 -4 -38.667 -12.333 -48 -25s-14 -30.334 -14 -53.001zM402 237.001c0 21.333 -5 38.666 -15 51.999s-28.667 25.333 -56 36v-177c24.667 2.66699 42.667 11.334 54 26.001
s17 35.667 17 63zM339 -49.999l-92 -0.000976562v95c-38.667 4 -75.334 12.5 -110.001 25.5s-65 30.167 -91 51.5l32 103c28.667 -22.667 56.834 -40.167 84.501 -52.5s58.5 -20.166 92.5 -23.499v199c-73.333 17.333 -125.166 41.5 -155.499 72.5s-45.5 76.5 -45.5 136.5
c0 57.333 16.833 102.666 50.5 135.999s81.167 53.333 142.5 60v97h92v-95c32.667 -3.33301 63.667 -10.666 93 -21.999s54.666 -25.333 75.999 -42l-24 -102c-27.333 18 -53 31.5 -77 40.5s-49.333 14.833 -76 17.5v-190c77.333 -20.667 131.833 -46.667 163.5 -78
s47.5 -76 47.5 -134s-17.833 -104.5 -53.5 -139.5s-85.5 -55.5 -149.5 -61.5v-94z" />
    <glyph glyph-name="percent" unicode="%" 
d="M191 468c-44 0 -79.3311 12.167 -105.998 36.5s-40 61.5 -40 111.5v57c0 50 13.5 87 40.5 111s62.167 36 105.5 36s78.166 -12 104.499 -36s39.5 -61 39.5 -111v-57c0 -50 -13.333 -87.167 -40 -111.5s-61.334 -36.5 -104.001 -36.5zM191.002 553
c11.333 0 20.333 4.33301 27 13s10 22.334 10 41.001v68c0 18 -3.33301 31.333 -10 40s-15.667 13 -27 13c-12 0 -21.5 -4.33301 -28.5 -13s-10.5 -22 -10.5 -40v-68c0 -18.667 3.5 -32.334 10.5 -41.001s16.5 -13 28.5 -13zM9.00195 250l519 368l48 -78l-519 -365z
M395.002 -22c-43.333 0 -78.333 11.833 -105 35.5s-40 60.167 -40 109.5v60c0 50 13.5 87 40.5 111s61.833 36 104.5 36c43.333 0 78.333 -12 105 -36s40 -61 40 -111v-60c0 -49.333 -13.5 -85.833 -40.5 -109.5s-61.833 -35.5 -104.5 -35.5zM395.002 63
c12 0 21.167 4 27.5 12s9.5 21 9.5 39v71c0 18 -3.16699 31.333 -9.5 40s-15.5 13 -27.5 13c-11.333 0 -20.5 -4.33301 -27.5 -13s-10.5 -22 -10.5 -40v-71c0 -18 3.5 -31 10.5 -39s16.167 -12 27.5 -12z" />
    <glyph glyph-name="ampersand" unicode="&#x26;" 
d="M535 -13c-25.333 9.33301 -50.332 21.832 -74.999 37.499s-48.334 33.834 -71.001 54.501c-20.667 -26.667 -45 -48.167 -73 -64.5s-62 -24.5 -102 -24.5c-48.667 0 -89 17 -121 51s-48 84 -48 150c0 52 9 96.667 27 134s45.667 71.333 83 102
c-12 30.667 -21.167 60.667 -27.5 90s-9.5 55.666 -9.5 78.999c0 69.333 14.167 122.5 42.5 159.5s68.5 55.5 120.5 55.5c48.667 0 85.667 -15.333 111 -46s38 -65 38 -103c0 -48.667 -11.667 -90.667 -35 -126s-64 -72.333 -122 -111c2.66699 -9.33301 6 -18.833 10 -28.5
s8.33301 -18.834 13 -27.501c10.667 -22.667 22.334 -44.334 35.001 -65.001s26 -40 40 -58c8.66699 24.667 17.667 52.334 27 83.001s18.666 63.334 27.999 98.001l112 -35c-14 -40 -29.833 -78.667 -47.5 -116s-37.5 -74.666 -59.5 -111.999l137 -68zM238.001 593.999
c0 -14.667 1 -30 3 -46s5.33301 -32 10 -48c20 17.333 35.833 37 47.5 59s17.5 48.333 17.5 79c0 23.333 -3.5 41 -10.5 53s-15.833 18 -26.5 18c-14 0 -24.333 -8 -31 -24s-10 -46.333 -10 -91zM252.001 91.999c14 0 27.001 4.33301 39.001 13s23.333 21.334 34 38.001
c-16 18.667 -31.667 38.167 -47 58.5s-29.333 41.166 -42 62.499c-6.66699 10 -12.834 20 -18.501 30l-16.5 30c-6.66699 -16.667 -11.667 -35 -15 -55s-5 -41.333 -5 -64c0 -38 6.5 -66.333 19.5 -85s30.167 -28 51.5 -28z" />
    <glyph glyph-name="quotesingle" unicode="'" 
d="M228 378l-26 422h182l-27 -422h-129z" />
    <glyph glyph-name="parenleft" unicode="(" 
d="M467 -210c-110.667 22.667 -192.667 75.832 -246 159.499s-80 200.5 -80 350.5s26.667 266.833 80 350.5s135.333 136.834 246 159.501l15 -101c-66 -22 -113.667 -65.5 -143 -130.5s-44 -157.833 -44 -278.5c0 -119.333 14.667 -211.333 44 -276s77 -108 143 -130z" />
    <glyph glyph-name="parenright" unicode=")" 
d="M120 -210l-15 104.003c64.667 22 111.834 65.5 141.501 130.5s44.5 156.833 44.5 275.5c0 120.667 -14.833 213.667 -44.5 279s-76.834 108.666 -141.501 129.999l15 101c109.333 -22.667 190.833 -75.834 244.5 -159.501s80.5 -200.5 80.5 -350.5
s-26.833 -266.833 -80.5 -350.5s-135.167 -136.834 -244.5 -159.501z" />
    <glyph glyph-name="asterisk" unicode="*" 
d="M457 310l-142 148l38 -240h-123l39 239l-140 -147l-62 117l175 83l-175 83l62 117l140 -148l-39 238h123l-38 -238l142 148l61 -117l-176 -83l176 -83z" />
    <glyph glyph-name="plus" unicode="+" 
d="M232 36v251h-157v126h157v251h122v-251h156v-126h-156v-251h-122z" />
    <glyph glyph-name="comma" unicode="," 
d="M159 -178l55 422h216l-174 -422h-97z" />
    <glyph glyph-name="hyphen" unicode="&#x2011;" 
d="M75 287v131h435v-131h-435z" />
    <glyph glyph-name="hyphen" unicode="&#x2010;" 
d="M75 287v131h435v-131h-435z" />
    <glyph glyph-name="hyphen" unicode="&#xad;" 
d="M75 287v131h435v-131h-435z" />
    <glyph glyph-name="hyphen" unicode="-" 
d="M75 287v131h435v-131h-435z" />
    <glyph glyph-name="period" unicode="." 
d="M293 -10c-34 0 -61.5 8.5 -82.5 25.5s-31.5 42.167 -31.5 75.5v55c0 34 10.5 59.667 31.5 77s48.5 26 82.5 26s61.333 -8.66699 82 -26s31 -43 31 -77v-55c0 -33.333 -10.667 -58.5 -32 -75.5s-48.333 -25.5 -81 -25.5z" />
    <glyph glyph-name="slash" unicode="/" 
d="M82 -200l300 1000h122l-300 -1000h-122z" />
    <glyph glyph-name="zero" unicode="0" 
d="M293 -10c-71.333 0 -126.833 27.833 -166.5 83.5s-59.5 133.834 -59.5 234.501v180c0 102.667 19.833 182 59.5 238s95.167 84 166.5 84s126.833 -28 166.5 -84s59.5 -135.333 59.5 -238v-180c0 -100.667 -19.833 -178.834 -59.5 -234.501s-95.167 -83.5 -166.5 -83.5z
M293 102c33.333 0 56.333 15.667 69 47s19 87.333 19 168v162c0 82 -6.33301 139 -19 171s-35.667 48 -69 48s-56.333 -16 -69 -48s-19 -89 -19 -171v-162c0 -80.667 6.33301 -136.667 19 -168s35.667 -47 69 -47zM293 318c-16.667 0 -29.834 3.66699 -39.501 11
s-14.5 21.333 -14.5 42v57c0 20 4.83301 33.833 14.5 41.5s22.834 11.5 39.501 11.5c16 0 28.833 -3.83301 38.5 -11.5s14.5 -21.5 14.5 -41.5v-57c0 -20.667 -5 -34.667 -15 -42s-22.667 -11 -38 -11z" />
    <glyph glyph-name="one" unicode="1" 
d="M89 0l0.000976562 116.001h149v538h-22c-7.33301 -38.667 -23.333 -68.834 -48 -90.501s-53.334 -31.834 -86.001 -30.501l-8 120c38 0.666992 72.5 14.834 103.5 42.501s51.833 62.5 62.5 104.5h151v-684h127v-116h-429z" />
    <glyph glyph-name="two" unicode="2" 
d="M67 0l0.00195312 168.002c0 62 9.83301 109.833 29.5 143.5s56.834 66.834 111.501 99.501l71 40c33.333 19.333 54.833 36.166 64.5 50.499s14.5 37.166 14.5 68.499v29c0 34 -5.16699 59 -15.5 75s-26.833 24 -49.5 24c-24 0 -40.333 -10.333 -49 -31
s-14.334 -60 -17.001 -118l-153 10c3.33301 89.333 22.166 153.5 56.499 192.5s88.166 58.5 161.499 58.5c72.667 0 127.334 -17.167 164.001 -51.5s55 -85.833 55 -154.5v-54c0 -49.333 -9.66699 -88.5 -29 -117.5s-56 -59.5 -110 -91.5l-71 -40
c-34.667 -21.333 -56.834 -39.833 -66.501 -55.5s-14.5 -40.834 -14.5 -75.501v-54h299v-116h-452z" />
    <glyph glyph-name="three" unicode="3" 
d="M295 -10c-79.333 0 -137.668 19.333 -175.001 58s-57.666 97.334 -60.999 176.001l153 10c3.33301 -48 11 -81.667 23 -101s31.333 -29 58 -29s45.5 8 56.5 24s16.5 42 16.5 78v55c0 36 -6.66699 62.167 -20 78.5s-33.333 24.5 -60 24.5h-76v116h76
c24.667 0 41.667 5.5 51 16.5s14 32.167 14 63.5v53c0 30 -4.66699 51.333 -14 64s-24.333 19 -45 19s-36 -8.66699 -46 -26s-16.333 -46 -19 -86l-153 10c3.33301 73.333 22.333 127.666 57 162.999s86 53 154 53c70 0 124 -15.5 162 -46.5s57 -77.833 57 -140.5v-40
c0 -38.667 -10.167 -71.167 -30.5 -97.5s-46.833 -41.833 -79.5 -46.5v-29c38 -4.66699 68.333 -23.167 91 -55.5s34 -70.5 34 -114.5v-36c0 -69.333 -18.5 -122.333 -55.5 -159s-93.167 -55 -168.5 -55z" />
    <glyph glyph-name="four" unicode="4" 
d="M189 316h124v268zM556 204h-90v-204h-153v204h-254v112l220 484h187v-484h90v-112z" />
    <glyph glyph-name="five" unicode="5" 
d="M290 -10c-82 0 -140.168 18.168 -174.501 54.501s-53.166 99.5 -56.499 189.5l153 10c4.66699 -56.667 12.167 -94.5 22.5 -113.5s29.166 -28.5 56.499 -28.5c28.667 0 48.334 8.33301 59.001 25s16 46 16 88v67c0 39.333 -7 67.333 -21 84s-38.667 25 -74 25h-189v409
h414v-112h-261v-178h91c64 0 112.167 -16.833 144.5 -50.5s48.5 -85.834 48.5 -156.501v-93c0 -71.333 -19.167 -125.833 -57.5 -163.5s-95.5 -56.5 -171.5 -56.5z" />
    <glyph glyph-name="six" unicode="6" 
d="M293 -10c-75.333 0 -131.835 22.832 -169.502 68.499s-56.5 113.5 -56.5 203.5v276c0 90.667 19 158.667 57 204s94.667 68 170 68c71.333 0 123.833 -15.167 157.5 -45.5s53.834 -80.833 60.501 -151.5l-160 -23c-3.33301 42.667 -10.166 71.334 -20.499 86.001
s-25.833 22 -46.5 22c-24 0 -40.833 -11 -50.5 -33s-14.5 -59.667 -14.5 -113v-125h7c14 24.667 32 43 54 55s49 18 81 18c53.333 0 92.833 -19.5 118.5 -58.5s38.5 -94.167 38.5 -165.5v-50c0 -78 -18.833 -136.833 -56.5 -176.5s-94.167 -59.5 -169.5 -59.5z
M291.998 101.999c25.333 0 43.666 9.5 54.999 28.5s17 50.833 17 95.5v41c0 46.667 -5.66699 79.834 -17 99.501s-29.666 29.5 -54.999 29.5c-26 0 -44.5 -9.83301 -55.5 -29.5s-16.5 -52.834 -16.5 -99.501v-41c0 -44.667 5.5 -76.5 16.5 -95.5s29.5 -28.5 55.5 -28.5z" />
    <glyph glyph-name="seven" unicode="7" 
d="M179 0c32 197.333 59.001 335.5 81.001 414.5s57.333 166.833 106 263.5h-299v122h452v-122c-52.667 -117.333 -90.834 -220.5 -114.501 -309.5s-45.167 -211.833 -64.5 -368.5h-161z" />
    <glyph glyph-name="eight" unicode="8" 
d="M293 -10c-76 0 -132.667 17.665 -170 52.998s-56 89 -56 161v36c0 46 11 84 33 114s52.667 47.667 92 53v29c-31.333 4 -57.5 18.167 -78.5 42.5s-31.5 56.5 -31.5 96.5v46c0 64 17.333 111.5 52 142.5s87.667 46.5 159 46.5s124.333 -15.5 159 -46.5s52 -78.5 52 -142.5
v-46c0 -40 -10.667 -72.167 -32 -96.5s-47.666 -38.5 -78.999 -42.5v-29c39.333 -5.33301 70.166 -23.166 92.499 -53.499s33.5 -68.166 33.5 -113.499v-36c0 -72 -18.667 -125.667 -56 -161s-94 -53 -170 -53zM293 475.998c21.333 0 36.333 6.33301 45 19s13 34.667 13 66
v52c0 30.667 -4.33301 52.167 -13 64.5s-23.667 18.5 -45 18.5s-36.333 -6.16699 -45 -18.5s-13 -33.833 -13 -64.5v-52c0 -31.333 4.33301 -53.333 13 -66s23.667 -19 45 -19zM293 103.998c26.667 0 45.5 8 56.5 24s16.5 44 16.5 84v43c0 40 -5.5 68.167 -16.5 84.5
s-29.833 24.5 -56.5 24.5s-45.5 -8.16699 -56.5 -24.5s-16.5 -44.5 -16.5 -84.5v-43c0 -40 5.5 -68 16.5 -84s29.833 -24 56.5 -24z" />
    <glyph glyph-name="nine" unicode="9" 
d="M293 404c26.667 0 45.5 9.83301 56.5 29.5s16.5 52.834 16.5 99.501v41c0 44.667 -5.5 76.5 -16.5 95.5s-29.833 28.5 -56.5 28.5c-26 0 -44.5 -9.5 -55.5 -28.5s-16.5 -50.833 -16.5 -95.5v-41c0 -46.667 5.5 -79.834 16.5 -99.501s29.5 -29.5 55.5 -29.5zM291 -10
c-71.333 0 -123.833 15.334 -157.5 46.001s-53.834 81 -60.501 151l160 23c3.33301 -42.667 9.5 -71.334 18.5 -86.001s25.833 -22 50.5 -22c23.333 0 39.833 11.5 49.5 34.5s14.5 62.5 14.5 118.5v118h-9c-12.667 -24 -30 -42.167 -52 -54.5s-48 -18.5 -78 -18.5
c-53.333 0 -93.333 18.833 -120 56.5s-40 93.5 -40 167.5v50c0 78 18.833 136.833 56.5 176.5s94.167 59.5 169.5 59.5c74.667 0 131 -22.833 169 -68.5s57 -113.5 57 -203.5v-276c0 -90.667 -19.167 -158.667 -57.5 -204s-95.166 -68 -170.499 -68z" />
    <glyph glyph-name="colon" unicode=":" 
d="M293 390c-30.667 0 -55.502 7.66699 -74.502 23s-28.5 38 -28.5 68v50c0 30.667 9.5 53.834 28.5 69.501s43.833 23.5 74.5 23.5s55.334 -7.83301 74.001 -23.5s28 -38.834 28 -69.501v-50c0 -30 -9.66699 -52.667 -29 -68s-43.666 -23 -72.999 -23zM292.998 -8
c-30.667 0 -55.502 7.66699 -74.502 23s-28.5 38.333 -28.5 69v50c0 30.667 9.5 53.834 28.5 69.501s43.833 23.5 74.5 23.5s55.334 -7.83301 74.001 -23.5s28 -38.834 28 -69.501v-50c0 -30.667 -9.66699 -53.667 -29 -69s-43.666 -23 -72.999 -23z" />
    <glyph glyph-name="semicolon" unicode=";" 
d="M293 390c-30.667 0 -55.502 7.66699 -74.502 23s-28.5 38 -28.5 68v50c0 30.667 9.5 53.834 28.5 69.501s43.833 23.5 74.5 23.5s55.334 -7.83301 74.001 -23.5s28 -38.834 28 -69.501v-50c0 -30 -9.66699 -52.667 -29 -68s-43.666 -23 -72.999 -23zM172.998 -169l49 404
h194l-157 -404h-86z" />
    <glyph glyph-name="less" unicode="&#x3c;" 
d="M488 11l-391 267v144l391 267v-122l-317 -217l317 -217v-122z" />
    <glyph glyph-name="equal" unicode="=" 
d="M75 430v126h435v-126h-435zM75 144v126h435v-126h-435z" />
    <glyph glyph-name="greater" unicode="&#x3e;" 
d="M97 11v117l325 222l-325 222v117l391 -266v-146z" />
    <glyph glyph-name="question" unicode="?" 
d="M195 291l-14.999 103.001c82.667 18 139.667 38.5 171 61.5s47 55.167 47 96.5v26c0 39.333 -8 69.166 -24 89.499s-42.667 30.5 -80 30.5c-38.667 0 -65.834 -10.5 -81.501 -31.5s-25.5 -60.167 -29.5 -117.5l-153 10c4 87.333 27 151 69 191s106.667 60 194 60
c78 0 140.5 -20.167 187.5 -60.5s70.5 -94.166 70.5 -161.499v-40c0 -72.667 -26.167 -127.834 -78.5 -165.501s-144.833 -68.167 -277.5 -91.5zM257.001 -9.99902c-36.667 0 -64.5 6.83301 -83.5 20.5s-28.5 34.834 -28.5 63.501v28c0 29.333 9.5 51 28.5 65
s46.833 21 83.5 21c36 0 63.5 -7 82.5 -21s28.5 -35.667 28.5 -65v-28c0 -28.667 -9.5 -49.834 -28.5 -63.501s-46.5 -20.5 -82.5 -20.5z" />
    <glyph glyph-name="at" unicode="@" 
d="M343 -110c-94 0 -164.997 27.167 -212.997 81.5s-72 128.166 -72 221.499v344c0 82.667 20.167 148.834 60.5 198.501s101.166 74.5 182.499 74.5c80 0 138 -27.167 174 -81.5s54 -129.5 54 -225.5v-223c0 -56 -14.333 -97.167 -43 -123.5s-68.334 -39.5 -119.001 -39.5
c-52 0 -90.5 14.333 -115.5 43s-37.5 68.334 -37.5 119.001v128c0 50 10.667 90.167 32 120.5s49.666 45.5 84.999 45.5c26 0 46.667 -5.83301 62 -17.5s26.666 -27.834 33.999 -48.501h22c-1.33301 75.333 -12.666 131.5 -33.999 168.5s-59.666 55.5 -114.999 55.5
c-56 0 -95.5 -16.833 -118.5 -50.5s-34.5 -81.5 -34.5 -143.5v-337c0 -72 15.167 -128 45.5 -168s80.5 -60 150.5 -60c28.667 0 56.167 2.16699 82.5 6.5s49.5 9.83301 69.5 16.5v-82c-19.333 -5.33301 -42.833 -10.5 -70.5 -15.5s-54.834 -7.5 -81.501 -7.5zM371.003 218
c12.667 0 22.5 4.16699 29.5 12.5s10.5 25.5 10.5 51.5v119c0 24.667 -3.83301 42.667 -11.5 54s-17.167 17 -28.5 17c-12.667 0 -22.5 -5.5 -29.5 -16.5s-10.5 -29.833 -10.5 -56.5v-111c0 -25.333 3.5 -43.333 10.5 -54s16.833 -16 29.5 -16z" />
    <glyph glyph-name="A" unicode="A" 
d="M354 324l-58 352l-63 -352h121zM406 0l-34 208h-160l-38 -208h-137l162 800h188l162 -800h-143z" />
    <glyph glyph-name="B" unicode="B" 
d="M66 0v800.001h238c64.667 0 113.834 -16 147.501 -48s50.5 -78.667 50.5 -140v-40c0 -38 -7.83301 -68 -23.5 -90s-40.834 -36.667 -75.501 -44v-29c37.333 -4.66699 65.833 -20.834 85.5 -48.501s29.5 -62.834 29.5 -105.501v-48
c0 -67.333 -18.667 -118.666 -56 -153.999s-91 -53 -161 -53h-235zM220 469.001h60c24.667 0 42.5 7.16699 53.5 21.5s16.5 37.5 16.5 69.5v37c0 32 -5.5 55.167 -16.5 69.5s-28.833 21.5 -53.5 21.5h-60v-219zM220 112.001l63 -0.000976562c28.667 0 49.5 8.33301 62.5 25
s19.5 43.667 19.5 81v40c0 36.667 -6.5 63.334 -19.5 80.001s-33.833 25 -62.5 25h-63v-251z" />
    <glyph glyph-name="C" unicode="C" 
d="M308 -10c-79.333 0 -139.335 23.332 -180.002 69.999s-61 115.667 -61 207v262c0 93.333 20.333 163.5 61 210.5s100.667 70.5 180 70.5c77.333 0 134.5 -22.333 171.5 -67s57.5 -115.667 61.5 -213l-153 -10c-2.66699 69.333 -9.66699 115.666 -21 138.999
s-31.666 35 -60.999 35c-32.667 0 -55.167 -12.667 -67.5 -38s-18.5 -70.666 -18.5 -135.999v-245c0 -60 6.16699 -103.167 18.5 -129.5s34.833 -39.5 67.5 -39.5c29.333 0 49.666 11.5 60.999 34.5s18.333 68.167 21 135.5l153 -10
c-3.33301 -95.333 -23.666 -165.166 -60.999 -209.499s-94.666 -66.5 -171.999 -66.5z" />
    <glyph glyph-name="D" unicode="D" 
d="M66 0l-0.000976562 800.001h228c70 0 125 -25.833 165 -77.5s60 -120.834 60 -207.501v-234c0 -85.333 -20.167 -153.5 -60.5 -204.5s-95.166 -76.5 -164.499 -76.5h-228zM219.999 116.001l58 0.000976562c32 0 54.667 12.667 68 38s20 70.666 20 135.999v216
c0 66.667 -6.66699 113 -20 139s-36 39 -68 39h-58v-568z" />
    <glyph glyph-name="E" unicode="E" 
d="M66 0v800h453v-116h-299v-195h261v-117h-261v-256h299v-116h-453z" />
    <glyph glyph-name="F" unicode="F" 
d="M105 0v800h430v-116h-277v-262h224v-116h-224v-306h-153z" />
    <glyph glyph-name="G" unicode="G" 
d="M296 -10c-75.333 0 -132.332 24.168 -170.999 72.501s-58 114.166 -58 197.499v279c0 85.333 19.667 151.833 59 199.5s95 71.5 167 71.5c74.667 0 130 -20.5 166 -61.5s56 -104.167 60 -189.5l-153 -10c-3.33301 56 -10 94.167 -20 114.5s-27.333 30.5 -52 30.5
c-30.667 0 -50.667 -14.167 -60 -42.5s-14 -68.5 -14 -120.5v-263c0 -52 4.5 -92 13.5 -120s29.833 -42 62.5 -42c30.667 0 50.667 15.167 60 45.5s13.666 73.5 12.999 129.5h-72v117h226v-133c0 -89.333 -20 -157.5 -60 -204.5s-95.667 -70.5 -167 -70.5z" />
    <glyph glyph-name="H" unicode="H" 
d="M66 0v800h154v-302h146v302h154v-800h-154v381h-146v-381h-154z" />
    <glyph glyph-name="I" unicode="I" 
d="M66 0v116h150v568h-150v116h454v-116h-150v-568h150v-116h-454z" />
    <glyph glyph-name="J" unicode="J" 
d="M284 -10c-82 0 -140.335 21.168 -175.002 63.501s-53.667 114.5 -57 216.5l153 11c3.33301 -70 10.333 -116.667 21 -140s28.334 -35 53.001 -35s42.834 10.667 54.501 32s17.5 55.666 17.5 102.999v443h-174v116h327v-553c0 -81.333 -17.833 -144.5 -53.5 -189.5
s-91.167 -67.5 -166.5 -67.5z" />
    <glyph glyph-name="K" unicode="K" 
d="M220 360v-360h-154v800h154v-323h29l139 323h177l-189 -368l186 -432h-174l-136 360h-32z" />
    <glyph glyph-name="L" unicode="L" 
d="M104 0v800h153v-684h263v-116h-416z" />
    <glyph glyph-name="M" unicode="M" 
d="M246 222l-69 341l17 -563h-135v800h141l95 -399l94 399h137v-800h-135l17 555l-67 -333h-95z" />
    <glyph glyph-name="N" unicode="N" 
d="M342 0l-146 595v-595h-130v800h165l158 -603v603h131v-800h-178z" />
    <glyph glyph-name="O" unicode="O" 
d="M293 -10c-72.667 0 -128.5 23.667 -167.5 71s-58.5 113 -58.5 197v280c0 85.333 19.667 152 59 200s95 72 167 72c72.667 0 128.5 -24 167.5 -72s58.5 -114.667 58.5 -200v-280c0 -84 -19.5 -149.667 -58.5 -197s-94.833 -71 -167.5 -71zM293 106
c28 0 47.167 11.333 57.5 34s15.5 65 15.5 127v262c0 64 -5.16699 107.5 -15.5 130.5s-29.5 34.5 -57.5 34.5s-47.167 -11.5 -57.5 -34.5s-15.5 -66.5 -15.5 -130.5v-262c0 -62 5.16699 -104.333 15.5 -127s29.5 -34 57.5 -34z" />
    <glyph glyph-name="P" unicode="P" 
d="M66 0v800h235c70.667 0 124.667 -17.333 162 -52s56 -87.667 56 -159v-121c0 -71.333 -18.167 -123.333 -54.5 -156s-90.5 -49 -162.5 -49h-82v-263h-154zM220 377h72c26 0 45 7.66699 57 23s18 42.333 18 81v97c0 39.333 -6 66.833 -18 82.5s-31 23.5 -57 23.5h-72v-307
z" />
    <glyph glyph-name="Q" unicode="Q" 
d="M487 -200c-91.333 -16.667 -159.832 -9.00098 -205.499 22.999s-67.834 96.667 -66.501 194c-48 14.667 -84.667 43.834 -110 87.501s-38 99.167 -38 166.5v267c0 85.333 19.667 152 59 200s95 72 167 72s127.667 -24 167 -72s59 -114.667 59 -200v-267
c0 -76 -16.5 -137.167 -49.5 -183.5s-79.833 -73.5 -140.5 -81.5c2.66699 -46 16 -74.333 40 -85s58 -10.667 102 0zM293.001 117.999c27.333 0 46.333 11.167 57 33.5s16 64.5 16 126.5v253c0 61.333 -5.33301 103.5 -16 126.5s-29.667 34.5 -57 34.5
c-28 0 -47.167 -11.5 -57.5 -34.5s-15.5 -65.167 -15.5 -126.5v-253c0 -62 5.16699 -104.167 15.5 -126.5s29.5 -33.5 57.5 -33.5z" />
    <glyph glyph-name="R" unicode="R" 
d="M220 412h70c24.667 0 43.334 7.66699 56.001 23s19 43.333 19 84v62c0 40 -6.33301 67.167 -19 81.5s-31.334 21.5 -56.001 21.5h-70v-272zM220 0h-154v800h249c64 0 112.5 -18.333 145.5 -55s49.5 -90 49.5 -160v-67c0 -54 -9 -98.5 -27 -133.5
s-44.333 -58.833 -79 -71.5l128 -313h-159l-121 297h-32v-297z" />
    <glyph glyph-name="S" unicode="S" 
d="M277 -9c-38 0 -75.832 6.33594 -113.499 19.0029s-71.834 30.334 -102.501 53.001l26 118c30.667 -22 61.834 -39.833 93.501 -53.5s65.5 -20.5 101.5 -20.5c31.333 0 54.5 9.5 69.5 28.5s22.5 43.833 22.5 74.5c0 34 -8.83301 59.167 -26.5 75.5
s-50.5 35.833 -98.5 58.5c-64.667 29.333 -110.5 61.666 -137.5 96.999s-40.5 81 -40.5 137c0 68 19.667 123.167 59 165.5s94.666 63.5 165.999 63.5c36.667 0 72 -6.33301 106 -19s64 -29.667 90 -51l-19 -112c-29.333 21.333 -57.5 37.333 -84.5 48s-53.5 16 -79.5 16
c-27.333 0 -48.333 -8 -63 -24s-22 -39.667 -22 -71c0 -30.667 9 -53.834 27 -69.501s50.667 -34.834 98 -57.501c64.667 -32.667 110.5 -66.834 137.5 -102.501s40.5 -80.5 40.5 -134.5c0 -73.333 -22.333 -131.5 -67 -174.5s-105.667 -64.5 -183 -64.5z" />
    <glyph glyph-name="T" unicode="T" 
d="M216 0v684h-169v116h492v-116h-169v-684h-154z" />
    <glyph glyph-name="U" unicode="U" 
d="M293 -10c-77.333 0 -134.5 23 -171.5 69s-55.5 116.667 -55.5 212v529h154v-531c0 -60 5.16699 -101.333 15.5 -124s29.5 -34 57.5 -34s47.167 11.333 57.5 34s15.5 64 15.5 124v531h154v-529c0 -95.333 -18.5 -166 -55.5 -212s-94.167 -69 -171.5 -69z" />
    <glyph glyph-name="V" unicode="V" 
d="M395 0h-204l-154 800h151l104 -650l112 650h145z" />
    <glyph glyph-name="W" unicode="W" 
d="M342 0l-48 377l-47 -377h-134l-77 800h129l28 -592l48 392h101l51 -381l27 581h129l-77 -800h-130z" />
    <glyph glyph-name="X" unicode="X" 
d="M387 0l-98 238l-95 -238h-146l174 413l-155 387h156l84 -208l84 208h146l-163 -386l161 -414h-148z" />
    <glyph glyph-name="Y" unicode="Y" 
d="M370 0h-154v300l-185 500h152l109 -339l110 339h152l-184 -500v-300z" />
    <glyph glyph-name="Z" unicode="Z" 
d="M519 0h-452v116l305 568h-305v116h452v-116l-296 -568h296v-116z" />
    <glyph glyph-name="bracketleft" unicode="[" 
d="M141 -200v1000h341v-112h-187v-783h187v-105h-341z" />
    <glyph glyph-name="backslash" unicode="\" 
d="M382 -199l-300 1000l122 -1l300 -1000z" />
    <glyph glyph-name="bracketright" unicode="]" 
d="M104 -200v105h187v783h-187v112h341v-1000h-341z" />
    <glyph glyph-name="asciicircum" unicode="^" 
d="M405 200l-113 391l-113 -391h-135l172 600h154l171 -600h-136z" />
    <glyph glyph-name="underscore" unicode="_" 
d="M75 -200v131h435v-131h-435z" />
    <glyph glyph-name="grave" unicode="`" 
d="M325 378l-189 422h216l70 -422h-97z" />
    <glyph glyph-name="a" unicode="a" 
d="M250 91c14.667 0 28.667 4 42 12s25.666 20.333 36.999 37v107h-84c-17.333 0 -29.666 -5.5 -36.999 -16.5s-11 -31.833 -11 -62.5c0 -24.667 4.16699 -43.667 12.5 -57s21.833 -20 40.5 -20zM208 -10c-44 0 -79.835 16.001 -107.502 48.001s-41.5 73.667 -41.5 125
c0 54 14.833 95.833 44.5 125.5s68.834 44.5 117.501 44.5h108v88c0 28 -5.33301 48.167 -16 60.5s-27 18.5 -49 18.5c-21.333 0 -37 -6.83301 -47 -20.5s-17.667 -38.5 -23 -74.5l-123 25c10.667 62.667 31.834 108.334 63.501 137.001s76.834 43 135.501 43
c66 0 116.5 -14 151.5 -42s52.5 -74.333 52.5 -139v-259c0 -29.333 5.66699 -47.833 17 -55.5s27.666 -8.83398 48.999 -3.50098v-110c-42.667 -10 -76.834 -8.16699 -102.501 5.5s-43.5 39.167 -53.5 76.5h-22c-14.667 -26.667 -35.667 -48.834 -63 -66.501
s-57.666 -26.5 -90.999 -26.5z" />
    <glyph glyph-name="b" unicode="b" 
d="M288 -8c-42 0 -83.001 5.99902 -123.001 17.999s-70.333 26.333 -91 43v747h153v-284h23c8.66699 30.667 23.834 54 45.501 70s49.167 24 82.5 24c44.667 0 78 -18 100 -54s33 -83 33 -141v-216c0 -67.333 -18.833 -118.666 -56.5 -153.999s-93.167 -53 -166.5 -53z
M295.999 102.999c23.333 0 39.501 7.16797 48.501 21.501s13.5 39.5 13.5 75.5v197c0 34 -4.33301 58.167 -13 72.5s-21.334 21.5 -38.001 21.5c-14.667 0 -28.667 -4.66699 -42 -14s-26 -25 -38 -47v-306c8.66699 -6.66699 18.5 -11.834 29.5 -15.501
s24.167 -5.5 39.5 -5.5z" />
    <glyph glyph-name="c" unicode="c" 
d="M299 -10c-72 0 -127.501 18.498 -166.501 55.498s-58.5 88.833 -58.5 155.5v197c0 67.333 19.333 119.5 58 156.5s94 55.5 166 55.5c65.333 0 115.333 -17.5 150 -52.5s56 -89.167 64 -162.5l-148 -10c-2.66699 44 -9.16699 73.667 -19.5 89s-27.166 23 -50.499 23
c-24 0 -41.167 -7.5 -51.5 -22.5s-15.5 -42.5 -15.5 -82.5v-186c0 -39.333 5.16699 -66.5 15.5 -81.5s27.833 -22.5 52.5 -22.5c24 0 41 6.33301 51 19s16 37.334 18 74.001l148 -10c-3.33301 -67.333 -22.333 -116.666 -57 -147.999s-86.667 -47 -156 -47z" />
    <glyph glyph-name="d" unicode="d" 
d="M278 110c16.667 0 31.499 4.83105 44.499 14.498s24.833 24.834 35.5 45.501v296c-13.333 11.333 -25.5 19.5 -36.5 24.5s-22.167 7.5 -33.5 7.5c-22 0 -37.667 -7.5 -47 -22.5s-14 -40.167 -14 -75.5v-197c0 -31.333 4.33301 -54.666 13 -69.999s21.334 -23 38.001 -23z
M335.999 83.998c-7.33301 -26.667 -21.1689 -49 -41.502 -67s-47.166 -27 -80.499 -27c-46.667 0 -81.667 18.167 -105 54.5s-35 83.166 -35 140.499v216c0 64.667 16.5 115.334 49.5 152.001s78.5 55 136.5 55c17.333 0 34.333 -2.16699 51 -6.5
s32.334 -10.833 47.001 -19.5v218h153v-800h-153v84h-22z" />
    <glyph glyph-name="e" unicode="e" 
d="M515 136c-13.333 -52 -36.168 -89.333 -68.501 -112s-80.5 -34 -144.5 -34c-70 0 -125.5 18.333 -166.5 55s-61.5 88 -61.5 154v207c0 64 19.833 114 59.5 150s92.834 54 159.501 54c67.333 0 120.5 -18.5 159.5 -55.5s58.5 -90.167 58.5 -159.5v-124h-284v-79
c0 -33.333 6 -58.166 18 -74.499s32.667 -24.5 62 -24.5c24 0 42.667 5.66699 56 17s22.333 31.666 27 60.999zM226.998 415l0.000976562 -57h131v54c0 36 -4.83301 61.333 -14.5 76s-26.5 22 -50.5 22c-24.667 0 -41.834 -7 -51.501 -21s-14.5 -38.667 -14.5 -74z" />
    <glyph glyph-name="f" unicode="f" 
d="M194 0l0.000976562 488.001h-120v112h120v36c0 58 18.333 103.667 55 137s84.667 50 144 50c22 0 43.667 -2.33301 65 -7s41.333 -11.334 60 -20.001l-15 -102c-18.667 8 -35.167 13.5 -49.5 16.5s-27.833 4.5 -40.5 4.5c-20.667 0 -36.834 -6.66699 -48.501 -20
s-17.5 -35.333 -17.5 -66v-29h164v-112h-164v-488h-153z" />
    <glyph glyph-name="g" unicode="g" 
d="M534 -39c0 -54 -15.8311 -96.0039 -47.498 -126.004s-74.5 -45 -128.5 -45h-128c-60.667 0 -105.5 12.667 -134.5 38s-43.5 60.666 -43.5 105.999c0 32.667 8.16699 58.834 24.5 78.501s35.833 31.167 58.5 34.5v20c-18.667 6 -34.334 16.667 -47.001 32s-19 39 -19 71
c0 32.667 10 60.334 30 83.001s44.333 36.334 73 41.001v18c-26.667 10 -47 25.333 -61 46s-21 43.334 -21 68.001v16c0 48 17.5 86.333 52.5 115s80.833 43 137.5 43h254v-99l-124 21v-19c18.667 -6.66699 34.167 -19.834 46.5 -39.501s18.5 -40.5 18.5 -62.5v-17
c0 -47.333 -17.833 -84.666 -53.5 -111.999s-81.167 -41 -136.5 -41h-52c-16.667 0 -29.834 -4.16699 -39.501 -12.5s-14.5 -22.166 -14.5 -41.499c0 -18.667 4.66699 -32.5 14 -41.5s22.333 -13.5 39 -13.5h131c52 0 93.5 -12.833 124.5 -38.5s46.5 -66.5 46.5 -122.5z
M282.002 312.996c19.333 0 33.168 6.66699 41.501 20s12.5 33 12.5 59v39c0 25.333 -4.33301 44.333 -13 57s-22.334 19 -41.001 19c-19.333 0 -33.333 -6.33301 -42 -19s-13 -31.667 -13 -57v-39c0 -26 4 -45.667 12 -59s22.333 -20 43 -20zM252.004 -117.004h101.999
c16.667 0 30.334 4.5 41.001 13.5s16 26.167 16 51.5c0 24.667 -5.16699 41.5 -15.5 50.5s-23.5 13.5 -39.5 13.5h-160v-59c0 -22.667 3.66699 -40 11 -52s22.333 -18 45 -18z" />
    <glyph glyph-name="h" unicode="h" 
d="M74 0l0.000976562 800h153v-284h23c8.66699 28.667 24.667 51.5 48 68.5s50.666 25.5 81.999 25.5c40.667 0 72.667 -15.5 96 -46.5s35 -73.5 35 -127.5v-436h-153v410c0 26 -4.33301 46 -13 60s-21 21 -37 21c-16.667 0 -32 -5.83301 -46 -17.5
s-25.667 -28.167 -35 -49.5v-424h-153z" />
    <glyph glyph-name="i" unicode="i" 
d="M82 0v112h134v376h-134v112h288v-488h134v-112h-422zM301 701c-28.667 0 -52.167 4.66699 -70.5 14s-27.5 26.333 -27.5 51v11c0 24.667 9.16699 42.167 27.5 52.5s41.833 15.5 70.5 15.5c29.333 0 53 -5.16699 71 -15.5s27 -27.833 27 -52.5v-11
c0 -24.667 -9.16699 -41.667 -27.5 -51s-41.833 -14 -70.5 -14z" />
    <glyph glyph-name="j" unicode="j" 
d="M208 -209c-24 0 -48.001 1.5 -72.001 4.5s-47 8.83301 -69 17.5l15 109c20 -8 38.833 -13.333 56.5 -16s33.834 -4 48.501 -4c30.667 0 54.334 8.33301 71.001 25s25 44.667 25 84v477h-185v112h338v-604c0 -63.333 -21.333 -113.333 -64 -150s-97.334 -55 -164.001 -55z
M351.999 701c-28.667 0 -52.167 4.66699 -70.5 14s-27.5 26.333 -27.5 51v11c0 24.667 9.16699 42.167 27.5 52.5s41.833 15.5 70.5 15.5c29.333 0 53 -5.16699 71 -15.5s27 -27.833 27 -52.5v-11c0 -24.667 -9.16699 -41.667 -27.5 -51s-41.833 -14 -70.5 -14z" />
    <glyph glyph-name="k" unicode="k" 
d="M234 260v-260h-154v800h154v-435h27l113 235h157l-146 -275l144 -325h-163l-105 260h-27z" />
    <glyph glyph-name="l" unicode="l" 
d="M89 0v112h143v576h-143v112h296v-688h135v-112h-431z" />
    <glyph glyph-name="m" unicode="m" 
d="M170 445l-0.00390625 -445.001h-123v600h122v-77h24c7.33301 28.667 17.833 50 31.5 64s30.834 21 51.501 21c18.667 0 33.834 -6.5 45.501 -19.5s19.834 -34.833 24.501 -65.5h21c8 28.667 19.167 50 33.5 64s32.5 21 54.5 21c28.667 0 49.834 -11.667 63.501 -35
s20.5 -58.666 20.5 -105.999v-467h-124v448c0 20 -1.5 35 -4.5 45s-8.16699 15 -15.5 15c-8.66699 0 -17 -5.83301 -25 -17.5s-14.667 -26.834 -20 -45.501v-445h-114v448c0 20 -1.5 35 -4.5 45s-8.83301 15 -17.5 15s-16.5 -5.66699 -23.5 -17
s-13.833 -26.666 -20.5 -45.999z" />
    <glyph glyph-name="n" unicode="n" 
d="M74 0v600.001h153v-84h23c10.667 29.333 27.667 52.333 51 69s50 25 80 25c40.667 0 72.5 -15.333 95.5 -46s34.5 -73.334 34.5 -128.001v-436h-153v409c0 26.667 -4.33301 47 -13 61s-21 21 -37 21c-16.667 0 -32 -5.83301 -46 -17.5s-25.667 -28.5 -35 -50.5v-423h-153
z" />
    <glyph glyph-name="o" unicode="o" 
d="M294 -10c-68 0 -121.5 18.5 -160.5 55.5s-58.5 87.5 -58.5 151.5v202c0 66 19.5 117.667 58.5 155s92.5 56 160.5 56c67.333 0 120.5 -19 159.5 -57s58.5 -90 58.5 -156v-202c0 -64 -19.5 -114.167 -58.5 -150.5s-92.167 -54.5 -159.5 -54.5zM294 102
c22.667 0 39.167 7.50098 49.5 22.501s15.5 40.5 15.5 76.5v194c0 36.667 -5.16699 63 -15.5 79s-26.833 24 -49.5 24s-39.334 -8 -50.001 -24s-16 -42 -16 -78v-192c0 -36.667 5.33301 -62.834 16 -78.501s27.334 -23.5 50.001 -23.5z" />
    <glyph glyph-name="p" unicode="p" 
d="M297 102c22 0 37.667 7.66602 47 22.999s14 40.333 14 75v212c0 28 -4.5 48.167 -13.5 60.5s-21.5 18.5 -37.5 18.5c-14 0 -28 -4.83301 -42 -14.5s-26.667 -25.167 -38 -46.5v-295c13.333 -11.333 25.5 -19.666 36.5 -24.999s22.167 -8 33.5 -8zM326 -8.00098
c-18 0 -35.3301 2.16699 -51.9971 6.5s-32.334 10.833 -47.001 19.5v-218h-153v800h153v-84h23c7.33301 30 22.166 53.167 44.499 69.5s50.166 24.5 83.499 24.5c42.667 0 75.5 -15.667 98.5 -47s34.5 -76 34.5 -134v-230c0 -64 -16.5 -114.5 -49.5 -151.5
s-78.167 -55.5 -135.5 -55.5z" />
    <glyph glyph-name="q" unicode="q" 
d="M358 -200v284.001h-22c-8.66699 -28.667 -24.667 -51.5 -48 -68.5s-50.333 -25.5 -81 -25.5c-40.667 0 -73 17.5 -97 52.5s-36 82.5 -36 142.5v216c0 67.333 19.167 118.666 57.5 153.999s93.5 53 165.5 53c36 0 73.833 -4.83301 113.5 -14.5s73.167 -24.167 100.5 -43.5
v-750h-153zM278 110.001c14 0 28 4.66895 42 14.002s26.667 24.666 38 45.999v306c-8.66699 6.66699 -18.5 12 -29.5 16s-24.167 6 -39.5 6c-22.667 0 -38.667 -7.66699 -48 -23s-14 -40.333 -14 -75v-191c0 -34.667 4.5 -59.834 13.5 -75.501s21.5 -23.5 37.5 -23.5z" />
    <glyph glyph-name="r" unicode="r" 
d="M88 0v599.999h153v-101h23c10.667 38.667 28 66.834 52 84.501s52.333 26.5 85 26.5c39.333 0 68.833 -14.5 88.5 -43.5s29.5 -70.167 29.5 -123.5v-102h-137v56c0 34.667 -3.83301 59 -11.5 73s-21.5 21 -41.5 21c-16.667 0 -33 -6.5 -49 -19.5s-29 -33.5 -39 -61.5
v-410h-153z" />
    <glyph glyph-name="s" unicode="s" 
d="M280 -8c-41.333 0 -80.666 6.33496 -117.999 19.002s-68.666 27.667 -93.999 45l34 97c26.667 -15.333 56.167 -28.833 88.5 -40.5s62.166 -17.5 89.499 -17.5c28 0 49 5.33301 63 16s21 26.667 21 48c0 23.333 -6.5 40.166 -19.5 50.499s-42.5 23.166 -88.5 38.499
c-65.333 22 -110.5 46.667 -135.5 74s-37.5 65 -37.5 113c0 52 18.667 94.167 56 126.5s87.666 48.5 150.999 48.5c39.333 0 75.833 -5.66699 109.5 -17s62.5 -25.666 86.5 -42.999l-26 -94c-24.667 14 -50.834 26 -78.501 36s-53.167 15 -76.5 15
c-22 0 -39.167 -4.66699 -51.5 -14s-18.5 -24.333 -18.5 -45s7.83301 -36.334 23.5 -47.001s51.167 -25.667 106.5 -45c56.667 -20 96.167 -43.5 118.5 -70.5s33.5 -64.833 33.5 -113.5c0 -52 -20.667 -95 -62 -129s-99.666 -51 -174.999 -51z" />
    <glyph glyph-name="t" unicode="t" 
d="M377 -10c-62 0 -110.502 17.833 -145.502 53.5s-52.5 84.5 -52.5 146.5v298h-105v112h105v200h153v-200h163v-112h-163v-290c0 -29.333 6 -52.166 18 -68.499s29.667 -24.5 53 -24.5c16.667 0 32.667 2.33301 48 7s27.333 9 36 13l15 -111
c-11.333 -6.66699 -28.666 -12.334 -51.999 -17.001s-47.666 -7 -72.999 -7z" />
    <glyph glyph-name="u" unicode="u" 
d="M198 -10c-38 0 -68.1689 15.6689 -90.502 47.002s-33.5 73.666 -33.5 126.999v436h153v-400c0 -30.667 3.83301 -53.334 11.5 -68.001s19.167 -22 34.5 -22c16.667 0 31.834 6.16699 45.501 18.5s26.834 31.5 39.501 57.5v414h153v-600h-153v84h-22
c-8.66699 -28.667 -25.667 -51.5 -51 -68.5s-54.333 -25.5 -87 -25.5z" />
    <glyph glyph-name="v" unicode="v" 
d="M394 0h-203l-129 600h144l90 -461l89 461h137z" />
    <glyph glyph-name="w" unicode="w" 
d="M351 0l-58 314l-56 -314h-132l-69 600h129l35 -395l48 291h86l53 -289l33 393h129l-68 -600h-130z" />
    <glyph glyph-name="x" unicode="x" 
d="M374 0l-88 174l-80 -174h-151l163 306l-149 294h151l77 -150l66 150h151l-147 -286l161 -314h-154z" />
    <glyph glyph-name="y" unicode="y" 
d="M177 -209c-17.333 0 -36.1689 1 -56.502 3s-41.833 4.66699 -64.5 8l8 112c18.667 -4.66699 35.834 -8.16699 51.501 -10.5s29.834 -3.5 42.501 -3.5c32 0 56.5 8.5 73.5 25.5s29.167 43.5 36.5 79.5l3 13h-104l-120 582h154l93 -470l95 470h149l-135 -607
c-16 -70 -42.5 -121.167 -79.5 -153.5s-85.833 -48.5 -146.5 -48.5z" />
    <glyph glyph-name="z" unicode="z" 
d="M505 0h-424v112l261 376h-261v112h424v-112l-247 -376h247v-112z" />
    <glyph glyph-name="braceleft" unicode="{" 
d="M482 -210c-135.333 -2 -232.165 10.1631 -290.498 36.4961s-87.5 69.5 -87.5 129.5c0 32.667 5 60 15 82s21 40.667 33 56c17.333 22.667 29.833 40.667 37.5 54s11.5 28.333 11.5 45c0 28 -11.833 47.667 -35.5 59s-69.167 18.333 -136.5 21v78
c67.333 2.66699 112.833 9.66699 136.5 21s35.5 31.333 35.5 60c0 14.667 -3.83301 27.667 -11.5 39s-19.834 26.333 -36.501 45c-12 12.667 -23.167 28.667 -33.5 48s-15.5 45.333 -15.5 78c0 60.667 29.167 104.334 87.5 131.001s155.166 39 290.499 37v-112
c-83.333 2 -141.666 -2.66699 -174.999 -14s-50 -32.333 -50 -63c0 -18.667 5 -34.5 15 -47.5s21 -25.833 33 -38.5c12.667 -13.333 24.167 -27.666 34.5 -42.999s15.5 -34.666 15.5 -57.999c0 -41.333 -16.833 -71.166 -50.5 -89.499s-91.167 -28.833 -172.5 -31.5v-5
c81.333 -6 138.833 -19 172.5 -39s50.5 -51 50.5 -93c0 -23.333 -5.5 -42.333 -16.5 -57s-22.833 -28.667 -35.5 -42c-11.333 -12 -21.833 -25.167 -31.5 -39.5s-14.5 -32.833 -14.5 -55.5c0 -32.667 16.667 -55 50 -67s91.666 -17 174.999 -15v-110z" />
    <glyph glyph-name="bar" unicode="|" 
d="M231 -200v1000h123v-1000h-123z" />
    <glyph glyph-name="braceright" unicode="}" 
d="M482 -44c0 -60 -29.166 -103.163 -87.499 -129.496s-155.166 -38.5 -290.499 -36.5v110c83.333 -2 141.666 3 174.999 15s50 34.333 50 67c0 22.667 -4.83301 41.167 -14.5 55.5s-20.167 27.5 -31.5 39.5c-12.667 13.333 -24.5 27.333 -35.5 42s-16.5 33.667 -16.5 57
c0 42 16.833 73 50.5 93s91.167 33 172.5 39v5c-81.333 2.66699 -138.833 13.167 -172.5 31.5s-50.5 48.166 -50.5 89.499c0 23.333 5.16699 42.666 15.5 57.999s21.833 29.666 34.5 42.999c12 12.667 23 25.5 33 38.5s15 28.833 15 47.5c0 30.667 -16.667 51.667 -50 63
s-91.666 16 -174.999 14v112c135.333 2 232.166 -10.333 290.499 -37s87.5 -70.334 87.5 -131.001c0 -32.667 -5.16699 -58.667 -15.5 -78s-21.5 -35.333 -33.5 -48c-16.667 -18.667 -28.834 -33.667 -36.501 -45s-11.5 -24.333 -11.5 -39
c0 -28.667 11.833 -48.667 35.5 -60s69.167 -18.333 136.5 -21v-78c-67.333 -2.66699 -112.833 -9.66699 -136.5 -21s-35.5 -31 -35.5 -59c0 -16.667 3.83301 -31.667 11.5 -45s20.167 -31.333 37.5 -54c12 -15.333 23 -34 33 -56s15 -49.333 15 -82z" />
    <glyph glyph-name="asciitilde" unicode="~" 
d="M386 220c-26.667 0 -50.333 9.49902 -71 28.499s-39.667 49.5 -57 91.5l-35.5 88c-9 22 -19.5 33 -31.5 33c-10.667 0 -18.667 -8.16699 -24 -24.5s-8 -44.5 -8 -84.5v-124h-92v130c0 70 11.667 124.5 35 163.5s53 58.5 89 58.5c26.667 0 50.5 -9.5 71.5 -28.5
s39.833 -49.167 56.5 -90.5l36 -89c9.33301 -22 19.666 -33 30.999 -33c10.667 0 18.834 7.33301 24.501 22s8.5 38.334 8.5 71.001v131h91v-138c0 -64 -11.667 -114.167 -35 -150.5s-53 -54.5 -89 -54.5z" />
    <glyph glyph-name="exclamdown" unicode="&#xa1;" 
d="M293 810c36.667 0 64.501 -6.83301 83.501 -20.5s28.5 -34.834 28.5 -63.501v-28c0 -29.333 -9.5 -51 -28.5 -65s-46.833 -21 -83.5 -21s-64.334 7 -83.001 21s-28 35.667 -28 65v28c0 28.667 9.5 49.834 28.5 63.501s46.5 20.5 82.5 20.5zM367.001 500l22 -500h-183
l23 500h138z" />
    <glyph glyph-name="cent" unicode="&#xa2;" 
d="M212 319c0 -36 3.5 -63.001 10.5 -81.001s18.833 -30 35.5 -36v396c-16.667 -5.33301 -28.5 -17.166 -35.5 -35.499s-10.5 -45.5 -10.5 -81.5v-162zM247 -50.001l0.000976562 142.999c-58 8.66699 -102.667 32.834 -134 72.501s-47 93.5 -47 161.5v150
c0 67.333 16.167 120.333 48.5 159s76.5 62.334 132.5 71.001v143h91v-142c55.333 -7.33301 96.5 -29.333 123.5 -66s43.833 -87.334 50.5 -152.001l-140 -11c-2 34.667 -6.33301 60.834 -13 78.501s-17.334 29.5 -32.001 35.5v-388
c14.667 4.66699 25.334 15.167 32.001 31.5s11 41.166 13 74.499l140 -11c-2.66699 -63.333 -16.334 -112.333 -41.001 -147s-69 -55 -133 -61v-142h-91z" />
    <glyph glyph-name="sterling" unicode="&#xa3;" 
d="M541 243c-4 -82 -20.1689 -144.669 -48.502 -188.002s-66.5 -65 -114.5 -65c-19.333 0 -38.666 4.83301 -57.999 14.5s-40 21.167 -62 34.5c-18.667 12.667 -36.334 21 -53.001 25s-32.667 -0.333008 -48 -13l-69 -60l-61 94l80 56c16.667 14.667 31.834 37 45.501 67
s20.5 59.333 20.5 88c0 14.667 -1.16699 28.334 -3.5 41.001s-5.5 24.334 -9.5 35.001h-108v94h67c-6.66699 15.333 -12 32.333 -16 51s-6 39.334 -6 62.001c0 69.333 17.833 125.166 53.5 167.499s86.167 63.5 151.5 63.5c75.333 0 129.333 -20.833 162 -62.5
s51.334 -103.167 56.001 -184.5l-138 -10c-2.66699 46 -8.5 79.833 -17.5 101.5s-27.5 32.5 -55.5 32.5c-20 0 -34.667 -10.167 -44 -30.5s-14 -46.833 -14 -79.5c0 -20.667 1.33301 -40.167 4 -58.5s6 -35.833 10 -52.5h109v-94h-90c0.666992 -10 1.66699 -20.667 3 -32
s2 -23.333 2 -36c0 -26.667 -6.5 -52.167 -19.5 -76.5s-31.833 -45.833 -56.5 -64.5l15 -26c13.333 5.33301 25.166 8 35.499 8s20.166 -2 29.499 -6c8.66699 -4 16.834 -8.16699 24.501 -12.5s16.834 -6.5 27.501 -6.5c20.667 0 35 10.167 43 30.5s13.333 54.5 16 102.5z
" />
    <glyph glyph-name="currency" unicode="&#xa4;" 
d="M293 206c16.667 0 29.334 8.66699 38.001 26s13 46 13 86v174c0 34.667 -4.33301 60.334 -13 77.001s-21.334 25 -38.001 25c-17.333 0 -30.166 -8.33301 -38.499 -25s-12.5 -42.334 -12.5 -77.001v-174c0 -40 4.16699 -68.667 12.5 -86s21.166 -26 38.499 -26zM293 90
c-25.333 0 -48.668 3.66602 -70.001 10.999s-39.666 18.333 -54.999 33l-68 -87l-63 72l80 103c-4 13.333 -7.16699 28 -9.5 44s-3.5 33.333 -3.5 52v174c0 16.667 1 32.334 3 47.001s4.66699 28.334 8 41.001l-78 101l63 72l66 -87c16.667 14.667 35.667 25.667 57 33
s44.666 11 69.999 11c26 0 49.667 -3.83301 71 -11.5s40.333 -18.834 57 -33.501l64 83l63 -72l-77 -99c2.66699 -12.667 5 -26 7 -40s3 -29 3 -45v-174c0 -14.667 -0.666992 -29 -2 -43s-3.33301 -27 -6 -39l75 -112l-63 -72l-66 84c-16 -15.333 -34.667 -26.833 -56 -34.5
s-44.666 -11.5 -69.999 -11.5z" />
    <glyph glyph-name="yen" unicode="&#xa5;" 
d="M520 100h-150v-100h-153v100h-150v94h150v106h-150v94h109l-178 406h161l139 -389l138 389h151l-177 -406h110v-94h-150v-106h150v-94z" />
    <glyph glyph-name="brokenbar" unicode="&#xa6;" 
d="M231 400v400h123v-400h-123zM231 -200v400h123v-400h-123z" />
    <glyph glyph-name="section" unicode="&#xa7;" 
d="M285 215c5.33301 -0.666992 10.668 -1.83301 16.001 -3.5s10.666 -3.16699 15.999 -4.5c28 1.33301 50.333 8.66602 67 21.999s25 33.333 25 60c0 24.667 -7.5 43.5 -22.5 56.5s-42.5 25.167 -82.5 36.5l-16 4l-16 4c-28 -1.33301 -50.333 -8.66602 -67 -21.999
s-25 -33.333 -25 -60c0 -24.667 7.5 -43.5 22.5 -56.5s42.5 -25.167 82.5 -36.5zM306.002 -206.999c-50 0 -98.833 8.49902 -146.5 25.499s-86.5 39.833 -116.5 68.5l37 107c33.333 -28 69 -49.167 107 -63.5s79 -21.5 123 -21.5c28 0 52.333 5.83301 73 17.5
s31 31.5 31 59.5c0 26 -9.83301 46.667 -29.5 62s-55.834 30.333 -108.501 45c-91.333 20 -155.666 44.667 -192.999 74s-56 68 -56 116c0 40.667 11.167 73 33.5 97s50.833 41.667 85.5 53c-38 18.667 -67.333 42.167 -88 70.5s-31 63.833 -31 106.5
c0 60.667 22.667 108.167 68 142.5s108 51.5 188 51.5c50 0 98 -8.5 144 -25.5s85.667 -39.833 119 -68.5l-45 -103c-35.333 26.667 -70.5 46.834 -105.5 60.501s-73.833 20.5 -116.5 20.5c-37.333 0 -64 -7 -80 -21s-24 -33.667 -24 -59c0 -26 12.667 -46.833 38 -62.5
s72 -31.167 140 -46.5c76.667 -18.667 130.667 -42.667 162 -72s47 -69.333 47 -120c0 -38 -9.83301 -69.167 -29.5 -93.5s-45.5 -42.833 -77.5 -55.5c34 -18.667 60.333 -41.667 79 -69s28 -61.333 28 -102c0 -60.667 -22.667 -108.167 -68 -142.5s-108 -51.5 -188 -51.5z
" />
    <glyph glyph-name="dieresis" unicode="&#xa8;" 
d="M195 701c-22 0 -39.833 4.66699 -53.5 14s-20.5 26.333 -20.5 51v11c0 24.667 6.83301 42.167 20.5 52.5s31.5 15.5 53.5 15.5c22.667 0 40.667 -5.16699 54 -15.5s20 -27.833 20 -52.5v-11c0 -24.667 -7 -41.667 -21 -51s-31.667 -14 -53 -14zM391 701
c-22 0 -39.833 4.66699 -53.5 14s-20.5 26.333 -20.5 51v11c0 24.667 6.83301 42.167 20.5 52.5s31.5 15.5 53.5 15.5c22.667 0 40.667 -5.16699 54 -15.5s20 -27.833 20 -52.5v-11c0 -24.667 -7 -41.667 -21 -51s-31.667 -14 -53 -14z" />
    <glyph glyph-name="copyright" unicode="&#xa9;" 
d="M293 -110c-85.333 0 -148 30.5 -188 91.5s-60 152.833 -60 275.5v222c0 124 20 216.833 60 278.5s102.667 92.5 188 92.5c84.667 0 147 -30.833 187 -92.5s60 -154.5 60 -278.5v-222c0 -122.667 -20 -214.5 -60 -275.5s-102.333 -91.5 -187 -91.5zM293 -58
c70.667 0 120.334 27.167 149.001 81.5s43 138.833 43 253.5v182c0 114.667 -14.333 199.834 -43 255.501s-78.334 83.5 -149.001 83.5s-120.334 -27.833 -149.001 -83.5s-43 -140.834 -43 -255.501v-182c0 -114.667 14.333 -199.167 43 -253.5s78.334 -81.5 149.001 -81.5z
M300 87c-50.667 0 -87.835 15.999 -111.502 47.999s-35.5 81 -35.5 147v179c0 64.667 11.833 112.834 35.5 144.501s60.834 47.5 111.501 47.5c44 0 76.5 -15.667 97.5 -47s33.167 -80 36.5 -146l-101 -6c-2 42 -5.66699 70.167 -11 84.5s-14.333 21.5 -27 21.5
c-12 0 -20.833 -7.83301 -26.5 -23.5s-8.5 -41.5 -8.5 -77.5v-178c0 -36 2.83301 -61.833 8.5 -77.5s14.834 -23.5 27.501 -23.5s21.5 6.33301 26.5 19s8.5 38.667 10.5 78l101 -6c-3.33301 -64 -15.5 -110.667 -36.5 -140s-53.5 -44 -97.5 -44z" />
    <glyph glyph-name="ordfeminine" unicode="&#xaa;" 
d="M246 391c14.667 0 29.667 3.66699 45 11s29 19.333 41 36v70h-88c-14.667 0 -25.667 -4.16699 -33 -12.5s-11 -24.166 -11 -47.499c0 -18.667 3.66699 -32.834 11 -42.501s19 -14.5 35 -14.5zM218 304c-40.667 0 -74.334 12.8311 -101.001 38.498s-40 58.5 -40 98.5
c0 46 14 81.167 42 105.5s66.333 36.5 115 36.5h98v52c0 28 -5 48.833 -15 62.5s-25 20.5 -45 20.5c-18.667 0 -33 -4.83301 -43 -14.5s-18.333 -30.5 -25 -62.5l-118 22c9.33301 50.667 28.833 87.834 58.5 111.501s73.834 35.5 132.501 35.5c60 0 106 -13.167 138 -39.5
s48 -69.5 48 -129.5v-176c0 -26 5.66699 -43.167 17 -51.5s31.333 -10.166 60 -5.49902v-95c-43.333 -8 -77.5 -6 -102.5 6s-41.833 35 -50.5 69h-19c-12.667 -24 -32.667 -44 -60 -60s-57.333 -24 -90 -24z" />
    <glyph glyph-name="guillemotleft" unicode="&#xab;" 
d="M537 64l-226 214v144l226 213v-130l-164 -155l164 -155v-131zM274 64l-227 214v144l227 213v-130l-165 -155l165 -155v-131z" />
    <glyph glyph-name="logicalnot" unicode="&#xac;" 
d="M389 0v287h-314v126h435v-413h-121z" />
    <glyph glyph-name="registered" unicode="&#xae;" 
d="M293 129c-77.333 0 -134.333 23.5 -171 70.5s-55 116.167 -55 207.5v173c0 92.667 18.333 162.5 55 209.5s93.667 70.5 171 70.5s134.333 -23.5 171 -70.5s55 -116.833 55 -209.5v-173c0 -91.333 -18.333 -160.5 -55 -207.5s-93.667 -70.5 -171 -70.5zM293 173
c64.667 0.666992 110.334 20.167 137.001 58.5s40 98.5 40 180.5v162c0 82.667 -13.333 143.834 -40 183.501s-72.334 59.167 -137.001 58.5c-65.333 0.666992 -111.333 -18.833 -138 -58.5s-40 -100.834 -40 -183.501v-162c0 -82 13.333 -142.167 40 -180.5
s72.667 -57.833 138 -58.5zM272 504h24c8.66699 0 16.834 2.5 24.501 7.5s11.5 16.833 11.5 35.5v29c0 18 -3.83301 30.167 -11.5 36.5s-15.834 9.5 -24.501 9.5h-24v-118zM272 305h-102v385h139c40.667 0 71.667 -10.167 93 -30.5s32 -49.5 32 -87.5v-29
c0 -21.333 -4.66699 -39.833 -14 -55.5s-23.333 -27.167 -42 -34.5l68 -148h-107l-52 135h-15v-135z" />
    <glyph glyph-name="macron" unicode="&#x2c9;" 
d="M123 742v116h340v-116h-340z" />
    <glyph glyph-name="macron" unicode="&#xaf;" 
d="M123 742v116h340v-116h-340z" />
    <glyph glyph-name="degree" unicode="&#xb0;" 
d="M293 333c-52 0 -93.834 14.667 -125.501 44s-47.5 74.333 -47.5 135v112c0 61.333 15.833 107 47.5 137s73.5 45 125.5 45c52.667 0 94.834 -15 126.501 -45s47.5 -75.667 47.5 -137v-112c0 -60.667 -16 -105.667 -48 -135s-74 -44 -126 -44zM292.999 437
c18 0 31.667 6.33203 41 18.999s14 34.334 14 65.001v94c0 29.333 -4.66699 51 -14 65s-23 21 -41 21c-18.667 0 -32.5 -7 -41.5 -21s-13.5 -35.667 -13.5 -65v-94c0 -30 4.5 -51.5 13.5 -64.5s22.833 -19.5 41.5 -19.5z" />
    <glyph glyph-name="plusminus" unicode="&#xb1;" 
d="M232 136v251h-157v126h157v251h122v-251h156v-126h-156v-251h-122zM75 0v126h435v-126h-435z" />
    <glyph glyph-name="two.sups" unicode="&#xb2;" 
d="M118 304l0.00292969 111c0 36.667 7 67.5 21 92.5s36.333 41.833 67 50.5l91 25c17.333 4.66699 29.833 11.667 37.5 21s11.5 24.333 11.5 45v13c0 22 -4 37.667 -12 47s-22.333 14 -43 14s-34.334 -5.33301 -41.001 -16s-10.667 -31.667 -12 -63l-116 7
c2.66699 53.333 17.667 92.5 45 117.5s68.666 37.5 123.999 37.5c58 0 101 -12.5 129 -37.5s42 -60.5 42 -106.5v-27c0 -36.667 -7.83301 -66 -23.5 -88s-36.834 -36.333 -63.501 -43l-91 -25c-20 -4.66699 -33.5 -11.167 -40.5 -19.5s-10.5 -22.833 -10.5 -43.5v-23h233
v-89h-348z" />
    <glyph glyph-name="three.sups" unicode="&#xb3;" 
d="M296 298c-60 0 -104.834 12.334 -134.501 37.001s-45.834 62 -48.501 112l116 6c2 -26 8.16699 -43.833 18.5 -53.5s26.5 -14.5 48.5 -14.5c18.667 0 32.334 4.83301 41.001 14.5s13 24.5 13 44.5v16c0 20.667 -4.66699 35.667 -14 45s-23.333 14 -42 14h-88v88h88
c16.667 0 28.667 3.16699 36 9.5s11 18.833 11 37.5v14c0 19.333 -4.16699 32.666 -12.5 39.999s-22.166 11 -41.499 11s-32 -4 -38 -12s-9.66699 -22.333 -11 -43l-116 6c2.66699 46 17.5 80.167 44.5 102.5s67.167 33.5 120.5 33.5c57.333 0 99.833 -10.167 127.5 -30.5
s41.5 -51.5 41.5 -93.5v-13c0 -28 -6.5 -50 -19.5 -66s-32.833 -25.333 -59.5 -28v-18c26 -2.66699 47.333 -13 64 -31s25 -43 25 -75v-11c0 -48 -14 -83.667 -42 -107s-70.667 -35 -128 -35z" />
    <glyph glyph-name="acute" unicode="&#xb4;" 
d="M192 700l78 200h191l-170 -200h-99z" />
    <glyph glyph-name="mu1" unicode="&#xb5;" 
d="M235 20l7 -219.998h-168l8 220v580h153v-405c0 -30 4 -51.5 12 -64.5s17.667 -19.5 29 -19.5c12.667 0 23.834 4 33.501 12s18.5 20 26.5 36v441h154v-432c0 -28.667 3.33301 -46.5 10 -53.5s17.667 -8.16699 33 -3.5v-110c-37.333 -9.33301 -66.833 -7.83301 -88.5 4.5
s-36.5 36.166 -44.5 71.499h-23c-10.667 -28.667 -23 -49.834 -37 -63.501s-30.333 -20.5 -49 -20.5c-10.667 0 -20.834 2.83301 -30.501 8.5s-18.167 14.167 -25.5 25.5v-7z" />
    <glyph glyph-name="paragraph" unicode="&#xb6;" 
d="M405 340h-75.001v-540h-153v540c-55.333 0 -97.833 17 -127.5 51s-44.5 82.667 -44.5 146v52c0 67.333 14.833 119.333 44.5 156s71.834 55 126.501 55h382v-1000h-153v540z" />
    <glyph glyph-name="periodcentered" unicode="&#x2219;" 
d="M293 270c-34 0 -61.5 8.5 -82.5 25.5s-31.5 42.167 -31.5 75.5v55c0 34 10.5 59.667 31.5 77s48.5 26 82.5 26s61.333 -8.66699 82 -26s31 -43 31 -77v-55c0 -33.333 -10.667 -58.5 -32 -75.5s-48.333 -25.5 -81 -25.5z" />
    <glyph glyph-name="periodcentered" unicode="&#xb7;" 
d="M293 270c-34 0 -61.5 8.5 -82.5 25.5s-31.5 42.167 -31.5 75.5v55c0 34 10.5 59.667 31.5 77s48.5 26 82.5 26s61.333 -8.66699 82 -26s31 -43 31 -77v-55c0 -33.333 -10.667 -58.5 -32 -75.5s-48.333 -25.5 -81 -25.5z" />
    <glyph glyph-name="cedilla" unicode="&#xb8;" 
d="M270 0l14.999 41.999c50.667 -6.66699 88 -20.667 112 -42s36 -51.333 36 -90c0 -42 -14.833 -74.167 -44.5 -96.5s-69.5 -33.5 -119.5 -33.5c-52 0 -92.667 9.83301 -122 29.5s-45 49.5 -47 89.5l128 10c0.666992 -12.667 3.66699 -21.5 9 -26.5s14 -7.5 26 -7.5
c13.333 0 23.333 3.83301 30 11.5s10 22.834 10 45.501c0 20.667 -2.16699 36 -6.5 46s-13.166 17.333 -26.499 22z" />
    <glyph glyph-name="one.sups" unicode="&#xb9;" 
d="M155 304v88.998h102v297h-15c-4 -27.333 -15 -49.166 -33 -65.499s-37.667 -25.166 -59 -26.499l-4 88c26.667 3.33301 50 15.333 70 36s34.333 46.667 43 78h114v-407h93v-89h-311z" />
    <glyph glyph-name="ordmasculine" unicode="&#xba;" 
d="M293 304c-60 0 -107.167 16.5 -141.5 49.5s-51.5 78.5 -51.5 136.5v131c0 58.667 17.167 104.834 51.5 138.501s81.833 50.5 142.5 50.5c59.333 0 106 -16.833 140 -50.5s51 -79.834 51 -138.501v-131c0 -58 -17 -103.5 -51 -136.5s-81 -49.5 -141 -49.5zM293 400
c23.333 0 39.5 7.5 48.5 22.5s13.5 39.5 13.5 73.5v123c0 32 -4.5 55.833 -13.5 71.5s-25.167 23.5 -48.5 23.5c-24 0 -40.5 -8 -49.5 -24s-13.5 -40 -13.5 -72v-122c0 -34 4.5 -58.5 13.5 -73.5s25.5 -22.5 49.5 -22.5z" />
    <glyph glyph-name="guillemotright" unicode="&#xbb;" 
d="M47 64v131l164 155l-164 155v130l226 -213v-144zM310 64v131l165 155l-165 155v130l227 -213v-144z" />
    <glyph glyph-name="onequarter" unicode="&#xbc;" 
d="M142 411l0.000976562 79.999h102v206h-15c-2 -13.333 -6 -25.666 -12 -36.999s-13 -21 -21 -29c-8.66699 -8 -18 -14.167 -28 -18.5s-20.333 -6.83301 -31 -7.5l-4 88c11.333 1.33301 22.666 4.66602 33.999 9.99902s22.333 13 33 23c10 10 19 21.833 27 35.5
s14.333 28.834 19 45.501h114v-316h93v-80h-311zM30.001 247.999v113l239 -20v-73zM327.001 267.999v73l228 20v-113zM482.001 -113.001h-70v-97h-115v97h-191v83l170 246h136v-246h70v-83zM195.001 -30.001h102v148z" />
    <glyph glyph-name="onehalf" unicode="&#xbd;" 
d="M142 411v80.001h102v206h-15c-2 -13.333 -6 -25.666 -12 -36.999s-13 -21 -21 -29c-8.66699 -8 -18 -14.167 -28 -18.5s-20.333 -6.83301 -31 -7.5l-4 88c10.667 1.33301 21.667 4.66602 33 9.99902s22 12.666 32 21.999c10.667 9.33301 20.167 20.833 28.5 34.5
s14.833 29.5 19.5 47.5h114v-316h93v-80h-311zM30 248.001v113l239 -20v-73zM327 268.001v73l228 20v-113zM118 -209.999l-0.000976562 89.999c0 16.667 1.66699 31.834 5 45.501s8.66602 25.834 15.999 36.501c6.66699 10.667 15.667 20 27 28s24.666 14 39.999 18l91 25
c9.33301 2.66699 17 5.33398 23 8.00098s11 5.66699 15 9s6.83301 7.33301 8.5 12s2.5 10.667 2.5 18v12c0 7.33301 -1.5 13.666 -4.5 18.999s-7.16699 9.66602 -12.5 12.999c-5.33301 2.66699 -11.166 4.83398 -17.499 6.50098s-13.166 2.5 -20.499 2.5
c-6.66699 0 -13 -1 -19 -3s-11.333 -5 -16 -9c-4.66699 -4.66699 -8.66699 -10.834 -12 -18.501s-5.33301 -17.167 -6 -28.5l-116 7c1.33301 22 5.5 41.167 12.5 57.5s17.167 29.833 30.5 40.5c13.333 11.333 30.5 19.666 51.5 24.999s45.833 8 74.5 8
c29.333 0 54.666 -2.66699 75.999 -8s39 -13 53 -23s24.5 -22.5 31.5 -37.5s10.5 -32.167 10.5 -51.5v-27c0 -15.333 -2.16699 -28.833 -6.5 -40.5s-10.166 -21.834 -17.499 -30.501c-8 -8.66699 -17.167 -16 -27.5 -22s-22.166 -10.667 -35.499 -14l-91 -25
c-11.333 -3.33301 -20 -6.16602 -26 -8.49902s-11 -5.16602 -15 -8.49902c-3.33301 -4 -5.83301 -8.83301 -7.5 -14.5s-2.5 -13.167 -2.5 -22.5h233v-89h-348z" />
    <glyph glyph-name="threequarters" unicode="&#xbe;" 
d="M296 404c-28.667 0 -54.166 2.66699 -76.499 8s-41.166 13.333 -56.499 24s-27.333 24.167 -36 40.5s-13.334 35.166 -14.001 56.499l116 6c1.33301 -11.333 3.33301 -20.5 6 -27.5s6.66699 -12.5 12 -16.5c5.33301 -4.66699 12 -7.83398 20 -9.50098
s17.667 -2.5 29 -2.5c9.33301 0 17.5 0.666992 24.5 2s12.5 3.66602 16.5 6.99902c4.66699 2.66699 8 6.33398 10 11.001s3 10.334 3 17.001v16c0 6.66699 -1.16699 12.5 -3.5 17.5s-5.83301 8.83301 -10.5 11.5c-5.33301 3.33301 -11.666 5.66602 -18.999 6.99902
s-16 2 -26 2h-85v79h85c9.33301 0 17 0.666992 23 2s11 3.33301 15 6s7 6.33398 9 11.001s3 10.667 3 18v14c0 6 -1 11 -3 15s-5 7 -9 9c-4.66699 2 -10.334 3.5 -17.001 4.5s-15 1.5 -25 1.5c-9.33301 0 -17 -0.666992 -23 -2s-10.667 -3.66602 -14 -6.99902
c-3.33301 -2.66699 -5.83301 -6.5 -7.5 -11.5s-3.16699 -11.5 -4.5 -19.5l-116 6c2 20.667 7.16699 38.167 15.5 52.5s19.5 25.833 33.5 34.5c14.667 8.66699 31.5 15 50.5 19s40.833 6 65.5 6c26 0 49.167 -1.5 69.5 -4.5s37.833 -8.16699 52.5 -15.5
c15.333 -6.66699 27 -16.167 35 -28.5s12 -27.5 12 -45.5v-13c0 -11.333 -1.83301 -21.666 -5.5 -30.999s-8.5 -17.333 -14.5 -24s-12.833 -12 -20.5 -16s-15.834 -7 -24.501 -9v-18c8 -1.33301 16.333 -4 25 -8s17 -9.33301 25 -16
c7.33301 -6.66699 13.333 -14.834 18 -24.501s7 -20.167 7 -31.5v-11c0 -20.667 -4.16699 -38.167 -12.5 -52.5s-20.166 -25.833 -35.499 -34.5c-14.667 -8.66699 -32.334 -15 -53.001 -19s-43.667 -6 -69 -6zM30.001 248v113l239 -20v-73zM327.001 268v73l228 20v-113z
M489.001 -113h-70v-97h-115v97h-191v83l170 246h136v-246h70v-83zM202.001 -30h102v148z" />
    <glyph glyph-name="questiondown" unicode="&#xbf;" 
d="M325 810c36 0 63.668 -6.83301 83.001 -20.5s29 -34.834 29 -63.501v-28c0 -29.333 -9.66699 -51 -29 -65s-47 -21 -83 -21c-36.667 0 -64.334 7 -83.001 21s-28 35.667 -28 65v28c0 28.667 9.5 49.834 28.5 63.501s46.5 20.5 82.5 20.5zM387.001 509l14.998 -103.001
c-87.333 -18.667 -145.5 -39.667 -174.5 -63s-43.5 -55 -43.5 -95v-26c0 -40 7.83301 -70 23.5 -90s42.5 -30 80.5 -30c38.667 0 65.834 10.5 81.501 31.5s25.5 60.167 29.5 117.5l153 -10c-4 -89.333 -27.5 -153.5 -70.5 -192.5s-107.167 -58.5 -192.5 -58.5
c-79.333 0 -142.166 20.833 -188.499 62.5s-69.5 94.834 -69.5 159.501v40c0 72 26.333 127.167 79 165.5s145 68.833 277 91.5z" />
    <glyph glyph-name="Agrave" unicode="&#xc0;" 
d="M354 324l-58 352l-63 -352h121zM406 0l-34 208h-160l-38 -208h-137l162 800h188l162 -800h-143zM277 900l-170 200h191l79 -200h-100z" />
    <glyph glyph-name="Aacute" unicode="&#xc1;" 
d="M354 324l-58 352l-63 -352h121zM406 0l-34 208h-160l-38 -208h-137l162 800h188l162 -800h-143zM191 900l78 200h191l-170 -200h-99z" />
    <glyph glyph-name="Acircumflex" unicode="&#xc2;" 
d="M354 324l-58 352l-63 -352h121zM406 0l-34 208h-160l-38 -208h-137l162 800h188l162 -800h-143zM142 898l-50 70l141 153h117l142 -153l-49 -69l-152 108z" />
    <glyph glyph-name="Atilde" unicode="&#xc3;" 
d="M354 324l-58 352l-63 -352h121zM406 0l-34 208h-160l-38 -208h-137l162 800h188l162 -800h-143zM364 910c-21.333 0 -38.834 4.66602 -52.501 13.999s-25.834 22.333 -36.501 39c-8 12.667 -15.167 24.5 -21.5 35.5s-14.166 16.5 -23.499 16.5s-17 -5.5 -23 -16.5
s-8.66699 -29.833 -8 -56.5v-22h-98v15c0 56 11.167 100.667 33.5 134s52.833 50 91.5 50c19.333 0 35.333 -4.66699 48 -14s24.667 -22.333 36 -39l23 -36.5c6.66699 -11 14.334 -16.5 23.001 -16.5c10 0 17.5 5.5 22.5 16.5s7.5 30.167 7.5 57.5v21h97v-15
c0 -55.333 -10.667 -99.666 -32 -132.999s-50.333 -50 -87 -50z" />
    <glyph glyph-name="Adieresis" unicode="&#xc4;" 
d="M354 324l-58 352l-63 -352h121zM406 0l-34 208h-160l-38 -208h-137l162 800h188l162 -800h-143zM194 901c-22 0 -39.833 4.66699 -53.5 14s-20.5 26.333 -20.5 51v11c0 24.667 6.83301 42.167 20.5 52.5s31.5 15.5 53.5 15.5c22.667 0 40.667 -5.16699 54 -15.5
s20 -27.833 20 -52.5v-11c0 -24.667 -7 -41.667 -21 -51s-31.667 -14 -53 -14zM390 901c-22 0 -39.833 4.66699 -53.5 14s-20.5 26.333 -20.5 51v11c0 24.667 6.83301 42.167 20.5 52.5s31.5 15.5 53.5 15.5c22.667 0 40.667 -5.16699 54 -15.5s20 -27.833 20 -52.5v-11
c0 -24.667 -7 -41.667 -21 -51s-31.667 -14 -53 -14z" />
    <glyph glyph-name="Aring" unicode="&#xc5;" 
d="M354 324l-58 352l-63 -352h121zM406 0l-34 208h-160l-38 -208h-137l162 800h188l162 -800h-143zM292 881c-48 0 -86.667 12.167 -116 36.5s-44 61.833 -44 112.5v32c0 51.333 14.667 89.5 44 114.5s68 37.5 116 37.5s86.667 -12.5 116 -37.5s44 -63.167 44 -114.5v-32
c0 -50.667 -14.667 -88.167 -44 -112.5s-68 -36.5 -116 -36.5zM292 960c17.333 0 30.666 5.33301 39.999 16s14 28.667 14 54v32c0 24.667 -4.66699 43 -14 55s-22.666 18 -39.999 18c-18 0 -31.5 -6 -40.5 -18s-13.5 -30.333 -13.5 -55v-32c0 -25.333 4.5 -43.333 13.5 -54
s22.5 -16 40.5 -16z" />
    <glyph glyph-name="AE" unicode="&#xc6;" 
d="M262 694l-64 -380h79v380h-15zM277 208h-96l-36 -208h-107l151 800h351v-106h-133v-211h117v-106h-117v-271h133v-106h-263v208z" />
    <glyph glyph-name="Ccedilla" unicode="&#xc7;" 
d="M308 -10c-79.333 0 -139.335 23.332 -180.002 69.999s-61 115.667 -61 207v262c0 93.333 20.333 163.5 61 210.5s100.667 70.5 180 70.5c77.333 0 134.5 -22.333 171.5 -67s57.5 -115.667 61.5 -213l-153 -10c-2.66699 69.333 -9.66699 115.666 -21 138.999
s-31.666 35 -60.999 35c-32.667 0 -55.167 -12.667 -67.5 -38s-18.5 -70.666 -18.5 -135.999v-245c0 -60 6.16699 -103.167 18.5 -129.5s34.833 -39.5 67.5 -39.5c29.333 0 49.666 11.5 60.999 34.5s18.333 68.167 21 135.5l153 -10
c-3.33301 -95.333 -23.666 -165.166 -60.999 -209.499s-94.666 -66.5 -171.999 -66.5zM280.998 -0.000976562l14.999 41.999c50.667 -6.66699 88 -20.667 112 -42s36 -51.333 36 -90c0 -42 -14.833 -74.167 -44.5 -96.5s-69.5 -33.5 -119.5 -33.5
c-52 0 -92.667 9.83301 -122 29.5s-45 49.5 -47 89.5l128 10c0.666992 -12.667 3.66699 -21.5 9 -26.5s14 -7.5 26 -7.5c13.333 0 23.333 3.83301 30 11.5s10 22.834 10 45.501c0 20.667 -2.16699 36 -6.5 46s-13.166 17.333 -26.499 22z" />
    <glyph glyph-name="Egrave" unicode="&#xc8;" 
d="M66 0v800h453v-116h-299v-195h261v-117h-261v-256h299v-116h-453zM301 900l-170 200h191l79 -200h-100z" />
    <glyph glyph-name="Eacute" unicode="&#xc9;" 
d="M66 0v800h453v-116h-299v-195h261v-117h-261v-256h299v-116h-453zM214 899l78 200h191l-170 -200h-99z" />
    <glyph glyph-name="Ecircumflex" unicode="&#xca;" 
d="M66 0v800h453v-116h-299v-195h261v-117h-261v-256h299v-116h-453zM150 898l-50 70l141 153h117l142 -153l-49 -69l-152 108z" />
    <glyph glyph-name="Edieresis" unicode="&#xcb;" 
d="M66 0v800h453v-116h-299v-195h261v-117h-261v-256h299v-116h-453zM207 901c-22 0 -39.833 4.66699 -53.5 14s-20.5 26.333 -20.5 51v11c0 24.667 6.83301 42.167 20.5 52.5s31.5 15.5 53.5 15.5c22.667 0 40.667 -5.16699 54 -15.5s20 -27.833 20 -52.5v-11
c0 -24.667 -7 -41.667 -21 -51s-31.667 -14 -53 -14zM403 901c-22 0 -39.833 4.66699 -53.5 14s-20.5 26.333 -20.5 51v11c0 24.667 6.83301 42.167 20.5 52.5s31.5 15.5 53.5 15.5c22.667 0 40.667 -5.16699 54 -15.5s20 -27.833 20 -52.5v-11
c0 -24.667 -7 -41.667 -21 -51s-31.667 -14 -53 -14z" />
    <glyph glyph-name="Igrave" unicode="&#xcc;" 
d="M66 0v116h150v568h-150v116h454v-116h-150v-568h150v-116h-454zM278 900l-170 200h191l79 -200h-100z" />
    <glyph glyph-name="Iacute" unicode="&#xcd;" 
d="M66 0v116h150v568h-150v116h454v-116h-150v-568h150v-116h-454zM192 900l78 200h191l-170 -200h-99z" />
    <glyph glyph-name="Icircumflex" unicode="&#xce;" 
d="M66 0v116h150v568h-150v116h454v-116h-150v-568h150v-116h-454zM143 898l-50 70l141 153h117l142 -153l-49 -69l-152 108z" />
    <glyph glyph-name="Idieresis" unicode="&#xcf;" 
d="M66 0v116h150v568h-150v116h454v-116h-150v-568h150v-116h-454zM195 901c-22 0 -39.833 4.66699 -53.5 14s-20.5 26.333 -20.5 51v11c0 24.667 6.83301 42.167 20.5 52.5s31.5 15.5 53.5 15.5c22.667 0 40.667 -5.16699 54 -15.5s20 -27.833 20 -52.5v-11
c0 -24.667 -7 -41.667 -21 -51s-31.667 -14 -53 -14zM391 901c-22 0 -39.833 4.66699 -53.5 14s-20.5 26.333 -20.5 51v11c0 24.667 6.83301 42.167 20.5 52.5s31.5 15.5 53.5 15.5c22.667 0 40.667 -5.16699 54 -15.5s20 -27.833 20 -52.5v-11
c0 -24.667 -7 -41.667 -21 -51s-31.667 -14 -53 -14z" />
    <glyph glyph-name="Eth" unicode="&#xd0;" 
d="M66 0l-0.000976562 389.001h-50v103h50v308h228c70 0 125 -25.833 165 -77.5s60 -120.834 60 -207.501v-234c0 -85.333 -20.167 -153.5 -60.5 -204.5s-95.166 -76.5 -164.499 -76.5h-228zM219.999 116.001l58 0.000976562c32 0 54.667 12.667 68 38s20 70.666 20 135.999
v216c0 66.667 -6.66699 113 -20 139s-36 39 -68 39h-58v-192h73v-103h-73v-273z" />
    <glyph glyph-name="Ntilde" unicode="&#xd1;" 
d="M342 0l-146 595v-595h-130v800h165l158 -603v603h131v-800h-178zM364 910c-21.333 0 -38.834 4.66602 -52.501 13.999s-25.834 22.333 -36.501 39c-8 12.667 -15.167 24.5 -21.5 35.5s-14.166 16.5 -23.499 16.5s-17 -5.5 -23 -16.5s-8.66699 -29.833 -8 -56.5v-22h-98
v15c0 56 11.167 100.667 33.5 134s52.833 50 91.5 50c19.333 0 35.333 -4.66699 48 -14s24.667 -22.333 36 -39l23 -36.5c6.66699 -11 14.334 -16.5 23.001 -16.5c10 0 17.5 5.5 22.5 16.5s7.5 30.167 7.5 57.5v21h97v-15c0 -55.333 -10.667 -99.666 -32 -132.999
s-50.333 -50 -87 -50z" />
    <glyph glyph-name="Ograve" unicode="&#xd2;" 
d="M293 -10c-72.667 0 -128.5 23.667 -167.5 71s-58.5 113 -58.5 197v280c0 85.333 19.667 152 59 200s95 72 167 72c72.667 0 128.5 -24 167.5 -72s58.5 -114.667 58.5 -200v-280c0 -84 -19.5 -149.667 -58.5 -197s-94.833 -71 -167.5 -71zM293 106
c28 0 47.167 11.333 57.5 34s15.5 65 15.5 127v262c0 64 -5.16699 107.5 -15.5 130.5s-29.5 34.5 -57.5 34.5s-47.167 -11.5 -57.5 -34.5s-15.5 -66.5 -15.5 -130.5v-262c0 -62 5.16699 -104.333 15.5 -127s29.5 -34 57.5 -34zM278 900l-170 200h191l79 -200h-100z" />
    <glyph glyph-name="Oacute" unicode="&#xd3;" 
d="M293 -10c-72.667 0 -128.5 23.667 -167.5 71s-58.5 113 -58.5 197v280c0 85.333 19.667 152 59 200s95 72 167 72c72.667 0 128.5 -24 167.5 -72s58.5 -114.667 58.5 -200v-280c0 -84 -19.5 -149.667 -58.5 -197s-94.833 -71 -167.5 -71zM293 106
c28 0 47.167 11.333 57.5 34s15.5 65 15.5 127v262c0 64 -5.16699 107.5 -15.5 130.5s-29.5 34.5 -57.5 34.5s-47.167 -11.5 -57.5 -34.5s-15.5 -66.5 -15.5 -130.5v-262c0 -62 5.16699 -104.333 15.5 -127s29.5 -34 57.5 -34zM214 900l78 200h191l-170 -200h-99z" />
    <glyph glyph-name="Ocircumflex" unicode="&#xd4;" 
d="M293 -10c-72.667 0 -128.5 23.667 -167.5 71s-58.5 113 -58.5 197v280c0 85.333 19.667 152 59 200s95 72 167 72c72.667 0 128.5 -24 167.5 -72s58.5 -114.667 58.5 -200v-280c0 -84 -19.5 -149.667 -58.5 -197s-94.833 -71 -167.5 -71zM293 106
c28 0 47.167 11.333 57.5 34s15.5 65 15.5 127v262c0 64 -5.16699 107.5 -15.5 130.5s-29.5 34.5 -57.5 34.5s-47.167 -11.5 -57.5 -34.5s-15.5 -66.5 -15.5 -130.5v-262c0 -62 5.16699 -104.333 15.5 -127s29.5 -34 57.5 -34zM143 898l-50 70l141 153h117l142 -153l-49 -69
l-152 108z" />
    <glyph glyph-name="Otilde" unicode="&#xd5;" 
d="M293 -10c-72.667 0 -128.5 23.667 -167.5 71s-58.5 113 -58.5 197v280c0 85.333 19.667 152 59 200s95 72 167 72c72.667 0 128.5 -24 167.5 -72s58.5 -114.667 58.5 -200v-280c0 -84 -19.5 -149.667 -58.5 -197s-94.833 -71 -167.5 -71zM293 106
c28 0 47.167 11.333 57.5 34s15.5 65 15.5 127v262c0 64 -5.16699 107.5 -15.5 130.5s-29.5 34.5 -57.5 34.5s-47.167 -11.5 -57.5 -34.5s-15.5 -66.5 -15.5 -130.5v-262c0 -62 5.16699 -104.333 15.5 -127s29.5 -34 57.5 -34zM365 910
c-21.333 0 -38.834 4.66602 -52.501 13.999s-25.834 22.333 -36.501 39c-8 12.667 -15.167 24.5 -21.5 35.5s-14.166 16.5 -23.499 16.5s-17 -5.5 -23 -16.5s-8.66699 -29.833 -8 -56.5v-22h-98v15c0 56 11.167 100.667 33.5 134s52.833 50 91.5 50
c19.333 0 35.333 -4.66699 48 -14s24.667 -22.333 36 -39l23 -36.5c6.66699 -11 14.334 -16.5 23.001 -16.5c10 0 17.5 5.5 22.5 16.5s7.5 30.167 7.5 57.5v21h97v-15c0 -55.333 -10.667 -99.666 -32 -132.999s-50.333 -50 -87 -50z" />
    <glyph glyph-name="Odieresis" unicode="&#xd6;" 
d="M293 -10c-72.667 0 -128.5 23.667 -167.5 71s-58.5 113 -58.5 197v280c0 85.333 19.667 152 59 200s95 72 167 72c72.667 0 128.5 -24 167.5 -72s58.5 -114.667 58.5 -200v-280c0 -84 -19.5 -149.667 -58.5 -197s-94.833 -71 -167.5 -71zM293 106
c28 0 47.167 11.333 57.5 34s15.5 65 15.5 127v262c0 64 -5.16699 107.5 -15.5 130.5s-29.5 34.5 -57.5 34.5s-47.167 -11.5 -57.5 -34.5s-15.5 -66.5 -15.5 -130.5v-262c0 -62 5.16699 -104.333 15.5 -127s29.5 -34 57.5 -34zM195 901c-22 0 -39.833 4.66699 -53.5 14
s-20.5 26.333 -20.5 51v11c0 24.667 6.83301 42.167 20.5 52.5s31.5 15.5 53.5 15.5c22.667 0 40.667 -5.16699 54 -15.5s20 -27.833 20 -52.5v-11c0 -24.667 -7 -41.667 -21 -51s-31.667 -14 -53 -14zM391 901c-22 0 -39.833 4.66699 -53.5 14s-20.5 26.333 -20.5 51v11
c0 24.667 6.83301 42.167 20.5 52.5s31.5 15.5 53.5 15.5c22.667 0 40.667 -5.16699 54 -15.5s20 -27.833 20 -52.5v-11c0 -24.667 -7 -41.667 -21 -51s-31.667 -14 -53 -14z" />
    <glyph glyph-name="multiply" unicode="&#xd7;" 
d="M164 43l-89 62l139 245l-135 239l85 69l129 -227l129 224l88 -64l-139 -241l139 -241l-88 -64l-129 224z" />
    <glyph glyph-name="Oslash" unicode="&#xd8;" 
d="M208 238l122.999 447.999c-5.33301 2.66699 -11 4.66699 -17 6s-13 2 -21 2c-33.333 0 -56.333 -12.5 -69 -37.5s-19 -70.167 -19 -135.5v-246c0 -7.33301 0.333008 -14.166 1 -20.499s1.33398 -11.833 2.00098 -16.5zM292.999 105.999c33.333 0 56.333 12.167 69 36.5
s19 68.5 19 132.5v213c0 9.33301 -0.333008 18 -1 26s-2 15.333 -4 22l-119 -423c4.66699 -2 10 -3.66699 16 -5s12.667 -2 20 -2zM292.999 -10.001c-11.333 0 -22.501 0.832031 -33.501 2.49902s-21.5 3.83398 -31.5 6.50098l-32 -99h-106l49 148
c-23.333 22.667 -41.166 52.667 -53.499 90s-18.5 80.333 -18.5 129v262c0 88 19.667 156.833 59 206.5s95 74.5 167 74.5c11.333 0 22.5 -0.666992 33.5 -2s21.5 -3.33301 31.5 -6l32 98h106l-47 -151c22.667 -23.333 40 -53.833 52 -91.5s18 -80.5 18 -128.5v-262
c0 -87.333 -19.667 -155.333 -59 -204s-95 -73 -167 -73z" />
    <glyph glyph-name="Ugrave" unicode="&#xd9;" 
d="M293 -10c-77.333 0 -134.5 23 -171.5 69s-55.5 116.667 -55.5 212v529h154v-531c0 -60 5.16699 -101.333 15.5 -124s29.5 -34 57.5 -34s47.167 11.333 57.5 34s15.5 64 15.5 124v531h154v-529c0 -95.333 -18.5 -166 -55.5 -212s-94.167 -69 -171.5 -69zM278 900l-170 200
h191l79 -200h-100z" />
    <glyph glyph-name="Uacute" unicode="&#xda;" 
d="M293 -10c-77.333 0 -134.5 23 -171.5 69s-55.5 116.667 -55.5 212v529h154v-531c0 -60 5.16699 -101.333 15.5 -124s29.5 -34 57.5 -34s47.167 11.333 57.5 34s15.5 64 15.5 124v531h154v-529c0 -95.333 -18.5 -166 -55.5 -212s-94.167 -69 -171.5 -69zM192 900l78 200
h191l-170 -200h-99z" />
    <glyph glyph-name="Ucircumflex" unicode="&#xdb;" 
d="M293 -10c-77.333 0 -134.5 23 -171.5 69s-55.5 116.667 -55.5 212v529h154v-531c0 -60 5.16699 -101.333 15.5 -124s29.5 -34 57.5 -34s47.167 11.333 57.5 34s15.5 64 15.5 124v531h154v-529c0 -95.333 -18.5 -166 -55.5 -212s-94.167 -69 -171.5 -69zM143 898l-50 70
l141 153h117l142 -153l-49 -69l-152 108z" />
    <glyph glyph-name="Udieresis" unicode="&#xdc;" 
d="M293 -10c-77.333 0 -134.5 23 -171.5 69s-55.5 116.667 -55.5 212v529h154v-531c0 -60 5.16699 -101.333 15.5 -124s29.5 -34 57.5 -34s47.167 11.333 57.5 34s15.5 64 15.5 124v531h154v-529c0 -95.333 -18.5 -166 -55.5 -212s-94.167 -69 -171.5 -69zM195 901
c-22 0 -39.833 4.66699 -53.5 14s-20.5 26.333 -20.5 51v11c0 24.667 6.83301 42.167 20.5 52.5s31.5 15.5 53.5 15.5c22.667 0 40.667 -5.16699 54 -15.5s20 -27.833 20 -52.5v-11c0 -24.667 -7 -41.667 -21 -51s-31.667 -14 -53 -14zM391 901
c-22 0 -39.833 4.66699 -53.5 14s-20.5 26.333 -20.5 51v11c0 24.667 6.83301 42.167 20.5 52.5s31.5 15.5 53.5 15.5c22.667 0 40.667 -5.16699 54 -15.5s20 -27.833 20 -52.5v-11c0 -24.667 -7 -41.667 -21 -51s-31.667 -14 -53 -14z" />
    <glyph glyph-name="Yacute" unicode="&#xdd;" 
d="M370 0h-154v300l-185 500h152l109 -339l110 339h152l-184 -500v-300zM192 900l78 200h191l-170 -200h-99z" />
    <glyph glyph-name="Thorn" unicode="&#xde;" 
d="M66 0v800h154v-126h81c70.667 0 124.667 -18 162 -54s56 -88.333 56 -157v-117c0 -67.333 -18.667 -119 -56 -155s-91 -54 -161 -54h-82v-137h-154zM220 252l56 0.000976562c34 0 57.333 7.66699 70 23s19 42.666 19 81.999v98c0 38.667 -6.33301 65.5 -19 80.5
s-36 22.5 -70 22.5h-56v-306z" />
    <glyph glyph-name="germandbls" unicode="&#xdf;" 
d="M377 -6c-26.667 0 -52.1641 5.66602 -76.4971 16.999s-44.833 26.333 -61.5 45l30 93c15.333 -14 30.666 -26.833 45.999 -38.5s30.333 -17.5 45 -17.5c15.333 0 26.333 5.5 33 16.5s10 28.167 10 51.5c0 20.667 -5.66699 37.334 -17 50.001s-29.333 26.334 -54 41.001
c-30.667 18 -52.834 38.667 -66.501 62s-20.5 55 -20.5 95c0 44 9.16699 80.5 27.5 109.5s42.833 47.833 73.5 56.5c-1.33301 44 -7.5 75.333 -18.5 94s-28.5 28 -52.5 28c-24.667 0 -42.5 -9.5 -53.5 -28.5s-16.5 -49.833 -16.5 -92.5v-576h-145v589
c0 75.333 20.667 130.666 62 165.999s90.666 53 147.999 53c68.667 0 121.5 -22.667 158.5 -68s55.5 -103.666 55.5 -174.999v-59c-36 -2.66699 -63.333 -11.167 -82 -25.5s-28 -33.5 -28 -57.5c0 -21.333 6 -38 18 -50s29 -25 51 -39
c30.667 -20.667 53.167 -42.834 67.5 -66.501s21.5 -54.5 21.5 -92.5c0 -57.333 -14 -101.833 -42 -133.5s-65.667 -47.5 -113 -47.5z" />
    <glyph glyph-name="agrave" unicode="&#xe0;" 
d="M250 91c14.667 0 28.667 4 42 12s25.666 20.333 36.999 37v107h-84c-17.333 0 -29.666 -5.5 -36.999 -16.5s-11 -31.833 -11 -62.5c0 -24.667 4.16699 -43.667 12.5 -57s21.833 -20 40.5 -20zM208 -10c-44 0 -79.835 16.001 -107.502 48.001s-41.5 73.667 -41.5 125
c0 54 14.833 95.833 44.5 125.5s68.834 44.5 117.501 44.5h108v88c0 28 -5.33301 48.167 -16 60.5s-27 18.5 -49 18.5c-21.333 0 -37 -6.83301 -47 -20.5s-17.667 -38.5 -23 -74.5l-123 25c10.667 62.667 31.834 108.334 63.501 137.001s76.834 43 135.501 43
c66 0 116.5 -14 151.5 -42s52.5 -74.333 52.5 -139v-259c0 -29.333 5.66699 -47.833 17 -55.5s27.666 -8.83398 48.999 -3.50098v-110c-42.667 -10 -76.834 -8.16699 -102.501 5.5s-43.5 39.167 -53.5 76.5h-22c-14.667 -26.667 -35.667 -48.834 -63 -66.501
s-57.666 -26.5 -90.999 -26.5zM269.998 700.001l-170 200h191l79 -200h-100z" />
    <glyph glyph-name="aacute" unicode="&#xe1;" 
d="M250 91c14.667 0 28.667 4 42 12s25.666 20.333 36.999 37v107h-84c-17.333 0 -29.666 -5.5 -36.999 -16.5s-11 -31.833 -11 -62.5c0 -24.667 4.16699 -43.667 12.5 -57s21.833 -20 40.5 -20zM208 -10c-44 0 -79.835 16.001 -107.502 48.001s-41.5 73.667 -41.5 125
c0 54 14.833 95.833 44.5 125.5s68.834 44.5 117.501 44.5h108v88c0 28 -5.33301 48.167 -16 60.5s-27 18.5 -49 18.5c-21.333 0 -37 -6.83301 -47 -20.5s-17.667 -38.5 -23 -74.5l-123 25c10.667 62.667 31.834 108.334 63.501 137.001s76.834 43 135.501 43
c66 0 116.5 -14 151.5 -42s52.5 -74.333 52.5 -139v-259c0 -29.333 5.66699 -47.833 17 -55.5s27.666 -8.83398 48.999 -3.50098v-110c-42.667 -10 -76.834 -8.16699 -102.501 5.5s-43.5 39.167 -53.5 76.5h-22c-14.667 -26.667 -35.667 -48.834 -63 -66.501
s-57.666 -26.5 -90.999 -26.5zM183.998 700.001l78 200h191l-170 -200h-99z" />
    <glyph glyph-name="acircumflex" unicode="&#xe2;" 
d="M250 91c14.667 0 28.667 4 42 12s25.666 20.333 36.999 37v107h-84c-17.333 0 -29.666 -5.5 -36.999 -16.5s-11 -31.833 -11 -62.5c0 -24.667 4.16699 -43.667 12.5 -57s21.833 -20 40.5 -20zM208 -10c-44 0 -79.835 16.001 -107.502 48.001s-41.5 73.667 -41.5 125
c0 54 14.833 95.833 44.5 125.5s68.834 44.5 117.501 44.5h108v88c0 28 -5.33301 48.167 -16 60.5s-27 18.5 -49 18.5c-21.333 0 -37 -6.83301 -47 -20.5s-17.667 -38.5 -23 -74.5l-123 25c10.667 62.667 31.834 108.334 63.501 137.001s76.834 43 135.501 43
c66 0 116.5 -14 151.5 -42s52.5 -74.333 52.5 -139v-259c0 -29.333 5.66699 -47.833 17 -55.5s27.666 -8.83398 48.999 -3.50098v-110c-42.667 -10 -76.834 -8.16699 -102.501 5.5s-43.5 39.167 -53.5 76.5h-22c-14.667 -26.667 -35.667 -48.834 -63 -66.501
s-57.666 -26.5 -90.999 -26.5zM134.998 698.001l-50 70l141 153h117l142 -153l-49 -69l-152 108z" />
    <glyph glyph-name="atilde" unicode="&#xe3;" 
d="M250 91c14.667 0 28.667 4 42 12s25.666 20.333 36.999 37v107h-84c-17.333 0 -29.666 -5.5 -36.999 -16.5s-11 -31.833 -11 -62.5c0 -24.667 4.16699 -43.667 12.5 -57s21.833 -20 40.5 -20zM208 -10c-44 0 -79.835 16.001 -107.502 48.001s-41.5 73.667 -41.5 125
c0 54 14.833 95.833 44.5 125.5s68.834 44.5 117.501 44.5h108v88c0 28 -5.33301 48.167 -16 60.5s-27 18.5 -49 18.5c-21.333 0 -37 -6.83301 -47 -20.5s-17.667 -38.5 -23 -74.5l-123 25c10.667 62.667 31.834 108.334 63.501 137.001s76.834 43 135.501 43
c66 0 116.5 -14 151.5 -42s52.5 -74.333 52.5 -139v-259c0 -29.333 5.66699 -47.833 17 -55.5s27.666 -8.83398 48.999 -3.50098v-110c-42.667 -10 -76.834 -8.16699 -102.501 5.5s-43.5 39.167 -53.5 76.5h-22c-14.667 -26.667 -35.667 -48.834 -63 -66.501
s-57.666 -26.5 -90.999 -26.5zM356.998 710.001c-21.333 0 -38.834 4.66602 -52.501 13.999s-25.834 22.333 -36.501 39c-8 12.667 -15.167 24.5 -21.5 35.5s-14.166 16.5 -23.499 16.5s-17 -5.5 -23 -16.5s-8.66699 -29.833 -8 -56.5v-22h-98v15
c0 56 11.167 100.667 33.5 134s52.833 50 91.5 50c19.333 0 35.333 -4.66699 48 -14s24.667 -22.333 36 -39l23 -36.5c6.66699 -11 14.334 -16.5 23.001 -16.5c10 0 17.5 5.5 22.5 16.5s7.5 30.167 7.5 57.5v21h97v-15c0 -55.333 -10.667 -99.666 -32 -132.999
s-50.333 -50 -87 -50z" />
    <glyph glyph-name="adieresis" unicode="&#xe4;" 
d="M250 91c14.667 0 28.667 4 42 12s25.666 20.333 36.999 37v107h-84c-17.333 0 -29.666 -5.5 -36.999 -16.5s-11 -31.833 -11 -62.5c0 -24.667 4.16699 -43.667 12.5 -57s21.833 -20 40.5 -20zM208 -10c-44 0 -79.835 16.001 -107.502 48.001s-41.5 73.667 -41.5 125
c0 54 14.833 95.833 44.5 125.5s68.834 44.5 117.501 44.5h108v88c0 28 -5.33301 48.167 -16 60.5s-27 18.5 -49 18.5c-21.333 0 -37 -6.83301 -47 -20.5s-17.667 -38.5 -23 -74.5l-123 25c10.667 62.667 31.834 108.334 63.501 137.001s76.834 43 135.501 43
c66 0 116.5 -14 151.5 -42s52.5 -74.333 52.5 -139v-259c0 -29.333 5.66699 -47.833 17 -55.5s27.666 -8.83398 48.999 -3.50098v-110c-42.667 -10 -76.834 -8.16699 -102.501 5.5s-43.5 39.167 -53.5 76.5h-22c-14.667 -26.667 -35.667 -48.834 -63 -66.501
s-57.666 -26.5 -90.999 -26.5zM186.998 701.001c-22 0 -39.833 4.66699 -53.5 14s-20.5 26.333 -20.5 51v11c0 24.667 6.83301 42.167 20.5 52.5s31.5 15.5 53.5 15.5c22.667 0 40.667 -5.16699 54 -15.5s20 -27.833 20 -52.5v-11c0 -24.667 -7 -41.667 -21 -51
s-31.667 -14 -53 -14zM382.998 701.001c-22 0 -39.833 4.66699 -53.5 14s-20.5 26.333 -20.5 51v11c0 24.667 6.83301 42.167 20.5 52.5s31.5 15.5 53.5 15.5c22.667 0 40.667 -5.16699 54 -15.5s20 -27.833 20 -52.5v-11c0 -24.667 -7 -41.667 -21 -51s-31.667 -14 -53 -14
z" />
    <glyph glyph-name="aring" unicode="&#xe5;" 
d="M250 91c14.667 0 28.667 4 42 12s25.666 20.333 36.999 37v107h-84c-17.333 0 -29.666 -5.5 -36.999 -16.5s-11 -31.833 -11 -62.5c0 -24.667 4.16699 -43.667 12.5 -57s21.833 -20 40.5 -20zM208 -10c-44 0 -79.835 16.001 -107.502 48.001s-41.5 73.667 -41.5 125
c0 54 14.833 95.833 44.5 125.5s68.834 44.5 117.501 44.5h108v88c0 28 -5.33301 48.167 -16 60.5s-27 18.5 -49 18.5c-21.333 0 -37 -6.83301 -47 -20.5s-17.667 -38.5 -23 -74.5l-123 25c10.667 62.667 31.834 108.334 63.501 137.001s76.834 43 135.501 43
c66 0 116.5 -14 151.5 -42s52.5 -74.333 52.5 -139v-259c0 -29.333 5.66699 -47.833 17 -55.5s27.666 -8.83398 48.999 -3.50098v-110c-42.667 -10 -76.834 -8.16699 -102.501 5.5s-43.5 39.167 -53.5 76.5h-22c-14.667 -26.667 -35.667 -48.834 -63 -66.501
s-57.666 -26.5 -90.999 -26.5zM277.998 681.001c-48 0 -86.667 12.167 -116 36.5s-44 61.833 -44 112.5v32c0 51.333 14.667 89.5 44 114.5s68 37.5 116 37.5s86.667 -12.5 116 -37.5s44 -63.167 44 -114.5v-32c0 -50.667 -14.667 -88.167 -44 -112.5s-68 -36.5 -116 -36.5z
M277.998 760.001c17.333 0 30.666 5.33301 39.999 16s14 28.667 14 54v32c0 24.667 -4.66699 43 -14 55s-22.666 18 -39.999 18c-18 0 -31.5 -6 -40.5 -18s-13.5 -30.333 -13.5 -55v-32c0 -25.333 4.5 -43.333 13.5 -54s22.5 -16 40.5 -16z" />
    <glyph glyph-name="ae" unicode="&#xe6;" 
d="M540 148c-11.333 -54 -29.502 -93.835 -54.502 -119.502s-54.5 -38.5 -88.5 -38.5c-24.667 0 -46 6.33301 -64 19s-32.333 31.667 -43 57h-25c-7.33301 -20.667 -19.833 -38.5 -37.5 -53.5s-39.5 -22.5 -65.5 -22.5c-32 0 -59.5 13.833 -82.5 41.5
s-34.5 70.167 -34.5 127.5c0 56.667 12.333 99.834 37 129.501s58.667 44.5 102 44.5h63v83c0 30.667 -2.83301 53.334 -8.5 68.001s-14.834 22 -27.501 22c-12 0 -20.833 -6 -26.5 -18s-12.5 -36 -20.5 -72l-108 25c10.667 59.333 27.334 102.333 50.001 129s53 40 91 40
c24.667 0 45.334 -5.5 62.001 -16.5s29.334 -27.833 38.001 -50.5c12.667 22.667 28.167 39.5 46.5 50.5s38.5 16.5 60.5 16.5c42.667 0 76 -17.167 100 -51.5s36 -84.5 36 -150.5v-137h-178v-111c0 -21.333 2.33301 -38.833 7 -52.5s13 -20.5 25 -20.5
c9.33301 0 17.5 5.66699 24.5 17s12.833 31 17.5 59zM361.998 421.998v-69.999h72v66c0 34 -2.66699 58.667 -8 74s-14.333 23 -27 23c-12 0 -21.167 -7.33301 -27.5 -22s-9.5 -38.334 -9.5 -71.001zM246.998 124.999l-0.00195312 127h-36
c-14.667 0 -25.667 -6.16699 -33 -18.5s-11 -34.166 -11 -65.499c0 -26.667 2.5 -47 7.5 -61s12.833 -21 23.5 -21c8.66699 0 17.334 3.16699 26.001 9.5s16.334 16.166 23.001 29.499z" />
    <glyph glyph-name="ccedilla" unicode="&#xe7;" 
d="M299 -10c-72 0 -127.501 18.498 -166.501 55.498s-58.5 88.833 -58.5 155.5v197c0 67.333 19.333 119.5 58 156.5s94 55.5 166 55.5c65.333 0 115.333 -17.5 150 -52.5s56 -89.167 64 -162.5l-148 -10c-2.66699 44 -9.16699 73.667 -19.5 89s-27.166 23 -50.499 23
c-24 0 -41.167 -7.5 -51.5 -22.5s-15.5 -42.5 -15.5 -82.5v-186c0 -39.333 5.16699 -66.5 15.5 -81.5s27.833 -22.5 52.5 -22.5c24 0 41 6.33301 51 19s16 37.334 18 74.001l148 -10c-3.33301 -67.333 -22.333 -116.666 -57 -147.999s-86.667 -47 -156 -47z
M305.999 -0.00195312l14.999 41.999c50.667 -6.66699 88 -20.667 112 -42s36 -51.333 36 -90c0 -42 -14.833 -74.167 -44.5 -96.5s-69.5 -33.5 -119.5 -33.5c-52 0 -92.667 9.83301 -122 29.5s-45 49.5 -47 89.5l128 10c0.666992 -12.667 3.66699 -21.5 9 -26.5
s14 -7.5 26 -7.5c13.333 0 23.333 3.83301 30 11.5s10 22.834 10 45.501c0 20.667 -2.16699 36 -6.5 46s-13.166 17.333 -26.499 22z" />
    <glyph glyph-name="egrave" unicode="&#xe8;" 
d="M515 136c-13.333 -52 -36.168 -89.333 -68.501 -112s-80.5 -34 -144.5 -34c-70 0 -125.5 18.333 -166.5 55s-61.5 88 -61.5 154v207c0 64 19.833 114 59.5 150s92.834 54 159.501 54c67.333 0 120.5 -18.5 159.5 -55.5s58.5 -90.167 58.5 -159.5v-124h-284v-79
c0 -33.333 6 -58.166 18 -74.499s32.667 -24.5 62 -24.5c24 0 42.667 5.66699 56 17s22.333 31.666 27 60.999zM226.998 415l0.000976562 -57h131v54c0 36 -4.83301 61.333 -14.5 76s-26.5 22 -50.5 22c-24.667 0 -41.834 -7 -51.501 -21s-14.5 -38.667 -14.5 -74z
M280.999 700l-170 200h191l79 -200h-100z" />
    <glyph glyph-name="eacute" unicode="&#xe9;" 
d="M515 136c-13.333 -52 -36.168 -89.333 -68.501 -112s-80.5 -34 -144.5 -34c-70 0 -125.5 18.333 -166.5 55s-61.5 88 -61.5 154v207c0 64 19.833 114 59.5 150s92.834 54 159.501 54c67.333 0 120.5 -18.5 159.5 -55.5s58.5 -90.167 58.5 -159.5v-124h-284v-79
c0 -33.333 6 -58.166 18 -74.499s32.667 -24.5 62 -24.5c24 0 42.667 5.66699 56 17s22.333 31.666 27 60.999zM226.998 415l0.000976562 -57h131v54c0 36 -4.83301 61.333 -14.5 76s-26.5 22 -50.5 22c-24.667 0 -41.834 -7 -51.501 -21s-14.5 -38.667 -14.5 -74z
M210.999 700l78 200h191l-170 -200h-99z" />
    <glyph glyph-name="ecircumflex" unicode="&#xea;" 
d="M515 136c-13.333 -52 -36.168 -89.333 -68.501 -112s-80.5 -34 -144.5 -34c-70 0 -125.5 18.333 -166.5 55s-61.5 88 -61.5 154v207c0 64 19.833 114 59.5 150s92.834 54 159.501 54c67.333 0 120.5 -18.5 159.5 -55.5s58.5 -90.167 58.5 -159.5v-124h-284v-79
c0 -33.333 6 -58.166 18 -74.499s32.667 -24.5 62 -24.5c24 0 42.667 5.66699 56 17s22.333 31.666 27 60.999zM226.998 415l0.000976562 -57h131v54c0 36 -4.83301 61.333 -14.5 76s-26.5 22 -50.5 22c-24.667 0 -41.834 -7 -51.501 -21s-14.5 -38.667 -14.5 -74z
M145.999 698l-50 70l141 153h117l142 -153l-49 -69l-152 108z" />
    <glyph glyph-name="edieresis" unicode="&#xeb;" 
d="M515 136c-13.333 -52 -36.168 -89.333 -68.501 -112s-80.5 -34 -144.5 -34c-70 0 -125.5 18.333 -166.5 55s-61.5 88 -61.5 154v207c0 64 19.833 114 59.5 150s92.834 54 159.501 54c67.333 0 120.5 -18.5 159.5 -55.5s58.5 -90.167 58.5 -159.5v-124h-284v-79
c0 -33.333 6 -58.166 18 -74.499s32.667 -24.5 62 -24.5c24 0 42.667 5.66699 56 17s22.333 31.666 27 60.999zM226.998 415l0.000976562 -57h131v54c0 36 -4.83301 61.333 -14.5 76s-26.5 22 -50.5 22c-24.667 0 -41.834 -7 -51.501 -21s-14.5 -38.667 -14.5 -74z
M197.999 701c-22 0 -39.833 4.66699 -53.5 14s-20.5 26.333 -20.5 51v11c0 24.667 6.83301 42.167 20.5 52.5s31.5 15.5 53.5 15.5c22.667 0 40.667 -5.16699 54 -15.5s20 -27.833 20 -52.5v-11c0 -24.667 -7 -41.667 -21 -51s-31.667 -14 -53 -14zM393.999 701
c-22 0 -39.833 4.66699 -53.5 14s-20.5 26.333 -20.5 51v11c0 24.667 6.83301 42.167 20.5 52.5s31.5 15.5 53.5 15.5c22.667 0 40.667 -5.16699 54 -15.5s20 -27.833 20 -52.5v-11c0 -24.667 -7 -41.667 -21 -51s-31.667 -14 -53 -14z" />
    <glyph glyph-name="igrave" unicode="&#xec;" 
d="M82 0v112h134v376h-134v112h288v-488h134v-112h-422zM294 700l-170 200h191l79 -200h-100z" />
    <glyph glyph-name="iacute" unicode="&#xed;" 
d="M82 0v112h134v376h-134v112h288v-488h134v-112h-422zM192 700l78 200h191l-170 -200h-99z" />
    <glyph glyph-name="icircumflex" unicode="&#xee;" 
d="M82 0v112h134v376h-134v112h288v-488h134v-112h-422zM143 698l-50 70l141 153h117l142 -153l-49 -69l-152 108z" />
    <glyph glyph-name="idieresis" unicode="&#xef;" 
d="M82 0v112h134v376h-134v112h288v-488h134v-112h-422zM195 701c-22 0 -39.833 4.66699 -53.5 14s-20.5 26.333 -20.5 51v11c0 24.667 6.83301 42.167 20.5 52.5s31.5 15.5 53.5 15.5c22.667 0 40.667 -5.16699 54 -15.5s20 -27.833 20 -52.5v-11
c0 -24.667 -7 -41.667 -21 -51s-31.667 -14 -53 -14zM391 701c-22 0 -39.833 4.66699 -53.5 14s-20.5 26.333 -20.5 51v11c0 24.667 6.83301 42.167 20.5 52.5s31.5 15.5 53.5 15.5c22.667 0 40.667 -5.16699 54 -15.5s20 -27.833 20 -52.5v-11
c0 -24.667 -7 -41.667 -21 -51s-31.667 -14 -53 -14z" />
    <glyph glyph-name="eth" unicode="&#xf0;" 
d="M293 -10c-67.333 0 -122.001 19.167 -164.001 57.5s-63 96.166 -63 173.499v70c0 64 15.833 114.833 47.5 152.5s72.834 56.5 123.501 56.5c31.333 0 57.166 -7.33301 77.499 -22s34.166 -32 41.499 -52h16c-3.33301 40 -10.666 75.167 -21.999 105.5
s-26.666 56.833 -45.999 79.5l-125 -75v88l64 39c-17.333 12.667 -36.666 24 -57.999 34s-44.333 19.667 -69 29l98 95c31.333 -10.667 60.166 -22.667 86.499 -36s49.833 -28.333 70.5 -45l108 64v-88l-51 -31c31.333 -37.333 54.5 -81.666 69.5 -132.999
s22.5 -111 22.5 -179v-146c0 -82 -21 -142 -63 -180s-96.667 -57 -164 -57zM292.999 102c26.667 0 45.5 9.33301 56.5 28s16.5 47 16.5 85v69c0 34 -5.5 59.667 -16.5 77s-29.833 26 -56.5 26s-45.334 -8.66699 -56.001 -26s-16 -43 -16 -77v-69
c0 -38 5.33301 -66.333 16 -85s29.334 -28 56.001 -28z" />
    <glyph glyph-name="ntilde" unicode="&#xf1;" 
d="M74 0v600.001h153v-84h23c10.667 29.333 27.667 52.333 51 69s50 25 80 25c40.667 0 72.5 -15.333 95.5 -46s34.5 -73.334 34.5 -128.001v-436h-153v409c0 26.667 -4.33301 47 -13 61s-21 21 -37 21c-16.667 0 -32 -5.83301 -46 -17.5s-25.667 -28.5 -35 -50.5v-423h-153
zM380 710.001c-21.333 0 -38.834 4.66602 -52.501 13.999s-25.834 22.333 -36.501 39c-8 12.667 -15.167 24.5 -21.5 35.5s-14.166 16.5 -23.499 16.5s-17 -5.5 -23 -16.5s-8.66699 -29.833 -8 -56.5v-22h-98v15c0 56 11.167 100.667 33.5 134s52.833 50 91.5 50
c19.333 0 35.333 -4.66699 48 -14s24.667 -22.333 36 -39l23 -36.5c6.66699 -11 14.334 -16.5 23.001 -16.5c10 0 17.5 5.5 22.5 16.5s7.5 30.167 7.5 57.5v21h97v-15c0 -55.333 -10.667 -99.666 -32 -132.999s-50.333 -50 -87 -50z" />
    <glyph glyph-name="ograve" unicode="&#xf2;" 
d="M294 -10c-68 0 -121.5 18.5 -160.5 55.5s-58.5 87.5 -58.5 151.5v202c0 66 19.5 117.667 58.5 155s92.5 56 160.5 56c67.333 0 120.5 -19 159.5 -57s58.5 -90 58.5 -156v-202c0 -64 -19.5 -114.167 -58.5 -150.5s-92.167 -54.5 -159.5 -54.5zM294 102
c22.667 0 39.167 7.50098 49.5 22.501s15.5 40.5 15.5 76.5v194c0 36.667 -5.16699 63 -15.5 79s-26.833 24 -49.5 24s-39.334 -8 -50.001 -24s-16 -42 -16 -78v-192c0 -36.667 5.33301 -62.834 16 -78.501s27.334 -23.5 50.001 -23.5zM278 700.001l-170 200h191l79 -200
h-100z" />
    <glyph glyph-name="oacute" unicode="&#xf3;" 
d="M294 -10c-68 0 -121.5 18.5 -160.5 55.5s-58.5 87.5 -58.5 151.5v202c0 66 19.5 117.667 58.5 155s92.5 56 160.5 56c67.333 0 120.5 -19 159.5 -57s58.5 -90 58.5 -156v-202c0 -64 -19.5 -114.167 -58.5 -150.5s-92.167 -54.5 -159.5 -54.5zM294 102
c22.667 0 39.167 7.50098 49.5 22.501s15.5 40.5 15.5 76.5v194c0 36.667 -5.16699 63 -15.5 79s-26.833 24 -49.5 24s-39.334 -8 -50.001 -24s-16 -42 -16 -78v-192c0 -36.667 5.33301 -62.834 16 -78.501s27.334 -23.5 50.001 -23.5zM192 700.001l78 200h191l-170 -200
h-99z" />
    <glyph glyph-name="ocircumflex" unicode="&#xf4;" 
d="M294 -10c-68 0 -121.5 18.5 -160.5 55.5s-58.5 87.5 -58.5 151.5v202c0 66 19.5 117.667 58.5 155s92.5 56 160.5 56c67.333 0 120.5 -19 159.5 -57s58.5 -90 58.5 -156v-202c0 -64 -19.5 -114.167 -58.5 -150.5s-92.167 -54.5 -159.5 -54.5zM294 102
c22.667 0 39.167 7.50098 49.5 22.501s15.5 40.5 15.5 76.5v194c0 36.667 -5.16699 63 -15.5 79s-26.833 24 -49.5 24s-39.334 -8 -50.001 -24s-16 -42 -16 -78v-192c0 -36.667 5.33301 -62.834 16 -78.501s27.334 -23.5 50.001 -23.5zM143 698.001l-50 70l141 153h117
l142 -153l-49 -69l-152 108z" />
    <glyph glyph-name="otilde" unicode="&#xf5;" 
d="M294 -10c-68 0 -121.5 18.5 -160.5 55.5s-58.5 87.5 -58.5 151.5v202c0 66 19.5 117.667 58.5 155s92.5 56 160.5 56c67.333 0 120.5 -19 159.5 -57s58.5 -90 58.5 -156v-202c0 -64 -19.5 -114.167 -58.5 -150.5s-92.167 -54.5 -159.5 -54.5zM294 102
c22.667 0 39.167 7.50098 49.5 22.501s15.5 40.5 15.5 76.5v194c0 36.667 -5.16699 63 -15.5 79s-26.833 24 -49.5 24s-39.334 -8 -50.001 -24s-16 -42 -16 -78v-192c0 -36.667 5.33301 -62.834 16 -78.501s27.334 -23.5 50.001 -23.5zM365 710.001
c-21.333 0 -38.834 4.66602 -52.501 13.999s-25.834 22.333 -36.501 39c-8 12.667 -15.167 24.5 -21.5 35.5s-14.166 16.5 -23.499 16.5s-17 -5.5 -23 -16.5s-8.66699 -29.833 -8 -56.5v-22h-98v15c0 56 11.167 100.667 33.5 134s52.833 50 91.5 50
c19.333 0 35.333 -4.66699 48 -14s24.667 -22.333 36 -39l23 -36.5c6.66699 -11 14.334 -16.5 23.001 -16.5c10 0 17.5 5.5 22.5 16.5s7.5 30.167 7.5 57.5v21h97v-15c0 -55.333 -10.667 -99.666 -32 -132.999s-50.333 -50 -87 -50z" />
    <glyph glyph-name="odieresis" unicode="&#xf6;" 
d="M294 -10c-68 0 -121.5 18.5 -160.5 55.5s-58.5 87.5 -58.5 151.5v202c0 66 19.5 117.667 58.5 155s92.5 56 160.5 56c67.333 0 120.5 -19 159.5 -57s58.5 -90 58.5 -156v-202c0 -64 -19.5 -114.167 -58.5 -150.5s-92.167 -54.5 -159.5 -54.5zM294 102
c22.667 0 39.167 7.50098 49.5 22.501s15.5 40.5 15.5 76.5v194c0 36.667 -5.16699 63 -15.5 79s-26.833 24 -49.5 24s-39.334 -8 -50.001 -24s-16 -42 -16 -78v-192c0 -36.667 5.33301 -62.834 16 -78.501s27.334 -23.5 50.001 -23.5zM195 701.001
c-22 0 -39.833 4.66699 -53.5 14s-20.5 26.333 -20.5 51v11c0 24.667 6.83301 42.167 20.5 52.5s31.5 15.5 53.5 15.5c22.667 0 40.667 -5.16699 54 -15.5s20 -27.833 20 -52.5v-11c0 -24.667 -7 -41.667 -21 -51s-31.667 -14 -53 -14zM391 701.001
c-22 0 -39.833 4.66699 -53.5 14s-20.5 26.333 -20.5 51v11c0 24.667 6.83301 42.167 20.5 52.5s31.5 15.5 53.5 15.5c22.667 0 40.667 -5.16699 54 -15.5s20 -27.833 20 -52.5v-11c0 -24.667 -7 -41.667 -21 -51s-31.667 -14 -53 -14z" />
    <glyph glyph-name="divide" unicode="&#xf7;" 
d="M293 520c-23.333 0 -42.333 5.5 -57 16.5s-22 28.5 -22 52.5v19c0 24.667 7.33301 42.834 22 54.501s33.667 17.5 57 17.5c22.667 0 41.167 -5.83301 55.5 -17.5s21.5 -29.834 21.5 -54.501v-19c0 -24 -7.16699 -41.5 -21.5 -52.5s-32.833 -16.5 -55.5 -16.5zM75 291v118
h435v-118h-435zM293 20c-23.333 0 -42.333 5.5 -57 16.5s-22 28.5 -22 52.5v19c0 24.667 7.33301 42.834 22 54.501s33.667 17.5 57 17.5c22.667 0 41.167 -5.83301 55.5 -17.5s21.5 -29.834 21.5 -54.501v-19c0 -24 -7.16699 -41.5 -21.5 -52.5s-32.833 -16.5 -55.5 -16.5z
" />
    <glyph glyph-name="oslash" unicode="&#xf8;" 
d="M204 218c0 -15.333 0.666992 -28.166 2 -38.499s3.33301 -19.5 6 -27.5l121 344c-6 2 -12.167 3.5 -18.5 4.5s-13.5 1.5 -21.5 1.5c-31.333 0 -54 -9.33301 -68 -28s-21 -49.334 -21 -92.001v-164zM293 98c31.333 0 54 9 68 27s21 49 21 93v165c0 14 -0.666992 26 -2 36
s-3.33301 19 -6 27l-118 -343c4.66699 -2 10 -3.33301 16 -4s13 -1 21 -1zM293 -10c-10.667 0 -21.667 0.500977 -33 1.50098s-22 2.83301 -32 5.5l-40 -97h-91l53 130c-26 18 -46.5 42.833 -61.5 74.5s-22.5 67.167 -22.5 106.5v174c0 71.333 20.5 126.666 61.5 165.999
s96.167 59 165.5 59c11.333 0 22.833 -0.5 34.5 -1.5s22.167 -2.83301 31.5 -5.5l38 97h91l-51 -131c25.333 -18 45.5 -43.167 60.5 -75.5s22.5 -68.5 22.5 -108.5v-174c0 -70 -20.5 -124.333 -61.5 -163s-96.167 -58 -165.5 -58z" />
    <glyph glyph-name="ugrave" unicode="&#xf9;" 
d="M198 -10c-38 0 -68.1689 15.6689 -90.502 47.002s-33.5 73.666 -33.5 126.999v436h153v-400c0 -30.667 3.83301 -53.334 11.5 -68.001s19.167 -22 34.5 -22c16.667 0 31.834 6.16699 45.501 18.5s26.834 31.5 39.501 57.5v414h153v-600h-153v84h-22
c-8.66699 -28.667 -25.667 -51.5 -51 -68.5s-54.333 -25.5 -87 -25.5zM285.998 700.002l-170 200h191l79 -200h-100z" />
    <glyph glyph-name="uacute" unicode="&#xfa;" 
d="M198 -10c-38 0 -68.1689 15.6689 -90.502 47.002s-33.5 73.666 -33.5 126.999v436h153v-400c0 -30.667 3.83301 -53.334 11.5 -68.001s19.167 -22 34.5 -22c16.667 0 31.834 6.16699 45.501 18.5s26.834 31.5 39.501 57.5v414h153v-600h-153v84h-22
c-8.66699 -28.667 -25.667 -51.5 -51 -68.5s-54.333 -25.5 -87 -25.5zM228.998 700.002l78 200h191l-170 -200h-99z" />
    <glyph glyph-name="ucircumflex" unicode="&#xfb;" 
d="M198 -10c-38 0 -68.1689 15.6689 -90.502 47.002s-33.5 73.666 -33.5 126.999v436h153v-400c0 -30.667 3.83301 -53.334 11.5 -68.001s19.167 -22 34.5 -22c16.667 0 31.834 6.16699 45.501 18.5s26.834 31.5 39.501 57.5v414h153v-600h-153v84h-22
c-8.66699 -28.667 -25.667 -51.5 -51 -68.5s-54.333 -25.5 -87 -25.5zM149.998 698.002l-50 70l141 153h117l142 -153l-49 -69l-152 108z" />
    <glyph glyph-name="udieresis" unicode="&#xfc;" 
d="M198 -10c-38 0 -68.1689 15.6689 -90.502 47.002s-33.5 73.666 -33.5 126.999v436h153v-400c0 -30.667 3.83301 -53.334 11.5 -68.001s19.167 -22 34.5 -22c16.667 0 31.834 6.16699 45.501 18.5s26.834 31.5 39.501 57.5v414h153v-600h-153v84h-22
c-8.66699 -28.667 -25.667 -51.5 -51 -68.5s-54.333 -25.5 -87 -25.5zM201.998 701.002c-22 0 -39.833 4.66699 -53.5 14s-20.5 26.333 -20.5 51v11c0 24.667 6.83301 42.167 20.5 52.5s31.5 15.5 53.5 15.5c22.667 0 40.667 -5.16699 54 -15.5s20 -27.833 20 -52.5v-11
c0 -24.667 -7 -41.667 -21 -51s-31.667 -14 -53 -14zM397.998 701.002c-22 0 -39.833 4.66699 -53.5 14s-20.5 26.333 -20.5 51v11c0 24.667 6.83301 42.167 20.5 52.5s31.5 15.5 53.5 15.5c22.667 0 40.667 -5.16699 54 -15.5s20 -27.833 20 -52.5v-11
c0 -24.667 -7 -41.667 -21 -51s-31.667 -14 -53 -14z" />
    <glyph glyph-name="yacute" unicode="&#xfd;" 
d="M177 -209c-17.333 0 -36.1689 1 -56.502 3s-41.833 4.66699 -64.5 8l8 112c18.667 -4.66699 35.834 -8.16699 51.501 -10.5s29.834 -3.5 42.501 -3.5c32 0 56.5 8.5 73.5 25.5s29.167 43.5 36.5 79.5l3 13h-104l-120 582h154l93 -470l95 470h149l-135 -607
c-16 -70 -42.5 -121.167 -79.5 -153.5s-85.833 -48.5 -146.5 -48.5zM205.997 700l78 200h191l-170 -200h-99z" />
    <glyph glyph-name="thorn" unicode="&#xfe;" 
d="M296 103c22 0 37.833 7.5 47.5 22.5s14.5 39.833 14.5 74.5v212c0 28 -4.33301 48.167 -13 60.5s-21.334 18.5 -38.001 18.5c-14 0 -28 -4.83301 -42 -14.5s-26.667 -25.167 -38 -46.5v-295c12.667 -11.333 24.334 -19.5 35.001 -24.5s22 -7.5 34 -7.5zM326 -8
c-18 0 -35.3301 2.16699 -51.9971 6.5s-32.334 10.833 -47.001 19.5v-218h-153v1000h153v-284h23c7.33301 29.333 22.166 52.333 44.499 69s50.166 25 83.499 25c43.333 0 76.333 -15.5 99 -46.5s34 -75.833 34 -134.5v-230c0 -66 -16.167 -117 -48.5 -153
s-77.833 -54 -136.5 -54z" />
    <glyph glyph-name="ydieresis" unicode="&#xff;" 
d="M177 -209c-17.333 0 -36.1689 1 -56.502 3s-41.833 4.66699 -64.5 8l8 112c18.667 -4.66699 35.834 -8.16699 51.501 -10.5s29.834 -3.5 42.501 -3.5c32 0 56.5 8.5 73.5 25.5s29.167 43.5 36.5 79.5l3 13h-104l-120 582h154l93 -470l95 470h149l-135 -607
c-16 -70 -42.5 -121.167 -79.5 -153.5s-85.833 -48.5 -146.5 -48.5zM194.997 701c-22 0 -39.833 4.66699 -53.5 14s-20.5 26.333 -20.5 51v11c0 24.667 6.83301 42.167 20.5 52.5s31.5 15.5 53.5 15.5c22.667 0 40.667 -5.16699 54 -15.5s20 -27.833 20 -52.5v-11
c0 -24.667 -7 -41.667 -21 -51s-31.667 -14 -53 -14zM390.997 701c-22 0 -39.833 4.66699 -53.5 14s-20.5 26.333 -20.5 51v11c0 24.667 6.83301 42.167 20.5 52.5s31.5 15.5 53.5 15.5c22.667 0 40.667 -5.16699 54 -15.5s20 -27.833 20 -52.5v-11
c0 -24.667 -7 -41.667 -21 -51s-31.667 -14 -53 -14z" />
    <glyph glyph-name="Amacron" unicode="&#x100;" 
d="M354 324l-58 352l-63 -352h121zM406 0l-34 208h-160l-38 -208h-137l162 800h188l162 -800h-143zM122 942v116h340v-116h-340z" />
    <glyph glyph-name="amacron" unicode="&#x101;" 
d="M250 91c14.667 0 28.667 4 42 12s25.666 20.333 36.999 37v107h-84c-17.333 0 -29.666 -5.5 -36.999 -16.5s-11 -31.833 -11 -62.5c0 -24.667 4.16699 -43.667 12.5 -57s21.833 -20 40.5 -20zM208 -10c-44 0 -79.835 16.001 -107.502 48.001s-41.5 73.667 -41.5 125
c0 54 14.833 95.833 44.5 125.5s68.834 44.5 117.501 44.5h108v88c0 28 -5.33301 48.167 -16 60.5s-27 18.5 -49 18.5c-21.333 0 -37 -6.83301 -47 -20.5s-17.667 -38.5 -23 -74.5l-123 25c10.667 62.667 31.834 108.334 63.501 137.001s76.834 43 135.501 43
c66 0 116.5 -14 151.5 -42s52.5 -74.333 52.5 -139v-259c0 -29.333 5.66699 -47.833 17 -55.5s27.666 -8.83398 48.999 -3.50098v-110c-42.667 -10 -76.834 -8.16699 -102.501 5.5s-43.5 39.167 -53.5 76.5h-22c-14.667 -26.667 -35.667 -48.834 -63 -66.501
s-57.666 -26.5 -90.999 -26.5zM107.998 742.001v116h340v-116h-340z" />
    <glyph glyph-name="Abreve" unicode="&#x102;" 
d="M354 324l-58 352l-63 -352h121zM406 0l-34 208h-160l-38 -208h-137l162 800h188l162 -800h-143zM292 893c-67.333 0 -117.67 18.333 -151.003 55s-50.333 92.667 -51 168h122c0.666992 -48 6.83398 -81 18.501 -99s32.167 -27 61.5 -27s49.833 9 61.5 27
s17.834 51 18.501 99h122c-0.666992 -75.333 -17.667 -131.333 -51 -168s-83.666 -55 -150.999 -55z" />
    <glyph glyph-name="abreve" unicode="&#x103;" 
d="M250 91c14.667 0 28.667 4 42 12s25.666 20.333 36.999 37v107h-84c-17.333 0 -29.666 -5.5 -36.999 -16.5s-11 -31.833 -11 -62.5c0 -24.667 4.16699 -43.667 12.5 -57s21.833 -20 40.5 -20zM208 -10c-44 0 -79.835 16.001 -107.502 48.001s-41.5 73.667 -41.5 125
c0 54 14.833 95.833 44.5 125.5s68.834 44.5 117.501 44.5h108v88c0 28 -5.33301 48.167 -16 60.5s-27 18.5 -49 18.5c-21.333 0 -37 -6.83301 -47 -20.5s-17.667 -38.5 -23 -74.5l-123 25c10.667 62.667 31.834 108.334 63.501 137.001s76.834 43 135.501 43
c66 0 116.5 -14 151.5 -42s52.5 -74.333 52.5 -139v-259c0 -29.333 5.66699 -47.833 17 -55.5s27.666 -8.83398 48.999 -3.50098v-110c-42.667 -10 -76.834 -8.16699 -102.501 5.5s-43.5 39.167 -53.5 76.5h-22c-14.667 -26.667 -35.667 -48.834 -63 -66.501
s-57.666 -26.5 -90.999 -26.5zM277.998 693.001c-67.333 0 -117.67 18.333 -151.003 55s-50.333 92.667 -51 168h122c0.666992 -48 6.83398 -81 18.501 -99s32.167 -27 61.5 -27s49.833 9 61.5 27s17.834 51 18.501 99h122c-0.666992 -75.333 -17.667 -131.333 -51 -168
s-83.666 -55 -150.999 -55z" />
    <glyph glyph-name="Aogonek" unicode="&#x104;" 
d="M354 324l-58 352l-63 -352h121zM406 0l-34 208h-160l-38 -208h-137l162 800h188l162 -800h-143zM485 -219c-43.333 0 -76.999 10.666 -100.999 31.999s-36 51.666 -36 90.999c0 34 11.667 65.333 35 94s52.666 49.334 87.999 62.001l20 -37
c-13.333 -10.667 -22.833 -23.167 -28.5 -37.5s-8.5 -30.166 -8.5 -47.499c0 -18 4.5 -31.333 13.5 -40s23.5 -13 43.5 -13c8.66699 0 19 0.833008 31 2.5s25.667 4.16699 41 7.5v-103c-18.667 -3.33301 -36.167 -6 -52.5 -8s-31.5 -3 -45.5 -3z" />
    <glyph glyph-name="aogonek" unicode="&#x105;" 
d="M250 91c14.667 0 28.667 4 42 12s25.666 20.333 36.999 37v107h-84c-17.333 0 -29.666 -5.5 -36.999 -16.5s-11 -31.833 -11 -62.5c0 -24.667 4.16699 -43.667 12.5 -57s21.833 -20 40.5 -20zM208 -10c-44 0 -79.835 16.001 -107.502 48.001s-41.5 73.667 -41.5 125
c0 54 14.833 95.833 44.5 125.5s68.834 44.5 117.501 44.5h108v88c0 28 -5.33301 48.167 -16 60.5s-27 18.5 -49 18.5c-21.333 0 -37 -6.83301 -47 -20.5s-17.667 -38.5 -23 -74.5l-123 25c10.667 62.667 31.834 108.334 63.501 137.001s76.834 43 135.501 43
c66 0 116.5 -14 151.5 -42s52.5 -74.333 52.5 -139v-259c0 -29.333 5.66699 -47.833 17 -55.5s27.666 -8.83398 48.999 -3.50098v-110c-42.667 -10 -76.834 -8.16699 -102.501 5.5s-43.5 39.167 -53.5 76.5h-22c-14.667 -26.667 -35.667 -48.834 -63 -66.501
s-57.666 -26.5 -90.999 -26.5zM477.998 -218.999c-43.333 0 -76.999 10.666 -100.999 31.999s-36 51.666 -36 90.999c0 34 11.667 65.333 35 94s52.666 49.334 87.999 62.001l20 -37c-13.333 -10.667 -22.833 -23.167 -28.5 -37.5s-8.5 -30.166 -8.5 -47.499
c0 -18 4.5 -31.333 13.5 -40s23.5 -13 43.5 -13c8.66699 0 19 0.833008 31 2.5s25.667 4.16699 41 7.5v-103c-18.667 -3.33301 -36.167 -6 -52.5 -8s-31.5 -3 -45.5 -3z" />
    <glyph glyph-name="Cacute" unicode="&#x106;" 
d="M308 -10c-79.333 0 -139.335 23.332 -180.002 69.999s-61 115.667 -61 207v262c0 93.333 20.333 163.5 61 210.5s100.667 70.5 180 70.5c77.333 0 134.5 -22.333 171.5 -67s57.5 -115.667 61.5 -213l-153 -10c-2.66699 69.333 -9.66699 115.666 -21 138.999
s-31.666 35 -60.999 35c-32.667 0 -55.167 -12.667 -67.5 -38s-18.5 -70.666 -18.5 -135.999v-245c0 -60 6.16699 -103.167 18.5 -129.5s34.833 -39.5 67.5 -39.5c29.333 0 49.666 11.5 60.999 34.5s18.333 68.167 21 135.5l153 -10
c-3.33301 -95.333 -23.666 -165.166 -60.999 -209.499s-94.666 -66.5 -171.999 -66.5zM216.998 899.999l78 200h191l-170 -200h-99z" />
    <glyph glyph-name="cacute" unicode="&#x107;" 
d="M299 -10c-72 0 -127.501 18.498 -166.501 55.498s-58.5 88.833 -58.5 155.5v197c0 67.333 19.333 119.5 58 156.5s94 55.5 166 55.5c65.333 0 115.333 -17.5 150 -52.5s56 -89.167 64 -162.5l-148 -10c-2.66699 44 -9.16699 73.667 -19.5 89s-27.166 23 -50.499 23
c-24 0 -41.167 -7.5 -51.5 -22.5s-15.5 -42.5 -15.5 -82.5v-186c0 -39.333 5.16699 -66.5 15.5 -81.5s27.833 -22.5 52.5 -22.5c24 0 41 6.33301 51 19s16 37.334 18 74.001l148 -10c-3.33301 -67.333 -22.333 -116.666 -57 -147.999s-86.667 -47 -156 -47zM226.999 699.998
l78 200h191l-170 -200h-99z" />
    <glyph glyph-name="Ccircumflex" unicode="&#x108;" 
d="M308 -10c-79.333 0 -139.335 23.332 -180.002 69.999s-61 115.667 -61 207v262c0 93.333 20.333 163.5 61 210.5s100.667 70.5 180 70.5c77.333 0 134.5 -22.333 171.5 -67s57.5 -115.667 61.5 -213l-153 -10c-2.66699 69.333 -9.66699 115.666 -21 138.999
s-31.666 35 -60.999 35c-32.667 0 -55.167 -12.667 -67.5 -38s-18.5 -70.666 -18.5 -135.999v-245c0 -60 6.16699 -103.167 18.5 -129.5s34.833 -39.5 67.5 -39.5c29.333 0 49.666 11.5 60.999 34.5s18.333 68.167 21 135.5l153 -10
c-3.33301 -95.333 -23.666 -165.166 -60.999 -209.499s-94.666 -66.5 -171.999 -66.5zM153.998 897.999l-50 70l141 153h117l142 -153l-49 -69l-152 108z" />
    <glyph glyph-name="ccircumflex" unicode="&#x109;" 
d="M299 -10c-72 0 -127.501 18.498 -166.501 55.498s-58.5 88.833 -58.5 155.5v197c0 67.333 19.333 119.5 58 156.5s94 55.5 166 55.5c65.333 0 115.333 -17.5 150 -52.5s56 -89.167 64 -162.5l-148 -10c-2.66699 44 -9.16699 73.667 -19.5 89s-27.166 23 -50.499 23
c-24 0 -41.167 -7.5 -51.5 -22.5s-15.5 -42.5 -15.5 -82.5v-186c0 -39.333 5.16699 -66.5 15.5 -81.5s27.833 -22.5 52.5 -22.5c24 0 41 6.33301 51 19s16 37.334 18 74.001l148 -10c-3.33301 -67.333 -22.333 -116.666 -57 -147.999s-86.667 -47 -156 -47zM146.999 697.998
l-50 70l141 153h117l142 -153l-49 -69l-152 108z" />
    <glyph glyph-name="Cdotaccent" unicode="&#x10a;" 
d="M308 -10c-79.333 0 -139.335 23.332 -180.002 69.999s-61 115.667 -61 207v262c0 93.333 20.333 163.5 61 210.5s100.667 70.5 180 70.5c77.333 0 134.5 -22.333 171.5 -67s57.5 -115.667 61.5 -213l-153 -10c-2.66699 69.333 -9.66699 115.666 -21 138.999
s-31.666 35 -60.999 35c-32.667 0 -55.167 -12.667 -67.5 -38s-18.5 -70.666 -18.5 -135.999v-245c0 -60 6.16699 -103.167 18.5 -129.5s34.833 -39.5 67.5 -39.5c29.333 0 49.666 11.5 60.999 34.5s18.333 68.167 21 135.5l153 -10
c-3.33301 -95.333 -23.666 -165.166 -60.999 -209.499s-94.666 -66.5 -171.999 -66.5zM303.998 900.999c-28.667 0 -52.167 4.66699 -70.5 14s-27.5 26.333 -27.5 51v11c0 24.667 9.16699 42.167 27.5 52.5s41.833 15.5 70.5 15.5c29.333 0 53 -5.16699 71 -15.5
s27 -27.833 27 -52.5v-11c0 -24.667 -9.16699 -41.667 -27.5 -51s-41.833 -14 -70.5 -14z" />
    <glyph glyph-name="cdotaccent" unicode="&#x10b;" 
d="M299 -10c-72 0 -127.501 18.498 -166.501 55.498s-58.5 88.833 -58.5 155.5v197c0 67.333 19.333 119.5 58 156.5s94 55.5 166 55.5c65.333 0 115.333 -17.5 150 -52.5s56 -89.167 64 -162.5l-148 -10c-2.66699 44 -9.16699 73.667 -19.5 89s-27.166 23 -50.499 23
c-24 0 -41.167 -7.5 -51.5 -22.5s-15.5 -42.5 -15.5 -82.5v-186c0 -39.333 5.16699 -66.5 15.5 -81.5s27.833 -22.5 52.5 -22.5c24 0 41 6.33301 51 19s16 37.334 18 74.001l148 -10c-3.33301 -67.333 -22.333 -116.666 -57 -147.999s-86.667 -47 -156 -47zM296.999 700.998
c-28.667 0 -52.167 4.66699 -70.5 14s-27.5 26.333 -27.5 51v11c0 24.667 9.16699 42.167 27.5 52.5s41.833 15.5 70.5 15.5c29.333 0 53 -5.16699 71 -15.5s27 -27.833 27 -52.5v-11c0 -24.667 -9.16699 -41.667 -27.5 -51s-41.833 -14 -70.5 -14z" />
    <glyph glyph-name="Ccaron" unicode="&#x10c;" 
d="M308 -10c-79.333 0 -139.335 23.332 -180.002 69.999s-61 115.667 -61 207v262c0 93.333 20.333 163.5 61 210.5s100.667 70.5 180 70.5c77.333 0 134.5 -22.333 171.5 -67s57.5 -115.667 61.5 -213l-153 -10c-2.66699 69.333 -9.66699 115.666 -21 138.999
s-31.666 35 -60.999 35c-32.667 0 -55.167 -12.667 -67.5 -38s-18.5 -70.666 -18.5 -135.999v-245c0 -60 6.16699 -103.167 18.5 -129.5s34.833 -39.5 67.5 -39.5c29.333 0 49.666 11.5 60.999 34.5s18.333 68.167 21 135.5l153 -10
c-3.33301 -95.333 -23.666 -165.166 -60.999 -209.499s-94.666 -66.5 -171.999 -66.5zM245.998 903.999l-142 153l49 70l152 -108l149 108l50 -70l-141 -153h-117z" />
    <glyph glyph-name="ccaron" unicode="&#x10d;" 
d="M299 -10c-72 0 -127.501 18.498 -166.501 55.498s-58.5 88.833 -58.5 155.5v197c0 67.333 19.333 119.5 58 156.5s94 55.5 166 55.5c65.333 0 115.333 -17.5 150 -52.5s56 -89.167 64 -162.5l-148 -10c-2.66699 44 -9.16699 73.667 -19.5 89s-27.166 23 -50.499 23
c-24 0 -41.167 -7.5 -51.5 -22.5s-15.5 -42.5 -15.5 -82.5v-186c0 -39.333 5.16699 -66.5 15.5 -81.5s27.833 -22.5 52.5 -22.5c24 0 41 6.33301 51 19s16 37.334 18 74.001l148 -10c-3.33301 -67.333 -22.333 -116.666 -57 -147.999s-86.667 -47 -156 -47zM238.999 703.998
l-142 153l49 70l152 -108l149 108l50 -70l-141 -153h-117z" />
    <glyph glyph-name="Dcaron" unicode="&#x10e;" 
d="M66 0l-0.000976562 800.001h228c70 0 125 -25.833 165 -77.5s60 -120.834 60 -207.501v-234c0 -85.333 -20.167 -153.5 -60.5 -204.5s-95.166 -76.5 -164.499 -76.5h-228zM219.999 116.001l58 0.000976562c32 0 54.667 12.667 68 38s20 70.666 20 135.999v216
c0 66.667 -6.66699 113 -20 139s-36 39 -68 39h-58v-568zM234.999 904.002l-142 153l49 70l152 -108l149 108l50 -70l-141 -153h-117z" />
    <glyph glyph-name="dcaron" unicode="&#x10f;" 
d="M278 110c16.667 0 31.499 4.83105 44.499 14.498s24.833 24.834 35.5 45.501v296c-13.333 11.333 -25.5 19.5 -36.5 24.5s-22.167 7.5 -33.5 7.5c-22 0 -37.667 -7.5 -47 -22.5s-14 -40.167 -14 -75.5v-197c0 -31.333 4.33301 -54.666 13 -69.999s21.334 -23 38.001 -23z
M335.999 83.998c-7.33301 -26.667 -21.1689 -49 -41.502 -67s-47.166 -27 -80.499 -27c-46.667 0 -81.667 18.167 -105 54.5s-35 83.166 -35 140.499v216c0 64.667 16.5 115.334 49.5 152.001s78.5 55 136.5 55c17.333 0 34.333 -2.16699 51 -6.5
s32.334 -10.833 47.001 -19.5v218h153v-800h-153v84h-22zM552.996 704.998l37 295h189l-141 -295h-85z" />
    <glyph glyph-name="Dcroat" unicode="&#x110;" 
d="M66 0l-0.000976562 389.001h-50v103h50v308h228c70 0 125 -25.833 165 -77.5s60 -120.834 60 -207.501v-234c0 -85.333 -20.167 -153.5 -60.5 -204.5s-95.166 -76.5 -164.499 -76.5h-228zM219.999 116.001l58 0.000976562c32 0 54.667 12.667 68 38s20 70.666 20 135.999
v216c0 66.667 -6.66699 113 -20 139s-36 39 -68 39h-58v-192h73v-103h-73v-273z" />
    <glyph glyph-name="dcroat" unicode="&#x111;" 
d="M278 110c14 0 27.998 4.83203 41.998 14.499s26.667 24.834 38 45.501v243c-11.333 8.66699 -23.166 15.167 -35.499 19.5s-24.166 6.5 -35.499 6.5c-20.667 0 -35.834 -7.83301 -45.501 -23.5s-14.5 -40.5 -14.5 -74.5v-138c0 -30 4.33301 -53 13 -69
s21.334 -24 38.001 -24zM335.998 83.999c-8.66699 -30.667 -24.5 -53.998 -47.5 -69.998s-51.5 -24 -85.5 -24c-42 0 -74 16.667 -96 50s-33 81.666 -33 144.999v157c0 67.333 14.667 118.666 44 153.999s72 53 128 53c23.333 0 44 -3 62 -9s34.667 -13.667 50 -23v100h-119
v89h119v94h153v-94h75v-89h-75v-617h-153v84h-22z" />
    <glyph glyph-name="Emacron" unicode="&#x112;" 
d="M66 0v800h453v-116h-299v-195h261v-117h-261v-256h299v-116h-453zM130 942v116h340v-116h-340z" />
    <glyph glyph-name="emacron" unicode="&#x113;" 
d="M515 136c-13.333 -52 -36.168 -89.333 -68.501 -112s-80.5 -34 -144.5 -34c-70 0 -125.5 18.333 -166.5 55s-61.5 88 -61.5 154v207c0 64 19.833 114 59.5 150s92.834 54 159.501 54c67.333 0 120.5 -18.5 159.5 -55.5s58.5 -90.167 58.5 -159.5v-124h-284v-79
c0 -33.333 6 -58.166 18 -74.499s32.667 -24.5 62 -24.5c24 0 42.667 5.66699 56 17s22.333 31.666 27 60.999zM226.998 415l0.000976562 -57h131v54c0 36 -4.83301 61.333 -14.5 76s-26.5 22 -50.5 22c-24.667 0 -41.834 -7 -51.501 -21s-14.5 -38.667 -14.5 -74z
M125.999 742v116h340v-116h-340z" />
    <glyph glyph-name="Ebreve" unicode="&#x114;" 
d="M66 0v800h453v-116h-299v-195h261v-117h-261v-256h299v-116h-453zM300 893c-67.333 0 -117.67 18.333 -151.003 55s-50.333 92.667 -51 168h122c0.666992 -48 6.83398 -81 18.501 -99s32.167 -27 61.5 -27s49.833 9 61.5 27s17.834 51 18.501 99h122
c-0.666992 -75.333 -17.667 -131.333 -51 -168s-83.666 -55 -150.999 -55z" />
    <glyph glyph-name="ebreve" unicode="&#x115;" 
d="M515 136c-13.333 -52 -36.168 -89.333 -68.501 -112s-80.5 -34 -144.5 -34c-70 0 -125.5 18.333 -166.5 55s-61.5 88 -61.5 154v207c0 64 19.833 114 59.5 150s92.834 54 159.501 54c67.333 0 120.5 -18.5 159.5 -55.5s58.5 -90.167 58.5 -159.5v-124h-284v-79
c0 -33.333 6 -58.166 18 -74.499s32.667 -24.5 62 -24.5c24 0 42.667 5.66699 56 17s22.333 31.666 27 60.999zM226.998 415l0.000976562 -57h131v54c0 36 -4.83301 61.333 -14.5 76s-26.5 22 -50.5 22c-24.667 0 -41.834 -7 -51.501 -21s-14.5 -38.667 -14.5 -74z
M288.999 693c-67.333 0 -117.67 18.333 -151.003 55s-50.333 92.667 -51 168h122c0.666992 -48 6.83398 -81 18.501 -99s32.167 -27 61.5 -27s49.833 9 61.5 27s17.834 51 18.501 99h122c-0.666992 -75.333 -17.667 -131.333 -51 -168s-83.666 -55 -150.999 -55z" />
    <glyph glyph-name="Edotaccent" unicode="&#x116;" 
d="M66 0v800h453v-116h-299v-195h261v-117h-261v-256h299v-116h-453zM300 901c-28.667 0 -52.167 4.66699 -70.5 14s-27.5 26.333 -27.5 51v11c0 24.667 9.16699 42.167 27.5 52.5s41.833 15.5 70.5 15.5c29.333 0 53 -5.16699 71 -15.5s27 -27.833 27 -52.5v-11
c0 -24.667 -9.16699 -41.667 -27.5 -51s-41.833 -14 -70.5 -14z" />
    <glyph glyph-name="edotaccent" unicode="&#x117;" 
d="M515 136c-13.333 -52 -36.168 -89.333 -68.501 -112s-80.5 -34 -144.5 -34c-70 0 -125.5 18.333 -166.5 55s-61.5 88 -61.5 154v207c0 64 19.833 114 59.5 150s92.834 54 159.501 54c67.333 0 120.5 -18.5 159.5 -55.5s58.5 -90.167 58.5 -159.5v-124h-284v-79
c0 -33.333 6 -58.166 18 -74.499s32.667 -24.5 62 -24.5c24 0 42.667 5.66699 56 17s22.333 31.666 27 60.999zM226.998 415l0.000976562 -57h131v54c0 36 -4.83301 61.333 -14.5 76s-26.5 22 -50.5 22c-24.667 0 -41.834 -7 -51.501 -21s-14.5 -38.667 -14.5 -74z
M295.999 701c-28.667 0 -52.167 4.66699 -70.5 14s-27.5 26.333 -27.5 51v11c0 24.667 9.16699 42.167 27.5 52.5s41.833 15.5 70.5 15.5c29.333 0 53 -5.16699 71 -15.5s27 -27.833 27 -52.5v-11c0 -24.667 -9.16699 -41.667 -27.5 -51s-41.833 -14 -70.5 -14z" />
    <glyph glyph-name="Eogonek" unicode="&#x118;" 
d="M422 -219c-43.333 0 -76.999 10.666 -100.999 31.999s-36 51.666 -36 90.999c0 34 11.667 65.333 35 94s52.666 49.334 87.999 62.001l20 -37c-13.333 -10.667 -22.833 -23.167 -28.5 -37.5s-8.5 -30.166 -8.5 -47.499c0 -18 4.5 -31.333 13.5 -40s23.5 -13 43.5 -13
c8.66699 0 19 0.833008 31 2.5s25.667 4.16699 41 7.5v-103c-18.667 -3.33301 -36.167 -6 -52.5 -8s-31.5 -3 -45.5 -3zM66.001 -0.000976562v800h453v-116h-299v-195h261v-117h-261v-256h299v-116h-453z" />
    <glyph glyph-name="eogonek" unicode="&#x119;" 
d="M396 -219c-43.333 0 -76.999 10.666 -100.999 31.999s-36 51.666 -36 90.999c0 34 11.667 65.333 35 94s52.666 49.334 87.999 62.001l20 -37c-13.333 -10.667 -22.833 -23.167 -28.5 -37.5s-8.5 -30.166 -8.5 -47.499c0 -18 4.5 -31.333 13.5 -40s23.5 -13 43.5 -13
c8.66699 0 19 0.833008 31 2.5s25.667 4.16699 41 7.5v-103c-18.667 -3.33301 -36.167 -6 -52.5 -8s-31.5 -3 -45.5 -3zM515.001 135.999c-13.333 -52 -36.168 -89.333 -68.501 -112s-80.5 -34 -144.5 -34c-70 0 -125.5 18.333 -166.5 55s-61.5 88 -61.5 154v207
c0 64 19.833 114 59.5 150s92.834 54 159.501 54c67.333 0 120.5 -18.5 159.5 -55.5s58.5 -90.167 58.5 -159.5v-124h-284v-79c0 -33.333 6 -58.166 18 -74.499s32.667 -24.5 62 -24.5c24 0 42.667 5.66699 56 17s22.333 31.666 27 60.999zM226.999 414.999l0.000976562 -57
h131v54c0 36 -4.83301 61.333 -14.5 76s-26.5 22 -50.5 22c-24.667 0 -41.834 -7 -51.501 -21s-14.5 -38.667 -14.5 -74z" />
    <glyph glyph-name="Ecaron" unicode="&#x11a;" 
d="M66 0v800h453v-116h-299v-195h261v-117h-261v-256h299v-116h-453zM241 904l-142 153l49 70l152 -108l149 108l50 -70l-141 -153h-117z" />
    <glyph glyph-name="ecaron" unicode="&#x11b;" 
d="M515 136c-13.333 -52 -36.168 -89.333 -68.501 -112s-80.5 -34 -144.5 -34c-70 0 -125.5 18.333 -166.5 55s-61.5 88 -61.5 154v207c0 64 19.833 114 59.5 150s92.834 54 159.501 54c67.333 0 120.5 -18.5 159.5 -55.5s58.5 -90.167 58.5 -159.5v-124h-284v-79
c0 -33.333 6 -58.166 18 -74.499s32.667 -24.5 62 -24.5c24 0 42.667 5.66699 56 17s22.333 31.666 27 60.999zM226.998 415l0.000976562 -57h131v54c0 36 -4.83301 61.333 -14.5 76s-26.5 22 -50.5 22c-24.667 0 -41.834 -7 -51.501 -21s-14.5 -38.667 -14.5 -74z
M237.999 704l-142 153l49 70l152 -108l149 108l50 -70l-141 -153h-117z" />
    <glyph glyph-name="Gcircumflex" unicode="&#x11c;" 
d="M296 -10c-75.333 0 -132.332 24.168 -170.999 72.501s-58 114.166 -58 197.499v279c0 85.333 19.667 151.833 59 199.5s95 71.5 167 71.5c74.667 0 130 -20.5 166 -61.5s56 -104.167 60 -189.5l-153 -10c-3.33301 56 -10 94.167 -20 114.5s-27.333 30.5 -52 30.5
c-30.667 0 -50.667 -14.167 -60 -42.5s-14 -68.5 -14 -120.5v-263c0 -52 4.5 -92 13.5 -120s29.833 -42 62.5 -42c30.667 0 50.667 15.167 60 45.5s13.666 73.5 12.999 129.5h-72v117h226v-133c0 -89.333 -20 -157.5 -60 -204.5s-95.667 -70.5 -167 -70.5zM142.001 898.001
l-50 70l141 153h117l142 -153l-49 -69l-152 108z" />
    <glyph glyph-name="gcircumflex" unicode="&#x11d;" 
d="M534 -39c0 -54 -15.8311 -96.0039 -47.498 -126.004s-74.5 -45 -128.5 -45h-128c-60.667 0 -105.5 12.667 -134.5 38s-43.5 60.666 -43.5 105.999c0 32.667 8.16699 58.834 24.5 78.501s35.833 31.167 58.5 34.5v20c-18.667 6 -34.334 16.667 -47.001 32s-19 39 -19 71
c0 32.667 10 60.334 30 83.001s44.333 36.334 73 41.001v18c-26.667 10 -47 25.333 -61 46s-21 43.334 -21 68.001v16c0 48 17.5 86.333 52.5 115s80.833 43 137.5 43h254v-99l-124 21v-19c18.667 -6.66699 34.167 -19.834 46.5 -39.501s18.5 -40.5 18.5 -62.5v-17
c0 -47.333 -17.833 -84.666 -53.5 -111.999s-81.167 -41 -136.5 -41h-52c-16.667 0 -29.834 -4.16699 -39.501 -12.5s-14.5 -22.166 -14.5 -41.499c0 -18.667 4.66699 -32.5 14 -41.5s22.333 -13.5 39 -13.5h131c52 0 93.5 -12.833 124.5 -38.5s46.5 -66.5 46.5 -122.5z
M282.002 312.996c19.333 0 33.168 6.66699 41.501 20s12.5 33 12.5 59v39c0 25.333 -4.33301 44.333 -13 57s-22.334 19 -41.001 19c-19.333 0 -33.333 -6.33301 -42 -19s-13 -31.667 -13 -57v-39c0 -26 4 -45.667 12 -59s22.333 -20 43 -20zM252.004 -117.004h101.999
c16.667 0 30.334 4.5 41.001 13.5s16 26.167 16 51.5c0 24.667 -5.16699 41.5 -15.5 50.5s-23.5 13.5 -39.5 13.5h-160v-59c0 -22.667 3.66699 -40 11 -52s22.333 -18 45 -18zM151.003 697.996l-50 70l141 153h117l142 -153l-49 -69l-152 108z" />
    <glyph glyph-name="Gbreve" unicode="&#x11e;" 
d="M296 -10c-75.333 0 -132.332 24.168 -170.999 72.501s-58 114.166 -58 197.499v279c0 85.333 19.667 151.833 59 199.5s95 71.5 167 71.5c74.667 0 130 -20.5 166 -61.5s56 -104.167 60 -189.5l-153 -10c-3.33301 56 -10 94.167 -20 114.5s-27.333 30.5 -52 30.5
c-30.667 0 -50.667 -14.167 -60 -42.5s-14 -68.5 -14 -120.5v-263c0 -52 4.5 -92 13.5 -120s29.833 -42 62.5 -42c30.667 0 50.667 15.167 60 45.5s13.666 73.5 12.999 129.5h-72v117h226v-133c0 -89.333 -20 -157.5 -60 -204.5s-95.667 -70.5 -167 -70.5zM292.001 893.001
c-67.333 0 -117.67 18.333 -151.003 55s-50.333 92.667 -51 168h122c0.666992 -48 6.83398 -81 18.501 -99s32.167 -27 61.5 -27s49.833 9 61.5 27s17.834 51 18.501 99h122c-0.666992 -75.333 -17.667 -131.333 -51 -168s-83.666 -55 -150.999 -55z" />
    <glyph glyph-name="gbreve" unicode="&#x11f;" 
d="M534 -39c0 -54 -15.8311 -96.0039 -47.498 -126.004s-74.5 -45 -128.5 -45h-128c-60.667 0 -105.5 12.667 -134.5 38s-43.5 60.666 -43.5 105.999c0 32.667 8.16699 58.834 24.5 78.501s35.833 31.167 58.5 34.5v20c-18.667 6 -34.334 16.667 -47.001 32s-19 39 -19 71
c0 32.667 10 60.334 30 83.001s44.333 36.334 73 41.001v18c-26.667 10 -47 25.333 -61 46s-21 43.334 -21 68.001v16c0 48 17.5 86.333 52.5 115s80.833 43 137.5 43h254v-99l-124 21v-19c18.667 -6.66699 34.167 -19.834 46.5 -39.501s18.5 -40.5 18.5 -62.5v-17
c0 -47.333 -17.833 -84.666 -53.5 -111.999s-81.167 -41 -136.5 -41h-52c-16.667 0 -29.834 -4.16699 -39.501 -12.5s-14.5 -22.166 -14.5 -41.499c0 -18.667 4.66699 -32.5 14 -41.5s22.333 -13.5 39 -13.5h131c52 0 93.5 -12.833 124.5 -38.5s46.5 -66.5 46.5 -122.5z
M282.002 312.996c19.333 0 33.168 6.66699 41.501 20s12.5 33 12.5 59v39c0 25.333 -4.33301 44.333 -13 57s-22.334 19 -41.001 19c-19.333 0 -33.333 -6.33301 -42 -19s-13 -31.667 -13 -57v-39c0 -26 4 -45.667 12 -59s22.333 -20 43 -20zM252.004 -117.004h101.999
c16.667 0 30.334 4.5 41.001 13.5s16 26.167 16 51.5c0 24.667 -5.16699 41.5 -15.5 50.5s-23.5 13.5 -39.5 13.5h-160v-59c0 -22.667 3.66699 -40 11 -52s22.333 -18 45 -18zM293.003 692.996c-67.333 0 -117.67 18.333 -151.003 55s-50.333 92.667 -51 168h122
c0.666992 -48 6.83398 -81 18.501 -99s32.167 -27 61.5 -27s49.833 9 61.5 27s17.834 51 18.501 99h122c-0.666992 -75.333 -17.667 -131.333 -51 -168s-83.666 -55 -150.999 -55z" />
    <glyph glyph-name="Gdotaccent" unicode="&#x120;" 
d="M296 -10c-75.333 0 -132.332 24.168 -170.999 72.501s-58 114.166 -58 197.499v279c0 85.333 19.667 151.833 59 199.5s95 71.5 167 71.5c74.667 0 130 -20.5 166 -61.5s56 -104.167 60 -189.5l-153 -10c-3.33301 56 -10 94.167 -20 114.5s-27.333 30.5 -52 30.5
c-30.667 0 -50.667 -14.167 -60 -42.5s-14 -68.5 -14 -120.5v-263c0 -52 4.5 -92 13.5 -120s29.833 -42 62.5 -42c30.667 0 50.667 15.167 60 45.5s13.666 73.5 12.999 129.5h-72v117h226v-133c0 -89.333 -20 -157.5 -60 -204.5s-95.667 -70.5 -167 -70.5zM300.001 901.001
c-28.667 0 -52.167 4.66699 -70.5 14s-27.5 26.333 -27.5 51v11c0 24.667 9.16699 42.167 27.5 52.5s41.833 15.5 70.5 15.5c29.333 0 53 -5.16699 71 -15.5s27 -27.833 27 -52.5v-11c0 -24.667 -9.16699 -41.667 -27.5 -51s-41.833 -14 -70.5 -14z" />
    <glyph glyph-name="gdotaccent" unicode="&#x121;" 
d="M534 -39c0 -54 -15.8311 -96.0039 -47.498 -126.004s-74.5 -45 -128.5 -45h-128c-60.667 0 -105.5 12.667 -134.5 38s-43.5 60.666 -43.5 105.999c0 32.667 8.16699 58.834 24.5 78.501s35.833 31.167 58.5 34.5v20c-18.667 6 -34.334 16.667 -47.001 32s-19 39 -19 71
c0 32.667 10 60.334 30 83.001s44.333 36.334 73 41.001v18c-26.667 10 -47 25.333 -61 46s-21 43.334 -21 68.001v16c0 48 17.5 86.333 52.5 115s80.833 43 137.5 43h254v-99l-124 21v-19c18.667 -6.66699 34.167 -19.834 46.5 -39.501s18.5 -40.5 18.5 -62.5v-17
c0 -47.333 -17.833 -84.666 -53.5 -111.999s-81.167 -41 -136.5 -41h-52c-16.667 0 -29.834 -4.16699 -39.501 -12.5s-14.5 -22.166 -14.5 -41.499c0 -18.667 4.66699 -32.5 14 -41.5s22.333 -13.5 39 -13.5h131c52 0 93.5 -12.833 124.5 -38.5s46.5 -66.5 46.5 -122.5z
M282.002 312.996c19.333 0 33.168 6.66699 41.501 20s12.5 33 12.5 59v39c0 25.333 -4.33301 44.333 -13 57s-22.334 19 -41.001 19c-19.333 0 -33.333 -6.33301 -42 -19s-13 -31.667 -13 -57v-39c0 -26 4 -45.667 12 -59s22.333 -20 43 -20zM252.004 -117.004h101.999
c16.667 0 30.334 4.5 41.001 13.5s16 26.167 16 51.5c0 24.667 -5.16699 41.5 -15.5 50.5s-23.5 13.5 -39.5 13.5h-160v-59c0 -22.667 3.66699 -40 11 -52s22.333 -18 45 -18zM293.003 700.996c-28.667 0 -52.167 4.66699 -70.5 14s-27.5 26.333 -27.5 51v11
c0 24.667 9.16699 42.167 27.5 52.5s41.833 15.5 70.5 15.5c29.333 0 53 -5.16699 71 -15.5s27 -27.833 27 -52.5v-11c0 -24.667 -9.16699 -41.667 -27.5 -51s-41.833 -14 -70.5 -14z" />
    <glyph glyph-name="Gcommaaccent" unicode="&#x122;" 
d="M168 -300l49 200h190l-139 -200h-100zM296 -10c-75.333 0 -132.332 24.168 -170.999 72.501s-58 114.166 -58 197.499v279c0 85.333 19.667 151.833 59 199.5s95 71.5 167 71.5c74.667 0 130 -20.5 166 -61.5s56 -104.167 60 -189.5l-153 -10
c-3.33301 56 -10 94.167 -20 114.5s-27.333 30.5 -52 30.5c-30.667 0 -50.667 -14.167 -60 -42.5s-14 -68.5 -14 -120.5v-263c0 -52 4.5 -92 13.5 -120s29.833 -42 62.5 -42c30.667 0 50.667 15.167 60 45.5s13.666 73.5 12.999 129.5h-72v117h226v-133
c0 -89.333 -20 -157.5 -60 -204.5s-95.667 -70.5 -167 -70.5z" />
    <glyph glyph-name="gcommaaccent" unicode="&#x123;" 
d="M534 -39c0 -54 -15.8311 -96.0039 -47.498 -126.004s-74.5 -45 -128.5 -45h-128c-60.667 0 -105.5 12.667 -134.5 38s-43.5 60.666 -43.5 105.999c0 32.667 8.16699 58.834 24.5 78.501s35.833 31.167 58.5 34.5v20c-18.667 6 -34.334 16.667 -47.001 32s-19 39 -19 71
c0 32.667 10 60.334 30 83.001s44.333 36.334 73 41.001v18c-26.667 10 -47 25.333 -61 46s-21 43.334 -21 68.001v16c0 48 17.5 86.333 52.5 115s80.833 43 137.5 43h254v-99l-124 21v-19c18.667 -6.66699 34.167 -19.834 46.5 -39.501s18.5 -40.5 18.5 -62.5v-17
c0 -47.333 -17.833 -84.666 -53.5 -111.999s-81.167 -41 -136.5 -41h-52c-16.667 0 -29.834 -4.16699 -39.501 -12.5s-14.5 -22.166 -14.5 -41.499c0 -18.667 4.66699 -32.5 14 -41.5s22.333 -13.5 39 -13.5h131c52 0 93.5 -12.833 124.5 -38.5s46.5 -66.5 46.5 -122.5z
M282.002 312.996c19.333 0 33.168 6.66699 41.501 20s12.5 33 12.5 59v39c0 25.333 -4.33301 44.333 -13 57s-22.334 19 -41.001 19c-19.333 0 -33.333 -6.33301 -42 -19s-13 -31.667 -13 -57v-39c0 -26 4 -45.667 12 -59s22.333 -20 43 -20zM252.004 -117.004h101.999
c16.667 0 30.334 4.5 41.001 13.5s16 26.167 16 51.5c0 24.667 -5.16699 41.5 -15.5 50.5s-23.5 13.5 -39.5 13.5h-160v-59c0 -22.667 3.66699 -40 11 -52s22.333 -18 45 -18zM191.003 699.996l140 200h99l-48 -200h-191z" />
    <glyph glyph-name="Hcircumflex" unicode="&#x124;" 
d="M66 0v800h154v-302h146v302h154v-800h-154v381h-146v-381h-154zM143 898l-50 70l141 153h117l142 -153l-49 -69l-152 108z" />
    <glyph glyph-name="hcircumflex" unicode="&#x125;" 
d="M74 0l0.000976562 800h153v-284h23c8.66699 28.667 24.667 51.5 48 68.5s50.666 25.5 81.999 25.5c40.667 0 72.667 -15.5 96 -46.5s35 -73.5 35 -127.5v-436h-153v410c0 26 -4.33301 46 -13 60s-21 21 -37 21c-16.667 0 -32 -5.83301 -46 -17.5
s-25.667 -28.167 -35 -49.5v-424h-153zM1.00098 898l-50 70l141 153h117l142 -153l-49 -69l-152 108z" />
    <glyph glyph-name="Hbar" unicode="&#x126;" 
d="M220 426h146v130h-146v-130zM220 309v-309h-154v556h-75v103h75v141h154v-141h146v141h154v-141h75v-103h-75v-556h-154v309h-146z" />
    <glyph glyph-name="hbar" unicode="&#x127;" 
d="M227 352l-0.000976562 -352h-153v617h-75v89h75v94h153v-94h119v-89h-119v-163h23c10 31.333 26.333 55.333 49 72s49.334 25 80.001 25c42 0 74.5 -14.333 97.5 -43s34.5 -69 34.5 -121v-387h-153v349c0 27.333 -3.66699 48 -11 62s-18.666 21 -33.999 21
s-30.333 -6.66699 -45 -20s-28.334 -33.333 -41.001 -60z" />
    <glyph glyph-name="Itilde" unicode="&#x128;" 
d="M66 0v116h150v568h-150v116h454v-116h-150v-568h150v-116h-454zM365 910c-21.333 0 -38.834 4.66602 -52.501 13.999s-25.834 22.333 -36.501 39c-8 12.667 -15.167 24.5 -21.5 35.5s-14.166 16.5 -23.499 16.5s-17 -5.5 -23 -16.5s-8.66699 -29.833 -8 -56.5v-22h-98v15
c0 56 11.167 100.667 33.5 134s52.833 50 91.5 50c19.333 0 35.333 -4.66699 48 -14s24.667 -22.333 36 -39l23 -36.5c6.66699 -11 14.334 -16.5 23.001 -16.5c10 0 17.5 5.5 22.5 16.5s7.5 30.167 7.5 57.5v21h97v-15c0 -55.333 -10.667 -99.666 -32 -132.999
s-50.333 -50 -87 -50z" />
    <glyph glyph-name="itilde" unicode="&#x129;" 
d="M82 0v112h134v376h-134v112h288v-488h134v-112h-422zM365 710c-21.333 0 -38.834 4.66602 -52.501 13.999s-25.834 22.333 -36.501 39c-8 12.667 -15.167 24.5 -21.5 35.5s-14.166 16.5 -23.499 16.5s-17 -5.5 -23 -16.5s-8.66699 -29.833 -8 -56.5v-22h-98v15
c0 56 11.167 100.667 33.5 134s52.833 50 91.5 50c19.333 0 35.333 -4.66699 48 -14s24.667 -22.333 36 -39l23 -36.5c6.66699 -11 14.334 -16.5 23.001 -16.5c10 0 17.5 5.5 22.5 16.5s7.5 30.167 7.5 57.5v21h97v-15c0 -55.333 -10.667 -99.666 -32 -132.999
s-50.333 -50 -87 -50z" />
    <glyph glyph-name="Imacron" unicode="&#x12a;" 
d="M66 0v116h150v568h-150v116h454v-116h-150v-568h150v-116h-454zM123 942v116h340v-116h-340z" />
    <glyph glyph-name="imacron" unicode="&#x12b;" 
d="M82 0v112h134v376h-134v112h288v-488h134v-112h-422zM123 742v116h340v-116h-340z" />
    <glyph glyph-name="Ibreve" unicode="&#x12c;" 
d="M66 0v116h150v568h-150v116h454v-116h-150v-568h150v-116h-454zM293 893c-67.333 0 -117.67 18.333 -151.003 55s-50.333 92.667 -51 168h122c0.666992 -48 6.83398 -81 18.501 -99s32.167 -27 61.5 -27s49.833 9 61.5 27s17.834 51 18.501 99h122
c-0.666992 -75.333 -17.667 -131.333 -51 -168s-83.666 -55 -150.999 -55z" />
    <glyph glyph-name="ibreve" unicode="&#x12d;" 
d="M82 0v112h134v376h-134v112h288v-488h134v-112h-422zM293 693c-67.333 0 -117.67 18.333 -151.003 55s-50.333 92.667 -51 168h122c0.666992 -48 6.83398 -81 18.501 -99s32.167 -27 61.5 -27s49.833 9 61.5 27s17.834 51 18.501 99h122
c-0.666992 -75.333 -17.667 -131.333 -51 -168s-83.666 -55 -150.999 -55z" />
    <glyph glyph-name="Iogonek" unicode="&#x12e;" 
d="M66 0v116h150v568h-150v116h454v-116h-150v-568h150v-116h-454zM359 -219c-43.333 0 -76.999 10.666 -100.999 31.999s-36 51.666 -36 90.999c0 34 11.667 65.333 35 94s52.666 49.334 87.999 62.001l20 -37c-13.333 -10.667 -22.833 -23.167 -28.5 -37.5
s-8.5 -30.166 -8.5 -47.499c0 -18 4.5 -31.333 13.5 -40s23.5 -13 43.5 -13c8.66699 0 19 0.833008 31 2.5s25.667 4.16699 41 7.5v-103c-18.667 -3.33301 -36.167 -6 -52.5 -8s-31.5 -3 -45.5 -3z" />
    <glyph glyph-name="iogonek" unicode="&#x12f;" 
d="M301 701c-28.667 0 -52.167 4.66699 -70.5 14s-27.5 26.333 -27.5 51v11c0 24.667 9.16699 42.167 27.5 52.5s41.833 15.5 70.5 15.5c29.333 0 53 -5.16699 71 -15.5s27 -27.833 27 -52.5v-11c0 -24.667 -9.16699 -41.667 -27.5 -51s-41.833 -14 -70.5 -14zM82 0v112h134
v376h-134v112h288v-488h134v-112h-422zM338 -219c-43.333 0 -76.999 10.666 -100.999 31.999s-36 51.666 -36 90.999c0 34 11.667 65.333 35 94s52.666 49.334 87.999 62.001l20 -37c-13.333 -10.667 -22.833 -23.167 -28.5 -37.5s-8.5 -30.166 -8.5 -47.499
c0 -18 4.5 -31.333 13.5 -40s23.5 -13 43.5 -13c8.66699 0 19 0.833008 31 2.5s25.667 4.16699 41 7.5v-103c-18.667 -3.33301 -36.167 -6 -52.5 -8s-31.5 -3 -45.5 -3z" />
    <glyph glyph-name="Idotaccent" unicode="&#x130;" 
d="M66 0v116h150v568h-150v116h454v-116h-150v-568h150v-116h-454zM293 901c-28.667 0 -52.167 4.66699 -70.5 14s-27.5 26.333 -27.5 51v11c0 24.667 9.16699 42.167 27.5 52.5s41.833 15.5 70.5 15.5c29.333 0 53 -5.16699 71 -15.5s27 -27.833 27 -52.5v-11
c0 -24.667 -9.16699 -41.667 -27.5 -51s-41.833 -14 -70.5 -14z" />
    <glyph glyph-name="dotlessi" unicode="&#x131;" 
d="M82 0v112h134v376h-134v112h288v-488h134v-112h-422z" />
    <glyph glyph-name="IJ" unicode="&#x132;" 
d="M174 0h-115v800h115v-800zM384 -10c-56.667 0 -97.335 21.167 -122.002 63.5s-36.667 111.5 -36 207.5l114 11c-0.666992 -70 1.33301 -116.5 6 -139.5s14.334 -34.5 29.001 -34.5c12.667 0 21.834 10.667 27.501 32s8.5 53.666 8.5 96.999v466h-95v107h210v-573
c0 -73.333 -11.667 -131.166 -35 -173.499s-59 -63.5 -107 -63.5z" />
    <glyph glyph-name="ij" unicode="&#x133;" 
d="M143 701c-26.667 0 -48.334 4.66699 -65.001 14s-25 26.333 -25 51v11c0 24.667 8.33301 42.167 25 52.5s38.334 15.5 65.001 15.5s48.167 -5.16699 64.5 -15.5s24.5 -27.833 24.5 -52.5v-11c0 -24.667 -8.33301 -41.667 -25 -51s-38 -14 -64 -14zM442 701
c-26.667 0 -48.335 4.66699 -65.002 14s-25 26.333 -25 51v11c0 24.667 8.33301 42.167 25 52.5s38.334 15.5 65.001 15.5s48.334 -5.16699 65.001 -15.5s25 -27.833 25 -52.5v-11c0 -24.667 -8.5 -41.667 -25.5 -51s-38.5 -14 -64.5 -14zM218.999 0h-138v600h138v-600z
M327.999 -209c-20 0 -39.999 1.66699 -59.999 5s-39.333 9 -58 17l15 109c16 -6.66699 31 -11.667 45 -15s26.667 -5 38 -5c23.333 0 41.166 8.33301 53.499 25s18.5 44.667 18.5 84v477h-96v112h234v-604c0 -71.333 -19.333 -123.333 -58 -156s-82.667 -49 -132 -49z" />
    <glyph glyph-name="Jcircumflex" unicode="&#x134;" 
d="M284 -10c-82 0 -140.335 21.168 -175.002 63.501s-53.667 114.5 -57 216.5l153 11c3.33301 -70 10.333 -116.667 21 -140s28.334 -35 53.001 -35s42.834 10.667 54.501 32s17.5 55.666 17.5 102.999v443h-174v116h327v-553c0 -81.333 -17.833 -144.5 -53.5 -189.5
s-91.167 -67.5 -166.5 -67.5zM186.998 898.001l-50 70l141 153h117l142 -153l-49 -69l-152 108z" />
    <glyph glyph-name="jcircumflex" unicode="&#x135;" 
d="M208 -209c-24 0 -48.001 1.5 -72.001 4.5s-47 8.83301 -69 17.5l15 109c20 -8 38.833 -13.333 56.5 -16s33.834 -4 48.501 -4c30.667 0 54.334 8.33301 71.001 25s25 44.667 25 84v477h-185v112h338v-604c0 -63.333 -21.333 -113.333 -64 -150s-97.334 -55 -164.001 -55z
M182.999 698l-50 70l141 153h117l142 -153l-49 -69l-152 108z" />
    <glyph glyph-name="Kcommaaccent" unicode="&#x136;" 
d="M220 360v-360h-154v800h154v-323h29l139 323h177l-189 -368l186 -432h-174l-136 360h-32zM187 -300l49 200h190l-139 -200h-100z" />
    <glyph glyph-name="kcommaaccent" unicode="&#x137;" 
d="M234 260v-260h-154v800h154v-435h27l113 235h157l-146 -275l144 -325h-163l-105 260h-27zM187 -300l49 200h190l-139 -200h-100z" />
    <glyph glyph-name="kgreenlandic" unicode="&#x138;" 
d="M234 260v-260h-154v600h154v-235h27l113 235h157l-146 -275l144 -325h-163l-105 260h-27z" />
    <glyph glyph-name="Lacute" unicode="&#x139;" 
d="M104 0v800h153v-684h263v-116h-416zM103 900l78 200h191l-170 -200h-99z" />
    <glyph glyph-name="lacute" unicode="&#x13a;" 
d="M89 0v112h143v576h-143v112h296v-688h135v-112h-431zM187 900l78 200h191l-170 -200h-99z" />
    <glyph glyph-name="Lcommaaccent" unicode="&#x13b;" 
d="M104 0v800h153v-684h263v-116h-416zM203 -300l49 200h190l-139 -200h-100z" />
    <glyph glyph-name="lcommaaccent" unicode="&#x13c;" 
d="M89 0v112h143v576h-143v112h296v-688h135v-112h-431zM157 -300l49 200h190l-139 -200h-100z" />
    <glyph glyph-name="Lcaron" unicode="&#x13d;" 
d="M104 0v800h153v-684h263v-116h-416zM328 505l37 295h189l-141 -295h-85z" />
    <glyph glyph-name="lcaron" unicode="&#x13e;" 
d="M89 0v112h143v576h-143v112h296v-688h135v-112h-431zM441 705l37 295h189l-141 -295h-85z" />
    <glyph glyph-name="Ldot" unicode="&#x13f;" 
d="M104 0v800h153v-684h263v-116h-416zM473 397c-28.667 0 -52.167 4.66699 -70.5 14s-27.5 26.333 -27.5 51v11c0 24.667 9.16699 42.167 27.5 52.5s41.833 15.5 70.5 15.5c29.333 0 53 -5.16699 71 -15.5s27 -27.833 27 -52.5v-11c0 -24.667 -9.16699 -41.667 -27.5 -51
s-41.833 -14 -70.5 -14z" />
    <glyph glyph-name="ldot" unicode="&#x140;" 
d="M89 0v112h143v576h-143v112h296v-688h135v-112h-431zM560 319c-28.667 0 -52.167 4.66699 -70.5 14s-27.5 26.333 -27.5 51v11c0 24.667 9.16699 42.167 27.5 52.5s41.833 15.5 70.5 15.5c29.333 0 53 -5.16699 71 -15.5s27 -27.833 27 -52.5v-11
c0 -24.667 -9.16699 -41.667 -27.5 -51s-41.833 -14 -70.5 -14z" />
    <glyph glyph-name="Lslash" unicode="&#x141;" 
d="M104 0v337l-52 -20v97l52 20v366h153v-305l172 68v-97l-172 -68v-282h263v-116h-416z" />
    <glyph glyph-name="lslash" unicode="&#x142;" 
d="M89 0v112h143v225l-120 -40v97l120 41v253h-143v112h296v-313l65 22v-98l-65 -22v-277h135v-112h-431z" />
    <glyph glyph-name="Nacute" unicode="&#x143;" 
d="M342 0l-146 595v-595h-130v800h165l158 -603v603h131v-800h-178zM214 900l78 200h191l-170 -200h-99z" />
    <glyph glyph-name="nacute" unicode="&#x144;" 
d="M74 0v600.001h153v-84h23c10.667 29.333 27.667 52.333 51 69s50 25 80 25c40.667 0 72.5 -15.333 95.5 -46s34.5 -73.334 34.5 -128.001v-436h-153v409c0 26.667 -4.33301 47 -13 61s-21 21 -37 21c-16.667 0 -32 -5.83301 -46 -17.5s-25.667 -28.5 -35 -50.5v-423h-153
zM207 700.001l78 200h191l-170 -200h-99z" />
    <glyph glyph-name="Ncommaaccent" unicode="&#x145;" 
d="M170 -300l49 200h190l-139 -200h-100zM342 0l-146 595v-595h-130v800h165l158 -603v603h131v-800h-178z" />
    <glyph glyph-name="ncommaaccent" unicode="&#x146;" 
d="M169 -300l49 200h190l-139 -200h-100zM74 0v600.001h153v-84h23c10.667 29.333 27.667 52.333 51 69s50 25 80 25c40.667 0 72.5 -15.333 95.5 -46s34.5 -73.334 34.5 -128.001v-436h-153v409c0 26.667 -4.33301 47 -13 61s-21 21 -37 21
c-16.667 0 -32 -5.83301 -46 -17.5s-25.667 -28.5 -35 -50.5v-423h-153z" />
    <glyph glyph-name="Ncaron" unicode="&#x147;" 
d="M342 0l-146 595v-595h-130v800h165l158 -603v603h131v-800h-178zM234 904l-142 153l49 70l152 -108l149 108l50 -70l-141 -153h-117z" />
    <glyph glyph-name="ncaron" unicode="&#x148;" 
d="M74 0v600.001h153v-84h23c10.667 29.333 27.667 52.333 51 69s50 25 80 25c40.667 0 72.5 -15.333 95.5 -46s34.5 -73.334 34.5 -128.001v-436h-153v409c0 26.667 -4.33301 47 -13 61s-21 21 -37 21c-16.667 0 -32 -5.83301 -46 -17.5s-25.667 -28.5 -35 -50.5v-423h-153
zM250 704.001l-142 153l49 70l152 -108l149 108l50 -70l-141 -153h-117z" />
    <glyph glyph-name="napostrophe" unicode="&#x149;" 
d="M74 0v600.001h153v-84h23c10.667 29.333 27.667 52.333 51 69s50 25 80 25c40.667 0 72.5 -15.333 95.5 -46s34.5 -73.334 34.5 -128.001v-436h-153v409c0 26.667 -4.33301 47 -13 61s-21 21 -37 21c-16.667 0 -32 -5.83301 -46 -17.5s-25.667 -28.5 -35 -50.5v-423h-153
zM4 700.001l78 200h191l-170 -200h-99z" />
    <glyph glyph-name="Eng" unicode="&#x14a;" 
d="M330 -209c-17.333 0 -34.6689 2.50098 -52.002 7.50098s-34 11.833 -50 20.5l15 109c12.667 -8 24.5 -14.333 35.5 -19s21.167 -7 30.5 -7c18.667 0 32.834 8.66699 42.501 26s14.5 46.666 14.5 87.999v572c0 34 -4.16699 59.667 -12.5 77s-21.166 26 -38.499 26
c-14.667 0 -30.167 -7.83301 -46.5 -23.5s-32.5 -39.167 -48.5 -70.5v-597h-154v800h154v-101h22c12 36 30.5 63.5 55.5 82.5s54.5 28.5 88.5 28.5c37.333 0 69 -15.833 95 -47.5s39 -77.167 39 -136.5v-625c0 -66 -16.833 -117.5 -50.5 -154.5s-80.167 -55.5 -139.5 -55.5z
" />
    <glyph glyph-name="eng" unicode="&#x14b;" 
d="M329 -209c-17.333 0 -34.832 2.00098 -52.499 6.00098s-34.834 9.33301 -51.501 16l15 109c12.667 -6 24.834 -10.833 36.501 -14.5s22.167 -5.5 31.5 -5.5c16 0 28.333 8 37 24s13 42.333 13 79v404c0 26.667 -4.33301 47 -13 61s-21 21 -37 21
c-16.667 0 -32 -5.83301 -46 -17.5s-25.667 -28.5 -35 -50.5v-423h-153v600h153v-84h23c10.667 29.333 27.667 52.333 51 69s50 25 80 25c40.667 0 72.5 -15.333 95.5 -46s34.5 -73.334 34.5 -128.001l1 -446c0 -68.667 -18.833 -119 -56.5 -151s-79.834 -48 -126.501 -48z
" />
    <glyph glyph-name="Omacron" unicode="&#x14c;" 
d="M293 -10c-72.667 0 -128.5 23.667 -167.5 71s-58.5 113 -58.5 197v280c0 85.333 19.667 152 59 200s95 72 167 72c72.667 0 128.5 -24 167.5 -72s58.5 -114.667 58.5 -200v-280c0 -84 -19.5 -149.667 -58.5 -197s-94.833 -71 -167.5 -71zM293 106
c28 0 47.167 11.333 57.5 34s15.5 65 15.5 127v262c0 64 -5.16699 107.5 -15.5 130.5s-29.5 34.5 -57.5 34.5s-47.167 -11.5 -57.5 -34.5s-15.5 -66.5 -15.5 -130.5v-262c0 -62 5.16699 -104.333 15.5 -127s29.5 -34 57.5 -34zM123 942v116h340v-116h-340z" />
    <glyph glyph-name="omacron" unicode="&#x14d;" 
d="M294 -10c-68 0 -121.5 18.5 -160.5 55.5s-58.5 87.5 -58.5 151.5v202c0 66 19.5 117.667 58.5 155s92.5 56 160.5 56c67.333 0 120.5 -19 159.5 -57s58.5 -90 58.5 -156v-202c0 -64 -19.5 -114.167 -58.5 -150.5s-92.167 -54.5 -159.5 -54.5zM294 102
c22.667 0 39.167 7.50098 49.5 22.501s15.5 40.5 15.5 76.5v194c0 36.667 -5.16699 63 -15.5 79s-26.833 24 -49.5 24s-39.334 -8 -50.001 -24s-16 -42 -16 -78v-192c0 -36.667 5.33301 -62.834 16 -78.501s27.334 -23.5 50.001 -23.5zM123 742.001v116h340v-116h-340z" />
    <glyph glyph-name="Obreve" unicode="&#x14e;" 
d="M293 -10c-72.667 0 -128.5 23.667 -167.5 71s-58.5 113 -58.5 197v280c0 85.333 19.667 152 59 200s95 72 167 72c72.667 0 128.5 -24 167.5 -72s58.5 -114.667 58.5 -200v-280c0 -84 -19.5 -149.667 -58.5 -197s-94.833 -71 -167.5 -71zM293 106
c28 0 47.167 11.333 57.5 34s15.5 65 15.5 127v262c0 64 -5.16699 107.5 -15.5 130.5s-29.5 34.5 -57.5 34.5s-47.167 -11.5 -57.5 -34.5s-15.5 -66.5 -15.5 -130.5v-262c0 -62 5.16699 -104.333 15.5 -127s29.5 -34 57.5 -34zM293 893
c-67.333 0 -117.67 18.333 -151.003 55s-50.333 92.667 -51 168h122c0.666992 -48 6.83398 -81 18.501 -99s32.167 -27 61.5 -27s49.833 9 61.5 27s17.834 51 18.501 99h122c-0.666992 -75.333 -17.667 -131.333 -51 -168s-83.666 -55 -150.999 -55z" />
    <glyph glyph-name="obreve" unicode="&#x14f;" 
d="M294 -10c-68 0 -121.5 18.5 -160.5 55.5s-58.5 87.5 -58.5 151.5v202c0 66 19.5 117.667 58.5 155s92.5 56 160.5 56c67.333 0 120.5 -19 159.5 -57s58.5 -90 58.5 -156v-202c0 -64 -19.5 -114.167 -58.5 -150.5s-92.167 -54.5 -159.5 -54.5zM294 102
c22.667 0 39.167 7.50098 49.5 22.501s15.5 40.5 15.5 76.5v194c0 36.667 -5.16699 63 -15.5 79s-26.833 24 -49.5 24s-39.334 -8 -50.001 -24s-16 -42 -16 -78v-192c0 -36.667 5.33301 -62.834 16 -78.501s27.334 -23.5 50.001 -23.5zM300 693.001
c-67.333 0 -117.67 18.333 -151.003 55s-50.333 92.667 -51 168h122c0.666992 -48 6.83398 -81 18.501 -99s32.167 -27 61.5 -27s49.833 9 61.5 27s17.834 51 18.501 99h122c-0.666992 -75.333 -17.667 -131.333 -51 -168s-83.666 -55 -150.999 -55z" />
    <glyph glyph-name="Ohungarumlaut" unicode="&#x150;" 
d="M293 -10c-72.667 0 -128.5 23.667 -167.5 71s-58.5 113 -58.5 197v280c0 85.333 19.667 152 59 200s95 72 167 72c72.667 0 128.5 -24 167.5 -72s58.5 -114.667 58.5 -200v-280c0 -84 -19.5 -149.667 -58.5 -197s-94.833 -71 -167.5 -71zM293 106
c28 0 47.167 11.333 57.5 34s15.5 65 15.5 127v262c0 64 -5.16699 107.5 -15.5 130.5s-29.5 34.5 -57.5 34.5s-47.167 -11.5 -57.5 -34.5s-15.5 -66.5 -15.5 -130.5v-262c0 -62 5.16699 -104.333 15.5 -127s29.5 -34 57.5 -34zM335 900l34 200h144l-102 -200h-76zM162 900
l34 200h145l-102 -200h-77z" />
    <glyph glyph-name="ohungarumlaut" unicode="&#x151;" 
d="M294 -10c-68 0 -121.5 18.5 -160.5 55.5s-58.5 87.5 -58.5 151.5v202c0 66 19.5 117.667 58.5 155s92.5 56 160.5 56c67.333 0 120.5 -19 159.5 -57s58.5 -90 58.5 -156v-202c0 -64 -19.5 -114.167 -58.5 -150.5s-92.167 -54.5 -159.5 -54.5zM294 102
c22.667 0 39.167 7.50098 49.5 22.501s15.5 40.5 15.5 76.5v194c0 36.667 -5.16699 63 -15.5 79s-26.833 24 -49.5 24s-39.334 -8 -50.001 -24s-16 -42 -16 -78v-192c0 -36.667 5.33301 -62.834 16 -78.501s27.334 -23.5 50.001 -23.5zM327 700.001l34 200h144l-102 -200
h-76zM154 700.001l34 200h145l-102 -200h-77z" />
    <glyph glyph-name="OE" unicode="&#x152;" 
d="M240 0c-58 0 -103.5 24.167 -136.5 72.5s-49.5 112.833 -49.5 193.5v268c0 80.667 16.5 145.167 49.5 193.5s78.5 72.5 136.5 72.5h299v-106h-132v-205h94v-107h-94v-276h132v-106h-299zM249 111l28 0.00195312v578h-28c-22.667 0 -39.334 -11.833 -50.001 -35.5
s-16 -62.834 -16 -117.501v-272c0 -54.667 5.33301 -93.834 16 -117.501s27.334 -35.5 50.001 -35.5z" />
    <glyph glyph-name="oe" unicode="&#x153;" 
d="M534 142c-8.66699 -55.333 -24.5029 -94.5 -47.5029 -117.5s-53.167 -34.5 -90.5 -34.5c-23.333 0 -44.666 5.5 -63.999 16.5s-35 27.5 -47 49.5c-10.667 -22 -24.167 -38.5 -40.5 -49.5s-34.166 -16.5 -53.499 -16.5c-38 0 -69.667 16.667 -95 50s-38 84.333 -38 153
v210c0 70 12.833 122 38.5 156s57.5 51 95.5 51c19.333 0 37 -5.5 53 -16.5s29.333 -27.5 40 -49.5c11.333 22 26.5 38.5 45.5 49.5s39.833 16.5 62.5 16.5c38 0 69.833 -15.667 95.5 -47s38.5 -80 38.5 -146v-146h-181v-116c0 -23.333 3 -40.5 9 -51.5
s16.333 -16.5 31 -16.5c13.333 0 23.833 4.66699 31.5 14s13.834 28.333 18.501 57zM345.997 438v-86.001h63v84c0 24.667 -2.16699 42.834 -6.5 54.501s-12.833 17.5 -25.5 17.5c-10.667 0 -18.5 -5.5 -23.5 -16.5s-7.5 -28.833 -7.5 -53.5zM206.997 95.999
c12 0 20.333 7 25 21s7 37 7 69v229c0 30 -2.33301 52.333 -7 67s-13 22 -25 22c-12.667 0 -21 -7.5 -25 -22.5s-6 -37.5 -6 -67.5v-228c0 -32 2 -55 6 -69s12.333 -21 25 -21z" />
    <glyph glyph-name="Racute" unicode="&#x154;" 
d="M220 412h70c24.667 0 43.334 7.66699 56.001 23s19 43.333 19 84v62c0 40 -6.33301 67.167 -19 81.5s-31.334 21.5 -56.001 21.5h-70v-272zM220 0h-154v800h249c64 0 112.5 -18.333 145.5 -55s49.5 -90 49.5 -160v-67c0 -54 -9 -98.5 -27 -133.5
s-44.333 -58.833 -79 -71.5l128 -313h-159l-121 297h-32v-297zM209 900l78 200h191l-170 -200h-99z" />
    <glyph glyph-name="racute" unicode="&#x155;" 
d="M88 0v599.999h153v-101h23c10.667 38.667 28 66.834 52 84.501s52.333 26.5 85 26.5c39.333 0 68.833 -14.5 88.5 -43.5s29.5 -70.167 29.5 -123.5v-102h-137v56c0 34.667 -3.83301 59 -11.5 73s-21.5 21 -41.5 21c-16.667 0 -33 -6.5 -49 -19.5s-29 -33.5 -39 -61.5
v-410h-153zM210 699.999l78 200h191l-170 -200h-99z" />
    <glyph glyph-name="Rcommaaccent" unicode="&#x156;" 
d="M220 412h70c24.667 0 43.334 7.66699 56.001 23s19 43.333 19 84v62c0 40 -6.33301 67.167 -19 81.5s-31.334 21.5 -56.001 21.5h-70v-272zM220 0h-154v800h249c64 0 112.5 -18.333 145.5 -55s49.5 -90 49.5 -160v-67c0 -54 -9 -98.5 -27 -133.5
s-44.333 -58.833 -79 -71.5l128 -313h-159l-121 297h-32v-297zM150 -300l49 200h190l-139 -200h-100z" />
    <glyph glyph-name="rcommaaccent" unicode="&#x157;" 
d="M88 0v599.999h153v-101h23c10.667 38.667 28 66.834 52 84.501s52.333 26.5 85 26.5c39.333 0 68.833 -14.5 88.5 -43.5s29.5 -70.167 29.5 -123.5v-102h-137v56c0 34.667 -3.83301 59 -11.5 73s-21.5 21 -41.5 21c-16.667 0 -33 -6.5 -49 -19.5s-29 -33.5 -39 -61.5
v-410h-153zM49 -300.001l49 200h190l-139 -200h-100z" />
    <glyph glyph-name="Rcaron" unicode="&#x158;" 
d="M220 412h70c24.667 0 43.334 7.66699 56.001 23s19 43.333 19 84v62c0 40 -6.33301 67.167 -19 81.5s-31.334 21.5 -56.001 21.5h-70v-272zM220 0h-154v800h249c64 0 112.5 -18.333 145.5 -55s49.5 -90 49.5 -160v-67c0 -54 -9 -98.5 -27 -133.5
s-44.333 -58.833 -79 -71.5l128 -313h-159l-121 297h-32v-297zM222 904l-142 153l49 70l152 -108l149 108l50 -70l-141 -153h-117z" />
    <glyph glyph-name="rcaron" unicode="&#x159;" 
d="M88 0v599.999h153v-101h23c10.667 38.667 28 66.834 52 84.501s52.333 26.5 85 26.5c39.333 0 68.833 -14.5 88.5 -43.5s29.5 -70.167 29.5 -123.5v-102h-137v56c0 34.667 -3.83301 59 -11.5 73s-21.5 21 -41.5 21c-16.667 0 -33 -6.5 -49 -19.5s-29 -33.5 -39 -61.5
v-410h-153zM253 703.999l-142 153l49 70l152 -108l149 108l50 -70l-141 -153h-117z" />
    <glyph glyph-name="Sacute" unicode="&#x15a;" 
d="M277 -9c-38 0 -75.832 6.33594 -113.499 19.0029s-71.834 30.334 -102.501 53.001l26 118c30.667 -22 61.834 -39.833 93.501 -53.5s65.5 -20.5 101.5 -20.5c31.333 0 54.5 9.5 69.5 28.5s22.5 43.833 22.5 74.5c0 34 -8.83301 59.167 -26.5 75.5
s-50.5 35.833 -98.5 58.5c-64.667 29.333 -110.5 61.666 -137.5 96.999s-40.5 81 -40.5 137c0 68 19.667 123.167 59 165.5s94.666 63.5 165.999 63.5c36.667 0 72 -6.33301 106 -19s64 -29.667 90 -51l-19 -112c-29.333 21.333 -57.5 37.333 -84.5 48s-53.5 16 -79.5 16
c-27.333 0 -48.333 -8 -63 -24s-22 -39.667 -22 -71c0 -30.667 9 -53.834 27 -69.501s50.667 -34.834 98 -57.501c64.667 -32.667 110.5 -66.834 137.5 -102.501s40.5 -80.5 40.5 -134.5c0 -73.333 -22.333 -131.5 -67 -174.5s-105.667 -64.5 -183 -64.5zM190.001 900.003
l78 200h191l-170 -200h-99z" />
    <glyph glyph-name="sacute" unicode="&#x15b;" 
d="M280 -8c-41.333 0 -80.666 6.33496 -117.999 19.002s-68.666 27.667 -93.999 45l34 97c26.667 -15.333 56.167 -28.833 88.5 -40.5s62.166 -17.5 89.499 -17.5c28 0 49 5.33301 63 16s21 26.667 21 48c0 23.333 -6.5 40.166 -19.5 50.499s-42.5 23.166 -88.5 38.499
c-65.333 22 -110.5 46.667 -135.5 74s-37.5 65 -37.5 113c0 52 18.667 94.167 56 126.5s87.666 48.5 150.999 48.5c39.333 0 75.833 -5.66699 109.5 -17s62.5 -25.666 86.5 -42.999l-26 -94c-24.667 14 -50.834 26 -78.501 36s-53.167 15 -76.5 15
c-22 0 -39.167 -4.66699 -51.5 -14s-18.5 -24.333 -18.5 -45s7.83301 -36.334 23.5 -47.001s51.167 -25.667 106.5 -45c56.667 -20 96.167 -43.5 118.5 -70.5s33.5 -64.833 33.5 -113.5c0 -52 -20.667 -95 -62 -129s-99.666 -51 -174.999 -51zM198 700.002l78 200h191
l-170 -200h-99z" />
    <glyph glyph-name="Scircumflex" unicode="&#x15c;" 
d="M277 -9c-38 0 -75.832 6.33594 -113.499 19.0029s-71.834 30.334 -102.501 53.001l26 118c30.667 -22 61.834 -39.833 93.501 -53.5s65.5 -20.5 101.5 -20.5c31.333 0 54.5 9.5 69.5 28.5s22.5 43.833 22.5 74.5c0 34 -8.83301 59.167 -26.5 75.5
s-50.5 35.833 -98.5 58.5c-64.667 29.333 -110.5 61.666 -137.5 96.999s-40.5 81 -40.5 137c0 68 19.667 123.167 59 165.5s94.666 63.5 165.999 63.5c36.667 0 72 -6.33301 106 -19s64 -29.667 90 -51l-19 -112c-29.333 21.333 -57.5 37.333 -84.5 48s-53.5 16 -79.5 16
c-27.333 0 -48.333 -8 -63 -24s-22 -39.667 -22 -71c0 -30.667 9 -53.834 27 -69.501s50.667 -34.834 98 -57.501c64.667 -32.667 110.5 -66.834 137.5 -102.501s40.5 -80.5 40.5 -134.5c0 -73.333 -22.333 -131.5 -67 -174.5s-105.667 -64.5 -183 -64.5zM141.001 898.003
l-50 70l141 153h117l142 -153l-49 -69l-152 108z" />
    <glyph glyph-name="scircumflex" unicode="&#x15d;" 
d="M280 -8c-41.333 0 -80.666 6.33496 -117.999 19.002s-68.666 27.667 -93.999 45l34 97c26.667 -15.333 56.167 -28.833 88.5 -40.5s62.166 -17.5 89.499 -17.5c28 0 49 5.33301 63 16s21 26.667 21 48c0 23.333 -6.5 40.166 -19.5 50.499s-42.5 23.166 -88.5 38.499
c-65.333 22 -110.5 46.667 -135.5 74s-37.5 65 -37.5 113c0 52 18.667 94.167 56 126.5s87.666 48.5 150.999 48.5c39.333 0 75.833 -5.66699 109.5 -17s62.5 -25.666 86.5 -42.999l-26 -94c-24.667 14 -50.834 26 -78.501 36s-53.167 15 -76.5 15
c-22 0 -39.167 -4.66699 -51.5 -14s-18.5 -24.333 -18.5 -45s7.83301 -36.334 23.5 -47.001s51.167 -25.667 106.5 -45c56.667 -20 96.167 -43.5 118.5 -70.5s33.5 -64.833 33.5 -113.5c0 -52 -20.667 -95 -62 -129s-99.666 -51 -174.999 -51zM141 698.002l-50 70l141 153
h117l142 -153l-49 -69l-152 108z" />
    <glyph glyph-name="Scedilla" unicode="&#x15e;" 
d="M277 -9c-38 0 -75.832 6.33594 -113.499 19.0029s-71.834 30.334 -102.501 53.001l26 118c30.667 -22 61.834 -39.833 93.501 -53.5s65.5 -20.5 101.5 -20.5c31.333 0 54.5 9.5 69.5 28.5s22.5 43.833 22.5 74.5c0 34 -8.83301 59.167 -26.5 75.5
s-50.5 35.833 -98.5 58.5c-64.667 29.333 -110.5 61.666 -137.5 96.999s-40.5 81 -40.5 137c0 68 19.667 123.167 59 165.5s94.666 63.5 165.999 63.5c36.667 0 72 -6.33301 106 -19s64 -29.667 90 -51l-19 -112c-29.333 21.333 -57.5 37.333 -84.5 48s-53.5 16 -79.5 16
c-27.333 0 -48.333 -8 -63 -24s-22 -39.667 -22 -71c0 -30.667 9 -53.834 27 -69.501s50.667 -34.834 98 -57.501c64.667 -32.667 110.5 -66.834 137.5 -102.501s40.5 -80.5 40.5 -134.5c0 -73.333 -22.333 -131.5 -67 -174.5s-105.667 -64.5 -183 -64.5z
M268.001 0.00292969l14.999 41.999c50.667 -6.66699 88 -20.667 112 -42s36 -51.333 36 -90c0 -42 -14.833 -74.167 -44.5 -96.5s-69.5 -33.5 -119.5 -33.5c-52 0 -92.667 9.83301 -122 29.5s-45 49.5 -47 89.5l128 10c0.666992 -12.667 3.66699 -21.5 9 -26.5
s14 -7.5 26 -7.5c13.333 0 23.333 3.83301 30 11.5s10 22.834 10 45.501c0 20.667 -2.16699 36 -6.5 46s-13.166 17.333 -26.499 22z" />
    <glyph glyph-name="scedilla" unicode="&#x15f;" 
d="M280 -8c-41.333 0 -80.666 6.33496 -117.999 19.002s-68.666 27.667 -93.999 45l34 97c26.667 -15.333 56.167 -28.833 88.5 -40.5s62.166 -17.5 89.499 -17.5c28 0 49 5.33301 63 16s21 26.667 21 48c0 23.333 -6.5 40.166 -19.5 50.499s-42.5 23.166 -88.5 38.499
c-65.333 22 -110.5 46.667 -135.5 74s-37.5 65 -37.5 113c0 52 18.667 94.167 56 126.5s87.666 48.5 150.999 48.5c39.333 0 75.833 -5.66699 109.5 -17s62.5 -25.666 86.5 -42.999l-26 -94c-24.667 14 -50.834 26 -78.501 36s-53.167 15 -76.5 15
c-22 0 -39.167 -4.66699 -51.5 -14s-18.5 -24.333 -18.5 -45s7.83301 -36.334 23.5 -47.001s51.167 -25.667 106.5 -45c56.667 -20 96.167 -43.5 118.5 -70.5s33.5 -64.833 33.5 -113.5c0 -52 -20.667 -95 -62 -129s-99.666 -51 -174.999 -51zM260 0.00195312l14.999 41.999
c50.667 -6.66699 88 -20.667 112 -42s36 -51.333 36 -90c0 -42 -14.833 -74.167 -44.5 -96.5s-69.5 -33.5 -119.5 -33.5c-52 0 -92.667 9.83301 -122 29.5s-45 49.5 -47 89.5l128 10c0.666992 -12.667 3.66699 -21.5 9 -26.5s14 -7.5 26 -7.5
c13.333 0 23.333 3.83301 30 11.5s10 22.834 10 45.501c0 20.667 -2.16699 36 -6.5 46s-13.166 17.333 -26.499 22z" />
    <glyph glyph-name="Scaron" unicode="&#x160;" 
d="M277 -9c-38 0 -75.832 6.33594 -113.499 19.0029s-71.834 30.334 -102.501 53.001l26 118c30.667 -22 61.834 -39.833 93.501 -53.5s65.5 -20.5 101.5 -20.5c31.333 0 54.5 9.5 69.5 28.5s22.5 43.833 22.5 74.5c0 34 -8.83301 59.167 -26.5 75.5
s-50.5 35.833 -98.5 58.5c-64.667 29.333 -110.5 61.666 -137.5 96.999s-40.5 81 -40.5 137c0 68 19.667 123.167 59 165.5s94.666 63.5 165.999 63.5c36.667 0 72 -6.33301 106 -19s64 -29.667 90 -51l-19 -112c-29.333 21.333 -57.5 37.333 -84.5 48s-53.5 16 -79.5 16
c-27.333 0 -48.333 -8 -63 -24s-22 -39.667 -22 -71c0 -30.667 9 -53.834 27 -69.501s50.667 -34.834 98 -57.501c64.667 -32.667 110.5 -66.834 137.5 -102.501s40.5 -80.5 40.5 -134.5c0 -73.333 -22.333 -131.5 -67 -174.5s-105.667 -64.5 -183 -64.5zM233.001 904.003
l-142 153l49 70l152 -108l149 108l50 -70l-141 -153h-117z" />
    <glyph glyph-name="scaron" unicode="&#x161;" 
d="M280 -8c-41.333 0 -80.666 6.33496 -117.999 19.002s-68.666 27.667 -93.999 45l34 97c26.667 -15.333 56.167 -28.833 88.5 -40.5s62.166 -17.5 89.499 -17.5c28 0 49 5.33301 63 16s21 26.667 21 48c0 23.333 -6.5 40.166 -19.5 50.499s-42.5 23.166 -88.5 38.499
c-65.333 22 -110.5 46.667 -135.5 74s-37.5 65 -37.5 113c0 52 18.667 94.167 56 126.5s87.666 48.5 150.999 48.5c39.333 0 75.833 -5.66699 109.5 -17s62.5 -25.666 86.5 -42.999l-26 -94c-24.667 14 -50.834 26 -78.501 36s-53.167 15 -76.5 15
c-22 0 -39.167 -4.66699 -51.5 -14s-18.5 -24.333 -18.5 -45s7.83301 -36.334 23.5 -47.001s51.167 -25.667 106.5 -45c56.667 -20 96.167 -43.5 118.5 -70.5s33.5 -64.833 33.5 -113.5c0 -52 -20.667 -95 -62 -129s-99.666 -51 -174.999 -51zM233 704.002l-142 153l49 70
l152 -108l149 108l50 -70l-141 -153h-117z" />
    <glyph glyph-name="Tcedilla" unicode="&#x162;" 
d="M216 0v684h-169v116h492v-116h-169v-684h-154zM262 0l14.999 41.999c50.667 -6.66699 88 -20.667 112 -42s36 -51.333 36 -90c0 -42 -14.833 -74.167 -44.5 -96.5s-69.5 -33.5 -119.5 -33.5c-52 0 -92.667 9.83301 -122 29.5s-45 49.5 -47 89.5l128 10
c0.666992 -12.667 3.66699 -21.5 9 -26.5s14 -7.5 26 -7.5c13.333 0 23.333 3.83301 30 11.5s10 22.834 10 45.501c0 20.667 -2.16699 36 -6.5 46s-13.166 17.333 -26.499 22z" />
    <glyph glyph-name="tcedilla" unicode="&#x163;" 
d="M377 -10c-62 0 -110.502 17.833 -145.502 53.5s-52.5 84.5 -52.5 146.5v298h-105v112h105v200h153v-200h163v-112h-163v-290c0 -29.333 6 -52.166 18 -68.499s29.667 -24.5 53 -24.5c16.667 0 32.667 2.33301 48 7s27.333 9 36 13l15 -111
c-11.333 -6.66699 -28.666 -12.334 -51.999 -17.001s-47.666 -7 -72.999 -7zM300.998 0l14.999 41.999c50.667 -6.66699 88 -20.667 112 -42s36 -51.333 36 -90c0 -42 -14.833 -74.167 -44.5 -96.5s-69.5 -33.5 -119.5 -33.5c-52 0 -92.667 9.83301 -122 29.5
s-45 49.5 -47 89.5l128 10c0.666992 -12.667 3.66699 -21.5 9 -26.5s14 -7.5 26 -7.5c13.333 0 23.333 3.83301 30 11.5s10 22.834 10 45.501c0 20.667 -2.16699 36 -6.5 46s-13.166 17.333 -26.499 22z" />
    <glyph glyph-name="Tcaron" unicode="&#x164;" 
d="M216 0v684h-169v116h492v-116h-169v-684h-154zM235 904l-142 153l49 70l152 -108l149 108l50 -70l-141 -153h-117z" />
    <glyph glyph-name="tcaron" unicode="&#x165;" 
d="M377 -10c-62 0 -110.502 17.833 -145.502 53.5s-52.5 84.5 -52.5 146.5v298h-105v112h105v200h153v-200h163v-112h-163v-290c0 -29.333 6 -52.166 18 -68.499s29.667 -24.5 53 -24.5c16.667 0 32.667 2.33301 48 7s27.333 9 36 13l15 -111
c-11.333 -6.66699 -28.666 -12.334 -51.999 -17.001s-47.666 -7 -72.999 -7zM403.998 705l37 295h189l-141 -295h-85z" />
    <glyph glyph-name="Tbar" unicode="&#x166;" 
d="M216 0v301h-119v103h119v280h-169v116h492v-116h-169v-280h118v-103h-118v-301h-154z" />
    <glyph glyph-name="tbar" unicode="&#x167;" 
d="M377 -10c-62 0 -110.502 17.833 -145.502 53.5s-52.5 84.5 -52.5 146.5v77h-90v103h90v118h-105v112h105v200h153v-200h163v-112h-163v-118h149v-103h-149v-69c0 -29.333 6 -52.166 18 -68.499s29.667 -24.5 53 -24.5c16.667 0 32.667 2.33301 48 7s27.333 9 36 13
l15 -111c-11.333 -6.66699 -28.666 -12.334 -51.999 -17.001s-47.666 -7 -72.999 -7z" />
    <glyph glyph-name="Utilde" unicode="&#x168;" 
d="M293 -10c-77.333 0 -134.5 23 -171.5 69s-55.5 116.667 -55.5 212v529h154v-531c0 -60 5.16699 -101.333 15.5 -124s29.5 -34 57.5 -34s47.167 11.333 57.5 34s15.5 64 15.5 124v531h154v-529c0 -95.333 -18.5 -166 -55.5 -212s-94.167 -69 -171.5 -69zM365 910
c-21.333 0 -38.834 4.66602 -52.501 13.999s-25.834 22.333 -36.501 39c-8 12.667 -15.167 24.5 -21.5 35.5s-14.166 16.5 -23.499 16.5s-17 -5.5 -23 -16.5s-8.66699 -29.833 -8 -56.5v-22h-98v15c0 56 11.167 100.667 33.5 134s52.833 50 91.5 50
c19.333 0 35.333 -4.66699 48 -14s24.667 -22.333 36 -39l23 -36.5c6.66699 -11 14.334 -16.5 23.001 -16.5c10 0 17.5 5.5 22.5 16.5s7.5 30.167 7.5 57.5v21h97v-15c0 -55.333 -10.667 -99.666 -32 -132.999s-50.333 -50 -87 -50z" />
    <glyph glyph-name="utilde" unicode="&#x169;" 
d="M198 -10c-38 0 -68.1689 15.6689 -90.502 47.002s-33.5 73.666 -33.5 126.999v436h153v-400c0 -30.667 3.83301 -53.334 11.5 -68.001s19.167 -22 34.5 -22c16.667 0 31.834 6.16699 45.501 18.5s26.834 31.5 39.501 57.5v414h153v-600h-153v84h-22
c-8.66699 -28.667 -25.667 -51.5 -51 -68.5s-54.333 -25.5 -87 -25.5zM364.998 710.002c-21.333 0 -38.834 4.66602 -52.501 13.999s-25.834 22.333 -36.501 39c-8 12.667 -15.167 24.5 -21.5 35.5s-14.166 16.5 -23.499 16.5s-17 -5.5 -23 -16.5s-8.66699 -29.833 -8 -56.5
v-22h-98v15c0 56 11.167 100.667 33.5 134s52.833 50 91.5 50c19.333 0 35.333 -4.66699 48 -14s24.667 -22.333 36 -39l23 -36.5c6.66699 -11 14.334 -16.5 23.001 -16.5c10 0 17.5 5.5 22.5 16.5s7.5 30.167 7.5 57.5v21h97v-15c0 -55.333 -10.667 -99.666 -32 -132.999
s-50.333 -50 -87 -50z" />
    <glyph glyph-name="Umacron" unicode="&#x16a;" 
d="M293 -10c-77.333 0 -134.5 23 -171.5 69s-55.5 116.667 -55.5 212v529h154v-531c0 -60 5.16699 -101.333 15.5 -124s29.5 -34 57.5 -34s47.167 11.333 57.5 34s15.5 64 15.5 124v531h154v-529c0 -95.333 -18.5 -166 -55.5 -212s-94.167 -69 -171.5 -69zM123 942v116h340
v-116h-340z" />
    <glyph glyph-name="umacron" unicode="&#x16b;" 
d="M198 -10c-38 0 -68.1689 15.6689 -90.502 47.002s-33.5 73.666 -33.5 126.999v436h153v-400c0 -30.667 3.83301 -53.334 11.5 -68.001s19.167 -22 34.5 -22c16.667 0 31.834 6.16699 45.501 18.5s26.834 31.5 39.501 57.5v414h153v-600h-153v84h-22
c-8.66699 -28.667 -25.667 -51.5 -51 -68.5s-54.333 -25.5 -87 -25.5zM122.998 742.002v116h340v-116h-340z" />
    <glyph glyph-name="Ubreve" unicode="&#x16c;" 
d="M293 -10c-77.333 0 -134.5 23 -171.5 69s-55.5 116.667 -55.5 212v529h154v-531c0 -60 5.16699 -101.333 15.5 -124s29.5 -34 57.5 -34s47.167 11.333 57.5 34s15.5 64 15.5 124v531h154v-529c0 -95.333 -18.5 -166 -55.5 -212s-94.167 -69 -171.5 -69zM293 893
c-67.333 0 -117.67 18.333 -151.003 55s-50.333 92.667 -51 168h122c0.666992 -48 6.83398 -81 18.501 -99s32.167 -27 61.5 -27s49.833 9 61.5 27s17.834 51 18.501 99h122c-0.666992 -75.333 -17.667 -131.333 -51 -168s-83.666 -55 -150.999 -55z" />
    <glyph glyph-name="ubreve" unicode="&#x16d;" 
d="M198 -10c-38 0 -68.1689 15.6689 -90.502 47.002s-33.5 73.666 -33.5 126.999v436h153v-400c0 -30.667 3.83301 -53.334 11.5 -68.001s19.167 -22 34.5 -22c16.667 0 31.834 6.16699 45.501 18.5s26.834 31.5 39.501 57.5v414h153v-600h-153v84h-22
c-8.66699 -28.667 -25.667 -51.5 -51 -68.5s-54.333 -25.5 -87 -25.5zM299.998 693.002c-67.333 0 -117.67 18.333 -151.003 55s-50.333 92.667 -51 168h122c0.666992 -48 6.83398 -81 18.501 -99s32.167 -27 61.5 -27s49.833 9 61.5 27s17.834 51 18.501 99h122
c-0.666992 -75.333 -17.667 -131.333 -51 -168s-83.666 -55 -150.999 -55z" />
    <glyph glyph-name="Uring" unicode="&#x16e;" 
d="M293 -10c-77.333 0 -134.5 23 -171.5 69s-55.5 116.667 -55.5 212v529h154v-531c0 -60 5.16699 -101.333 15.5 -124s29.5 -34 57.5 -34s47.167 11.333 57.5 34s15.5 64 15.5 124v531h154v-529c0 -95.333 -18.5 -166 -55.5 -212s-94.167 -69 -171.5 -69zM293 881
c-48 0 -86.667 12.167 -116 36.5s-44 61.833 -44 112.5v32c0 51.333 14.667 89.5 44 114.5s68 37.5 116 37.5s86.667 -12.5 116 -37.5s44 -63.167 44 -114.5v-32c0 -50.667 -14.667 -88.167 -44 -112.5s-68 -36.5 -116 -36.5zM293 960c17.333 0 30.666 5.33301 39.999 16
s14 28.667 14 54v32c0 24.667 -4.66699 43 -14 55s-22.666 18 -39.999 18c-18 0 -31.5 -6 -40.5 -18s-13.5 -30.333 -13.5 -55v-32c0 -25.333 4.5 -43.333 13.5 -54s22.5 -16 40.5 -16z" />
    <glyph glyph-name="uring" unicode="&#x16f;" 
d="M198 -10c-38 0 -68.1689 15.6689 -90.502 47.002s-33.5 73.666 -33.5 126.999v436h153v-400c0 -30.667 3.83301 -53.334 11.5 -68.001s19.167 -22 34.5 -22c16.667 0 31.834 6.16699 45.501 18.5s26.834 31.5 39.501 57.5v414h153v-600h-153v84h-22
c-8.66699 -28.667 -25.667 -51.5 -51 -68.5s-54.333 -25.5 -87 -25.5zM299.998 681.002c-48 0 -86.667 12.167 -116 36.5s-44 61.833 -44 112.5v32c0 51.333 14.667 89.5 44 114.5s68 37.5 116 37.5s86.667 -12.5 116 -37.5s44 -63.167 44 -114.5v-32
c0 -50.667 -14.667 -88.167 -44 -112.5s-68 -36.5 -116 -36.5zM299.998 760.002c17.333 0 30.666 5.33301 39.999 16s14 28.667 14 54v32c0 24.667 -4.66699 43 -14 55s-22.666 18 -39.999 18c-18 0 -31.5 -6 -40.5 -18s-13.5 -30.333 -13.5 -55v-32
c0 -25.333 4.5 -43.333 13.5 -54s22.5 -16 40.5 -16z" />
    <glyph glyph-name="Uhungarumlaut" unicode="&#x170;" 
d="M293 -10c-77.333 0 -134.5 23 -171.5 69s-55.5 116.667 -55.5 212v529h154v-531c0 -60 5.16699 -101.333 15.5 -124s29.5 -34 57.5 -34s47.167 11.333 57.5 34s15.5 64 15.5 124v531h154v-529c0 -95.333 -18.5 -166 -55.5 -212s-94.167 -69 -171.5 -69zM342 900l34 200
h144l-102 -200h-76zM169 900l34 200h145l-102 -200h-77z" />
    <glyph glyph-name="uhungarumlaut" unicode="&#x171;" 
d="M198 -10c-38 0 -68.1689 15.6689 -90.502 47.002s-33.5 73.666 -33.5 126.999v436h153v-400c0 -30.667 3.83301 -53.334 11.5 -68.001s19.167 -22 34.5 -22c16.667 0 31.834 6.16699 45.501 18.5s26.834 31.5 39.501 57.5v414h153v-600h-153v84h-22
c-8.66699 -28.667 -25.667 -51.5 -51 -68.5s-54.333 -25.5 -87 -25.5zM325.998 700.002l34 200h144l-102 -200h-76zM152.998 700.002l34 200h145l-102 -200h-77z" />
    <glyph glyph-name="Uogonek" unicode="&#x172;" 
d="M335 -219c-43.333 0 -76.999 10.666 -100.999 31.999s-36 51.666 -36 90.999c0 34 11.667 65.333 35 94s52.666 49.334 87.999 62.001l20 -37c-13.333 -10.667 -22.833 -23.167 -28.5 -37.5s-8.5 -30.166 -8.5 -47.499c0 -18 4.5 -31.333 13.5 -40s23.5 -13 43.5 -13
c8.66699 0 19 0.833008 31 2.5s25.667 4.16699 41 7.5v-103c-18.667 -3.33301 -36.167 -6 -52.5 -8s-31.5 -3 -45.5 -3zM293.001 -10.001c-77.333 0 -134.5 23 -171.5 69s-55.5 116.667 -55.5 212v529h154v-531c0 -60 5.16699 -101.333 15.5 -124s29.5 -34 57.5 -34
s47.167 11.333 57.5 34s15.5 64 15.5 124v531h154v-529c0 -95.333 -18.5 -166 -55.5 -212s-94.167 -69 -171.5 -69z" />
    <glyph glyph-name="uogonek" unicode="&#x173;" 
d="M453 -219c-43.333 0 -76.999 10.666 -100.999 31.999s-36 51.666 -36 90.999c0 34 11.667 65.333 35 94s52.666 49.334 87.999 62.001l20 -37c-13.333 -10.667 -22.833 -23.167 -28.5 -37.5s-8.5 -30.166 -8.5 -47.499c0 -18 4.5 -31.333 13.5 -40s23.5 -13 43.5 -13
c8.66699 0 19 0.833008 31 2.5s25.667 4.16699 41 7.5v-103c-18.667 -3.33301 -36.167 -6 -52.5 -8s-31.5 -3 -45.5 -3zM198.001 -10.001c-38 0 -68.1689 15.6689 -90.502 47.002s-33.5 73.666 -33.5 126.999v436h153v-400c0 -30.667 3.83301 -53.334 11.5 -68.001
s19.167 -22 34.5 -22c16.667 0 31.834 6.16699 45.501 18.5s26.834 31.5 39.501 57.5v414h153v-600h-153v84h-22c-8.66699 -28.667 -25.667 -51.5 -51 -68.5s-54.333 -25.5 -87 -25.5z" />
    <glyph glyph-name="Wcircumflex" unicode="&#x174;" 
d="M342 0l-48 377l-47 -377h-134l-77 800h129l28 -592l48 392h101l51 -381l27 581h129l-77 -800h-130zM143 898l-50 70l141 153h117l142 -153l-49 -69l-152 108z" />
    <glyph glyph-name="wcircumflex" unicode="&#x175;" 
d="M351 0l-58 314l-56 -314h-132l-69 600h129l35 -395l48 291h86l53 -289l33 393h129l-68 -600h-130zM150 698l-50 70l141 153h117l142 -153l-49 -69l-152 108z" />
    <glyph glyph-name="Ycircumflex" unicode="&#x176;" 
d="M370 0h-154v300l-185 500h152l109 -339l110 339h152l-184 -500v-300zM143 898l-50 70l141 153h117l142 -153l-49 -69l-152 108z" />
    <glyph glyph-name="ycircumflex" unicode="&#x177;" 
d="M177 -209c-17.333 0 -36.1689 1 -56.502 3s-41.833 4.66699 -64.5 8l8 112c18.667 -4.66699 35.834 -8.16699 51.501 -10.5s29.834 -3.5 42.501 -3.5c32 0 56.5 8.5 73.5 25.5s29.167 43.5 36.5 79.5l3 13h-104l-120 582h154l93 -470l95 470h149l-135 -607
c-16 -70 -42.5 -121.167 -79.5 -153.5s-85.833 -48.5 -146.5 -48.5zM142.997 698l-50 70l141 153h117l142 -153l-49 -69l-152 108z" />
    <glyph glyph-name="Ydieresis" unicode="&#x178;" 
d="M370 0h-154v300l-185 500h152l109 -339l110 339h152l-184 -500v-300zM195 901c-22 0 -39.833 4.66699 -53.5 14s-20.5 26.333 -20.5 51v11c0 24.667 6.83301 42.167 20.5 52.5s31.5 15.5 53.5 15.5c22.667 0 40.667 -5.16699 54 -15.5s20 -27.833 20 -52.5v-11
c0 -24.667 -7 -41.667 -21 -51s-31.667 -14 -53 -14zM391 901c-22 0 -39.833 4.66699 -53.5 14s-20.5 26.333 -20.5 51v11c0 24.667 6.83301 42.167 20.5 52.5s31.5 15.5 53.5 15.5c22.667 0 40.667 -5.16699 54 -15.5s20 -27.833 20 -52.5v-11
c0 -24.667 -7 -41.667 -21 -51s-31.667 -14 -53 -14z" />
    <glyph glyph-name="Zacute" unicode="&#x179;" 
d="M519 0h-452v116l305 568h-305v116h452v-116l-296 -568h296v-116zM214 900l78 200h191l-170 -200h-99z" />
    <glyph glyph-name="zacute" unicode="&#x17a;" 
d="M505 0h-424v112l261 376h-261v112h424v-112l-247 -376h247v-112zM217 700l78 200h191l-170 -200h-99z" />
    <glyph glyph-name="Zdotaccent" unicode="&#x17b;" 
d="M519 0h-452v116l305 568h-305v116h452v-116l-296 -568h296v-116zM293 901c-28.667 0 -52.167 4.66699 -70.5 14s-27.5 26.333 -27.5 51v11c0 24.667 9.16699 42.167 27.5 52.5s41.833 15.5 70.5 15.5c29.333 0 53 -5.16699 71 -15.5s27 -27.833 27 -52.5v-11
c0 -24.667 -9.16699 -41.667 -27.5 -51s-41.833 -14 -70.5 -14z" />
    <glyph glyph-name="zdotaccent" unicode="&#x17c;" 
d="M505 0h-424v112l261 376h-261v112h424v-112l-247 -376h247v-112zM297 701c-28.667 0 -52.167 4.66699 -70.5 14s-27.5 26.333 -27.5 51v11c0 24.667 9.16699 42.167 27.5 52.5s41.833 15.5 70.5 15.5c29.333 0 53 -5.16699 71 -15.5s27 -27.833 27 -52.5v-11
c0 -24.667 -9.16699 -41.667 -27.5 -51s-41.833 -14 -70.5 -14z" />
    <glyph glyph-name="Zcaron" unicode="&#x17d;" 
d="M519 0h-452v116l305 568h-305v116h452v-116l-296 -568h296v-116zM235 904l-142 153l49 70l152 -108l149 108l50 -70l-141 -153h-117z" />
    <glyph glyph-name="zcaron" unicode="&#x17e;" 
d="M505 0h-424v112l261 376h-261v112h424v-112l-247 -376h247v-112zM229 704l-142 153l49 70l152 -108l149 108l50 -70l-141 -153h-117z" />
    <glyph glyph-name="longs" unicode="&#x17f;" 
d="M216 0l-0.000976562 488h-90v112h90v36c0 62 19.833 108.667 59.5 140s86.167 47 139.5 47c18 0 36.333 -2.33301 55 -7s37.334 -10.667 56.001 -18l-15 -102c-16 6 -30.167 10.667 -42.5 14s-23.5 5 -33.5 5c-20.667 0 -36.667 -6.83301 -48 -20.5s-17 -35.5 -17 -65.5
v-629h-154z" />
    <glyph glyph-name="florin" unicode="&#x192;" 
d="M169 -5c-9.33301 0 -18.502 0.501953 -27.502 1.50195s-18.167 2.5 -27.5 4.5c-9.33301 1.33301 -18.666 3.5 -27.999 6.5s-18.333 6.5 -27 10.5l15 104c7.33301 -3.33301 14.333 -6.33301 21 -9s13.334 -4.66699 20.001 -6c6 -2 12 -3.33301 18 -4s11.667 -1 17 -1
c11.333 0 21.166 2 29.499 6s15.166 10.333 20.499 19c5.33301 8 9.33301 18.333 12 31s4 27.667 4 45v198h-149v112h149v123c0 28.667 4.66699 54.667 14 78s23 43 41 59c17.333 16 38.333 28.333 63 37s52 13 82 13c9.33301 0 18.5 -0.5 27.5 -1.5s18.167 -2.5 27.5 -4.5
s18.666 -4.5 27.999 -7.5s18.333 -6.5 27 -10.5l-15 -103c-7.33301 3.33301 -14.5 6.16602 -21.5 8.49902s-13.5 4.16602 -19.5 5.49902c-6 2 -12 3.33301 -18 4s-11.667 1 -17 1c-11.333 0 -21.166 -2 -29.499 -6s-15.166 -10.333 -20.499 -19
c-5.33301 -8 -9.16602 -18.333 -11.499 -31s-3.5 -27.667 -3.5 -45v-101h149v-112h-149v-220c0 -28.667 -4.66699 -54.5 -14 -77.5s-23 -42.5 -41 -58.5c-17.333 -16.667 -38.5 -29.167 -63.5 -37.5s-52.5 -12.5 -82.5 -12.5z" />
    <glyph glyph-name="Aringacute" unicode="&#x1fa;" 
d="M354 324l-58 352l-63 -352h121zM406 0l-34 208h-160l-38 -208h-137l162 800h188l162 -800h-143zM292 881c-48 0 -86.667 12.167 -116 36.5s-44 61.833 -44 112.5v32c0 51.333 14.667 89.5 44 114.5s68 37.5 116 37.5s86.667 -12.5 116 -37.5s44 -63.167 44 -114.5v-32
c0 -50.667 -14.667 -88.167 -44 -112.5s-68 -36.5 -116 -36.5zM292 960c17.333 0 30.666 5.33301 39.999 16s14 28.667 14 54v32c0 24.667 -4.66699 43 -14 55s-22.666 18 -39.999 18c-18 0 -31.5 -6 -40.5 -18s-13.5 -30.333 -13.5 -55v-32c0 -25.333 4.5 -43.333 13.5 -54
s22.5 -16 40.5 -16zM244 1200l78 200h191l-170 -200h-99z" />
    <glyph glyph-name="aringacute" unicode="&#x1fb;" 
d="M250 91c14.667 0 28.667 4 42 12s25.666 20.333 36.999 37v107h-84c-17.333 0 -29.666 -5.5 -36.999 -16.5s-11 -31.833 -11 -62.5c0 -24.667 4.16699 -43.667 12.5 -57s21.833 -20 40.5 -20zM208 -10c-44 0 -79.835 16.001 -107.502 48.001s-41.5 73.667 -41.5 125
c0 54 14.833 95.833 44.5 125.5s68.834 44.5 117.501 44.5h108v88c0 28 -5.33301 48.167 -16 60.5s-27 18.5 -49 18.5c-21.333 0 -37 -6.83301 -47 -20.5s-17.667 -38.5 -23 -74.5l-123 25c10.667 62.667 31.834 108.334 63.501 137.001s76.834 43 135.501 43
c66 0 116.5 -14 151.5 -42s52.5 -74.333 52.5 -139v-259c0 -29.333 5.66699 -47.833 17 -55.5s27.666 -8.83398 48.999 -3.50098v-110c-42.667 -10 -76.834 -8.16699 -102.501 5.5s-43.5 39.167 -53.5 76.5h-22c-14.667 -26.667 -35.667 -48.834 -63 -66.501
s-57.666 -26.5 -90.999 -26.5zM277.998 681.001c-48 0 -86.667 12.167 -116 36.5s-44 61.833 -44 112.5v32c0 51.333 14.667 89.5 44 114.5s68 37.5 116 37.5s86.667 -12.5 116 -37.5s44 -63.167 44 -114.5v-32c0 -50.667 -14.667 -88.167 -44 -112.5s-68 -36.5 -116 -36.5z
M277.998 760.001c17.333 0 30.666 5.33301 39.999 16s14 28.667 14 54v32c0 24.667 -4.66699 43 -14 55s-22.666 18 -39.999 18c-18 0 -31.5 -6 -40.5 -18s-13.5 -30.333 -13.5 -55v-32c0 -25.333 4.5 -43.333 13.5 -54s22.5 -16 40.5 -16zM213.998 1000l78 200h191
l-170 -200h-99z" />
    <glyph glyph-name="AEacute" unicode="&#x1fc;" 
d="M262 694l-64 -380h79v380h-15zM277 208h-96l-36 -208h-107l151 800h351v-106h-133v-211h117v-106h-117v-271h133v-106h-263v208zM281 900l78 200h191l-170 -200h-99z" />
    <glyph glyph-name="aeacute" unicode="&#x1fd;" 
d="M540 148c-11.333 -54 -29.502 -93.835 -54.502 -119.502s-54.5 -38.5 -88.5 -38.5c-24.667 0 -46 6.33301 -64 19s-32.333 31.667 -43 57h-25c-7.33301 -20.667 -19.833 -38.5 -37.5 -53.5s-39.5 -22.5 -65.5 -22.5c-32 0 -59.5 13.833 -82.5 41.5
s-34.5 70.167 -34.5 127.5c0 56.667 12.333 99.834 37 129.501s58.667 44.5 102 44.5h63v83c0 30.667 -2.83301 53.334 -8.5 68.001s-14.834 22 -27.501 22c-12 0 -20.833 -6 -26.5 -18s-12.5 -36 -20.5 -72l-108 25c10.667 59.333 27.334 102.333 50.001 129s53 40 91 40
c24.667 0 45.334 -5.5 62.001 -16.5s29.334 -27.833 38.001 -50.5c12.667 22.667 28.167 39.5 46.5 50.5s38.5 16.5 60.5 16.5c42.667 0 76 -17.167 100 -51.5s36 -84.5 36 -150.5v-137h-178v-111c0 -21.333 2.33301 -38.833 7 -52.5s13 -20.5 25 -20.5
c9.33301 0 17.5 5.66699 24.5 17s12.833 31 17.5 59zM361.998 421.998v-69.999h72v66c0 34 -2.66699 58.667 -8 74s-14.333 23 -27 23c-12 0 -21.167 -7.33301 -27.5 -22s-9.5 -38.334 -9.5 -71.001zM246.998 124.999l-0.00195312 127h-36
c-14.667 0 -25.667 -6.16699 -33 -18.5s-11 -34.166 -11 -65.499c0 -26.667 2.5 -47 7.5 -61s12.833 -21 23.5 -21c8.66699 0 17.334 3.16699 26.001 9.5s16.334 16.166 23.001 29.499zM260.996 699.999l78 200h191l-170 -200h-99z" />
    <glyph glyph-name="Oslashacute" unicode="&#x1fe;" 
d="M208 238l122.999 447.999c-5.33301 2.66699 -11 4.66699 -17 6s-13 2 -21 2c-33.333 0 -56.333 -12.5 -69 -37.5s-19 -70.167 -19 -135.5v-246c0 -7.33301 0.333008 -14.166 1 -20.499s1.33398 -11.833 2.00098 -16.5zM292.999 105.999c33.333 0 56.333 12.167 69 36.5
s19 68.5 19 132.5v213c0 9.33301 -0.333008 18 -1 26s-2 15.333 -4 22l-119 -423c4.66699 -2 10 -3.66699 16 -5s12.667 -2 20 -2zM292.999 -10.001c-11.333 0 -22.501 0.832031 -33.501 2.49902s-21.5 3.83398 -31.5 6.50098l-32 -99h-106l49 148
c-23.333 22.667 -41.166 52.667 -53.499 90s-18.5 80.333 -18.5 129v262c0 88 19.667 156.833 59 206.5s95 74.5 167 74.5c11.333 0 22.5 -0.666992 33.5 -2s21.5 -3.33301 31.5 -6l32 98h106l-47 -151c22.667 -23.333 40 -53.833 52 -91.5s18 -80.5 18 -128.5v-262
c0 -87.333 -19.667 -155.333 -59 -204s-95 -73 -167 -73zM213.998 899.998l78 200h191l-170 -200h-99z" />
    <glyph glyph-name="oslashacute" unicode="&#x1ff;" 
d="M204 218c0 -15.333 0.666992 -28.166 2 -38.499s3.33301 -19.5 6 -27.5l121 344c-6 2 -12.167 3.5 -18.5 4.5s-13.5 1.5 -21.5 1.5c-31.333 0 -54 -9.33301 -68 -28s-21 -49.334 -21 -92.001v-164zM293 98c31.333 0 54 9 68 27s21 49 21 93v165c0 14 -0.666992 26 -2 36
s-3.33301 19 -6 27l-118 -343c4.66699 -2 10 -3.33301 16 -4s13 -1 21 -1zM293 -10c-10.667 0 -21.667 0.500977 -33 1.50098s-22 2.83301 -32 5.5l-40 -97h-91l53 130c-26 18 -46.5 42.833 -61.5 74.5s-22.5 67.167 -22.5 106.5v174c0 71.333 20.5 126.666 61.5 165.999
s96.167 59 165.5 59c11.333 0 22.833 -0.5 34.5 -1.5s22.167 -2.83301 31.5 -5.5l38 97h91l-51 -131c25.333 -18 45.5 -43.167 60.5 -75.5s22.5 -68.5 22.5 -108.5v-174c0 -70 -20.5 -124.333 -61.5 -163s-96.167 -58 -165.5 -58zM231 700.001l78 200h191l-170 -200h-99z
" />
    <glyph glyph-name="Scommaaccent" unicode="&#x218;" 
d="M277 -9c-38 0 -75.832 6.33594 -113.499 19.0029s-71.834 30.334 -102.501 53.001l26 118c30.667 -22 61.834 -39.833 93.501 -53.5s65.5 -20.5 101.5 -20.5c31.333 0 54.5 9.5 69.5 28.5s22.5 43.833 22.5 74.5c0 34 -8.83301 59.167 -26.5 75.5
s-50.5 35.833 -98.5 58.5c-64.667 29.333 -110.5 61.666 -137.5 96.999s-40.5 81 -40.5 137c0 68 19.667 123.167 59 165.5s94.666 63.5 165.999 63.5c36.667 0 72 -6.33301 106 -19s64 -29.667 90 -51l-19 -112c-29.333 21.333 -57.5 37.333 -84.5 48s-53.5 16 -79.5 16
c-27.333 0 -48.333 -8 -63 -24s-22 -39.667 -22 -71c0 -30.667 9 -53.834 27 -69.501s50.667 -34.834 98 -57.501c64.667 -32.667 110.5 -66.834 137.5 -102.501s40.5 -80.5 40.5 -134.5c0 -73.333 -22.333 -131.5 -67 -174.5s-105.667 -64.5 -183 -64.5zM154.001 -299.997
l49 200h190l-139 -200h-100z" />
    <glyph glyph-name="scommaaccent" unicode="&#x219;" 
d="M280 -8c-41.333 0 -80.666 6.33496 -117.999 19.002s-68.666 27.667 -93.999 45l34 97c26.667 -15.333 56.167 -28.833 88.5 -40.5s62.166 -17.5 89.499 -17.5c28 0 49 5.33301 63 16s21 26.667 21 48c0 23.333 -6.5 40.166 -19.5 50.499s-42.5 23.166 -88.5 38.499
c-65.333 22 -110.5 46.667 -135.5 74s-37.5 65 -37.5 113c0 52 18.667 94.167 56 126.5s87.666 48.5 150.999 48.5c39.333 0 75.833 -5.66699 109.5 -17s62.5 -25.666 86.5 -42.999l-26 -94c-24.667 14 -50.834 26 -78.501 36s-53.167 15 -76.5 15
c-22 0 -39.167 -4.66699 -51.5 -14s-18.5 -24.333 -18.5 -45s7.83301 -36.334 23.5 -47.001s51.167 -25.667 106.5 -45c56.667 -20 96.167 -43.5 118.5 -70.5s33.5 -64.833 33.5 -113.5c0 -52 -20.667 -95 -62 -129s-99.666 -51 -174.999 -51zM161 -299.998l49 200h190
l-139 -200h-100z" />
    <glyph glyph-name="Tcommaaccent" unicode="&#x21a;" 
d="M216 0v684h-169v116h492v-116h-169v-684h-154zM161 -300l49 200h190l-139 -200h-100z" />
    <glyph glyph-name="tcommaaccent" unicode="&#x21b;" 
d="M377 -10c-62 0 -110.502 17.833 -145.502 53.5s-52.5 84.5 -52.5 146.5v298h-105v112h105v200h153v-200h163v-112h-163v-290c0 -29.333 6 -52.166 18 -68.499s29.667 -24.5 53 -24.5c16.667 0 32.667 2.33301 48 7s27.333 9 36 13l15 -111
c-11.333 -6.66699 -28.666 -12.334 -51.999 -17.001s-47.666 -7 -72.999 -7zM191.998 -300l49 200h190l-139 -200h-100z" />
    <glyph glyph-name="dotlessj" unicode="&#xf6be;" 
d="M208 -209c-24 0 -48.001 1.5 -72.001 4.5s-47 8.83301 -69 17.5l15 109c20 -8 38.833 -13.333 56.5 -16s33.834 -4 48.501 -4c30.667 0 54.334 8.33301 71.001 25s25 44.667 25 84v477h-185v112h338v-604c0 -63.333 -21.333 -113.333 -64 -150s-97.334 -55 -164.001 -55z
" />
    <glyph glyph-name="dotlessj" unicode="&#x237;" 
d="M208 -209c-24 0 -48.001 1.5 -72.001 4.5s-47 8.83301 -69 17.5l15 109c20 -8 38.833 -13.333 56.5 -16s33.834 -4 48.501 -4c30.667 0 54.334 8.33301 71.001 25s25 44.667 25 84v477h-185v112h338v-604c0 -63.333 -21.333 -113.333 -64 -150s-97.334 -55 -164.001 -55z
" />
    <glyph glyph-name="quoteleft" unicode="&#x2018;" 
d="M148 378l189 422h97l-71 -422h-215z" />
    <glyph glyph-name="quoteleft" unicode="&#x2bb;" 
d="M148 378l189 422h97l-71 -422h-215z" />
    <glyph glyph-name="circumflex" unicode="&#x2c6;" 
d="M143 698l-50 70l141 153h117l142 -153l-49 -69l-152 108z" />
    <glyph glyph-name="caron" unicode="&#x2c7;" 
d="M235 704l-142 153l49 70l152 -108l149 108l50 -70l-141 -153h-117z" />
    <glyph glyph-name="breve" unicode="&#x2d8;" 
d="M293 693c-67.333 0 -117.67 18.333 -151.003 55s-50.333 92.667 -51 168h122c0.666992 -48 6.83398 -81 18.501 -99s32.167 -27 61.5 -27s49.833 9 61.5 27s17.834 51 18.501 99h122c-0.666992 -75.333 -17.667 -131.333 -51 -168s-83.666 -55 -150.999 -55z" />
    <glyph glyph-name="dotaccent" unicode="&#x2d9;" 
d="M293 701c-28.667 0 -52.167 4.66699 -70.5 14s-27.5 26.333 -27.5 51v11c0 24.667 9.16699 42.167 27.5 52.5s41.833 15.5 70.5 15.5c29.333 0 53 -5.16699 71 -15.5s27 -27.833 27 -52.5v-11c0 -24.667 -9.16699 -41.667 -27.5 -51s-41.833 -14 -70.5 -14z" />
    <glyph glyph-name="ring" unicode="&#x2da;" 
d="M293 681c-48 0 -86.667 12.167 -116 36.5s-44 61.833 -44 112.5v32c0 51.333 14.667 89.5 44 114.5s68 37.5 116 37.5s86.667 -12.5 116 -37.5s44 -63.167 44 -114.5v-32c0 -50.667 -14.667 -88.167 -44 -112.5s-68 -36.5 -116 -36.5zM293 760
c17.333 0 30.666 5.33301 39.999 16s14 28.667 14 54v32c0 24.667 -4.66699 43 -14 55s-22.666 18 -39.999 18c-18 0 -31.5 -6 -40.5 -18s-13.5 -30.333 -13.5 -55v-32c0 -25.333 4.5 -43.333 13.5 -54s22.5 -16 40.5 -16z" />
    <glyph glyph-name="ogonek" unicode="&#x2db;" 
d="M304 -219c-43.333 0 -76.999 10.666 -100.999 31.999s-36 51.666 -36 90.999c0 34 11.667 65.333 35 94s52.666 49.334 87.999 62.001l20 -37c-13.333 -10.667 -22.833 -23.167 -28.5 -37.5s-8.5 -30.166 -8.5 -47.499c0 -18 4.5 -31.333 13.5 -40s23.5 -13 43.5 -13
c8.66699 0 19 0.833008 31 2.5s25.667 4.16699 41 7.5v-103c-18.667 -3.33301 -36.167 -6 -52.5 -8s-31.5 -3 -45.5 -3z" />
    <glyph glyph-name="tilde" unicode="&#x2dc;" 
d="M365 710c-21.333 0 -38.834 4.66602 -52.501 13.999s-25.834 22.333 -36.501 39c-8 12.667 -15.167 24.5 -21.5 35.5s-14.166 16.5 -23.499 16.5s-17 -5.5 -23 -16.5s-8.66699 -29.833 -8 -56.5v-22h-98v15c0 56 11.167 100.667 33.5 134s52.833 50 91.5 50
c19.333 0 35.333 -4.66699 48 -14s24.667 -22.333 36 -39l23 -36.5c6.66699 -11 14.334 -16.5 23.001 -16.5c10 0 17.5 5.5 22.5 16.5s7.5 30.167 7.5 57.5v21h97v-15c0 -55.333 -10.667 -99.666 -32 -132.999s-50.333 -50 -87 -50z" />
    <glyph glyph-name="hungarumlaut" unicode="&#x2dd;" 
d="M319 700l34 200h144l-102 -200h-76zM146 700l34 200h145l-102 -200h-77z" />
    <glyph glyph-name="gravecmb" unicode="&#x300;" horiz-adv-x="0" 
d="M-15 700l-170 200h191l79 -200h-100z" />
    <glyph glyph-name="acutecmb" unicode="&#x301;" horiz-adv-x="0" 
d="M-101 700l78 200h191l-170 -200h-99z" />
    <glyph glyph-name="circumflexcmb" unicode="&#x302;" horiz-adv-x="0" 
d="M-150 698l-50 70l141 153h117l142 -153l-49 -69l-152 108z" />
    <glyph glyph-name="tildecmb" unicode="&#x303;" horiz-adv-x="0" 
d="M72 710c-21.333 0 -38.834 4.66602 -52.501 13.999s-25.834 22.333 -36.501 39c-8 12.667 -15.167 24.5 -21.5 35.5s-14.166 16.5 -23.499 16.5s-17 -5.5 -23 -16.5s-8.66699 -29.833 -8 -56.5v-22h-98v15c0 56 11.167 100.667 33.5 134s52.833 50 91.5 50
c19.333 0 35.333 -4.66699 48 -14s24.667 -22.333 36 -39l23 -36.5c6.66699 -11 14.334 -16.5 23.001 -16.5c10 0 17.5 5.5 22.5 16.5s7.5 30.167 7.5 57.5v21h97v-15c0 -55.333 -10.667 -99.666 -32 -132.999s-50.333 -50 -87 -50z" />
    <glyph glyph-name="macroncmb" unicode="&#x304;" horiz-adv-x="0" 
d="M-170 742v116h340v-116h-340z" />
    <glyph glyph-name="brevecmb" unicode="&#x306;" horiz-adv-x="0" 
d="M0 693c-67.333 0 -117.67 18.333 -151.003 55s-50.333 92.667 -51 168h122c0.666992 -48 6.83398 -81 18.501 -99s32.167 -27 61.5 -27s49.833 9 61.5 27s17.834 51 18.501 99h122c-0.666992 -75.333 -17.667 -131.333 -51 -168s-83.666 -55 -150.999 -55z" />
    <glyph glyph-name="dotaccentcmb" unicode="&#x307;" horiz-adv-x="0" 
d="M0 701c-28.667 0 -52.167 4.66699 -70.5 14s-27.5 26.333 -27.5 51v11c0 24.667 9.16699 42.167 27.5 52.5s41.833 15.5 70.5 15.5c29.333 0 53 -5.16699 71 -15.5s27 -27.833 27 -52.5v-11c0 -24.667 -9.16699 -41.667 -27.5 -51s-41.833 -14 -70.5 -14z" />
    <glyph glyph-name="dieresiscmb" unicode="&#x308;" horiz-adv-x="0" 
d="M-98 701c-22 0 -39.833 4.66699 -53.5 14s-20.5 26.333 -20.5 51v11c0 24.667 6.83301 42.167 20.5 52.5s31.5 15.5 53.5 15.5c22.667 0 40.667 -5.16699 54 -15.5s20 -27.833 20 -52.5v-11c0 -24.667 -7 -41.667 -21 -51s-31.667 -14 -53 -14zM98 701
c-22 0 -39.833 4.66699 -53.5 14s-20.5 26.333 -20.5 51v11c0 24.667 6.83301 42.167 20.5 52.5s31.5 15.5 53.5 15.5c22.667 0 40.667 -5.16699 54 -15.5s20 -27.833 20 -52.5v-11c0 -24.667 -7 -41.667 -21 -51s-31.667 -14 -53 -14z" />
    <glyph glyph-name="ringcmb" unicode="&#x30a;" horiz-adv-x="0" 
d="M0 681c-48 0 -86.667 12.167 -116 36.5s-44 61.833 -44 112.5v32c0 51.333 14.667 89.5 44 114.5s68 37.5 116 37.5s86.667 -12.5 116 -37.5s44 -63.167 44 -114.5v-32c0 -50.667 -14.667 -88.167 -44 -112.5s-68 -36.5 -116 -36.5zM0 760
c17.333 0 30.666 5.33301 39.999 16s14 28.667 14 54v32c0 24.667 -4.66699 43 -14 55s-22.666 18 -39.999 18c-18 0 -31.5 -6 -40.5 -18s-13.5 -30.333 -13.5 -55v-32c0 -25.333 4.5 -43.333 13.5 -54s22.5 -16 40.5 -16z" />
    <glyph glyph-name="hungarumlautcmb" unicode="&#x30b;" horiz-adv-x="0" 
d="M26 700l34 200h144l-102 -200h-76zM-147 700l34 200h145l-102 -200h-77z" />
    <glyph glyph-name="caroncmb" unicode="&#x30c;" horiz-adv-x="0" 
d="M-58 704l-142 153l49 70l152 -108l149 108l50 -70l-141 -153h-117z" />
    <glyph glyph-name="commaturnedabovecmb" unicode="&#x312;" horiz-adv-x="0" 
d="M-116 700l140 200h99l-48 -200h-191z" />
    <glyph glyph-name="commaaccentcmb" unicode="&#x326;" horiz-adv-x="0" 
d="M-124 -300l49 200h190l-139 -200h-100z" />
    <glyph glyph-name="cedillacmb" unicode="&#x327;" horiz-adv-x="0" 
d="M-23 0l14.999 41.999c50.667 -6.66699 88 -20.667 112 -42s36 -51.333 36 -90c0 -42 -14.833 -74.167 -44.5 -96.5s-69.5 -33.5 -119.5 -33.5c-52 0 -92.667 9.83301 -122 29.5s-45 49.5 -47 89.5l128 10c0.666992 -12.667 3.66699 -21.5 9 -26.5s14 -7.5 26 -7.5
c13.333 0 23.333 3.83301 30 11.5s10 22.834 10 45.501c0 20.667 -2.16699 36 -6.5 46s-13.166 17.333 -26.499 22z" />
    <glyph glyph-name="ogonekcmb" unicode="&#x328;" horiz-adv-x="0" 
d="M11 -219c-43.333 0 -76.999 10.666 -100.999 31.999s-36 51.666 -36 90.999c0 34 11.667 65.333 35 94s52.666 49.334 87.999 62.001l20 -37c-13.333 -10.667 -22.833 -23.167 -28.5 -37.5s-8.5 -30.166 -8.5 -47.499c0 -18 4.5 -31.333 13.5 -40s23.5 -13 43.5 -13
c8.66699 0 19 0.833008 31 2.5s25.667 4.16699 41 7.5v-103c-18.667 -3.33301 -36.167 -6 -52.5 -8s-31.5 -3 -45.5 -3z" />
    <glyph glyph-name="tonos" unicode="&#x384;" 
d="M222 700l33 200h184l-125 -200h-92z" />
    <glyph glyph-name="dieresistonos" unicode="&#x385;" 
d="M226 700l34 200h129l-79 -200h-84zM122 696c-19.333 0 -35.333 4.66699 -48 14s-19 26.333 -19 51v11c0 24.667 6.33301 42 19 52s28.667 15 48 15c20.667 0 37 -5 49 -15s18 -27.333 18 -52v-11c0 -24.667 -6.33301 -41.667 -19 -51s-28.667 -14 -48 -14zM464 696
c-20 0 -36.167 4.66699 -48.5 14s-18.5 26.333 -18.5 51v11c0 24.667 6.16699 42 18.5 52s28.5 15 48.5 15s36.167 -5 48.5 -15s18.5 -27.333 18.5 -52v-11c0 -24.667 -6.5 -41.667 -19.5 -51s-28.833 -14 -47.5 -14z" />
    <glyph glyph-name="Alphatonos" unicode="&#x386;" 
d="M354 324l-58 352l-63 -352h121zM406 0l-34 208h-160l-38 -208h-137l162 800h188l162 -800h-143zM4 700l33 200h184l-125 -200h-92z" />
    <glyph glyph-name="anoteleia" unicode="&#x387;" 
d="M308 270c-34 0 -61.5 8.5 -82.5 25.5s-31.5 42.167 -31.5 75.5v55c0 34 10.5 59.667 31.5 77s48.5 26 82.5 26s61.333 -8.66699 82 -26s31 -43 31 -77v-55c0 -33.333 -10.667 -58.5 -32 -75.5s-48.333 -25.5 -81 -25.5z" />
    <glyph glyph-name="Epsilontonos" unicode="&#x388;" 
d="M66 0v800h453v-116h-299v-195h261v-117h-261v-256h299v-116h-453zM-110 700l33 200h184l-125 -200h-92z" />
    <glyph glyph-name="Etatonos" unicode="&#x389;" 
d="M66 0v800h154v-302h146v302h154v-800h-154v381h-146v-381h-154zM-125 700l33 200h184l-125 -200h-92z" />
    <glyph glyph-name="Iotatonos" unicode="&#x38a;" 
d="M66 0v116h150v568h-150v116h454v-116h-150v-568h150v-116h-454zM-125 700l33 200h184l-125 -200h-92z" />
    <glyph glyph-name="Omicrontonos" unicode="&#x38c;" 
d="M293 -10c-72.667 0 -128.5 23.667 -167.5 71s-58.5 113 -58.5 197v280c0 85.333 19.667 152 59 200s95 72 167 72c72.667 0 128.5 -24 167.5 -72s58.5 -114.667 58.5 -200v-280c0 -84 -19.5 -149.667 -58.5 -197s-94.833 -71 -167.5 -71zM293 106
c28 0 47.167 11.333 57.5 34s15.5 65 15.5 127v262c0 64 -5.16699 107.5 -15.5 130.5s-29.5 34.5 -57.5 34.5s-47.167 -11.5 -57.5 -34.5s-15.5 -66.5 -15.5 -130.5v-262c0 -62 5.16699 -104.333 15.5 -127s29.5 -34 57.5 -34zM-33 700l33 200h184l-125 -200h-92z" />
    <glyph glyph-name="Upsilontonos" unicode="&#x38e;" 
d="M370 0h-154v300l-185 500h152l109 -339l110 339h152l-184 -500v-300zM-124 700l33 200h184l-125 -200h-92z" />
    <glyph glyph-name="Omegatonos" unicode="&#x38f;" 
d="M271 0h-211.999v103h82v93c-30.667 19.333 -52 47 -64 83s-18 78 -18 126v124c0 91.333 20 161 60 209s98 72 174 72c75.333 0 133 -24 173 -72s60 -117.667 60 -209v-124c0 -48 -5.83301 -90 -17.5 -126s-32.834 -63.667 -63.501 -83v-93h81v-103h-212v230
c22.667 8.66699 38.167 28.167 46.5 58.5s12.5 69.166 12.5 116.499v124c0 59.333 -6 100.5 -18 123.5s-32.667 34.5 -62 34.5c-30 0 -51 -11.5 -63 -34.5s-18 -64.167 -18 -123.5v-124c0 -47.333 4.16699 -86.166 12.5 -116.499s23.833 -49.833 46.5 -58.5v-230z
M-63.999 700l33 200h184l-125 -200h-92z" />
    <glyph glyph-name="iotadieresistonos" unicode="&#x390;" 
d="M393 -6c-58 0 -104.5 17.832 -139.5 53.499s-52.5 83.5 -52.5 143.5v297h-119v112h272v-393c0 -32.667 6 -57 18 -73s28.333 -24 49 -24c15.333 0 29 1.83301 41 5.5s23 8.5 33 14.5l23 -109c-22.667 -9.33301 -44.5 -16.166 -65.5 -20.499s-40.833 -6.5 -59.5 -6.5z
M218 699.999l34 200h129l-79 -200h-84zM114 695.999c-19.333 0 -35.333 4.66699 -48 14s-19 26.333 -19 51v11c0 24.667 6.33301 42 19 52s28.667 15 48 15c20.667 0 37 -5 49 -15s18 -27.333 18 -52v-11c0 -24.667 -6.33301 -41.667 -19 -51s-28.667 -14 -48 -14z
M456 695.999c-20 0 -36.167 4.66699 -48.5 14s-18.5 26.333 -18.5 51v11c0 24.667 6.16699 42 18.5 52s28.5 15 48.5 15s36.167 -5 48.5 -15s18.5 -27.333 18.5 -52v-11c0 -24.667 -6.5 -41.667 -19.5 -51s-28.833 -14 -47.5 -14z" />
    <glyph glyph-name="Alpha" unicode="&#x391;" 
d="M354 324l-58 352l-63 -352h121zM406 0l-34 208h-160l-38 -208h-137l162 800h188l162 -800h-143z" />
    <glyph glyph-name="Beta" unicode="&#x392;" 
d="M66 0v800.001h238c64.667 0 113.834 -16 147.501 -48s50.5 -78.667 50.5 -140v-40c0 -38 -7.83301 -68 -23.5 -90s-40.834 -36.667 -75.501 -44v-29c37.333 -4.66699 65.833 -20.834 85.5 -48.501s29.5 -62.834 29.5 -105.501v-48
c0 -67.333 -18.667 -118.666 -56 -153.999s-91 -53 -161 -53h-235zM220 469.001h60c24.667 0 42.5 7.16699 53.5 21.5s16.5 37.5 16.5 69.5v37c0 32 -5.5 55.167 -16.5 69.5s-28.833 21.5 -53.5 21.5h-60v-219zM220 112.001l63 -0.000976562c28.667 0 49.5 8.33301 62.5 25
s19.5 43.667 19.5 81v40c0 36.667 -6.5 63.334 -19.5 80.001s-33.833 25 -62.5 25h-63v-251z" />
    <glyph glyph-name="Gamma" unicode="&#x393;" 
d="M105 0v800h430v-116h-277v-684h-153z" />
    <glyph glyph-name="Delta" unicode="&#x394;" 
d="M52 0v116l135 684h220l126 -684v-116h-481zM399 116l-106 569l-114 -569h220z" />
    <glyph glyph-name="Epsilon" unicode="&#x395;" 
d="M66 0v800h453v-116h-299v-195h261v-117h-261v-256h299v-116h-453z" />
    <glyph glyph-name="Zeta" unicode="&#x396;" 
d="M519 0h-452v116l305 568h-305v116h452v-116l-296 -568h296v-116z" />
    <glyph glyph-name="Eta" unicode="&#x397;" 
d="M66 0v800h154v-302h146v302h154v-800h-154v381h-146v-381h-154z" />
    <glyph glyph-name="Theta" unicode="&#x398;" 
d="M293 -10c-72.667 0 -128.667 24.333 -168 73s-59 116.667 -59 204v262c0 88 19.833 156.833 59.5 206.5s95.5 74.5 167.5 74.5s127.833 -24.833 167.5 -74.5s59.5 -118.5 59.5 -206.5v-262c0 -87.333 -19.833 -155.333 -59.5 -204s-95.5 -73 -167.5 -73zM293 106
c33.333 0 56.5 12.5 69.5 37.5s19.5 68.833 19.5 131.5v246c0 64 -6.5 108.833 -19.5 134.5s-36.167 38.5 -69.5 38.5s-56.666 -12.833 -69.999 -38.5s-20 -70.5 -20 -134.5v-246c0 -62.667 6.66699 -106.5 20 -131.5s36.666 -37.5 69.999 -37.5zM236 351v108h116v-108h-116
z" />
    <glyph glyph-name="Iota" unicode="&#x399;" 
d="M66 0v116h150v568h-150v116h454v-116h-150v-568h150v-116h-454z" />
    <glyph glyph-name="Kappa" unicode="&#x39a;" 
d="M220 360v-360h-154v800h154v-323h29l139 323h177l-189 -368l186 -432h-174l-136 360h-32z" />
    <glyph glyph-name="Lambda" unicode="&#x39b;" 
d="M406 0l-110 676l-122 -676h-137l162 800h188l162 -800h-143z" />
    <glyph glyph-name="Mu" unicode="&#x39c;" 
d="M246 222l-69 341l17 -563h-135v800h141l95 -399l94 399h137v-800h-135l17 555l-67 -333h-95z" />
    <glyph glyph-name="Nu" unicode="&#x39d;" 
d="M342 0l-146 595v-595h-130v800h165l158 -603v603h131v-800h-178z" />
    <glyph glyph-name="Xi" unicode="&#x39e;" 
d="M67 684v116h452v-116h-452zM85 372v117h415v-117h-415zM67 0v116h452v-116h-452z" />
    <glyph glyph-name="Omicron" unicode="&#x39f;" 
d="M293 -10c-72.667 0 -128.5 23.667 -167.5 71s-58.5 113 -58.5 197v280c0 85.333 19.667 152 59 200s95 72 167 72c72.667 0 128.5 -24 167.5 -72s58.5 -114.667 58.5 -200v-280c0 -84 -19.5 -149.667 -58.5 -197s-94.833 -71 -167.5 -71zM293 106
c28 0 47.167 11.333 57.5 34s15.5 65 15.5 127v262c0 64 -5.16699 107.5 -15.5 130.5s-29.5 34.5 -57.5 34.5s-47.167 -11.5 -57.5 -34.5s-15.5 -66.5 -15.5 -130.5v-262c0 -62 5.16699 -104.333 15.5 -127s29.5 -34 57.5 -34z" />
    <glyph glyph-name="Pi" unicode="&#x3a0;" 
d="M66 0v800h454v-800h-154v684h-146v-684h-154z" />
    <glyph glyph-name="Rho" unicode="&#x3a1;" 
d="M66 0v800h235c70.667 0 124.667 -17.333 162 -52s56 -87.667 56 -159v-121c0 -71.333 -18.167 -123.333 -54.5 -156s-90.5 -49 -162.5 -49h-82v-263h-154zM220 377h72c26 0 45 7.66699 57 23s18 42.333 18 81v97c0 39.333 -6 66.833 -18 82.5s-31 23.5 -57 23.5h-72v-307
z" />
    <glyph glyph-name="Sigma" unicode="&#x3a3;" 
d="M495 0h-412v116l220 294l-220 274v116h412v-116h-259l169 -220v-96l-178 -252h268v-116z" />
    <glyph glyph-name="Tau" unicode="&#x3a4;" 
d="M216 0v684h-169v116h492v-116h-169v-684h-154z" />
    <glyph glyph-name="Upsilon" unicode="&#x3a5;" 
d="M370 0h-154v300l-185 500h152l109 -339l110 339h152l-184 -500v-300z" />
    <glyph glyph-name="Phi" unicode="&#x3a6;" 
d="M362 90h-9v-100h-121v100h-9c-56.667 0 -99.667 21 -129 63s-44 98.667 -44 170v150c0 72.667 14.667 130.334 44 173.001s72.333 64 129 64h9v100h121v-100h9c56.667 0 99.667 -21.333 129 -64s44 -100.334 44 -173.001v-150c0 -71.333 -14.667 -128 -44 -170
s-72.333 -63 -129 -63zM362 598h-13v-396h13c16.667 0 29 10.5 37 31.5s12 50.833 12 89.5v150c0 39.333 -4 70 -12 92s-20.333 33 -37 33zM223 202h12v396h-12c-16.667 0 -29 -11 -37 -33s-12 -52.667 -12 -92v-150c0 -38.667 4 -68.5 12 -89.5s20.333 -31.5 37 -31.5z" />
    <glyph glyph-name="Chi" unicode="&#x3a7;" 
d="M387 0l-98 238l-95 -238h-146l174 413l-155 387h156l84 -208l84 208h146l-163 -386l161 -414h-148z" />
    <glyph glyph-name="Psi" unicode="&#x3a8;" 
d="M354 0h-122.001v192c-60 10.667 -104.167 38.667 -132.5 84s-42.5 103.666 -42.5 174.999v349h124v-343c0 -42 3.83301 -75.333 11.5 -100s21.167 -40.667 40.5 -48v491h120v-491c18.667 7.33301 32 23.333 40 48s12 58 12 100v343h123v-349
c0 -71.333 -14.167 -129.666 -42.5 -174.999s-72.166 -73.333 -131.499 -84v-192z" />
    <glyph glyph-name="Omega" unicode="&#x3a9;" 
d="M271 0h-211.999v103h82v93c-30.667 19.333 -52 47 -64 83s-18 78 -18 126v124c0 91.333 20 161 60 209s98 72 174 72c75.333 0 133 -24 173 -72s60 -117.667 60 -209v-124c0 -48 -5.83301 -90 -17.5 -126s-32.834 -63.667 -63.501 -83v-93h81v-103h-212v230
c22.667 8.66699 38.167 28.167 46.5 58.5s12.5 69.166 12.5 116.499v124c0 59.333 -6 100.5 -18 123.5s-32.667 34.5 -62 34.5c-30 0 -51 -11.5 -63 -34.5s-18 -64.167 -18 -123.5v-124c0 -47.333 4.16699 -86.166 12.5 -116.499s23.833 -49.833 46.5 -58.5v-230z" />
    <glyph glyph-name="Iotadieresis" unicode="&#x3aa;" 
d="M66 0v116h150v568h-150v116h454v-116h-150v-568h150v-116h-454zM195 901c-22 0 -39.833 4.66699 -53.5 14s-20.5 26.333 -20.5 51v11c0 24.667 6.83301 42.167 20.5 52.5s31.5 15.5 53.5 15.5c22.667 0 40.667 -5.16699 54 -15.5s20 -27.833 20 -52.5v-11
c0 -24.667 -7 -41.667 -21 -51s-31.667 -14 -53 -14zM391 901c-22 0 -39.833 4.66699 -53.5 14s-20.5 26.333 -20.5 51v11c0 24.667 6.83301 42.167 20.5 52.5s31.5 15.5 53.5 15.5c22.667 0 40.667 -5.16699 54 -15.5s20 -27.833 20 -52.5v-11
c0 -24.667 -7 -41.667 -21 -51s-31.667 -14 -53 -14z" />
    <glyph glyph-name="Upsilondieresis" unicode="&#x3ab;" 
d="M370 0h-154v300l-185 500h152l109 -339l110 339h152l-184 -500v-300zM195 901c-22 0 -39.833 4.66699 -53.5 14s-20.5 26.333 -20.5 51v11c0 24.667 6.83301 42.167 20.5 52.5s31.5 15.5 53.5 15.5c22.667 0 40.667 -5.16699 54 -15.5s20 -27.833 20 -52.5v-11
c0 -24.667 -7 -41.667 -21 -51s-31.667 -14 -53 -14zM391 901c-22 0 -39.833 4.66699 -53.5 14s-20.5 26.333 -20.5 51v11c0 24.667 6.83301 42.167 20.5 52.5s31.5 15.5 53.5 15.5c22.667 0 40.667 -5.16699 54 -15.5s20 -27.833 20 -52.5v-11
c0 -24.667 -7 -41.667 -21 -51s-31.667 -14 -53 -14z" />
    <glyph glyph-name="alphatonos" unicode="&#x3ac;" 
d="M266 110c13.333 0 25 3.66699 35 11s19 19.333 27 36v288c-8.66699 16 -18 27.833 -28 35.5s-21.333 11.5 -34 11.5s-22.334 -6.5 -29.001 -19.5s-10 -34.833 -10 -65.5v-215c0 -28.667 3.33301 -49.5 10 -62.5s16.334 -19.5 29.001 -19.5zM382 100l-22.998 -0.00292969
c-14 -34.667 -34.333 -61.5 -61 -80.5s-56.334 -28.5 -89.001 -28.5c-42 0 -75 15.833 -99 47.5s-36 76.167 -36 133.5v248c0 60 11 106.833 33 140.5s52 50.5 90 50.5c26.667 0 49.667 -7.16699 69 -21.5s32.666 -34.166 39.999 -59.499h22v70h153v-432
c0 -28 4.33301 -45.667 13 -53s21.667 -8.66602 39 -3.99902v-110c-44 -9.33301 -78.667 -5.66602 -104 11.001s-41 46 -47 88zM240.002 699.997l33 200h184l-125 -200h-92z" />
    <glyph glyph-name="epsilontonos" unicode="&#x3ad;" 
d="M303 -10c-75.333 0 -132.334 14.501 -171.001 43.501s-58 71.833 -58 128.5v14c0 32.667 9.83301 61.167 29.5 85.5s48.834 38.166 87.501 41.499v22c-32 2.66699 -57.167 13.167 -75.5 31.5s-27.5 43.833 -27.5 76.5v18c0 52.667 18 92.334 54 119.001s89.667 40 161 40
c66.667 0 117 -14.667 151 -44s53.333 -77.666 58 -144.999l-138 -8c-2.66699 36 -9.16699 61.167 -19.5 75.5s-27.5 21.5 -51.5 21.5c-22.667 0 -38.667 -5.33301 -48 -16s-14 -28.334 -14 -53.001v-14c0 -25.333 4.83301 -42.5 14.5 -51.5s25.834 -13.5 48.501 -13.5h42
v-89h-42c-31.333 0 -51.833 -6.66699 -61.5 -20s-14.5 -34 -14.5 -62v-10c0 -30.667 5.66699 -52.667 17 -66s30.666 -20 57.999 -20s47.5 7.66699 60.5 23s21.167 42 24.5 80l137 -7c-4.66699 -68.667 -22 -119.334 -52 -152.001s-86.667 -49 -170 -49zM237.999 700.001
l33 200h184l-125 -200h-92z" />
    <glyph glyph-name="etatonos" unicode="&#x3ae;" 
d="M358 -200v609.001c0 26.667 -4.33301 47 -13 61s-21 21 -37 21c-16.667 0 -32 -5.83301 -46 -17.5s-25.667 -28.5 -35 -50.5v-423h-153v600h153v-84h23c10.667 29.333 27.667 52.333 51 69s50 25 80 25c40.667 0 72.5 -15.333 95.5 -46s34.5 -73.334 34.5 -128.001v-636
h-153zM235 700.001l33 200h184l-125 -200h-92z" />
    <glyph glyph-name="iotatonos" unicode="&#x3af;" 
d="M393 -6c-58 0 -104.5 17.832 -139.5 53.499s-52.5 83.5 -52.5 143.5v297h-119v112h272v-393c0 -32.667 6 -57 18 -73s28.333 -24 49 -24c15.333 0 29 1.83301 41 5.5s23 8.5 33 14.5l23 -109c-22.667 -9.33301 -44.5 -16.166 -65.5 -20.499s-40.833 -6.5 -59.5 -6.5z
M225 699.999l33 200h184l-125 -200h-92z" />
    <glyph glyph-name="upsilondieresistonos" unicode="&#x3b0;" 
d="M294 -10c-68.667 0 -122.501 18.5 -161.501 55.5s-58.5 87.833 -58.5 152.5v402h153v-401c0 -32 4.83301 -55.5 14.5 -70.5s26.834 -22.5 51.501 -22.5s41.667 7.5 51 22.5s14 37.833 14 68.5v403h153v-402c0 -64.667 -19.333 -115.5 -58 -152.5
s-91.667 -55.5 -159 -55.5zM225.999 700l34 200h129l-79 -200h-84zM121.999 696c-19.333 0 -35.333 4.66699 -48 14s-19 26.333 -19 51v11c0 24.667 6.33301 42 19 52s28.667 15 48 15c20.667 0 37 -5 49 -15s18 -27.333 18 -52v-11c0 -24.667 -6.33301 -41.667 -19 -51
s-28.667 -14 -48 -14zM463.999 696c-20 0 -36.167 4.66699 -48.5 14s-18.5 26.333 -18.5 51v11c0 24.667 6.16699 42 18.5 52s28.5 15 48.5 15s36.167 -5 48.5 -15s18.5 -27.333 18.5 -52v-11c0 -24.667 -6.5 -41.667 -19.5 -51s-28.833 -14 -47.5 -14z" />
    <glyph glyph-name="alpha" unicode="&#x3b1;" 
d="M266 110c13.333 0 25 3.66699 35 11s19 19.333 27 36v288c-8.66699 16 -18 27.833 -28 35.5s-21.333 11.5 -34 11.5s-22.334 -6.5 -29.001 -19.5s-10 -34.833 -10 -65.5v-215c0 -28.667 3.33301 -49.5 10 -62.5s16.334 -19.5 29.001 -19.5zM382 100l-22.998 -0.00292969
c-14 -34.667 -34.333 -61.5 -61 -80.5s-56.334 -28.5 -89.001 -28.5c-42 0 -75 15.833 -99 47.5s-36 76.167 -36 133.5v248c0 60 11 106.833 33 140.5s52 50.5 90 50.5c26.667 0 49.667 -7.16699 69 -21.5s32.666 -34.166 39.999 -59.499h22v70h153v-432
c0 -28 4.33301 -45.667 13 -53s21.667 -8.66602 39 -3.99902v-110c-44 -9.33301 -78.667 -5.66602 -104 11.001s-41 46 -47 88z" />
    <glyph glyph-name="beta" unicode="&#x3b2;" 
d="M293 104c18 0 33.165 8.33301 45.498 25s18.5 45.667 18.5 87v61c0 37.333 -5.66699 63.5 -17 78.5s-29.666 22.5 -54.999 22.5h-34v96h30c18.667 0 32.5 6.16699 41.5 18.5s13.5 32.833 13.5 61.5v60c0 28.667 -4.16699 49.167 -12.5 61.5s-22.5 18.5 -42.5 18.5
c-19.333 0 -33.166 -7 -41.499 -21s-12.5 -38 -12.5 -72v-467c9.33301 -10 19.333 -17.5 30 -22.5s22.667 -7.5 36 -7.5zM325.998 -10c-18 0 -35.334 2.16895 -52.001 6.50195s-32.334 10.166 -47.001 17.499v-214h-153v793c0 69.333 17.833 122.833 53.5 160.5
s86.834 56.5 153.501 56.5c60.667 0 110.167 -15.333 148.5 -46s57.5 -74 57.5 -130v-50c0 -34.667 -9.16699 -63.834 -27.5 -87.501s-49.166 -39.834 -92.499 -48.501v-29c48 -5.33301 84 -20.666 108 -45.999s36 -59.333 36 -102v-70c0 -64.667 -16.833 -116 -50.5 -154
s-78.5 -57 -134.5 -57z" />
    <glyph glyph-name="gamma" unicode="&#x3b3;" 
d="M385 -200h-184l15 220l-169 580h152l93 -410l93 410h153l-168 -580z" />
    <glyph glyph-name="delta" unicode="&#x3b4;" 
d="M293 -10c-66 0 -119.169 17.168 -159.502 51.501s-60.5 87.166 -60.5 158.499v110c0 40.667 9.66699 75 29 103s48 51 86 69c-32.667 16.667 -56.167 36.167 -70.5 58.5s-21.5 50.833 -21.5 85.5c0 54 17.667 96.5 53 127.5s82.333 46.5 141 46.5h155v-112h-135
c-22 0 -38.5 -4.33301 -49.5 -13s-16.5 -24 -16.5 -46c0 -24.667 11.833 -43 35.5 -55s51.834 -25.333 84.501 -40c45.333 -20.667 81.333 -45.834 108 -75.501s40 -73.5 40 -131.5v-127c0 -71.333 -20.167 -124.166 -60.5 -158.499s-93.166 -51.5 -158.499 -51.5z
M292.998 102.001c22 0 38.502 7.66699 49.502 23s16.5 40.333 16.5 75v127c0 30 -7.33301 53.5 -22 70.5s-35.334 31.5 -62.001 43.5c-14.667 -10 -26.334 -24 -35.001 -42s-13 -42.333 -13 -73v-126c0 -34.667 5.5 -59.667 16.5 -75s27.5 -23 49.5 -23z" />
    <glyph glyph-name="epsilon" unicode="&#x3b5;" 
d="M303 -10c-75.333 0 -132.334 14.501 -171.001 43.501s-58 71.833 -58 128.5v14c0 32.667 9.83301 61.167 29.5 85.5s48.834 38.166 87.501 41.499v22c-32 2.66699 -57.167 13.167 -75.5 31.5s-27.5 43.833 -27.5 76.5v18c0 52.667 18 92.334 54 119.001s89.667 40 161 40
c66.667 0 117 -14.667 151 -44s53.333 -77.666 58 -144.999l-138 -8c-2.66699 36 -9.16699 61.167 -19.5 75.5s-27.5 21.5 -51.5 21.5c-22.667 0 -38.667 -5.33301 -48 -16s-14 -28.334 -14 -53.001v-14c0 -25.333 4.83301 -42.5 14.5 -51.5s25.834 -13.5 48.501 -13.5h42
v-89h-42c-31.333 0 -51.833 -6.66699 -61.5 -20s-14.5 -34 -14.5 -62v-10c0 -30.667 5.66699 -52.667 17 -66s30.666 -20 57.999 -20s47.5 7.66699 60.5 23s21.167 42 24.5 80l137 -7c-4.66699 -68.667 -22 -119.334 -52 -152.001s-86.667 -49 -170 -49z" />
    <glyph glyph-name="zeta" unicode="&#x3b6;" 
d="M329 -200l-106 -0.000976562v108h102c16.667 0 29.667 3.83301 39 11.5s14 23.834 14 48.501s-4.66699 41.334 -14 50.001s-22.333 13 -39 13h-48c-65.333 0 -115.666 16.667 -150.999 50s-53 80.666 -53 141.999c0 50 8.5 95.667 25.5 137s44.167 89.333 81.5 144
l86 126l-5 12c-55.333 -2.66699 -100.5 10.666 -135.5 39.999s-60.833 68.333 -77.5 117l89 41c20 -53.333 47.167 -86.166 81.5 -98.499s81.833 -11.166 142.5 3.50098l138 81l32 -140l-158 -42l-87 -178c-20 -46 -34.833 -84.5 -44.5 -115.5s-14.5 -60.5 -14.5 -88.5
c0 -42.667 6.16699 -73.834 18.5 -93.501s32.166 -29.5 59.499 -29.5h71c42 0 75.167 -13.5 99.5 -40.5s36.5 -69.167 36.5 -126.5c0 -56.667 -16.5 -99.5 -49.5 -128.5s-77.5 -43.5 -133.5 -43.5z" />
    <glyph glyph-name="eta" unicode="&#x3b7;" 
d="M358 -200v609.001c0 26.667 -4.33301 47 -13 61s-21 21 -37 21c-16.667 0 -32 -5.83301 -46 -17.5s-25.667 -28.5 -35 -50.5v-423h-153v600h153v-84h23c10.667 29.333 27.667 52.333 51 69s50 25 80 25c40.667 0 72.5 -15.333 95.5 -46s34.5 -73.334 34.5 -128.001v-636
h-153z" />
    <glyph glyph-name="theta" unicode="&#x3b8;" 
d="M293 -10c-68.667 0 -122.334 20 -161.001 60s-58 95.667 -58 167v362c0 72.667 19.333 129.334 58 170.001s92.334 61 161.001 61s122.167 -20.333 160.5 -61s57.5 -97.334 57.5 -170.001v-362c0 -71.333 -19.167 -127 -57.5 -167s-91.833 -60 -160.5 -60zM220 576v-119
h146v120c0 40 -5.16699 70.167 -15.5 90.5s-29.5 30.5 -57.5 30.5s-47.167 -10.167 -57.5 -30.5s-15.5 -50.833 -15.5 -91.5zM293 102c28 0 47.167 9.5 57.5 28.5s15.5 50.167 15.5 93.5v130h-146v-130c0 -43.333 5.16699 -74.5 15.5 -93.5s29.5 -28.5 57.5 -28.5z" />
    <glyph glyph-name="iota" unicode="&#x3b9;" 
d="M393 -6c-58 0 -104.5 17.832 -139.5 53.499s-52.5 83.5 -52.5 143.5v297h-119v112h272v-393c0 -32.667 6 -57 18 -73s28.333 -24 49 -24c15.333 0 29 1.83301 41 5.5s23 8.5 33 14.5l23 -109c-22.667 -9.33301 -44.5 -16.166 -65.5 -20.499s-40.833 -6.5 -59.5 -6.5z" />
    <glyph glyph-name="kappa" unicode="&#x3ba;" 
d="M234 260v-260h-154v600h154v-235h27l113 235h157l-146 -275l144 -325h-163l-105 260h-27z" />
    <glyph glyph-name="lambda" unicode="&#x3bb;" 
d="M385 0l-96.999 494l-90 -494h-151l105 560h123l-4 22c-8.66699 42 -21 71.333 -37 88s-40.333 25 -73 25c-10 0 -21.167 -0.833008 -33.5 -2.5s-25.833 -3.83398 -40.5 -6.50098l-15 111c18.667 2.66699 36.667 4.83398 54 6.50098s33.666 2.5 48.999 2.5
c63.333 0 112.833 -14.167 148.5 -42.5s60.167 -72.5 73.5 -132.5l141 -631h-153z" />
    <glyph glyph-name="mu" unicode="&#x3bc;" 
d="M235 20l7 -219.998h-168l8 220v580h153v-405c0 -30 4 -51.5 12 -64.5s17.667 -19.5 29 -19.5c12.667 0 23.834 4 33.501 12s18.5 20 26.5 36v441h154v-432c0 -28.667 3.33301 -46.5 10 -53.5s17.667 -8.16699 33 -3.5v-110c-37.333 -9.33301 -66.833 -7.83301 -88.5 4.5
s-36.5 36.166 -44.5 71.499h-23c-10.667 -28.667 -23 -49.834 -37 -63.501s-30.333 -20.5 -49 -20.5c-10.667 0 -20.834 2.83301 -30.501 8.5s-18.167 14.167 -25.5 25.5v-7z" />
    <glyph glyph-name="nu" unicode="&#x3bd;" 
d="M371 0h-156.999l-167 600h153l109 -450c22.667 74.667 40.167 151.334 52.5 230.001s20.5 152 24.5 220h152c-8.66699 -112.667 -28.334 -219.334 -59.001 -320.001s-66.667 -194 -108 -280z" />
    <glyph glyph-name="xi" unicode="&#x3be;" 
d="M511 -28c0 -56.667 -17 -99.5 -51 -128.5s-80 -43.5 -138 -43.5h-91v108h86c18 0 32.5 3.83301 43.5 11.5s16.5 23.834 16.5 48.501s-5.5 41.334 -16.5 50.001s-25.5 13 -43.5 13h-55c-55.333 0 -99.166 16.667 -131.499 50s-48.5 78.333 -48.5 135v22c0 40 11 75 33 105
s55 47.333 99 52v23c-28.667 0 -50.334 9.83301 -65.001 29.5s-22 43.5 -22 71.5c0 23.333 7.16699 45 21.5 65s37.833 34.333 70.5 43v23c-46 0.666992 -84.333 13.5 -115 38.5s-55 61.833 -73 110.5l74 41c26.667 -46 54.667 -75.333 84 -88s73 -13.667 131 -3l159 77
l18 -140l-166 -41l-18 -22c-12 -14.667 -20.5 -30.334 -25.5 -47.001s-7.5 -33.334 -7.5 -50.001c0 -24.667 4.66699 -42 14 -52s21.333 -15 36 -15h114v-108h-121c-30.667 0 -53 -9.33301 -67 -28s-21 -42 -21 -70v-22c0 -27.333 5.83301 -49.5 17.5 -66.5
s30.5 -25.5 56.5 -25.5h30c54 0 96.167 -13.5 126.5 -40.5s45.5 -69.167 45.5 -126.5z" />
    <glyph glyph-name="omicron" unicode="&#x3bf;" 
d="M294 -10c-68 0 -121.5 18.5 -160.5 55.5s-58.5 87.5 -58.5 151.5v202c0 66 19.5 117.667 58.5 155s92.5 56 160.5 56c67.333 0 120.5 -19 159.5 -57s58.5 -90 58.5 -156v-202c0 -64 -19.5 -114.167 -58.5 -150.5s-92.167 -54.5 -159.5 -54.5zM294 102
c22.667 0 39.167 7.50098 49.5 22.501s15.5 40.5 15.5 76.5v194c0 36.667 -5.16699 63 -15.5 79s-26.833 24 -49.5 24s-39.334 -8 -50.001 -24s-16 -42 -16 -78v-192c0 -36.667 5.33301 -62.834 16 -78.501s27.334 -23.5 50.001 -23.5z" />
    <glyph glyph-name="pi" unicode="&#x3c0;" 
d="M519 600v-112h-59v-306c0 -32 5.5 -53.167 16.5 -63.5s30.167 -12.833 57.5 -7.5v-110c-69.333 -12.667 -122 -6.66699 -158 18s-54 67 -54 127v342h-96v-488h-138v488h-51v112h482z" />
    <glyph glyph-name="rho" unicode="&#x3c1;" 
d="M307 110c16.667 0 29.334 7.66699 38.001 23s13 40.666 13 75.999v191c0 34 -5.66699 58.667 -17 74s-27.333 23 -48 23s-36.834 -7.66699 -48.501 -23s-17.5 -40 -17.5 -74v-230c11.333 -21.333 24 -36.666 38 -45.999s28 -14 42 -14zM74 -200v600
c0 66.667 18.833 118 56.5 154s91.167 54 160.5 54c70 0 124.167 -18 162.5 -54s57.5 -87.333 57.5 -154v-210c0 -59.333 -12.5 -107.5 -37.5 -144.5s-62.167 -55.5 -111.5 -55.5c-31.333 0 -56.833 8.5 -76.5 25.5s-31.5 39.833 -35.5 68.5h-23v-284h-153z" />
    <glyph glyph-name="sigma1" unicode="&#x3c2;" 
d="M215 -200l0.000976562 112h103c16 0 28.5 3.83301 37.5 11.5s13.5 23.167 13.5 46.5c0 24.667 -4.5 41 -13.5 49s-21.5 12 -37.5 12h-66c-58 0 -102.167 18.833 -132.5 56.5s-45.5 91.167 -45.5 160.5v149c0 68 18.833 120.5 56.5 157.5s92.5 55.5 164.5 55.5
c65.333 0 114.5 -17.667 147.5 -53s53.833 -91 62.5 -167l-148 -11c-2.66699 46 -8.5 77.167 -17.5 93.5s-25.5 24.5 -49.5 24.5c-24.667 0 -41.334 -7.83301 -50.001 -23.5s-13 -42.167 -13 -79.5v-147c0 -37.333 5.5 -63.833 16.5 -79.5s31.833 -23.5 62.5 -23.5h57
c46.667 0 83 -13.5 109 -40.5s39 -69.833 39 -128.5c0 -56.667 -19 -100 -57 -130s-90 -45 -156 -45h-83z" />
    <glyph glyph-name="sigma" unicode="&#x3c3;" 
d="M278 102c18.667 0 31.667 8 39 24s11 42 11 78v176c0 38 -3.66699 66.167 -11 84.5s-20.333 27.5 -39 27.5c-19.333 0 -32.666 -8.5 -39.999 -25.5s-11 -42.5 -11 -76.5v-186c0 -36 3.66699 -62 11 -78s20.666 -24 39.999 -24zM278 -10
c-62 0 -111.5 17.999 -148.5 53.999s-55.5 87 -55.5 153v196c0 64.667 18.5 115.334 55.5 152.001s86.5 55 148.5 55h277v-122l-114 12c12.667 -15.333 22.5 -33.833 29.5 -55.5s10.5 -46.5 10.5 -74.5v-163c0 -66 -18.333 -117 -55 -153s-86 -54 -148 -54z" />
    <glyph glyph-name="tau" unicode="&#x3c4;" 
d="M460 1c-79.333 -13.333 -139.832 -7.66797 -181.499 16.999s-62.5 67.334 -62.5 128.001v338h-150v116h461v-116h-157v-308c0 -28.667 6.66699 -48.167 20 -58.5s36.666 -12.5 69.999 -6.5v-110z" />
    <glyph glyph-name="upsilon" unicode="&#x3c5;" 
d="M294 -10c-68.667 0 -122.501 18.5 -161.501 55.5s-58.5 87.833 -58.5 152.5v402h153v-401c0 -32 4.83301 -55.5 14.5 -70.5s26.834 -22.5 51.501 -22.5s41.667 7.5 51 22.5s14 37.833 14 68.5v403h153v-402c0 -64.667 -19.333 -115.5 -58 -152.5
s-91.667 -55.5 -159 -55.5z" />
    <glyph glyph-name="phi" unicode="&#x3c6;" 
d="M354 -200l-109 -0.000976562v194c-62 8.66699 -108.833 36 -140.5 82s-47.5 109.667 -47.5 191v112c0 48 2.33301 91.833 7 131.5s12.334 73.834 23.001 102.501l121 -32c-8 -24.667 -14.667 -54 -20 -88s-8 -72 -8 -114v-112c0 -46 4.66699 -82.667 14 -110
s27 -45.333 53 -54v497h70c64 0 115.167 -23 153.5 -69s57.5 -111 57.5 -195v-91c0 -70.667 -15.833 -127.167 -47.5 -169.5s-73.834 -68.833 -126.501 -79.5v-196zM352 493.999v-390c26 8.66699 43.833 24.667 53.5 48s14.5 54.333 14.5 93v91
c0 54.667 -5.16699 94.667 -15.5 120s-27.833 38 -52.5 38z" />
    <glyph glyph-name="chi" unicode="&#x3c7;" 
d="M359 -200l-75 206l-77 -206h-151l159 396l-147 404h153l77 -212l81 212h151l-163 -400l147 -400h-155z" />
    <glyph glyph-name="psi" unicode="&#x3c8;" 
d="M354 -200l-123.002 -0.00195312v191c-59.333 10.667 -103.166 36.334 -131.499 77.001s-42.5 93.334 -42.5 158.001v374h124v-382c0 -34.667 4.33301 -61.667 13 -81s23.667 -31.333 45 -36v499h107v-499c21.333 4.66699 36.333 16.667 45 36s13 46.333 13 81v382h124
v-374c0 -64.667 -14.167 -117.5 -42.5 -158.5s-72.166 -66.833 -131.499 -77.5v-190z" />
    <glyph glyph-name="omega" unicode="&#x3c9;" 
d="M175 -10c-36.667 0 -65.4971 20 -86.4971 60s-31.5 98.667 -31.5 176v143c0 50.667 3.33301 99.167 10 145.5s13.667 80.5 21 102.5l121 -32c-5.33301 -18.667 -11.333 -48.167 -18 -88.5s-10 -82.833 -10 -127.5v-164c0 -32.667 2.66699 -57.334 8 -74.001
s12.333 -25 21 -25c10 0 17.333 6.66699 22 20s7 35.333 7 66v259h107v-259c0 -30.667 2.5 -52.667 7.5 -66s12.167 -20 21.5 -20c10 0 17.333 8.33301 22 25s7 41.334 7 74.001v164c0 44.667 -3.33301 87.167 -10 127.5s-12.334 69.833 -17.001 88.5l120 32
c7.33301 -22 14.333 -56.167 21 -102.5s10 -94.833 10 -145.5v-143c0 -77.333 -10.5 -136 -31.5 -176s-49.5 -60 -85.5 -60c-26.667 0 -48.834 9.16699 -66.501 27.5s-31.834 48.166 -42.501 89.499h-23c-6.66699 -41.333 -18.5 -71.166 -35.5 -89.499
s-39.833 -27.5 -68.5 -27.5z" />
    <glyph glyph-name="iotadieresis" unicode="&#x3ca;" 
d="M393 -6c-58 0 -104.5 17.832 -139.5 53.499s-52.5 83.5 -52.5 143.5v297h-119v112h272v-393c0 -32.667 6 -57 18 -73s28.333 -24 49 -24c15.333 0 29 1.83301 41 5.5s23 8.5 33 14.5l23 -109c-22.667 -9.33301 -44.5 -16.166 -65.5 -20.499s-40.833 -6.5 -59.5 -6.5z
M191 700.999c-22 0 -39.833 4.66699 -53.5 14s-20.5 26.333 -20.5 51v11c0 24.667 6.83301 42.167 20.5 52.5s31.5 15.5 53.5 15.5c22.667 0 40.667 -5.16699 54 -15.5s20 -27.833 20 -52.5v-11c0 -24.667 -7 -41.667 -21 -51s-31.667 -14 -53 -14zM387 700.999
c-22 0 -39.833 4.66699 -53.5 14s-20.5 26.333 -20.5 51v11c0 24.667 6.83301 42.167 20.5 52.5s31.5 15.5 53.5 15.5c22.667 0 40.667 -5.16699 54 -15.5s20 -27.833 20 -52.5v-11c0 -24.667 -7 -41.667 -21 -51s-31.667 -14 -53 -14z" />
    <glyph glyph-name="upsilondieresis" unicode="&#x3cb;" 
d="M294 -10c-68.667 0 -122.501 18.5 -161.501 55.5s-58.5 87.833 -58.5 152.5v402h153v-401c0 -32 4.83301 -55.5 14.5 -70.5s26.834 -22.5 51.501 -22.5s41.667 7.5 51 22.5s14 37.833 14 68.5v403h153v-402c0 -64.667 -19.333 -115.5 -58 -152.5
s-91.667 -55.5 -159 -55.5zM194.999 701c-22 0 -39.833 4.66699 -53.5 14s-20.5 26.333 -20.5 51v11c0 24.667 6.83301 42.167 20.5 52.5s31.5 15.5 53.5 15.5c22.667 0 40.667 -5.16699 54 -15.5s20 -27.833 20 -52.5v-11c0 -24.667 -7 -41.667 -21 -51
s-31.667 -14 -53 -14zM390.999 701c-22 0 -39.833 4.66699 -53.5 14s-20.5 26.333 -20.5 51v11c0 24.667 6.83301 42.167 20.5 52.5s31.5 15.5 53.5 15.5c22.667 0 40.667 -5.16699 54 -15.5s20 -27.833 20 -52.5v-11c0 -24.667 -7 -41.667 -21 -51s-31.667 -14 -53 -14z
" />
    <glyph glyph-name="omicrontonos" unicode="&#x3cc;" 
d="M294 -10c-68 0 -121.5 18.5 -160.5 55.5s-58.5 87.5 -58.5 151.5v202c0 66 19.5 117.667 58.5 155s92.5 56 160.5 56c67.333 0 120.5 -19 159.5 -57s58.5 -90 58.5 -156v-202c0 -64 -19.5 -114.167 -58.5 -150.5s-92.167 -54.5 -159.5 -54.5zM294 102
c22.667 0 39.167 7.50098 49.5 22.501s15.5 40.5 15.5 76.5v194c0 36.667 -5.16699 63 -15.5 79s-26.833 24 -49.5 24s-39.334 -8 -50.001 -24s-16 -42 -16 -78v-192c0 -36.667 5.33301 -62.834 16 -78.501s27.334 -23.5 50.001 -23.5zM222 700.001l33 200h184l-125 -200
h-92z" />
    <glyph glyph-name="upsilontonos" unicode="&#x3cd;" 
d="M294 -10c-68.667 0 -122.501 18.5 -161.501 55.5s-58.5 87.833 -58.5 152.5v402h153v-401c0 -32 4.83301 -55.5 14.5 -70.5s26.834 -22.5 51.501 -22.5s41.667 7.5 51 22.5s14 37.833 14 68.5v403h153v-402c0 -64.667 -19.333 -115.5 -58 -152.5
s-91.667 -55.5 -159 -55.5zM213.999 700l33 200h184l-125 -200h-92z" />
    <glyph glyph-name="omegatonos" unicode="&#x3ce;" 
d="M175 -10c-36.667 0 -65.4971 20 -86.4971 60s-31.5 98.667 -31.5 176v143c0 50.667 3.33301 99.167 10 145.5s13.667 80.5 21 102.5l121 -32c-5.33301 -18.667 -11.333 -48.167 -18 -88.5s-10 -82.833 -10 -127.5v-164c0 -32.667 2.66699 -57.334 8 -74.001
s12.333 -25 21 -25c10 0 17.333 6.66699 22 20s7 35.333 7 66v259h107v-259c0 -30.667 2.5 -52.667 7.5 -66s12.167 -20 21.5 -20c10 0 17.333 8.33301 22 25s7 41.334 7 74.001v164c0 44.667 -3.33301 87.167 -10 127.5s-12.334 69.833 -17.001 88.5l120 32
c7.33301 -22 14.333 -56.167 21 -102.5s10 -94.833 10 -145.5v-143c0 -77.333 -10.5 -136 -31.5 -176s-49.5 -60 -85.5 -60c-26.667 0 -48.834 9.16699 -66.501 27.5s-31.834 48.166 -42.501 89.499h-23c-6.66699 -41.333 -18.5 -71.166 -35.5 -89.499
s-39.833 -27.5 -68.5 -27.5zM225.003 700l33 200h184l-125 -200h-92z" />
    <glyph glyph-name="IEgravecyrillic" unicode="&#x400;" 
d="M66 0v800h453v-116h-299v-195h261v-117h-261v-256h299v-116h-453zM261 900l-170 200h191l79 -200h-100z" />
    <glyph glyph-name="Iocyrillic" unicode="&#x401;" 
d="M66 0v800h453v-116h-299v-195h261v-117h-261v-256h299v-116h-453zM201 901c-22 0 -39.833 4.66699 -53.5 14s-20.5 26.333 -20.5 51v11c0 24.667 6.83301 42.167 20.5 52.5s31.5 15.5 53.5 15.5c22.667 0 40.667 -5.16699 54 -15.5s20 -27.833 20 -52.5v-11
c0 -24.667 -7 -41.667 -21 -51s-31.667 -14 -53 -14zM397 901c-22 0 -39.833 4.66699 -53.5 14s-20.5 26.333 -20.5 51v11c0 24.667 6.83301 42.167 20.5 52.5s31.5 15.5 53.5 15.5c22.667 0 40.667 -5.16699 54 -15.5s20 -27.833 20 -52.5v-11
c0 -24.667 -7 -41.667 -21 -51s-31.667 -14 -53 -14z" />
    <glyph glyph-name="Djecyrillic" unicode="&#x402;" 
d="M118 0v684.001h-81v116h344v-116h-110v-164h51c66 0 116.5 -19.167 151.5 -57.5s52.5 -93.833 52.5 -166.5v-73c0 -72.667 -17.5 -128 -52.5 -166s-85.5 -57 -151.5 -57v114c19.333 0 34 8.16699 44 24.5s15 45.166 15 86.499v69c0 41.333 -5 70.333 -15 87
s-24.667 25 -44 25h-51v-406h-153z" />
    <glyph glyph-name="Gjecyrillic" unicode="&#x403;" 
d="M105 0v800h430v-116h-277v-684h-153zM218 900l78 200h191l-170 -200h-99z" />
    </font>
</defs>
</svg>
